<svg width="208" height="261" viewBox="0 0 208 261" fill="none" xmlns="http://www.w3.org/2000/svg">
<g filter="url(#filter0_d_12_54)">
<path d="M4 200H61.1428V112.565L4 200Z" fill="#070150"/>
<path fill-rule="evenodd" clip-rule="evenodd" d="M4 200V2C4 0.895429 4.89543 0 6 0H59.1428C60.2474 0 61.1428 0.895431 61.1428 2V112.565L4 200ZM146.857 0L61.1428 112.565V200L146.857 91.0251V198C146.857 199.105 147.753 200 148.857 200H202C203.105 200 204 199.105 204 198V0L146.857 91.0251V45.5125V0Z" fill="url(#paint0_linear_12_54)"/>
<path d="M204 0H146.857V45.5125V91.0251L204 0Z" fill="#070150"/>
</g>
<g filter="url(#filter1_d_12_54)">
<path d="M4 204.616H114.923C118.237 204.616 120.923 207.302 120.923 210.616V246.308C120.923 249.622 118.237 252.308 114.923 252.308H10C6.68629 252.308 4 249.622 4 246.308V204.616Z" fill="url(#paint1_linear_12_54)"/>
</g>
<g filter="url(#filter2_d_12_54)">
<path d="M18.707 215.693H23.7286V237.293H36.6516V241.54H18.707V215.693Z" fill="white"/>
<path d="M46.6411 215.693H51.2195L60.6718 241.54H55.5765L53.4718 235.816H44.3888L42.2841 241.54H37.1888L46.6411 215.693ZM52.3641 231.681L48.9303 221.86H48.8565L45.5334 231.681H52.3641Z" fill="white"/>
<path d="M63.2743 215.693H79.4836L83.1759 219.386V226.623L81.699 228.136L84.3205 230.795V237.552L80.3328 241.54H63.2743V215.693ZM76.8989 226.512L78.2282 225.183V221.195L76.9359 219.903H68.1851V226.512H76.8989ZM77.7851 237.33L79.3728 235.743V232.124L77.7851 230.536H68.1851V237.33H77.7851Z" fill="white"/>
<path d="M87.6407 237.293V219.94L91.8868 215.693H105.179L109.425 219.94V237.293L105.179 241.54H91.8868L87.6407 237.293ZM102.521 237.256L104.404 235.373V221.86L102.521 219.976H94.5453L92.6622 221.86V235.373L94.5453 237.256H102.521Z" fill="white"/>
<path d="M18.707 214.693L17.707 215.693V241.54L18.707 242.54H36.6516L36.9678 242.223L37.1888 242.54H42.2841L43.2227 241.885L45.0865 236.816H52.7741L54.6379 241.885L55.5765 242.54H60.6718L61.611 241.196L52.1587 215.35L51.2195 214.693H46.6411L45.7019 215.35L37.6516 237.362V237.293L36.6516 236.293H24.7286V215.693L23.7286 214.693H18.707ZM63.2743 214.693L62.2743 215.693V241.54L63.2743 242.54H80.3328L81.0399 242.247L85.0276 238.259L85.3205 237.552V230.795L85.0325 230.093L83.0997 228.133L83.8917 227.321L84.1759 226.623V219.386L83.883 218.679L80.1907 214.986L79.4836 214.693H63.2743ZM86.6407 237.293L86.9336 238L91.1797 242.247L91.8868 242.54H105.179L105.886 242.247L110.132 238L110.425 237.293V219.94L110.132 219.232L105.886 214.986L105.179 214.693H91.8868L91.1797 214.986L86.9336 219.232L86.6407 219.94V237.293ZM46.9274 230.681L48.9083 224.827L50.9552 230.681H46.9274ZM77.2282 221.609V224.768L76.4847 225.512H69.1851V220.903H76.5217L77.2282 221.609ZM78.3728 235.328L77.3709 236.33H69.1851V231.536H77.3709L78.3728 232.538V235.328ZM103.404 234.959L102.106 236.256H94.9595L93.6622 234.959V222.274L94.9595 220.976H102.106L103.404 222.274V234.959Z" stroke="#030025" stroke-width="2" stroke-linejoin="bevel"/>
</g>
<defs>
<filter id="filter0_d_12_54" x="0" y="0" width="208" height="208" filterUnits="userSpaceOnUse" color-interpolation-filters="sRGB">
<feFlood flood-opacity="0" result="BackgroundImageFix"/>
<feColorMatrix in="SourceAlpha" type="matrix" values="0 0 0 0 0 0 0 0 0 0 0 0 0 0 0 0 0 0 127 0" result="hardAlpha"/>
<feOffset dy="4"/>
<feGaussianBlur stdDeviation="2"/>
<feComposite in2="hardAlpha" operator="out"/>
<feColorMatrix type="matrix" values="0 0 0 0 0 0 0 0 0 0 0 0 0 0 0 0 0 0 0.25 0"/>
<feBlend mode="normal" in2="BackgroundImageFix" result="effect1_dropShadow_12_54"/>
<feBlend mode="normal" in="SourceGraphic" in2="effect1_dropShadow_12_54" result="shape"/>
</filter>
<filter id="filter1_d_12_54" x="0" y="204.616" width="124.923" height="55.6924" filterUnits="userSpaceOnUse" color-interpolation-filters="sRGB">
<feFlood flood-opacity="0" result="BackgroundImageFix"/>
<feColorMatrix in="SourceAlpha" type="matrix" values="0 0 0 0 0 0 0 0 0 0 0 0 0 0 0 0 0 0 127 0" result="hardAlpha"/>
<feOffset dy="4"/>
<feGaussianBlur stdDeviation="2"/>
<feComposite in2="hardAlpha" operator="out"/>
<feColorMatrix type="matrix" values="0 0 0 0 0 0 0 0 0 0 0 0 0 0 0 0 0 0 0.25 0"/>
<feBlend mode="normal" in2="BackgroundImageFix" result="effect1_dropShadow_12_54"/>
<feBlend mode="normal" in="SourceGraphic" in2="effect1_dropShadow_12_54" result="shape"/>
</filter>
<filter id="filter2_d_12_54" x="12.707" y="213.693" width="102.718" height="37.8462" filterUnits="userSpaceOnUse" color-interpolation-filters="sRGB">
<feFlood flood-opacity="0" result="BackgroundImageFix"/>
<feColorMatrix in="SourceAlpha" type="matrix" values="0 0 0 0 0 0 0 0 0 0 0 0 0 0 0 0 0 0 127 0" result="hardAlpha"/>
<feOffset dy="4"/>
<feGaussianBlur stdDeviation="2"/>
<feComposite in2="hardAlpha" operator="out"/>
<feColorMatrix type="matrix" values="0 0 0 0 0 0 0 0 0 0 0 0 0 0 0 0 0 0 0.25 0"/>
<feBlend mode="normal" in2="BackgroundImageFix" result="effect1_dropShadow_12_54"/>
<feBlend mode="normal" in="SourceGraphic" in2="effect1_dropShadow_12_54" result="shape"/>
</filter>
<linearGradient id="paint0_linear_12_54" x1="180.667" y1="2.88751e-06" x2="60.6667" y2="153.333" gradientUnits="userSpaceOnUse">
<stop stop-color="#0B008A"/>
<stop offset="1" stop-color="#18144D"/>
</linearGradient>
<linearGradient id="paint1_linear_12_54" x1="4" y1="208.462" x2="113.231" y2="252.308" gradientUnits="userSpaceOnUse">
<stop stop-color="#1F177A"/>
<stop offset="1" stop-color="#070150"/>
</linearGradient>
</defs>
</svg>
