<svg width="616" height="362" viewBox="0 0 616 362" fill="none" xmlns="http://www.w3.org/2000/svg">
<g filter="url(#filter0_d_12_46)">
<path d="M208 200H265.143V112.565L208 200Z" fill="#070150"/>
<path fill-rule="evenodd" clip-rule="evenodd" d="M208 200V2C208 0.895429 208.895 0 210 0H263.143C264.247 0 265.143 0.895431 265.143 2V112.565L208 200ZM350.857 0L265.143 112.565V200L350.857 91.0251V198C350.857 199.105 351.753 200 352.857 200H406C407.105 200 408 199.105 408 198V0L350.857 91.0251V45.5125V0Z" fill="url(#paint0_linear_12_46)"/>
<path d="M408 0H350.857V45.5125V91.0251L408 0Z" fill="#070150"/>
</g>
<path d="M216.031 27.2148L231.598 17.4492L231.617 13.6016H223.863C222.47 13.6016 221.773 13.9401 221.773 14.6172V19.4805L215.992 19.5V11.5898C215.979 8.9987 217.926 7.70312 221.832 7.70312H231.559C235.491 7.71615 237.451 9.03125 237.438 11.6484V21.1406L221.773 31.1602H231.578L231.598 28.2109H237.398L237.379 36.9609H216.051L216.031 27.2148Z" fill="#000055"/>
<mask id="path-3-outside-1_12_46" maskUnits="userSpaceOnUse" x="0" y="218" width="616" height="119" fill="black">
<rect fill="white" y="218" width="616" height="119"/>
<path d="M95.681 226V282.836L85.3992 303.399L75.1174 282.836V226H54.5538V282.836L44.2719 303.399L33.9901 282.836V226H8C11.5701 232.283 13.5693 239.423 13.5693 246.564V287.691L33.9901 328.818H54.5538L64.8356 308.255L75.1174 328.818H95.681L116.245 287.691V226H95.681Z"/>
<path d="M194.771 246.564V226H127.653C131.223 232.283 133.223 239.423 133.223 246.564V308.255C133.223 313.681 135.365 318.965 139.22 322.82C143.076 326.676 148.217 328.818 153.643 328.818H194.771V308.255H153.643V287.691H181.062V267.127H153.643V246.564H194.771Z"/>
<path d="M273.284 267.127V246.564C273.284 241.137 271.142 235.853 267.287 231.998C263.431 228.285 258.29 226 252.721 226H206.167C209.737 232.283 211.736 239.423 211.736 246.564V328.818H232.157V292.546L250.293 328.818H273.284L252.721 287.691C258.29 287.691 263.431 285.549 267.287 281.693C271.142 277.837 273.284 272.554 273.284 267.127ZM252.721 267.127H232.157V246.564H252.721V267.127Z"/>
<path d="M284.681 226C288.251 232.283 290.25 239.423 290.25 246.564H317.525V328.818H338.089V246.564H365.507V226H284.681Z"/>
<path d="M444.118 246.564V226H377.001C380.571 232.283 382.57 239.423 382.57 246.564V252.704C382.57 258.131 384.712 263.272 388.568 267.127L423.554 302.257V308.255H382.57V328.818H423.554C429.124 328.818 434.265 326.676 438.12 322.82C441.976 318.965 444.118 313.681 444.118 308.255V302.257C444.118 296.83 441.976 291.547 438.12 287.691L402.991 252.704V246.564H444.118Z"/>
<path d="M522.632 246.564V226H455.514C459.084 232.283 461.084 239.423 461.084 246.564V328.818H481.504V287.691H508.923V267.127H481.504V246.564H522.632Z"/>
<path d="M587.436 226V259.416L572.442 276.695L560.018 260.273V226H534.028C537.598 232.283 539.597 239.423 539.597 246.564V267.127L563.445 299.115V328.818H584.009V294.545L608 267.127V226H587.436Z"/>
</mask>
<path d="M95.681 226V282.836L85.3992 303.399L75.1174 282.836V226H54.5538V282.836L44.2719 303.399L33.9901 282.836V226H8C11.5701 232.283 13.5693 239.423 13.5693 246.564V287.691L33.9901 328.818H54.5538L64.8356 308.255L75.1174 328.818H95.681L116.245 287.691V226H95.681Z" fill="white"/>
<path d="M194.771 246.564V226H127.653C131.223 232.283 133.223 239.423 133.223 246.564V308.255C133.223 313.681 135.365 318.965 139.22 322.82C143.076 326.676 148.217 328.818 153.643 328.818H194.771V308.255H153.643V287.691H181.062V267.127H153.643V246.564H194.771Z" fill="white"/>
<path d="M273.284 267.127V246.564C273.284 241.137 271.142 235.853 267.287 231.998C263.431 228.285 258.29 226 252.721 226H206.167C209.737 232.283 211.736 239.423 211.736 246.564V328.818H232.157V292.546L250.293 328.818H273.284L252.721 287.691C258.29 287.691 263.431 285.549 267.287 281.693C271.142 277.837 273.284 272.554 273.284 267.127ZM252.721 267.127H232.157V246.564H252.721V267.127Z" fill="white"/>
<path d="M284.681 226C288.251 232.283 290.25 239.423 290.25 246.564H317.525V328.818H338.089V246.564H365.507V226H284.681Z" fill="white"/>
<path d="M444.118 246.564V226H377.001C380.571 232.283 382.57 239.423 382.57 246.564V252.704C382.57 258.131 384.712 263.272 388.568 267.127L423.554 302.257V308.255H382.57V328.818H423.554C429.124 328.818 434.265 326.676 438.12 322.82C441.976 318.965 444.118 313.681 444.118 308.255V302.257C444.118 296.83 441.976 291.547 438.12 287.691L402.991 252.704V246.564H444.118Z" fill="white"/>
<path d="M522.632 246.564V226H455.514C459.084 232.283 461.084 239.423 461.084 246.564V328.818H481.504V287.691H508.923V267.127H481.504V246.564H522.632Z" fill="white"/>
<path d="M587.436 226V259.416L572.442 276.695L560.018 260.273V226H534.028C537.598 232.283 539.597 239.423 539.597 246.564V267.127L563.445 299.115V328.818H584.009V294.545L608 267.127V226H587.436Z" fill="white"/>
<path d="M95.681 226V282.836L85.3992 303.399L75.1174 282.836V226H54.5538V282.836L44.2719 303.399L33.9901 282.836V226H8C11.5701 232.283 13.5693 239.423 13.5693 246.564V287.691L33.9901 328.818H54.5538L64.8356 308.255L75.1174 328.818H95.681L116.245 287.691V226H95.681Z" stroke="#000055" stroke-width="16" stroke-linejoin="round" mask="url(#path-3-outside-1_12_46)"/>
<path d="M194.771 246.564V226H127.653C131.223 232.283 133.223 239.423 133.223 246.564V308.255C133.223 313.681 135.365 318.965 139.22 322.82C143.076 326.676 148.217 328.818 153.643 328.818H194.771V308.255H153.643V287.691H181.062V267.127H153.643V246.564H194.771Z" stroke="#000055" stroke-width="16" stroke-linejoin="round" mask="url(#path-3-outside-1_12_46)"/>
<path d="M273.284 267.127V246.564C273.284 241.137 271.142 235.853 267.287 231.998C263.431 228.285 258.29 226 252.721 226H206.167C209.737 232.283 211.736 239.423 211.736 246.564V328.818H232.157V292.546L250.293 328.818H273.284L252.721 287.691C258.29 287.691 263.431 285.549 267.287 281.693C271.142 277.837 273.284 272.554 273.284 267.127ZM252.721 267.127H232.157V246.564H252.721V267.127Z" stroke="#000055" stroke-width="16" stroke-linejoin="round" mask="url(#path-3-outside-1_12_46)"/>
<path d="M284.681 226C288.251 232.283 290.25 239.423 290.25 246.564H317.525V328.818H338.089V246.564H365.507V226H284.681Z" stroke="#000055" stroke-width="16" stroke-linejoin="round" mask="url(#path-3-outside-1_12_46)"/>
<path d="M444.118 246.564V226H377.001C380.571 232.283 382.57 239.423 382.57 246.564V252.704C382.57 258.131 384.712 263.272 388.568 267.127L423.554 302.257V308.255H382.57V328.818H423.554C429.124 328.818 434.265 326.676 438.12 322.82C441.976 318.965 444.118 313.681 444.118 308.255V302.257C444.118 296.83 441.976 291.547 438.12 287.691L402.991 252.704V246.564H444.118Z" stroke="#000055" stroke-width="16" stroke-linejoin="round" mask="url(#path-3-outside-1_12_46)"/>
<path d="M522.632 246.564V226H455.514C459.084 232.283 461.084 239.423 461.084 246.564V328.818H481.504V287.691H508.923V267.127H481.504V246.564H522.632Z" stroke="#000055" stroke-width="16" stroke-linejoin="round" mask="url(#path-3-outside-1_12_46)"/>
<path d="M587.436 226V259.416L572.442 276.695L560.018 260.273V226H534.028C537.598 232.283 539.597 239.423 539.597 246.564V267.127L563.445 299.115V328.818H584.009V294.545L608 267.127V226H587.436Z" stroke="#000055" stroke-width="16" stroke-linejoin="round" mask="url(#path-3-outside-1_12_46)"/>
<mask id="path-4-outside-2_12_46" maskUnits="userSpaceOnUse" x="432" y="338" width="183" height="26" fill="black">
<rect fill="white" x="432" y="338" width="183" height="26"/>
<path d="M439.703 349.426L439.715 346.309H443.055L443.043 349.426L446.148 349.438V352.777L443.043 352.766L443.031 355.871H439.691L439.703 352.766L436.586 352.754V349.414L439.703 349.426ZM463.434 355.531V346.496H457.832V355.531H463.434ZM456.309 358.988C455.105 358.91 454.461 358.184 454.375 356.809L454.363 346.074C454.355 345.957 454.352 345.844 454.352 345.734C454.352 344.406 454.871 343.508 455.91 343.039H465.355C466.395 343.508 466.914 344.406 466.914 345.734C466.914 345.844 466.91 345.957 466.902 346.074L466.891 356.809C466.805 358.184 466.16 358.91 464.957 358.988H456.309ZM477.766 353.469V343.062H481.281L481.211 359L477.766 358.988L469.984 348.875C469.234 348.016 468.859 347.16 468.859 346.309C468.859 345.215 469.48 344.133 470.723 343.062L473.066 345.664L473.043 345.688C472.793 345.914 472.668 346.16 472.668 346.426C472.668 346.691 472.789 346.977 473.031 347.281L477.766 353.469ZM482.125 343.039H495.484V346.379H486.461V349.402H493.949L493.961 352.836H486.426V353.141C486.426 354.836 487.309 355.688 489.074 355.695H495.484V359L488.945 359.035C484.977 359.012 482.992 357.438 482.992 354.312V352.836H482.125L482.031 349.379L482.945 349.402V346.379H482.125V343.039ZM503.793 349.484L504.684 349.496H507.215V346.426L501.742 346.344V349.484H503.793ZM506.898 352.871L507.438 354.09C508.172 355.332 509.23 355.953 510.613 355.953H510.836L510.824 359.141L508.199 358.977C506.973 358.883 505.656 357.828 504.25 355.812L502.645 352.871H501.766V355.484C501.688 357.836 500.391 359.012 497.875 359.012C497.734 359.012 497.59 359.008 497.441 359V355.531C498.059 355.531 498.379 355.273 498.402 354.758V346.332H497.43L497.441 343.062H508.914C510.102 343.312 510.715 344.117 510.754 345.477L510.73 351.078C510.621 352.273 510 352.871 508.867 352.871H506.898ZM512.969 346.32H512.008V343.062H522.227C524.305 343.555 525.406 345.012 525.531 347.434H522.074C522.043 346.684 521.719 346.309 521.102 346.309C521.016 346.309 520.93 346.312 520.844 346.32H516.309V351.055C516.395 352.445 516.648 353.414 517.07 353.961C517.492 354.508 518.02 354.957 518.652 355.309C519.035 355.527 519.547 355.637 520.188 355.637C520.352 355.637 520.703 355.617 521.242 355.578C521.781 355.539 522.52 354.863 523.457 353.551L525.555 356.164C524.336 358.047 522.309 359.039 519.473 359.141C518.832 359.141 518.004 358.895 516.988 358.402C515.973 357.91 515.035 356.984 514.176 355.625C513.402 354.406 513.016 352.957 513.016 351.277L512.969 346.32ZM526.727 359V355.672H527.688L527.711 343.062H531.027V355.672H535.879C536.34 355.516 536.57 355.203 536.57 354.734V354.699H540.016V354.723C540.016 357.551 538.715 358.973 536.113 358.988L526.727 359ZM549.801 355.531V346.496H544.199V355.531H549.801ZM542.676 358.988C541.473 358.91 540.828 358.184 540.742 356.809L540.73 346.074C540.723 345.957 540.719 345.844 540.719 345.734C540.719 344.406 541.238 343.508 542.277 343.039H551.723C552.762 343.508 553.281 344.406 553.281 345.734C553.281 345.844 553.277 345.957 553.27 346.074L553.258 356.809C553.172 358.184 552.527 358.91 551.324 358.988H542.676ZM555.414 346.32H554.453V343.062H564.672C566.75 343.555 567.852 345.012 567.977 347.434H564.52C564.488 346.684 564.164 346.309 563.547 346.309C563.461 346.309 563.375 346.312 563.289 346.32H558.754V351.055C558.84 352.445 559.094 353.414 559.516 353.961C559.938 354.508 560.465 354.957 561.098 355.309C561.48 355.527 561.992 355.637 562.633 355.637C562.797 355.637 563.148 355.617 563.688 355.578C564.227 355.539 564.965 354.863 565.902 353.551L568 356.164C566.781 358.047 564.754 359.039 561.918 359.141C561.277 359.141 560.449 358.895 559.434 358.402C558.418 357.91 557.48 356.984 556.621 355.625C555.848 354.406 555.461 352.957 555.461 351.277L555.414 346.32ZM579.027 342.957L581.453 345.383L576.039 350.305C577.383 352.977 578.355 354.598 578.957 355.168C579.348 355.551 579.828 355.723 580.398 355.684H581.57V359H579.109C577.281 358.648 575.402 356.5 573.473 352.555L572.512 353.363V359.012H569.172V343.062H572.5L572.512 348.816L579.027 342.957ZM582.227 343.039H595.586V346.379H586.562V349.402H594.051L594.062 352.836H586.527V353.141C586.527 354.836 587.41 355.688 589.176 355.695H595.586V359L589.047 359.035C585.078 359.012 583.094 357.438 583.094 354.312V352.836H582.227L582.133 349.379L583.047 349.402V346.379H582.227V343.039ZM601.152 346.391V355.684C601.387 355.77 601.797 355.812 602.383 355.812C603.234 355.812 604.039 355.582 604.797 355.121C605.555 354.652 606.078 354.02 606.367 353.223C606.578 352.652 606.684 351.324 606.684 349.238C606.684 348.449 606.668 347.496 606.637 346.379L601.152 346.391ZM597.695 355.672V346.379H596.852L596.863 343.074H607.961L610.211 343.086V350.211C610.234 351.656 610.102 352.867 609.812 353.844C609.523 354.812 608.914 355.82 607.984 356.867C607.062 357.906 606.047 358.547 604.938 358.789C604.133 358.961 602.414 359.047 599.781 359.047C598.883 359.047 597.875 359.035 596.758 359.012L596.781 355.684L597.695 355.672Z"/>
</mask>
<path d="M439.703 349.426L439.715 346.309H443.055L443.043 349.426L446.148 349.438V352.777L443.043 352.766L443.031 355.871H439.691L439.703 352.766L436.586 352.754V349.414L439.703 349.426ZM463.434 355.531V346.496H457.832V355.531H463.434ZM456.309 358.988C455.105 358.91 454.461 358.184 454.375 356.809L454.363 346.074C454.355 345.957 454.352 345.844 454.352 345.734C454.352 344.406 454.871 343.508 455.91 343.039H465.355C466.395 343.508 466.914 344.406 466.914 345.734C466.914 345.844 466.91 345.957 466.902 346.074L466.891 356.809C466.805 358.184 466.16 358.91 464.957 358.988H456.309ZM477.766 353.469V343.062H481.281L481.211 359L477.766 358.988L469.984 348.875C469.234 348.016 468.859 347.16 468.859 346.309C468.859 345.215 469.48 344.133 470.723 343.062L473.066 345.664L473.043 345.688C472.793 345.914 472.668 346.16 472.668 346.426C472.668 346.691 472.789 346.977 473.031 347.281L477.766 353.469ZM482.125 343.039H495.484V346.379H486.461V349.402H493.949L493.961 352.836H486.426V353.141C486.426 354.836 487.309 355.688 489.074 355.695H495.484V359L488.945 359.035C484.977 359.012 482.992 357.438 482.992 354.312V352.836H482.125L482.031 349.379L482.945 349.402V346.379H482.125V343.039ZM503.793 349.484L504.684 349.496H507.215V346.426L501.742 346.344V349.484H503.793ZM506.898 352.871L507.438 354.09C508.172 355.332 509.23 355.953 510.613 355.953H510.836L510.824 359.141L508.199 358.977C506.973 358.883 505.656 357.828 504.25 355.812L502.645 352.871H501.766V355.484C501.688 357.836 500.391 359.012 497.875 359.012C497.734 359.012 497.59 359.008 497.441 359V355.531C498.059 355.531 498.379 355.273 498.402 354.758V346.332H497.43L497.441 343.062H508.914C510.102 343.312 510.715 344.117 510.754 345.477L510.73 351.078C510.621 352.273 510 352.871 508.867 352.871H506.898ZM512.969 346.32H512.008V343.062H522.227C524.305 343.555 525.406 345.012 525.531 347.434H522.074C522.043 346.684 521.719 346.309 521.102 346.309C521.016 346.309 520.93 346.312 520.844 346.32H516.309V351.055C516.395 352.445 516.648 353.414 517.07 353.961C517.492 354.508 518.02 354.957 518.652 355.309C519.035 355.527 519.547 355.637 520.188 355.637C520.352 355.637 520.703 355.617 521.242 355.578C521.781 355.539 522.52 354.863 523.457 353.551L525.555 356.164C524.336 358.047 522.309 359.039 519.473 359.141C518.832 359.141 518.004 358.895 516.988 358.402C515.973 357.91 515.035 356.984 514.176 355.625C513.402 354.406 513.016 352.957 513.016 351.277L512.969 346.32ZM526.727 359V355.672H527.688L527.711 343.062H531.027V355.672H535.879C536.34 355.516 536.57 355.203 536.57 354.734V354.699H540.016V354.723C540.016 357.551 538.715 358.973 536.113 358.988L526.727 359ZM549.801 355.531V346.496H544.199V355.531H549.801ZM542.676 358.988C541.473 358.91 540.828 358.184 540.742 356.809L540.73 346.074C540.723 345.957 540.719 345.844 540.719 345.734C540.719 344.406 541.238 343.508 542.277 343.039H551.723C552.762 343.508 553.281 344.406 553.281 345.734C553.281 345.844 553.277 345.957 553.27 346.074L553.258 356.809C553.172 358.184 552.527 358.91 551.324 358.988H542.676ZM555.414 346.32H554.453V343.062H564.672C566.75 343.555 567.852 345.012 567.977 347.434H564.52C564.488 346.684 564.164 346.309 563.547 346.309C563.461 346.309 563.375 346.312 563.289 346.32H558.754V351.055C558.84 352.445 559.094 353.414 559.516 353.961C559.938 354.508 560.465 354.957 561.098 355.309C561.48 355.527 561.992 355.637 562.633 355.637C562.797 355.637 563.148 355.617 563.688 355.578C564.227 355.539 564.965 354.863 565.902 353.551L568 356.164C566.781 358.047 564.754 359.039 561.918 359.141C561.277 359.141 560.449 358.895 559.434 358.402C558.418 357.91 557.48 356.984 556.621 355.625C555.848 354.406 555.461 352.957 555.461 351.277L555.414 346.32ZM579.027 342.957L581.453 345.383L576.039 350.305C577.383 352.977 578.355 354.598 578.957 355.168C579.348 355.551 579.828 355.723 580.398 355.684H581.57V359H579.109C577.281 358.648 575.402 356.5 573.473 352.555L572.512 353.363V359.012H569.172V343.062H572.5L572.512 348.816L579.027 342.957ZM582.227 343.039H595.586V346.379H586.562V349.402H594.051L594.062 352.836H586.527V353.141C586.527 354.836 587.41 355.688 589.176 355.695H595.586V359L589.047 359.035C585.078 359.012 583.094 357.438 583.094 354.312V352.836H582.227L582.133 349.379L583.047 349.402V346.379H582.227V343.039ZM601.152 346.391V355.684C601.387 355.77 601.797 355.812 602.383 355.812C603.234 355.812 604.039 355.582 604.797 355.121C605.555 354.652 606.078 354.02 606.367 353.223C606.578 352.652 606.684 351.324 606.684 349.238C606.684 348.449 606.668 347.496 606.637 346.379L601.152 346.391ZM597.695 355.672V346.379H596.852L596.863 343.074H607.961L610.211 343.086V350.211C610.234 351.656 610.102 352.867 609.812 353.844C609.523 354.812 608.914 355.82 607.984 356.867C607.062 357.906 606.047 358.547 604.938 358.789C604.133 358.961 602.414 359.047 599.781 359.047C598.883 359.047 597.875 359.035 596.758 359.012L596.781 355.684L597.695 355.672Z" fill="white"/>
<path d="M439.703 349.426L439.688 353.426C441.897 353.434 443.695 351.65 443.703 349.441L439.703 349.426ZM439.715 346.309V342.309C437.512 342.309 435.723 344.09 435.715 346.294L439.715 346.309ZM443.055 346.309L447.055 346.324C447.059 345.26 446.639 344.239 445.888 343.485C445.138 342.732 444.118 342.309 443.055 342.309V346.309ZM443.043 349.426L439.043 349.411C439.035 351.62 440.819 353.417 443.028 353.426L443.043 349.426ZM446.148 349.438H450.148C450.148 347.234 448.367 345.446 446.164 345.438L446.148 349.438ZM446.148 352.777L446.133 356.777C447.197 356.781 448.218 356.362 448.972 355.611C449.725 354.861 450.148 353.841 450.148 352.777H446.148ZM443.043 352.766L443.058 348.766C440.849 348.757 439.051 350.541 439.043 352.751L443.043 352.766ZM443.031 355.871V359.871C445.234 359.871 447.023 358.089 447.031 355.886L443.031 355.871ZM439.691 355.871L435.691 355.856C435.687 356.919 436.107 357.941 436.858 358.694C437.608 359.448 438.628 359.871 439.691 359.871V355.871ZM439.703 352.766L443.703 352.781C443.707 351.72 443.29 350.701 442.542 349.948C441.795 349.195 440.779 348.77 439.718 348.766L439.703 352.766ZM436.586 352.754H432.586C432.586 354.957 434.368 356.746 436.571 356.754L436.586 352.754ZM436.586 349.414L436.601 345.414C435.538 345.41 434.516 345.83 433.763 346.58C433.009 347.331 432.586 348.351 432.586 349.414H436.586ZM443.703 349.441L443.715 346.324L435.715 346.294L435.703 349.411L443.703 349.441ZM439.715 350.309H443.055V342.309H439.715V350.309ZM439.055 346.294L439.043 349.411L447.043 349.441L447.055 346.324L439.055 346.294ZM443.028 353.426L446.133 353.437L446.164 345.438L443.058 345.426L443.028 353.426ZM442.148 349.438V352.777H450.148V349.438H442.148ZM446.164 348.777L443.058 348.766L443.028 356.766L446.133 356.777L446.164 348.777ZM439.043 352.751L439.031 355.856L447.031 355.886L447.043 352.781L439.043 352.751ZM443.031 351.871H439.691V359.871H443.031V351.871ZM443.691 355.886L443.703 352.781L435.703 352.751L435.691 355.856L443.691 355.886ZM439.718 348.766L436.601 348.754L436.571 356.754L439.688 356.766L439.718 348.766ZM440.586 352.754V349.414H432.586V352.754H440.586ZM436.571 353.414L439.688 353.426L439.718 345.426L436.601 345.414L436.571 353.414ZM463.434 355.531V359.531C465.643 359.531 467.434 357.74 467.434 355.531H463.434ZM463.434 346.496H467.434C467.434 344.287 465.643 342.496 463.434 342.496V346.496ZM457.832 346.496V342.496C455.623 342.496 453.832 344.287 453.832 346.496H457.832ZM457.832 355.531H453.832C453.832 357.74 455.623 359.531 457.832 359.531V355.531ZM456.309 358.988L456.049 362.98C456.136 362.985 456.222 362.988 456.309 362.988V358.988ZM454.375 356.809L450.375 356.813C450.375 356.895 450.378 356.976 450.383 357.058L454.375 356.809ZM454.363 346.074L458.363 346.07C458.363 345.983 458.36 345.895 458.354 345.808L454.363 346.074ZM455.91 343.039V339.039C455.343 339.039 454.782 339.16 454.265 339.393L455.91 343.039ZM465.355 343.039L467 339.393C466.483 339.16 465.923 339.039 465.355 339.039V343.039ZM466.902 346.074L462.911 345.808C462.905 345.895 462.902 345.983 462.902 346.07L466.902 346.074ZM466.891 356.809L470.883 357.058C470.888 356.976 470.891 356.895 470.891 356.813L466.891 356.809ZM464.957 358.988V362.988C465.043 362.988 465.13 362.985 465.216 362.98L464.957 358.988ZM467.434 355.531V346.496H459.434V355.531H467.434ZM463.434 342.496H457.832V350.496H463.434V342.496ZM453.832 346.496V355.531H461.832V346.496H453.832ZM457.832 359.531H463.434V351.531H457.832V359.531ZM456.568 354.997C456.75 355.008 457.378 355.125 457.915 355.73C458.389 356.264 458.377 356.72 458.367 356.559L450.383 357.058C450.459 358.273 450.813 359.779 451.931 361.039C453.112 362.371 454.665 362.89 456.049 362.98L456.568 354.997ZM458.375 356.804L458.363 346.07L450.363 346.079L450.375 356.813L458.375 356.804ZM458.354 345.808C458.352 345.773 458.352 345.749 458.352 345.734H450.352C450.352 345.939 450.359 346.141 450.372 346.34L458.354 345.808ZM458.352 345.734C458.352 345.581 458.382 345.76 458.204 346.067C458.116 346.219 458 346.361 457.866 346.478C457.735 346.593 457.62 346.656 457.555 346.685L454.265 339.393C453.062 339.936 451.999 340.817 451.278 342.062C450.581 343.268 450.352 344.56 450.352 345.734H458.352ZM455.91 347.039H465.355V339.039H455.91V347.039ZM463.711 346.685C463.645 346.656 463.53 346.593 463.4 346.478C463.266 346.361 463.15 346.219 463.062 346.067C462.884 345.76 462.914 345.581 462.914 345.734H470.914C470.914 344.56 470.684 343.268 469.987 342.062C469.267 340.817 468.204 339.936 467 339.393L463.711 346.685ZM462.914 345.734C462.914 345.749 462.914 345.773 462.911 345.808L470.893 346.34C470.907 346.141 470.914 345.939 470.914 345.734H462.914ZM462.902 346.07L462.891 356.804L470.891 356.813L470.902 346.079L462.902 346.07ZM462.898 356.559C462.888 356.72 462.877 356.264 463.35 355.73C463.888 355.125 464.516 355.008 464.698 354.997L465.216 362.98C466.601 362.89 468.153 362.371 469.335 361.039C470.453 359.779 470.807 358.273 470.883 357.058L462.898 356.559ZM464.957 354.988H456.309V362.988H464.957V354.988ZM477.766 353.469L474.589 355.899C475.631 357.261 477.425 357.807 479.049 357.257C480.673 356.707 481.766 355.183 481.766 353.469H477.766ZM477.766 343.062V339.062C475.556 339.062 473.766 340.853 473.766 343.062H477.766ZM481.281 343.062L485.281 343.08C485.286 342.016 484.867 340.994 484.116 340.24C483.365 339.486 482.345 339.062 481.281 339.062V343.062ZM481.211 359L481.197 363C483.405 363.007 485.201 361.225 485.211 359.018L481.211 359ZM477.766 358.988L474.595 361.427C475.35 362.408 476.515 362.984 477.752 362.988L477.766 358.988ZM469.984 348.875L473.155 346.436C473.104 346.371 473.052 346.307 472.998 346.245L469.984 348.875ZM470.723 343.062L473.695 340.385C472.239 338.769 469.759 338.613 468.112 340.032L470.723 343.062ZM473.066 345.664L475.895 348.492C477.4 346.988 477.463 344.568 476.038 342.987L473.066 345.664ZM473.043 345.688L475.729 348.651C475.778 348.607 475.825 348.562 475.871 348.516L473.043 345.688ZM473.031 347.281L476.208 344.851C476.193 344.831 476.178 344.812 476.163 344.792L473.031 347.281ZM481.766 353.469V343.062H473.766V353.469H481.766ZM477.766 347.062H481.281V339.062H477.766V347.062ZM477.281 343.045L477.211 358.982L485.211 359.018L485.281 343.08L477.281 343.045ZM481.225 355L477.779 354.988L477.752 362.988L481.197 363L481.225 355ZM480.936 356.549L473.155 346.436L466.814 351.314L474.595 361.427L480.936 356.549ZM472.998 346.245C472.834 346.056 472.797 345.967 472.804 345.983C472.809 345.993 472.823 346.03 472.837 346.09C472.85 346.151 472.859 346.225 472.859 346.309H464.859C464.859 348.414 465.803 350.167 466.971 351.505L472.998 346.245ZM472.859 346.309C472.859 346.419 472.843 346.516 472.822 346.588C472.802 346.659 472.784 346.686 472.794 346.668C472.821 346.621 472.954 346.42 473.334 346.093L468.112 340.032C466.433 341.478 464.859 343.569 464.859 346.309H472.859ZM467.751 345.74L470.095 348.341L476.038 342.987L473.695 340.385L467.751 345.74ZM470.238 342.836L470.215 342.859L475.871 348.516L475.895 348.492L470.238 342.836ZM470.357 342.724C469.511 343.49 468.668 344.742 468.668 346.426H476.668C476.668 346.947 476.539 347.438 476.328 347.853C476.127 348.25 475.887 348.508 475.729 348.651L470.357 342.724ZM468.668 346.426C468.668 347.932 469.348 349.076 469.9 349.77L476.163 344.792C476.23 344.877 476.668 345.451 476.668 346.426H468.668ZM469.855 349.712L474.589 355.899L480.942 351.038L476.208 344.851L469.855 349.712ZM482.125 343.039V339.039C479.916 339.039 478.125 340.83 478.125 343.039H482.125ZM495.484 343.039H499.484C499.484 340.83 497.694 339.039 495.484 339.039V343.039ZM495.484 346.379V350.379C497.694 350.379 499.484 348.588 499.484 346.379H495.484ZM486.461 346.379V342.379C484.252 342.379 482.461 344.17 482.461 346.379H486.461ZM486.461 349.402H482.461C482.461 351.611 484.252 353.402 486.461 353.402V349.402ZM493.949 349.402L497.949 349.389C497.942 347.185 496.153 345.402 493.949 345.402V349.402ZM493.961 352.836V356.836C495.024 356.836 496.044 356.413 496.794 355.66C497.545 354.906 497.965 353.886 497.961 352.822L493.961 352.836ZM486.426 352.836V348.836C484.217 348.836 482.426 350.627 482.426 352.836H486.426ZM489.074 355.695L489.057 359.695C489.062 359.695 489.068 359.695 489.074 359.695L489.074 355.695ZM495.484 355.695H499.484C499.484 353.486 497.694 351.695 495.484 351.695V355.695ZM495.484 359L495.506 363C497.707 362.988 499.484 361.201 499.484 359H495.484ZM488.945 359.035L488.922 363.035C488.937 363.035 488.952 363.035 488.967 363.035L488.945 359.035ZM482.992 352.836H486.992C486.992 350.627 485.201 348.836 482.992 348.836V352.836ZM482.125 352.836L478.126 352.944C478.185 355.11 479.958 356.836 482.125 356.836V352.836ZM482.031 349.379L482.134 345.38C481.037 345.352 479.976 345.776 479.201 346.553C478.425 347.329 478.003 348.39 478.033 349.487L482.031 349.379ZM482.945 349.402L482.843 353.401C483.921 353.429 484.965 353.02 485.737 352.267C486.51 351.514 486.945 350.481 486.945 349.402H482.945ZM482.945 346.379H486.945C486.945 344.17 485.154 342.379 482.945 342.379V346.379ZM482.125 346.379H478.125C478.125 348.588 479.916 350.379 482.125 350.379V346.379ZM482.125 347.039H495.484V339.039H482.125V347.039ZM491.484 343.039V346.379H499.484V343.039H491.484ZM495.484 342.379H486.461V350.379H495.484V342.379ZM482.461 346.379V349.402H490.461V346.379H482.461ZM486.461 353.402H493.949V345.402H486.461V353.402ZM489.949 349.416L489.961 352.85L497.961 352.822L497.949 349.389L489.949 349.416ZM493.961 348.836H486.426V356.836H493.961V348.836ZM482.426 352.836V353.141H490.426V352.836H482.426ZM482.426 353.141C482.426 354.649 482.827 356.498 484.311 357.93C485.765 359.332 487.595 359.689 489.057 359.695L489.092 351.695C488.787 351.694 489.294 351.621 489.865 352.172C490.466 352.752 490.426 353.328 490.426 353.141H482.426ZM489.074 359.695H495.484V351.695H489.074V359.695ZM491.484 355.695V359H499.484V355.695H491.484ZM495.463 355L488.924 355.035L488.967 363.035L495.506 363L495.463 355ZM488.969 355.035C487.403 355.026 486.959 354.697 486.966 354.703C486.974 354.709 486.994 354.727 487.016 354.756C487.026 354.77 487.035 354.783 487.041 354.793C487.047 354.804 487.049 354.81 487.049 354.809C487.049 354.809 487.046 354.801 487.041 354.784C487.035 354.766 487.028 354.738 487.021 354.698C487.007 354.618 486.992 354.493 486.992 354.312H478.992C478.992 356.781 479.824 359.249 481.994 360.971C483.986 362.551 486.519 363.021 488.922 363.035L488.969 355.035ZM486.992 354.312V352.836H478.992V354.312H486.992ZM482.992 348.836H482.125V356.836H482.992V348.836ZM486.124 352.728L486.03 349.27L478.033 349.487L478.126 352.944L486.124 352.728ZM481.929 353.378L482.843 353.401L483.048 345.404L482.134 345.38L481.929 353.378ZM486.945 349.402V346.379H478.945V349.402H486.945ZM482.945 342.379H482.125V350.379H482.945V342.379ZM486.125 346.379V343.039H478.125V346.379H486.125ZM503.793 349.484L503.846 345.485C503.828 345.484 503.811 345.484 503.793 345.484L503.793 349.484ZM504.684 349.496L504.631 353.496C504.649 353.496 504.666 353.496 504.684 353.496L504.684 349.496ZM507.215 349.496V353.496C509.424 353.496 511.215 351.705 511.215 349.496H507.215ZM507.215 346.426H511.215C511.215 344.24 509.46 342.459 507.275 342.426L507.215 346.426ZM501.742 346.344L501.802 342.344C500.731 342.328 499.698 342.742 498.935 343.494C498.172 344.246 497.742 345.272 497.742 346.344H501.742ZM501.742 349.484H497.742C497.742 351.694 499.533 353.484 501.742 353.484V349.484ZM506.898 352.871V348.871C505.546 348.871 504.285 349.555 503.546 350.688C502.808 351.822 502.693 353.252 503.24 354.489L506.898 352.871ZM507.438 354.09L503.779 355.708C503.843 355.851 503.914 355.991 503.994 356.125L507.438 354.09ZM510.836 355.953L514.836 355.968C514.84 354.904 514.42 353.883 513.67 353.13C512.919 352.377 511.899 351.953 510.836 351.953V355.953ZM510.824 359.141L510.575 363.133C511.674 363.202 512.753 362.814 513.558 362.061C514.362 361.308 514.82 360.257 514.824 359.155L510.824 359.141ZM508.199 358.977L507.894 362.965C507.913 362.966 507.931 362.968 507.95 362.969L508.199 358.977ZM504.25 355.812L500.739 357.729C500.809 357.857 500.886 357.981 500.969 358.101L504.25 355.812ZM502.645 352.871L506.156 350.955C505.454 349.67 504.108 348.871 502.645 348.871V352.871ZM501.766 352.871V348.871C499.556 348.871 497.766 350.662 497.766 352.871H501.766ZM501.766 355.484L505.763 355.617C505.765 355.573 505.766 355.529 505.766 355.484H501.766ZM497.441 359H493.441C493.441 361.127 495.107 362.883 497.231 362.994L497.441 359ZM497.441 355.531V351.531C495.232 351.531 493.441 353.322 493.441 355.531H497.441ZM498.402 354.758L502.398 354.939C502.401 354.879 502.402 354.818 502.402 354.758H498.402ZM498.402 346.332H502.402C502.402 344.123 500.611 342.332 498.402 342.332V346.332ZM497.43 346.332L493.43 346.318C493.426 347.381 493.846 348.402 494.596 349.155C495.347 349.909 496.366 350.332 497.43 350.332V346.332ZM497.441 343.062V339.062C495.238 339.062 493.449 340.845 493.441 343.048L497.441 343.062ZM508.914 343.062L509.738 339.148C509.467 339.091 509.191 339.062 508.914 339.062V343.062ZM510.754 345.477L514.754 345.493C514.754 345.449 514.754 345.406 514.752 345.362L510.754 345.477ZM510.73 351.078L514.714 351.443C514.724 351.327 514.73 351.211 514.73 351.095L510.73 351.078ZM503.74 353.484L504.631 353.496L504.736 345.496L503.846 345.485L503.74 353.484ZM504.684 353.496H507.215V345.496H504.684V353.496ZM511.215 349.496V346.426H503.215V349.496H511.215ZM507.275 342.426L501.802 342.344L501.682 350.343L507.155 350.425L507.275 342.426ZM497.742 346.344V349.484H505.742V346.344H497.742ZM501.742 353.484H503.793V345.484H501.742V353.484ZM503.24 354.489L503.779 355.708L511.096 352.472L510.557 351.253L503.24 354.489ZM503.994 356.125C505.41 358.52 507.742 359.953 510.613 359.953V351.953C510.568 351.953 510.576 351.948 510.623 351.96C510.673 351.973 510.738 351.997 510.806 352.037C510.874 352.077 510.915 352.115 510.931 352.132C510.945 352.146 510.925 352.128 510.881 352.054L503.994 356.125ZM510.613 359.953H510.836V351.953H510.613V359.953ZM506.836 355.938L506.824 359.126L514.824 359.155L514.836 355.968L506.836 355.938ZM511.074 355.148L508.449 354.984L507.95 362.969L510.575 363.133L511.074 355.148ZM508.504 354.988C508.941 355.022 509.05 355.199 508.793 354.994C508.535 354.787 508.105 354.348 507.531 353.524L500.969 358.101C502.449 360.222 504.706 362.721 507.894 362.965L508.504 354.988ZM507.761 353.896L506.156 350.955L499.133 354.787L500.739 357.729L507.761 353.896ZM502.645 348.871H501.766V356.871H502.645V348.871ZM497.766 352.871V355.484H505.766V352.871H497.766ZM497.768 355.352C497.76 355.593 497.725 355.644 497.752 355.575C497.766 355.538 497.796 355.474 497.848 355.396C497.902 355.317 497.969 355.238 498.048 355.166C498.126 355.095 498.201 355.045 498.262 355.012C498.321 354.979 498.356 354.969 498.354 354.969C498.344 354.972 498.204 355.012 497.875 355.012V363.012C499.696 363.012 501.771 362.59 503.421 361.093C505.118 359.555 505.701 357.49 505.763 355.617L497.768 355.352ZM497.875 355.012C497.808 355.012 497.734 355.01 497.652 355.006L497.231 362.994C497.446 363.006 497.66 363.012 497.875 363.012V355.012ZM501.441 359V355.531H493.441V359H501.441ZM497.441 359.531C498.224 359.531 499.502 359.38 500.653 358.454C501.926 357.429 502.349 356.029 502.398 354.939L494.406 354.576C494.433 354.003 494.683 352.989 495.636 352.222C496.466 351.554 497.276 351.531 497.441 351.531V359.531ZM502.402 354.758V346.332H494.402V354.758H502.402ZM498.402 342.332H497.43V350.332H498.402V342.332ZM501.43 346.346L501.441 343.077L493.441 343.048L493.43 346.318L501.43 346.346ZM497.441 347.062H508.914V339.062H497.441V347.062ZM508.09 346.977C507.941 346.945 507.469 346.785 507.083 346.278C506.734 345.82 506.752 345.465 506.756 345.591L514.752 345.362C514.717 344.129 514.408 342.692 513.446 341.429C512.447 340.118 511.075 339.43 509.738 339.148L508.09 346.977ZM506.754 345.46L506.731 351.061L514.73 351.095L514.754 345.493L506.754 345.46ZM506.747 350.714C506.747 350.709 506.76 350.57 506.848 350.353C506.942 350.124 507.115 349.824 507.409 349.541C508.055 348.919 508.735 348.871 508.867 348.871V356.871C510.132 356.871 511.689 356.524 512.956 355.305C514.189 354.119 514.606 352.623 514.714 351.443L506.747 350.714ZM508.867 348.871H506.898V356.871H508.867V348.871ZM512.969 346.32L516.969 346.282C516.948 344.088 515.163 342.32 512.969 342.32V346.32ZM512.008 346.32H508.008C508.008 348.529 509.799 350.32 512.008 350.32V346.32ZM512.008 343.062V339.062C509.799 339.062 508.008 340.853 508.008 343.062H512.008ZM522.227 343.062L523.148 339.17C522.846 339.099 522.537 339.062 522.227 339.062V343.062ZM525.531 347.434V351.434C526.628 351.434 527.676 350.983 528.432 350.188C529.187 349.393 529.582 348.323 529.526 347.227L525.531 347.434ZM522.074 347.434L518.078 347.6C518.167 349.743 519.93 351.434 522.074 351.434V347.434ZM520.844 346.32V350.32C520.965 350.32 521.085 350.315 521.206 350.304L520.844 346.32ZM516.309 346.32V342.32C514.099 342.32 512.309 344.111 512.309 346.32H516.309ZM516.309 351.055H512.309C512.309 351.137 512.311 351.219 512.316 351.301L516.309 351.055ZM518.652 355.309L520.637 351.836C520.623 351.828 520.609 351.82 520.595 351.812L518.652 355.309ZM523.457 353.551L526.576 351.047C525.793 350.07 524.597 349.517 523.345 349.552C522.093 349.587 520.93 350.207 520.202 351.226L523.457 353.551ZM525.555 356.164L528.913 358.338C529.85 356.89 529.753 355.005 528.674 353.66L525.555 356.164ZM519.473 359.141V363.141C519.52 363.141 519.568 363.14 519.616 363.138L519.473 359.141ZM514.176 355.625L517.557 353.488L517.553 353.482L514.176 355.625ZM513.016 351.277H517.016C517.016 351.265 517.016 351.252 517.015 351.24L513.016 351.277ZM512.969 342.32H512.008V350.32H512.969V342.32ZM516.008 346.32V343.062H508.008V346.32H516.008ZM512.008 347.062H522.227V339.062H512.008V347.062ZM521.305 346.955C521.47 346.994 521.524 347.03 521.512 347.023C521.492 347.011 521.453 346.979 521.421 346.937C521.354 346.848 521.502 346.971 521.537 347.64L529.526 347.227C529.435 345.475 528.971 343.658 527.802 342.112C526.598 340.519 524.932 339.593 523.148 339.17L521.305 346.955ZM525.531 343.434H522.074V351.434H525.531V343.434ZM526.071 347.267C526.036 346.432 525.823 345.118 524.833 343.974C523.731 342.698 522.264 342.309 521.102 342.309V350.309C520.557 350.309 519.56 350.106 518.782 349.206C518.117 348.437 518.081 347.685 518.078 347.6L526.071 347.267ZM521.102 342.309C520.894 342.309 520.687 342.318 520.482 342.337L521.206 350.304C521.172 350.307 521.137 350.309 521.102 350.309V342.309ZM520.844 342.32H516.309V350.32H520.844V342.32ZM512.309 346.32V351.055H520.309V346.32H512.309ZM512.316 351.301C512.41 352.821 512.701 354.846 513.903 356.404L520.237 351.518C520.36 351.677 520.419 351.798 520.439 351.843C520.459 351.888 520.452 351.883 520.433 351.81C520.392 351.653 520.334 351.336 520.301 350.808L512.316 351.301ZM513.903 356.404C514.673 357.402 515.625 358.202 516.71 358.805L520.595 351.812C520.414 351.712 520.311 351.613 520.237 351.518L513.903 356.404ZM516.668 358.782C517.868 359.467 519.146 359.637 520.188 359.637V351.637C520.088 351.637 520.087 351.628 520.159 351.643C520.233 351.659 520.411 351.706 520.637 351.836L516.668 358.782ZM520.188 359.637C520.524 359.637 521.026 359.604 521.531 359.568L520.953 351.589C520.696 351.607 520.497 351.62 520.352 351.628C520.28 351.632 520.229 351.635 520.194 351.636C520.155 351.637 520.158 351.637 520.188 351.637V359.637ZM521.531 359.568C523.194 359.447 524.362 358.486 524.901 357.993C525.562 357.387 526.166 356.639 526.712 355.876L520.202 351.226C520.016 351.487 519.859 351.688 519.733 351.838C519.603 351.991 519.526 352.067 519.499 352.091C519.465 352.123 519.543 352.044 519.73 351.939C519.911 351.838 520.335 351.633 520.953 351.589L521.531 359.568ZM520.338 356.055L522.435 358.668L528.674 353.66L526.576 351.047L520.338 356.055ZM522.197 353.99C521.875 354.488 521.248 355.074 519.329 355.143L519.616 363.138C523.369 363.004 526.797 361.606 528.913 358.338L522.197 353.99ZM519.473 355.141C519.646 355.141 519.675 355.171 519.511 355.122C519.356 355.076 519.101 354.981 518.733 354.803L515.244 362.002C516.449 362.586 517.93 363.141 519.473 363.141V355.141ZM518.733 354.803C518.616 354.746 518.179 354.471 517.557 353.488L510.795 357.762C511.892 359.498 513.33 361.074 515.244 362.002L518.733 354.803ZM517.553 353.482C517.249 353.003 517.016 352.325 517.016 351.277H509.016C509.016 353.589 509.555 355.81 510.798 357.768L517.553 353.482ZM517.015 351.24L516.969 346.282L508.969 346.358L509.016 351.315L517.015 351.24ZM526.727 359H522.727C522.727 360.062 523.149 361.08 523.9 361.83C524.651 362.58 525.67 363.001 526.732 363L526.727 359ZM526.727 355.672V351.672C524.517 351.672 522.727 353.463 522.727 355.672H526.727ZM527.688 355.672V359.672C529.894 359.672 531.683 357.886 531.687 355.679L527.688 355.672ZM527.711 343.062V339.062C525.505 339.062 523.715 340.849 523.711 343.055L527.711 343.062ZM531.027 343.062H535.027C535.027 340.853 533.236 339.062 531.027 339.062V343.062ZM531.027 355.672H527.027C527.027 357.881 528.818 359.672 531.027 359.672V355.672ZM535.879 355.672V359.672C536.316 359.672 536.749 359.6 537.163 359.46L535.879 355.672ZM536.57 354.699V350.699C534.361 350.699 532.57 352.49 532.57 354.699H536.57ZM540.016 354.699H544.016C544.016 352.49 542.225 350.699 540.016 350.699V354.699ZM536.113 358.988L536.118 362.988C536.125 362.988 536.131 362.988 536.137 362.988L536.113 358.988ZM530.727 359V355.672H522.727V359H530.727ZM526.727 359.672H527.688V351.672H526.727V359.672ZM531.687 355.679L531.711 343.07L523.711 343.055L523.688 355.664L531.687 355.679ZM527.711 347.062H531.027V339.062H527.711V347.062ZM527.027 343.062V355.672H535.027V343.062H527.027ZM531.027 359.672H535.879V351.672H531.027V359.672ZM537.163 359.46C537.971 359.186 538.906 358.659 539.617 357.694C540.337 356.718 540.57 355.642 540.57 354.734H532.57C532.57 354.296 532.688 353.61 533.178 352.946C533.659 352.294 534.248 352.001 534.595 351.884L537.163 359.46ZM540.57 354.734V354.699H532.57V354.734H540.57ZM536.57 358.699H540.016V350.699H536.57V358.699ZM536.016 354.699V354.723H544.016V354.699H536.016ZM536.016 354.723C536.016 354.924 536.004 355.08 535.989 355.197C535.973 355.313 535.956 355.38 535.947 355.409C535.938 355.438 535.939 355.424 535.962 355.383C535.986 355.34 536.026 355.278 536.089 355.21C536.152 355.141 536.222 355.082 536.292 355.036C536.361 354.991 536.414 354.968 536.438 354.959C536.479 354.944 536.388 354.987 536.089 354.988L536.137 362.988C538.146 362.976 540.353 362.401 541.991 360.61C543.573 358.881 544.016 356.676 544.016 354.723H536.016ZM536.108 354.988L526.722 355L526.732 363L536.118 362.988L536.108 354.988ZM549.801 355.531V359.531C552.01 359.531 553.801 357.74 553.801 355.531H549.801ZM549.801 346.496H553.801C553.801 344.287 552.01 342.496 549.801 342.496V346.496ZM544.199 346.496V342.496C541.99 342.496 540.199 344.287 540.199 346.496H544.199ZM544.199 355.531H540.199C540.199 357.74 541.99 359.531 544.199 359.531V355.531ZM542.676 358.988L542.417 362.98C542.503 362.985 542.589 362.988 542.676 362.988V358.988ZM540.742 356.809L536.742 356.813C536.742 356.895 536.745 356.976 536.75 357.058L540.742 356.809ZM540.73 346.074L544.73 346.07C544.73 345.983 544.727 345.895 544.722 345.808L540.73 346.074ZM542.277 343.039V339.039C541.71 339.039 541.149 339.16 540.632 339.393L542.277 343.039ZM551.723 343.039L553.368 339.393C552.851 339.16 552.29 339.039 551.723 339.039V343.039ZM553.27 346.074L549.278 345.808C549.273 345.895 549.27 345.983 549.27 346.07L553.27 346.074ZM553.258 356.809L557.25 357.058C557.255 356.976 557.258 356.895 557.258 356.813L553.258 356.809ZM551.324 358.988V362.988C551.411 362.988 551.497 362.985 551.583 362.98L551.324 358.988ZM553.801 355.531V346.496H545.801V355.531H553.801ZM549.801 342.496H544.199V350.496H549.801V342.496ZM540.199 346.496V355.531H548.199V346.496H540.199ZM544.199 359.531H549.801V351.531H544.199V359.531ZM542.935 354.997C543.117 355.008 543.745 355.125 544.282 355.73C544.756 356.264 544.744 356.72 544.734 356.559L536.75 357.058C536.826 358.273 537.18 359.779 538.298 361.039C539.48 362.371 541.032 362.89 542.417 362.98L542.935 354.997ZM544.742 356.804L544.73 346.07L536.73 346.079L536.742 356.813L544.742 356.804ZM544.722 345.808C544.719 345.773 544.719 345.749 544.719 345.734H536.719C536.719 345.939 536.726 346.141 536.739 346.34L544.722 345.808ZM544.719 345.734C544.719 345.581 544.749 345.76 544.571 346.067C544.483 346.219 544.367 346.361 544.233 346.478C544.102 346.593 543.988 346.656 543.922 346.685L540.632 339.393C539.429 339.936 538.366 340.817 537.646 342.062C536.949 343.268 536.719 344.56 536.719 345.734H544.719ZM542.277 347.039H551.723V339.039H542.277V347.039ZM550.078 346.685C550.012 346.656 549.898 346.593 549.767 346.478C549.633 346.361 549.517 346.219 549.429 346.067C549.251 345.76 549.281 345.581 549.281 345.734H557.281C557.281 344.56 557.051 343.268 556.354 342.062C555.634 340.817 554.571 339.936 553.368 339.393L550.078 346.685ZM549.281 345.734C549.281 345.749 549.281 345.773 549.278 345.808L557.261 346.34C557.274 346.141 557.281 345.939 557.281 345.734H549.281ZM549.27 346.07L549.258 356.804L557.258 356.813L557.27 346.079L549.27 346.07ZM549.266 356.559C549.256 356.72 549.244 356.264 549.718 355.73C550.255 355.125 550.883 355.008 551.065 354.997L551.583 362.98C552.968 362.89 554.52 362.371 555.702 361.039C556.82 359.779 557.174 358.273 557.25 357.058L549.266 356.559ZM551.324 354.988H542.676V362.988H551.324V354.988ZM555.414 346.32L559.414 346.282C559.393 344.088 557.608 342.32 555.414 342.32V346.32ZM554.453 346.32H550.453C550.453 348.529 552.244 350.32 554.453 350.32V346.32ZM554.453 343.062V339.062C552.244 339.062 550.453 340.853 550.453 343.062H554.453ZM564.672 343.062L565.594 339.17C565.292 339.099 564.982 339.062 564.672 339.062V343.062ZM567.977 347.434V351.434C569.073 351.434 570.122 350.983 570.877 350.188C571.632 349.393 572.028 348.323 571.971 347.227L567.977 347.434ZM564.52 347.434L560.523 347.6C560.612 349.743 562.375 351.434 564.52 351.434V347.434ZM563.289 346.32V350.32C563.41 350.32 563.531 350.315 563.651 350.304L563.289 346.32ZM558.754 346.32V342.32C556.545 342.32 554.754 344.111 554.754 346.32H558.754ZM558.754 351.055H554.754C554.754 351.137 554.756 351.219 554.762 351.301L558.754 351.055ZM561.098 355.309L563.082 351.836C563.068 351.828 563.054 351.82 563.04 351.812L561.098 355.309ZM565.902 353.551L569.022 351.047C568.238 350.07 567.042 349.517 565.79 349.552C564.538 349.587 563.375 350.207 562.647 351.226L565.902 353.551ZM568 356.164L571.358 358.338C572.295 356.89 572.199 355.005 571.119 353.66L568 356.164ZM561.918 359.141V363.141C561.966 363.141 562.013 363.14 562.061 363.138L561.918 359.141ZM556.621 355.625L560.002 353.488L559.998 353.482L556.621 355.625ZM555.461 351.277H559.461C559.461 351.265 559.461 351.252 559.461 351.24L555.461 351.277ZM555.414 342.32H554.453V350.32H555.414V342.32ZM558.453 346.32V343.062H550.453V346.32H558.453ZM554.453 347.062H564.672V339.062H554.453V347.062ZM563.75 346.955C563.916 346.994 563.969 347.03 563.957 347.023C563.938 347.011 563.898 346.979 563.866 346.937C563.799 346.848 563.947 346.971 563.982 347.64L571.971 347.227C571.881 345.475 571.416 343.658 570.247 342.112C569.043 340.519 567.377 339.593 565.594 339.17L563.75 346.955ZM567.977 343.434H564.52V351.434H567.977V343.434ZM568.516 347.267C568.481 346.432 568.268 345.118 567.279 343.974C566.176 342.698 564.709 342.309 563.547 342.309V350.309C563.002 350.309 562.006 350.106 561.227 349.206C560.562 348.437 560.527 347.685 560.523 347.6L568.516 347.267ZM563.547 342.309C563.34 342.309 563.133 342.318 562.927 342.337L563.651 350.304C563.617 350.307 563.582 350.309 563.547 350.309V342.309ZM563.289 342.32H558.754V350.32H563.289V342.32ZM554.754 346.32V351.055H562.754V346.32H554.754ZM554.762 351.301C554.855 352.821 555.147 354.846 556.348 356.404L562.683 351.518C562.805 351.677 562.864 351.798 562.884 351.843C562.904 351.888 562.897 351.883 562.878 351.81C562.837 351.653 562.779 351.336 562.746 350.808L554.762 351.301ZM556.348 356.404C557.119 357.402 558.07 358.202 559.155 358.805L563.04 351.812C562.86 351.712 562.756 351.613 562.683 351.518L556.348 356.404ZM559.113 358.782C560.313 359.467 561.591 359.637 562.633 359.637V351.637C562.534 351.637 562.533 351.628 562.605 351.643C562.679 351.659 562.856 351.706 563.082 351.836L559.113 358.782ZM562.633 359.637C562.969 359.637 563.472 359.604 563.977 359.568L563.398 351.589C563.141 351.607 562.943 351.62 562.798 351.628C562.725 351.632 562.674 351.635 562.64 351.636C562.601 351.637 562.603 351.637 562.633 351.637V359.637ZM563.977 359.568C565.639 359.447 566.807 358.486 567.346 357.993C568.007 357.387 568.612 356.639 569.157 355.876L562.647 351.226C562.461 351.487 562.305 351.688 562.178 351.838C562.049 351.991 561.971 352.067 561.945 352.091C561.911 352.123 561.988 352.044 562.176 351.939C562.356 351.838 562.78 351.633 563.398 351.589L563.977 359.568ZM562.783 356.055L564.881 358.668L571.119 353.66L569.022 351.047L562.783 356.055ZM564.642 353.99C564.32 354.488 563.693 355.074 561.775 355.143L562.061 363.138C565.815 363.004 569.242 361.606 571.358 358.338L564.642 353.99ZM561.918 355.141C562.091 355.141 562.12 355.171 561.956 355.122C561.801 355.076 561.546 354.981 561.178 354.803L557.689 362.002C558.895 362.586 560.375 363.141 561.918 363.141V355.141ZM561.178 354.803C561.061 354.746 560.624 354.471 560.002 353.488L553.24 357.762C554.337 359.498 555.775 361.074 557.689 362.002L561.178 354.803ZM559.998 353.482C559.695 353.003 559.461 352.325 559.461 351.277H551.461C551.461 353.589 552.001 355.81 553.244 357.768L559.998 353.482ZM559.461 351.24L559.414 346.282L551.414 346.358L551.461 351.315L559.461 351.24ZM579.027 342.957L581.856 340.129C580.352 338.625 577.934 338.561 576.353 339.983L579.027 342.957ZM581.453 345.383L584.144 348.343C584.953 347.607 585.426 346.572 585.452 345.478C585.478 344.384 585.055 343.328 584.282 342.554L581.453 345.383ZM576.039 350.305L573.348 347.345C572.02 348.553 571.659 350.498 572.466 352.102L576.039 350.305ZM578.957 355.168L581.757 352.311C581.741 352.296 581.725 352.28 581.709 352.265L578.957 355.168ZM580.398 355.684V351.684C580.307 351.684 580.216 351.687 580.125 351.693L580.398 355.684ZM581.57 355.684H585.57C585.57 353.474 583.779 351.684 581.57 351.684V355.684ZM581.57 359V363C583.779 363 585.57 361.209 585.57 359H581.57ZM579.109 359L578.354 362.928C578.603 362.976 578.856 363 579.109 363V359ZM573.473 352.555L577.066 350.797C576.525 349.691 575.504 348.896 574.299 348.641C573.095 348.387 571.84 348.701 570.897 349.494L573.473 352.555ZM572.512 353.363L569.936 350.303C569.033 351.063 568.512 352.183 568.512 353.363H572.512ZM572.512 359.012V363.012C574.721 363.012 576.512 361.221 576.512 359.012H572.512ZM569.172 359.012H565.172C565.172 361.221 566.963 363.012 569.172 363.012V359.012ZM569.172 343.062V339.062C566.963 339.062 565.172 340.853 565.172 343.062H569.172ZM572.5 343.062L576.5 343.054C576.495 340.848 574.706 339.062 572.5 339.062V343.062ZM572.512 348.816L568.512 348.825C568.515 350.402 569.445 351.831 570.887 352.472C572.329 353.112 574.013 352.846 575.186 351.791L572.512 348.816ZM576.199 345.785L578.625 348.211L584.282 342.554L581.856 340.129L576.199 345.785ZM578.762 342.423L573.348 347.345L578.73 353.264L584.144 348.343L578.762 342.423ZM572.466 352.102C573.16 353.482 573.789 354.653 574.346 355.582C574.843 356.41 575.473 357.377 576.205 358.071L581.709 352.265C581.839 352.388 581.682 352.26 581.206 351.466C580.792 350.775 580.262 349.799 579.613 348.507L572.466 352.102ZM576.157 358.025C577.404 359.247 579.021 359.787 580.672 359.674L580.125 351.693C580.324 351.679 580.62 351.697 580.958 351.818C581.3 351.94 581.569 352.128 581.757 352.311L576.157 358.025ZM580.398 359.684H581.57V351.684H580.398V359.684ZM577.57 355.684V359H585.57V355.684H577.57ZM581.57 355H579.109V363H581.57V355ZM579.865 355.072C580.183 355.133 579.989 355.234 579.34 354.492C578.721 353.784 577.95 352.604 577.066 350.797L569.879 354.312C570.925 356.451 572.058 358.317 573.318 359.758C574.548 361.165 576.207 362.515 578.354 362.928L579.865 355.072ZM570.897 349.494L569.936 350.303L575.087 356.424L576.048 355.615L570.897 349.494ZM568.512 353.363V359.012H576.512V353.363H568.512ZM572.512 355.012H569.172V363.012H572.512V355.012ZM573.172 359.012V343.062H565.172V359.012H573.172ZM569.172 347.062H572.5V339.062H569.172V347.062ZM568.5 343.071L568.512 348.825L576.512 348.808L576.5 343.054L568.5 343.071ZM575.186 351.791L581.702 345.931L576.353 339.983L569.837 345.842L575.186 351.791ZM582.227 343.039V339.039C580.017 339.039 578.227 340.83 578.227 343.039H582.227ZM595.586 343.039H599.586C599.586 340.83 597.795 339.039 595.586 339.039V343.039ZM595.586 346.379V350.379C597.795 350.379 599.586 348.588 599.586 346.379H595.586ZM586.562 346.379V342.379C584.353 342.379 582.562 344.17 582.562 346.379H586.562ZM586.562 349.402H582.562C582.562 351.611 584.353 353.402 586.562 353.402V349.402ZM594.051 349.402L598.051 349.389C598.043 347.185 596.255 345.402 594.051 345.402V349.402ZM594.062 352.836V356.836C595.126 356.836 596.145 356.413 596.896 355.66C597.646 354.906 598.066 353.886 598.062 352.822L594.062 352.836ZM586.527 352.836V348.836C584.318 348.836 582.527 350.627 582.527 352.836H586.527ZM589.176 355.695L589.158 359.695C589.164 359.695 589.17 359.695 589.176 359.695V355.695ZM595.586 355.695H599.586C599.586 353.486 597.795 351.695 595.586 351.695V355.695ZM595.586 359L595.607 363C597.808 362.988 599.586 361.201 599.586 359H595.586ZM589.047 359.035L589.023 363.035C589.038 363.035 589.053 363.035 589.068 363.035L589.047 359.035ZM583.094 352.836H587.094C587.094 350.627 585.303 348.836 583.094 348.836V352.836ZM582.227 352.836L578.228 352.944C578.287 355.11 580.06 356.836 582.227 356.836V352.836ZM582.133 349.379L582.235 345.38C581.138 345.352 580.078 345.776 579.302 346.553C578.527 347.329 578.105 348.39 578.134 349.487L582.133 349.379ZM583.047 349.402L582.944 353.401C584.023 353.429 585.066 353.02 585.839 352.267C586.611 351.514 587.047 350.481 587.047 349.402H583.047ZM583.047 346.379H587.047C587.047 344.17 585.256 342.379 583.047 342.379V346.379ZM582.227 346.379H578.227C578.227 348.588 580.017 350.379 582.227 350.379V346.379ZM582.227 347.039H595.586V339.039H582.227V347.039ZM591.586 343.039V346.379H599.586V343.039H591.586ZM595.586 342.379H586.562V350.379H595.586V342.379ZM582.562 346.379V349.402H590.562V346.379H582.562ZM586.562 353.402H594.051V345.402H586.562V353.402ZM590.051 349.416L590.063 352.85L598.062 352.822L598.051 349.389L590.051 349.416ZM594.062 348.836H586.527V356.836H594.062V348.836ZM582.527 352.836V353.141H590.527V352.836H582.527ZM582.527 353.141C582.527 354.649 582.929 356.498 584.412 357.93C585.866 359.332 587.697 359.689 589.158 359.695L589.193 351.695C588.889 351.694 589.395 351.621 589.966 352.172C590.567 352.752 590.527 353.328 590.527 353.141H582.527ZM589.176 359.695H595.586V351.695H589.176V359.695ZM591.586 355.695V359H599.586V355.695H591.586ZM595.564 355L589.025 355.035L589.068 363.035L595.607 363L595.564 355ZM589.07 355.035C587.505 355.026 587.06 354.697 587.068 354.703C587.075 354.709 587.095 354.727 587.118 354.756C587.128 354.77 587.136 354.783 587.142 354.793C587.148 354.804 587.151 354.81 587.151 354.809C587.151 354.809 587.147 354.801 587.142 354.784C587.137 354.766 587.13 354.738 587.123 354.698C587.108 354.618 587.094 354.493 587.094 354.312H579.094C579.094 356.781 579.925 359.249 582.096 360.971C584.088 362.551 586.62 363.021 589.023 363.035L589.07 355.035ZM587.094 354.312V352.836H579.094V354.312H587.094ZM583.094 348.836H582.227V356.836H583.094V348.836ZM586.225 352.728L586.131 349.27L578.134 349.487L578.228 352.944L586.225 352.728ZM582.03 353.378L582.944 353.401L583.149 345.404L582.235 345.38L582.03 353.378ZM587.047 349.402V346.379H579.047V349.402H587.047ZM583.047 342.379H582.227V350.379H583.047V342.379ZM586.227 346.379V343.039H578.227V346.379H586.227ZM601.152 346.391L601.144 342.391C598.938 342.395 597.152 344.185 597.152 346.391H601.152ZM601.152 355.684H597.152C597.152 357.362 598.2 358.861 599.775 359.439L601.152 355.684ZM604.797 355.121L606.876 358.539C606.884 358.533 606.893 358.528 606.901 358.523L604.797 355.121ZM606.367 353.223L602.616 351.835C602.613 351.843 602.61 351.851 602.607 351.859L606.367 353.223ZM606.637 346.379L610.635 346.267C610.575 344.099 608.797 342.374 606.628 342.379L606.637 346.379ZM597.695 355.672L597.747 359.672C599.936 359.643 601.695 357.861 601.695 355.672H597.695ZM597.695 346.379H601.695C601.695 344.17 599.904 342.379 597.695 342.379V346.379ZM596.852 346.379L592.852 346.365C592.848 347.428 593.268 348.449 594.018 349.202C594.769 349.956 595.788 350.379 596.852 350.379V346.379ZM596.863 343.074V339.074C594.66 339.074 592.871 340.856 592.863 343.06L596.863 343.074ZM607.961 343.074L607.982 339.074C607.975 339.074 607.968 339.074 607.961 339.074L607.961 343.074ZM610.211 343.086H614.211C614.211 340.885 612.433 339.097 610.232 339.086L610.211 343.086ZM610.211 350.211H606.211C606.211 350.233 606.211 350.254 606.211 350.276L610.211 350.211ZM609.812 353.844L613.646 354.987L613.648 354.979L609.812 353.844ZM607.984 356.867L604.994 354.211L604.992 354.213L607.984 356.867ZM604.938 358.789L605.773 362.701C605.779 362.7 605.785 362.698 605.791 362.697L604.938 358.789ZM596.758 359.012L592.758 358.984C592.743 361.171 594.487 362.965 596.674 363.011L596.758 359.012ZM596.781 355.684L596.73 351.684C594.552 351.712 592.797 353.477 592.781 355.655L596.781 355.684ZM597.152 346.391V355.684H605.152V346.391H597.152ZM599.775 359.439C600.74 359.793 601.791 359.812 602.383 359.812V351.812C602.284 351.812 602.207 351.811 602.149 351.808C602.09 351.806 602.059 351.803 602.053 351.802C602.044 351.801 602.079 351.804 602.146 351.818C602.18 351.825 602.23 351.836 602.292 351.852C602.353 351.869 602.434 351.893 602.529 351.928L599.775 359.439ZM602.383 359.812C603.999 359.812 605.519 359.364 606.876 358.539L602.718 351.704C602.56 351.8 602.47 351.812 602.383 351.812V359.812ZM606.901 358.523C608.382 357.607 609.515 356.275 610.127 354.587L602.607 351.859C602.609 351.853 602.616 351.836 602.629 351.813C602.642 351.79 602.658 351.767 602.676 351.745C602.693 351.724 602.707 351.711 602.714 351.706C602.72 351.7 602.715 351.706 602.693 351.719L606.901 358.523ZM610.119 354.61C610.43 353.769 610.536 352.817 610.592 352.115C610.656 351.305 610.684 350.335 610.684 349.238H602.684C602.684 350.227 602.658 350.965 602.617 351.482C602.597 351.74 602.575 351.904 602.56 351.995C602.541 352.109 602.546 352.025 602.616 351.835L610.119 354.61ZM610.684 349.238C610.684 348.4 610.667 347.408 610.635 346.267L602.638 346.491C602.669 347.585 602.684 348.498 602.684 349.238H610.684ZM606.628 342.379L601.144 342.391L601.161 350.391L606.645 350.379L606.628 342.379ZM601.695 355.672V346.379H593.695V355.672H601.695ZM597.695 342.379H596.852V350.379H597.695V342.379ZM600.852 346.393L600.863 343.088L592.863 343.06L592.852 346.365L600.852 346.393ZM596.863 347.074H607.961V339.074H596.863V347.074ZM607.94 347.074L610.19 347.086L610.232 339.086L607.982 339.074L607.94 347.074ZM606.211 343.086V350.211H614.211V343.086H606.211ZM606.211 350.276C606.231 351.471 606.114 352.247 605.977 352.708L613.648 354.979C614.089 353.488 614.238 351.842 614.21 350.146L606.211 350.276ZM605.979 352.7C605.909 352.937 605.676 353.443 604.994 354.211L610.975 359.523C612.153 358.198 613.138 356.688 613.646 354.987L605.979 352.7ZM604.992 354.213C604.505 354.762 604.196 354.857 604.084 354.881L605.791 362.697C607.898 362.237 609.62 361.05 610.976 359.522L604.992 354.213ZM604.102 354.877C604.106 354.876 604.081 354.882 604.017 354.891C603.954 354.9 603.869 354.911 603.756 354.923C603.529 354.946 603.228 354.968 602.845 354.987C602.077 355.026 601.062 355.047 599.781 355.047V363.047C602.321 363.047 604.48 362.977 605.773 362.701L604.102 354.877ZM599.781 355.047C598.917 355.047 597.937 355.036 596.842 355.013L596.674 363.011C597.813 363.035 598.849 363.047 599.781 363.047V355.047ZM600.758 359.04L600.781 355.712L592.781 355.655L592.758 358.984L600.758 359.04ZM596.833 359.683L597.747 359.672L597.644 351.672L596.73 351.684L596.833 359.683Z" fill="#030025" mask="url(#path-4-outside-2_12_46)"/>
<defs>
<filter id="filter0_d_12_46" x="208" y="0" width="208" height="208" filterUnits="userSpaceOnUse" color-interpolation-filters="sRGB">
<feFlood flood-opacity="0" result="BackgroundImageFix"/>
<feColorMatrix in="SourceAlpha" type="matrix" values="0 0 0 0 0 0 0 0 0 0 0 0 0 0 0 0 0 0 127 0" result="hardAlpha"/>
<feOffset dx="4" dy="4"/>
<feGaussianBlur stdDeviation="2"/>
<feComposite in2="hardAlpha" operator="out"/>
<feColorMatrix type="matrix" values="0 0 0 0 0 0 0 0 0 0 0 0 0 0 0 0 0 0 0.5 0"/>
<feBlend mode="normal" in2="BackgroundImageFix" result="effect1_dropShadow_12_46"/>
<feBlend mode="normal" in="SourceGraphic" in2="effect1_dropShadow_12_46" result="shape"/>
</filter>
<linearGradient id="paint0_linear_12_46" x1="384.667" y1="2.88751e-06" x2="264.667" y2="153.333" gradientUnits="userSpaceOnUse">
<stop stop-color="#0B008A"/>
<stop offset="1" stop-color="#18144D"/>
</linearGradient>
</defs>
</svg>
