<svg width="384" height="75" viewBox="0 0 384 75" fill="none" xmlns="http://www.w3.org/2000/svg">
<path d="M11.375 0C1.25018 0 1.25 5.0625 1.25 5.0625V5.39453C0.532592 6.89356 0 9.09787 0 12.375V63L6.16602 66.084L10.25 74.25H60.875C70.9998 74.25 71 69.1875 71 69.1875V68.8652C71.7181 67.3662 72.25 65.1541 72.25 61.875V11.25L66.084 8.16602L62 0H11.375ZM20.25 20.25H52V54H20.25V20.25ZM26.125 22.125C26.2017 22.125 23.2012 22.125 23.2012 27.125V47.125C23.2012 52.125 26.2012 52.125 26.2012 52.125H31.2012V49.125C31.2012 46.125 28.2012 49.125 28.2012 46.125V28.125C28.2012 25.125 31.2012 28.125 31.2012 25.125V22.125H26.125ZM41.0488 22.125V25.125C41.0488 28.125 44.0488 25.125 44.0488 28.125V46.125C44.0488 49.125 41.0488 46.125 41.0488 49.125V52.125H46.0488C46.0488 52.125 49.0488 52.125 49.0488 47.125V27.125C49.0488 22.125 46.0484 22.125 46.125 22.125H41.0488Z" fill="url(#paint0_linear_1_58)"/>
<path d="M30 29H42V33H30V29Z" fill="url(#paint1_linear_1_58)"/>
<path d="M42 35H30V39H42V35Z" fill="url(#paint2_linear_1_58)"/>
<path d="M30 41V45H42V41H30Z" fill="url(#paint3_linear_1_58)"/>
<path d="M384 58.1908V47.3636C384 46.1084 382.982 45.0909 381.727 45.0909H372.636C371.381 45.0909 370.364 46.1084 370.364 47.3636C370.364 48.6188 369.346 49.6364 368.091 49.6364H347.636C346.381 49.6364 345.364 50.6539 345.364 51.9091V61C345.364 62.2552 346.381 63.2727 347.636 63.2727H374.909C379.851 63.2727 382.679 60.7849 383.73 59.1906C383.924 58.896 384 58.5436 384 58.1908Z" fill="url(#paint4_linear_1_58)"/>
<path d="M372.636 11C371.381 11 370.364 12.0175 370.364 13.2727V38.6202C370.364 39.7312 371.167 40.6793 372.263 40.862L381.354 42.3771C382.739 42.608 384 41.5397 384 40.1353V13.2727C384 12.0175 382.982 11 381.727 11H372.636Z" fill="url(#paint5_linear_1_58)"/>
<path d="M347.636 11C346.381 11 345.364 12.0175 345.364 13.2727V33.1908C345.364 33.5436 345.439 33.896 345.634 34.1905C346.685 35.7849 349.512 38.2727 354.455 38.2727H363.545C364.303 38.2727 365.894 37.8182 366.197 36L367.65 27.2827C367.881 25.8974 366.812 24.6364 365.408 24.6364H361.273C360.018 24.6364 359 23.6188 359 22.3636V13.2727C359 12.0175 357.982 11 356.727 11H347.636Z" fill="url(#paint6_linear_1_58)"/>
<path d="M177.182 13.2727V61C177.182 62.2552 178.199 63.2727 179.455 63.2727H188.545C189.801 63.2727 190.818 62.2552 190.818 61V26.9091C190.818 25.6539 191.836 24.6364 193.091 24.6364H202.182C203.437 24.6364 204.455 25.6539 204.455 26.9091C204.455 28.1643 205.472 29.1818 206.727 29.1818H213.545C214.801 29.1818 215.818 28.1643 215.818 26.9091V13.2727C215.818 11.4545 214.303 11 213.545 11H181.727C178.091 11 177.182 12.5152 177.182 13.2727Z" fill="url(#paint7_linear_1_58)"/>
<path d="M195.393 40.9128C195.354 40.6717 195.324 40.4273 195.247 40.1956L194.088 36.7187C193.597 35.247 194.693 33.7273 196.244 33.7273H211.273C214.909 33.7273 215.818 39.7879 215.818 42.8182V61C215.818 62.2552 214.801 63.2727 213.545 63.2727H206.727C205.472 63.2727 204.455 62.2552 204.455 61V45.0909C204.455 43.8357 203.437 42.8182 202.182 42.8182H197.636C196.506 42.8182 195.569 41.9933 195.393 40.9128Z" fill="url(#paint8_linear_1_58)"/>
<path d="M340.818 22.3636V13.2727C340.818 12.0175 339.806 11 338.551 11H309C305.364 11 304.455 14.0303 304.455 15.5455V61C304.455 62.2552 305.472 63.2727 306.727 63.2727H315.818C317.073 63.2727 318.091 62.2552 318.091 61V26.9091C318.091 25.6539 319.108 24.6364 320.364 24.6364H338.545C339.801 24.6364 340.818 23.6188 340.818 22.3636Z" fill="url(#paint9_linear_1_58)"/>
<path d="M338.551 31.4545H323.134C321.7 31.4545 320.626 32.7666 320.907 34.173L322.271 40.9912C322.483 42.0535 323.416 42.8182 324.5 42.8182H338.545C339.801 42.8182 340.818 41.8006 340.818 40.5455V33.7273C340.818 32.4721 339.806 31.4545 338.551 31.4545Z" fill="url(#paint10_linear_1_58)"/>
<path d="M261.273 51.9091V61C261.273 62.2552 262.287 63.2727 263.543 63.2727H290.818C298.091 63.2727 299.909 60.2424 299.909 58.7273V38.2727C299.909 37.1121 299.039 36.1546 297.916 36.017C297.731 35.9944 297.545 35.9772 297.365 35.9321L288.817 33.7951C288.637 33.7501 288.451 33.7263 288.265 33.7283C287.142 33.7402 286.273 33.8989 286.273 36V47.3636C286.273 48.6188 285.255 49.6364 284 49.6364H263.545C262.29 49.6364 261.273 50.6539 261.273 51.9091Z" fill="url(#paint11_linear_1_58)"/>
<path d="M299.909 11V22.3636C299.909 23.6188 298.892 24.6364 297.636 24.6364H277.182C275.927 24.6364 274.909 25.6539 274.909 26.9091V33.7273H261.273V15.5455C261.273 14.0303 263.091 11 270.364 11H299.909Z" fill="url(#paint12_linear_1_58)"/>
<path d="M280.847 40.5455C282.398 40.5455 283.493 39.0257 283.003 37.554L282.245 35.2813C281.936 34.3533 281.067 33.7273 280.089 33.7273H274.909H261.273V38.2727C261.273 39.5279 262.29 40.5455 263.545 40.5455H280.847Z" fill="url(#paint13_linear_1_58)"/>
<path d="M254.455 11C255.71 11 256.727 12.0175 256.727 13.2727V22.3636C256.727 23.6188 255.71 24.6364 254.455 24.6364H222.636C221.381 24.6364 220.364 23.6188 220.364 22.3636V13.2727C220.364 12.0175 221.381 11 222.636 11H254.455Z" fill="url(#paint14_linear_1_58)"/>
<path d="M231.727 29.592C231.727 28.1875 232.988 27.1193 234.374 27.3502L243.465 28.8653C244.56 29.0479 245.364 29.9961 245.364 31.1071V61C245.364 62.2552 244.346 63.2727 243.091 63.2727H234C232.745 63.2727 231.727 62.2552 231.727 61V29.592Z" fill="url(#paint15_linear_1_58)"/>
<path d="M136.273 11H170.364C171.619 11 172.636 12.0175 172.636 13.2727V22.3636C172.636 23.6188 171.619 24.6364 170.364 24.6364H149.909C148.654 24.6364 147.636 25.6539 147.636 26.9091V49.6364C147.636 50.8916 148.654 51.9091 149.909 51.9091H170.364C171.619 51.9091 172.636 52.9266 172.636 54.1818V61C172.636 62.2552 171.619 63.2727 170.364 63.2727H136.273C135.018 63.2727 134 62.2552 134 61V13.2727C134 12.0175 135.018 11 136.273 11Z" fill="url(#paint16_linear_1_58)"/>
<path d="M151.751 41.0967L150.615 36.5512C150.256 35.1168 151.341 33.7273 152.82 33.7273H170.364C171.619 33.7273 172.636 34.7448 172.636 36V40.5455C172.636 41.8006 171.619 42.8182 170.364 42.8182H153.956C152.913 42.8182 152.004 42.1084 151.751 41.0967Z" fill="url(#paint17_linear_1_58)"/>
<path d="M84 61V13.2727C84 12.0175 85.0175 11 86.2727 11H93.0909C94.3461 11 95.3636 12.0175 95.3636 13.2727V45.0909C95.3636 46.3461 96.3812 47.3636 97.6364 47.3636H105.084C106.829 47.3636 107.923 49.2488 107.057 50.764L100.563 62.1276C100.159 62.8357 99.4058 63.2727 98.5902 63.2727H86.2727C85.0175 63.2727 84 62.2552 84 61Z" fill="url(#paint18_linear_1_58)"/>
<path d="M129.455 61V13.2727C129.455 12.0175 128.437 11 127.182 11H120.364C119.108 11 118.091 12.0175 118.091 13.2727V45.0909C118.091 46.3461 117.073 47.3636 115.818 47.3636H108.371C106.626 47.3636 105.532 49.2488 106.398 50.764L112.891 62.1276C113.296 62.8357 114.049 63.2727 114.864 63.2727H127.182C128.437 63.2727 129.455 62.2552 129.455 61Z" fill="url(#paint19_linear_1_58)"/>
<path d="M101.045 39.3795V13.2727C101.045 12.0175 102.063 11 103.318 11H110.136C111.392 11 112.409 12.0175 112.409 13.2727V40.7431C112.409 42.1773 111.097 43.253 109.691 42.9717L102.872 41.6081C101.81 41.3956 101.045 40.4629 101.045 39.3795Z" fill="url(#paint20_linear_1_58)"/>
<defs>
<linearGradient id="paint0_linear_1_58" x1="60.25" y1="69.25" x2="5.24999" y2="4.24998" gradientUnits="userSpaceOnUse">
<stop stop-color="#002255"/>
<stop offset="1" stop-color="#5500D4"/>
</linearGradient>
<linearGradient id="paint1_linear_1_58" x1="60.25" y1="69.25" x2="5.24999" y2="4.24998" gradientUnits="userSpaceOnUse">
<stop stop-color="#002255"/>
<stop offset="1" stop-color="#5500D4"/>
</linearGradient>
<linearGradient id="paint2_linear_1_58" x1="60.25" y1="69.25" x2="5.24999" y2="4.24998" gradientUnits="userSpaceOnUse">
<stop stop-color="#002255"/>
<stop offset="1" stop-color="#5500D4"/>
</linearGradient>
<linearGradient id="paint3_linear_1_58" x1="60.25" y1="69.25" x2="5.24999" y2="4.24998" gradientUnits="userSpaceOnUse">
<stop stop-color="#002255"/>
<stop offset="1" stop-color="#5500D4"/>
</linearGradient>
<linearGradient id="paint4_linear_1_58" x1="384" y1="16" x2="90" y2="59" gradientUnits="userSpaceOnUse">
<stop stop-color="#5500D4"/>
<stop offset="1" stop-color="#002255"/>
</linearGradient>
<linearGradient id="paint5_linear_1_58" x1="384" y1="16" x2="90" y2="59" gradientUnits="userSpaceOnUse">
<stop stop-color="#5500D4"/>
<stop offset="1" stop-color="#002255"/>
</linearGradient>
<linearGradient id="paint6_linear_1_58" x1="384" y1="16" x2="90" y2="59" gradientUnits="userSpaceOnUse">
<stop stop-color="#5500D4"/>
<stop offset="1" stop-color="#002255"/>
</linearGradient>
<linearGradient id="paint7_linear_1_58" x1="384" y1="16" x2="90" y2="59" gradientUnits="userSpaceOnUse">
<stop stop-color="#5500D4"/>
<stop offset="1" stop-color="#002255"/>
</linearGradient>
<linearGradient id="paint8_linear_1_58" x1="384" y1="16" x2="90" y2="59" gradientUnits="userSpaceOnUse">
<stop stop-color="#5500D4"/>
<stop offset="1" stop-color="#002255"/>
</linearGradient>
<linearGradient id="paint9_linear_1_58" x1="384" y1="16" x2="90" y2="59" gradientUnits="userSpaceOnUse">
<stop stop-color="#5500D4"/>
<stop offset="1" stop-color="#002255"/>
</linearGradient>
<linearGradient id="paint10_linear_1_58" x1="384" y1="16" x2="90" y2="59" gradientUnits="userSpaceOnUse">
<stop stop-color="#5500D4"/>
<stop offset="1" stop-color="#002255"/>
</linearGradient>
<linearGradient id="paint11_linear_1_58" x1="384" y1="16" x2="90" y2="59" gradientUnits="userSpaceOnUse">
<stop stop-color="#5500D4"/>
<stop offset="1" stop-color="#002255"/>
</linearGradient>
<linearGradient id="paint12_linear_1_58" x1="384" y1="16" x2="90" y2="59" gradientUnits="userSpaceOnUse">
<stop stop-color="#5500D4"/>
<stop offset="1" stop-color="#002255"/>
</linearGradient>
<linearGradient id="paint13_linear_1_58" x1="384" y1="16" x2="90" y2="59" gradientUnits="userSpaceOnUse">
<stop stop-color="#5500D4"/>
<stop offset="1" stop-color="#002255"/>
</linearGradient>
<linearGradient id="paint14_linear_1_58" x1="384" y1="16" x2="90" y2="59" gradientUnits="userSpaceOnUse">
<stop stop-color="#5500D4"/>
<stop offset="1" stop-color="#002255"/>
</linearGradient>
<linearGradient id="paint15_linear_1_58" x1="384" y1="16" x2="90" y2="59" gradientUnits="userSpaceOnUse">
<stop stop-color="#5500D4"/>
<stop offset="1" stop-color="#002255"/>
</linearGradient>
<linearGradient id="paint16_linear_1_58" x1="384" y1="16" x2="90" y2="59" gradientUnits="userSpaceOnUse">
<stop stop-color="#5500D4"/>
<stop offset="1" stop-color="#002255"/>
</linearGradient>
<linearGradient id="paint17_linear_1_58" x1="384" y1="16" x2="90" y2="59" gradientUnits="userSpaceOnUse">
<stop stop-color="#5500D4"/>
<stop offset="1" stop-color="#002255"/>
</linearGradient>
<linearGradient id="paint18_linear_1_58" x1="384" y1="16" x2="90" y2="59" gradientUnits="userSpaceOnUse">
<stop stop-color="#5500D4"/>
<stop offset="1" stop-color="#002255"/>
</linearGradient>
<linearGradient id="paint19_linear_1_58" x1="384" y1="16" x2="90" y2="59" gradientUnits="userSpaceOnUse">
<stop stop-color="#5500D4"/>
<stop offset="1" stop-color="#002255"/>
</linearGradient>
<linearGradient id="paint20_linear_1_58" x1="384" y1="16" x2="90" y2="59" gradientUnits="userSpaceOnUse">
<stop stop-color="#5500D4"/>
<stop offset="1" stop-color="#002255"/>
</linearGradient>
</defs>
</svg>
