<?xml version="1.0" encoding="UTF-8" standalone="no"?>
<svg
   version="1.0"
   width="54.375008pt"
   height="56.624977pt"
   viewBox="0 0 54.375006 56.624977"
   preserveAspectRatio="xMidYMid meet"
   id="svg24"
   sodipodi:docname="favicon.svg"
   inkscape:version="1.1 (c68e22c387, 2021-05-23)"
   inkscape:export-filename="C:\Users\humba\Documents\project-one\Wertsfy\docs\favicon.png"
   inkscape:export-xdpi="120"
   inkscape:export-ydpi="120"
   xmlns:inkscape="http://www.inkscape.org/namespaces/inkscape"
   xmlns:sodipodi="http://sodipodi.sourceforge.net/DTD/sodipodi-0.dtd"
   xmlns:xlink="http://www.w3.org/1999/xlink"
   xmlns="http://www.w3.org/2000/svg"
   xmlns:svg="http://www.w3.org/2000/svg">
  <defs
     id="defs28">
    <linearGradient
       inkscape:collect="always"
       id="linearGradient19628">
      <stop
         style="stop-color:#002255;stop-opacity:1"
         offset="0"
         id="stop19624" />
      <stop
         style="stop-color:#5500d4;stop-opacity:1"
         offset="1"
         id="stop19626" />
    </linearGradient>
    <linearGradient
       inkscape:collect="always"
       xlink:href="#linearGradient19628"
       id="linearGradient19630"
       x1="65"
       y1="204.99998"
       x2="10.000001"
       y2="139.99998"
       gradientUnits="userSpaceOnUse"
       gradientTransform="translate(-8.2920579e-6,-5.9999955)" />
  </defs>
  <sodipodi:namedview
     id="namedview26"
     pagecolor="#ffffff"
     bordercolor="#666666"
     borderopacity="1.0"
     inkscape:pageshadow="2"
     inkscape:pageopacity="0.0"
     inkscape:pagecheckerboard="0"
     inkscape:document-units="pt"
     showgrid="false"
     inkscape:zoom="0.70710678"
     inkscape:cx="-1.4142136"
     inkscape:cy="-26.162951"
     inkscape:window-width="1366"
     inkscape:window-height="697"
     inkscape:window-x="-8"
     inkscape:window-y="-8"
     inkscape:window-maximized="1"
     inkscape:current-layer="g43000"
     fit-margin-top="0"
     fit-margin-left="0"
     fit-margin-right="0"
     fit-margin-bottom="0">
    <inkscape:grid
       type="xygrid"
       id="grid244"
       originx="-3.5624983"
       originy="-98.427468" />
  </sodipodi:namedview>
  <g
     transform="matrix(0.1,0,0,-0.1,-520.79984,601.44884)"
     fill="#000000"
     stroke="none"
     id="g22">
    <g
       id="g1405"
       transform="matrix(0.5,0,0,0.5,8734.2517,2706.9463)" />
    <g
       id="g7877"
       transform="translate(187.49948)"
       inkscape:export-filename="C:\Users\humba\Downloads\Wertsfy-New-Logo.png"
       inkscape:export-xdpi="120"
       inkscape:export-ydpi="120">
      <g
         id="g7838"
         transform="matrix(0.50000002,0,0,0.50000002,8359.2517,2376.9463)" />
      <g
         id="g421"
         inkscape:export-filename="C:\Users\humba\OneDrive\BDR\Wertsfy-Next-Logos\Wertsfy-New-Logo-Icon.png"
         inkscape:export-xdpi="120"
         inkscape:export-ydpi="120">
        <g
           id="g7834"
           transform="matrix(1.1,0,0,1.1,-682.79408,-505.83016)">
          <g
             id="g14089"
             transform="matrix(-41.019921,0,0,40.805876,8904.298,1346.5769)"
             inkscape:export-filename="C:\Users\humba\OneDrive\BDN\Wertsfy Projects\Wertsfy Logo Icon.png"
             inkscape:export-xdpi="120"
             inkscape:export-ydpi="120"
             style="fill:#212178;fill-opacity:0.8">
            <g
               id="g20472">
              <g
                 id="g24819" />
              <text
                 xml:space="preserve"
                 style="font-weight:bold;font-size:7.11048px;line-height:1.25;font-family:'Uni Sans SemiBold';-inkscape-font-specification:'Uni Sans SemiBold,  Bold';text-align:end;text-anchor:end;stroke-width:0.166652"
                 x="-41.292072"
                 y="-103.42647"
                 id="text30724"
                 transform="scale(-0.99738755,-1.0026193)"><tspan
                   sodipodi:role="line"
                   id="tspan30722"
                   style="stroke-width:0.166652"
                   x="-41.292072"
                   y="-103.42647" /></text>
              <g
                 id="g42626">
                <g
                   id="g42931">
                  <g
                     id="g43000"
                     inkscape:export-filename="C:\Users\humba\OneDrive\Humbanew Projects\Wertsfy-Next-Logos\Wertsfy-Logotype-UltimateX.png"
                     inkscape:export-xdpi="120"
                     inkscape:export-ydpi="120">
                    <g
                       id="g30017"
                       transform="translate(0,-0.24839527)">
                      <path
                         id="path18929-1"
                         style="fill:#1c1c24;fill-opacity:1;stroke:none;stroke-width:0.843678px;stroke-linecap:butt;stroke-linejoin:miter;stroke-opacity:1"
                         d="m 88.742852,112.30242 c 1.68291,0 1.682941,-0.84588 1.682941,-0.84588 v -0.0555 c 0.119245,-0.25047 0.20777,-0.61879 0.20777,-1.16636 v -8.45882 l -1.024892,-0.51529 -0.678825,-1.364446 h -8.414704 c -1.682909,0 -1.68294,0.845876 -1.68294,0.845876 v 0.0538 c -0.119355,0.25048 -0.207771,0.62009 -0.207771,1.16799 v 8.45884 l 1.024893,0.51529 0.678825,1.36445 z m -1.47517,-3.38354 h -5.277369 v -5.63922 h 5.277369 z m -0.976521,-0.31329 c -0.01274,0 0.485988,0 0.485988,-0.83544 v -3.34176 c 0,-0.83544 -0.498649,-0.83544 -0.498649,-0.83544 h -0.831082 v 0.50126 c 0,0.50127 0.498649,0 0.498649,0.50127 v 3.00758 c 0,0.50126 -0.498649,1e-5 -0.498649,0.50127 v 0.50126 z m -2.480584,0 v -0.50126 c 0,-0.50126 -0.49865,-1e-5 -0.49865,-0.50127 v -3.00758 c 0,-0.50127 0.49865,0 0.49865,-0.50127 v -0.50126 h -0.831082 c 0,0 -0.498649,0 -0.498649,0.83544 v 3.34176 c 0,0.83544 0.498728,0.83544 0.485988,0.83544 z" />
                      <path
                         id="path18929"
                         style="fill:url(#linearGradient19630);fill-opacity:1;stroke:none;stroke-width:5.06252px;stroke-linecap:butt;stroke-linejoin:miter;stroke-opacity:1"
                         d="M 16.125,129.75 C 6.000184,129.75 6,134.8125 6,134.8125 v 0.33203 c -0.7174083,1.49903 -1.25,3.70334 -1.25,6.98047 v 50.625 l 6.166016,3.08398 L 15,204 h 50.625 c 10.12481,0 10.125,-5.0625 10.125,-5.0625 v -0.32227 C 76.46807,197.11615 77,194.90411 77,191.625 V 141 L 70.833984,137.91602 66.75,129.75 Z M 25,150 h 31.75 v 33.75 H 25 Z m 5.875,1.875 c 0.07665,0 -2.923828,1e-5 -2.923828,5 v 20 c 0,4.99999 3,5 3,5 h 5 v -3 c 0,-3.00003 -3,3e-5 -3,-3 v -18 c 0,-2.99997 3,-3e-5 3,-3 v -3 z m 14.923828,0 v 3 c 0,2.99997 3,3e-5 3,3 v 18 c 0,3.00003 -3,-3e-5 -3,3 v 3 h 5 c 0,0 3,-1e-5 3,-5 v -20 c 0,-4.99999 -3.000475,-5 -2.923828,-5 z"
                         transform="matrix(-0.16621636,0,0,-0.16708824,91.464646,134.19098)" />
                    </g>
                  </g>
                </g>
              </g>
            </g>
          </g>
        </g>
      </g>
    </g>
  </g>
</svg>
