<svg width="266" height="51" viewBox="0 0 266 51" fill="none" xmlns="http://www.w3.org/2000/svg">
<g filter="url(#filter0_d_514_31)">
<rect x="4" y="4" width="258" height="43" rx="4" fill="#0F3057"/>
<path d="M36.3708 32V18H42.1308C43.0108 18 43.7841 18.18 44.4508 18.54C45.1308 18.8867 45.6574 19.38 46.0308 20.02C46.4174 20.66 46.6108 21.42 46.6108 22.3V22.58C46.6108 23.4467 46.4108 24.2067 46.0108 24.86C45.6241 25.5 45.0908 26 44.4108 26.36C43.7441 26.7067 42.9841 26.88 42.1308 26.88H39.0108V32H36.3708ZM39.0108 24.48H41.8708C42.4974 24.48 43.0041 24.3067 43.3908 23.96C43.7774 23.6133 43.9708 23.14 43.9708 22.54V22.34C43.9708 21.74 43.7774 21.2667 43.3908 20.92C43.0041 20.5733 42.4974 20.4 41.8708 20.4H39.0108V24.48ZM53.0067 32.28C52.0201 32.28 51.1334 32.08 50.3467 31.68C49.5601 31.28 48.9401 30.7 48.4867 29.94C48.0334 29.18 47.8067 28.2667 47.8067 27.2V26.88C47.8067 25.8133 48.0334 24.9 48.4867 24.14C48.9401 23.38 49.5601 22.8 50.3467 22.4C51.1334 22 52.0201 21.8 53.0067 21.8C53.9934 21.8 54.8801 22 55.6667 22.4C56.4534 22.8 57.0734 23.38 57.5267 24.14C57.9801 24.9 58.2067 25.8133 58.2067 26.88V27.2C58.2067 28.2667 57.9801 29.18 57.5267 29.94C57.0734 30.7 56.4534 31.28 55.6667 31.68C54.8801 32.08 53.9934 32.28 53.0067 32.28ZM53.0067 30.04C53.7801 30.04 54.4201 29.7933 54.9267 29.3C55.4334 28.7933 55.6867 28.0733 55.6867 27.14V26.94C55.6867 26.0067 55.4334 25.2933 54.9267 24.8C54.4334 24.2933 53.7934 24.04 53.0067 24.04C52.2334 24.04 51.5934 24.2933 51.0867 24.8C50.5801 25.2933 50.3267 26.0067 50.3267 26.94V27.14C50.3267 28.0733 50.5801 28.7933 51.0867 29.3C51.5934 29.7933 52.2334 30.04 53.0067 30.04ZM60.5328 32V22.08H63.0128V23.2H63.3728C63.5195 22.8 63.7595 22.5067 64.0928 22.32C64.4395 22.1333 64.8395 22.04 65.2928 22.04H66.4928V24.28H65.2528C64.6128 24.28 64.0861 24.4533 63.6728 24.8C63.2595 25.1333 63.0528 25.6533 63.0528 26.36V32H60.5328ZM72.2625 32C71.6092 32 71.0758 31.8 70.6625 31.4C70.2625 30.9867 70.0625 30.44 70.0625 29.76V24.16H67.5825V22.08H70.0625V19H72.5825V22.08H75.3025V24.16H72.5825V29.32C72.5825 29.72 72.7692 29.92 73.1425 29.92H75.0625V32H72.2625ZM81.3636 32.16C80.5903 32.16 79.9103 31.9867 79.3236 31.64C78.7503 31.28 78.3036 30.7867 77.9836 30.16C77.6636 29.5333 77.5036 28.8133 77.5036 28V22.08H80.0236V27.8C80.0236 28.5467 80.2036 29.1067 80.5636 29.48C80.9369 29.8533 81.4636 30.04 82.1436 30.04C82.9169 30.04 83.5169 29.7867 83.9436 29.28C84.3703 28.76 84.5836 28.04 84.5836 27.12V22.08H87.1036V32H84.6236V30.7H84.2636C84.1036 31.0333 83.8036 31.36 83.3636 31.68C82.9236 32 82.2569 32.16 81.3636 32.16ZM89.4278 27.08V26.76C89.4278 25.72 89.6345 24.8333 90.0478 24.1C90.4611 23.3533 91.0078 22.7867 91.6878 22.4C92.3811 22 93.1345 21.8 93.9478 21.8C94.8545 21.8 95.5411 21.96 96.0078 22.28C96.4745 22.6 96.8145 22.9333 97.0278 23.28H97.3878V22.08H99.8678V33.76C99.8678 34.44 99.6678 34.98 99.2678 35.38C98.8678 35.7933 98.3345 36 97.6678 36H91.0278V33.8H96.7878C97.1611 33.8 97.3478 33.6 97.3478 33.2V30.62H96.9878C96.8545 30.8333 96.6678 31.0533 96.4278 31.28C96.1878 31.4933 95.8678 31.6733 95.4678 31.82C95.0678 31.9667 94.5611 32.04 93.9478 32.04C93.1345 32.04 92.3811 31.8467 91.6878 31.46C91.0078 31.06 90.4611 30.4933 90.0478 29.76C89.6345 29.0133 89.4278 28.12 89.4278 27.08ZM94.6678 29.84C95.4411 29.84 96.0878 29.5933 96.6078 29.1C97.1278 28.6067 97.3878 27.9133 97.3878 27.02V26.82C97.3878 25.9133 97.1278 25.22 96.6078 24.74C96.1011 24.2467 95.4545 24 94.6678 24C93.8945 24 93.2478 24.2467 92.7278 24.74C92.2078 25.22 91.9478 25.9133 91.9478 26.82V27.02C91.9478 27.9133 92.2078 28.6067 92.7278 29.1C93.2478 29.5933 93.8945 29.84 94.6678 29.84ZM106.442 32.16C105.668 32.16 104.988 31.9867 104.402 31.64C103.828 31.28 103.382 30.7867 103.062 30.16C102.742 29.5333 102.582 28.8133 102.582 28V22.08H105.102V27.8C105.102 28.5467 105.282 29.1067 105.642 29.48C106.015 29.8533 106.542 30.04 107.222 30.04C107.995 30.04 108.595 29.7867 109.022 29.28C109.448 28.76 109.662 28.04 109.662 27.12V22.08H112.182V32H109.702V30.7H109.342C109.182 31.0333 108.882 31.36 108.442 31.68C108.002 32 107.335 32.16 106.442 32.16ZM119.506 32.28C118.519 32.28 117.646 32.0733 116.886 31.66C116.139 31.2333 115.553 30.64 115.126 29.88C114.713 29.1067 114.506 28.2 114.506 27.16V26.92C114.506 25.88 114.713 24.98 115.126 24.22C115.539 23.4467 116.119 22.8533 116.866 22.44C117.613 22.0133 118.479 21.8 119.466 21.8C120.439 21.8 121.286 22.02 122.006 22.46C122.726 22.8867 123.286 23.4867 123.686 24.26C124.086 25.02 124.286 25.9067 124.286 26.92V27.78H117.066C117.093 28.46 117.346 29.0133 117.826 29.44C118.306 29.8667 118.893 30.08 119.586 30.08C120.293 30.08 120.813 29.9267 121.146 29.62C121.479 29.3133 121.733 28.9733 121.906 28.6L123.966 29.68C123.779 30.0267 123.506 30.4067 123.146 30.82C122.799 31.22 122.333 31.5667 121.746 31.86C121.159 32.14 120.413 32.28 119.506 32.28ZM117.086 25.9H121.726C121.673 25.3267 121.439 24.8667 121.026 24.52C120.626 24.1733 120.099 24 119.446 24C118.766 24 118.226 24.1733 117.826 24.52C117.426 24.8667 117.179 25.3267 117.086 25.9ZM115.626 20.96L117.966 18H120.966L123.306 20.96H120.766L119.646 19.48H119.286L118.166 20.96H115.626ZM130.649 32.28C129.356 32.28 128.296 32 127.469 31.44C126.642 30.88 126.142 30.08 125.969 29.04L128.289 28.44C128.382 28.9067 128.536 29.2733 128.749 29.54C128.976 29.8067 129.249 30 129.569 30.12C129.902 30.2267 130.262 30.28 130.649 30.28C131.236 30.28 131.669 30.18 131.949 29.98C132.229 29.7667 132.369 29.5067 132.369 29.2C132.369 28.8933 132.236 28.66 131.969 28.5C131.702 28.3267 131.276 28.1867 130.689 28.08L130.129 27.98C129.436 27.8467 128.802 27.6667 128.229 27.44C127.656 27.2 127.196 26.8733 126.849 26.46C126.502 26.0467 126.329 25.5133 126.329 24.86C126.329 23.8733 126.689 23.12 127.409 22.6C128.129 22.0667 129.076 21.8 130.249 21.8C131.356 21.8 132.276 22.0467 133.009 22.54C133.742 23.0333 134.222 23.68 134.449 24.48L132.109 25.2C132.002 24.6933 131.782 24.3333 131.449 24.12C131.129 23.9067 130.729 23.8 130.249 23.8C129.769 23.8 129.402 23.8867 129.149 24.06C128.896 24.22 128.769 24.4467 128.769 24.74C128.769 25.06 128.902 25.3 129.169 25.46C129.436 25.6067 129.796 25.72 130.249 25.8L130.809 25.9C131.556 26.0333 132.229 26.2133 132.829 26.44C133.442 26.6533 133.922 26.9667 134.269 27.38C134.629 27.78 134.809 28.3267 134.809 29.02C134.809 30.06 134.429 30.8667 133.669 31.44C132.922 32 131.916 32.28 130.649 32.28ZM141.615 32V29.68H143.455V20.32H141.615V18H148.815C149.669 18 150.409 18.1467 151.035 18.44C151.675 18.72 152.169 19.1267 152.515 19.66C152.875 20.18 153.055 20.8067 153.055 21.54V21.74C153.055 22.38 152.935 22.9067 152.695 23.32C152.455 23.72 152.169 24.0333 151.835 24.26C151.515 24.4733 151.209 24.6267 150.915 24.72V25.08C151.209 25.16 151.529 25.3133 151.875 25.54C152.222 25.7533 152.515 26.0667 152.755 26.48C153.009 26.8933 153.135 27.4333 153.135 28.1V28.3C153.135 29.0733 152.955 29.74 152.595 30.3C152.235 30.8467 151.735 31.2667 151.095 31.56C150.469 31.8533 149.735 32 148.895 32H141.615ZM146.095 29.6H148.575C149.149 29.6 149.609 29.46 149.955 29.18C150.315 28.9 150.495 28.5 150.495 27.98V27.78C150.495 27.26 150.322 26.86 149.975 26.58C149.629 26.3 149.162 26.16 148.575 26.16H146.095V29.6ZM146.095 23.76H148.535C149.082 23.76 149.529 23.62 149.875 23.34C150.235 23.06 150.415 22.6733 150.415 22.18V21.98C150.415 21.4733 150.242 21.0867 149.895 20.82C149.549 20.54 149.095 20.4 148.535 20.4H146.095V23.76ZM155.377 32V22.08H157.857V23.2H158.217C158.363 22.8 158.603 22.5067 158.937 22.32C159.283 22.1333 159.683 22.04 160.137 22.04H161.337V24.28H160.097C159.457 24.28 158.93 24.4533 158.517 24.8C158.103 25.1333 157.897 25.6533 157.897 26.36V32H155.377ZM166.152 32.28C165.445 32.28 164.812 32.16 164.252 31.92C163.692 31.6667 163.245 31.3067 162.912 30.84C162.592 30.36 162.432 29.78 162.432 29.1C162.432 28.42 162.592 27.8533 162.912 27.4C163.245 26.9333 163.699 26.5867 164.272 26.36C164.859 26.12 165.525 26 166.272 26H168.992V25.44C168.992 24.9733 168.845 24.5933 168.552 24.3C168.259 23.9933 167.792 23.84 167.152 23.84C166.525 23.84 166.059 23.9867 165.752 24.28C165.445 24.56 165.245 24.9267 165.152 25.38L162.832 24.6C162.992 24.0933 163.245 23.6333 163.592 23.22C163.952 22.7933 164.425 22.4533 165.012 22.2C165.612 21.9333 166.339 21.8 167.192 21.8C168.499 21.8 169.532 22.1267 170.292 22.78C171.052 23.4333 171.432 24.38 171.432 25.62V29.32C171.432 29.72 171.619 29.92 171.992 29.92H172.792V32H171.112C170.619 32 170.212 31.88 169.892 31.64C169.572 31.4 169.412 31.08 169.412 30.68V30.66H169.032C168.979 30.82 168.859 31.0333 168.672 31.3C168.485 31.5533 168.192 31.78 167.792 31.98C167.392 32.18 166.845 32.28 166.152 32.28ZM166.592 30.24C167.299 30.24 167.872 30.0467 168.312 29.66C168.765 29.26 168.992 28.7333 168.992 28.08V27.88H166.452C165.985 27.88 165.619 27.98 165.352 28.18C165.085 28.38 164.952 28.66 164.952 29.02C164.952 29.38 165.092 29.6733 165.372 29.9C165.652 30.1267 166.059 30.24 166.592 30.24ZM178.676 32.28C177.383 32.28 176.323 32 175.496 31.44C174.67 30.88 174.17 30.08 173.996 29.04L176.316 28.44C176.41 28.9067 176.563 29.2733 176.776 29.54C177.003 29.8067 177.276 30 177.596 30.12C177.93 30.2267 178.29 30.28 178.676 30.28C179.263 30.28 179.696 30.18 179.976 29.98C180.256 29.7667 180.396 29.5067 180.396 29.2C180.396 28.8933 180.263 28.66 179.996 28.5C179.73 28.3267 179.303 28.1867 178.716 28.08L178.156 27.98C177.463 27.8467 176.83 27.6667 176.256 27.44C175.683 27.2 175.223 26.8733 174.876 26.46C174.53 26.0467 174.356 25.5133 174.356 24.86C174.356 23.8733 174.716 23.12 175.436 22.6C176.156 22.0667 177.103 21.8 178.276 21.8C179.383 21.8 180.303 22.0467 181.036 22.54C181.77 23.0333 182.25 23.68 182.476 24.48L180.136 25.2C180.03 24.6933 179.81 24.3333 179.476 24.12C179.156 23.9067 178.756 23.8 178.276 23.8C177.796 23.8 177.43 23.8867 177.176 24.06C176.923 24.22 176.796 24.4467 176.796 24.74C176.796 25.06 176.93 25.3 177.196 25.46C177.463 25.6067 177.823 25.72 178.276 25.8L178.836 25.9C179.583 26.0333 180.256 26.2133 180.856 26.44C181.47 26.6533 181.95 26.9667 182.296 27.38C182.656 27.78 182.836 28.3267 182.836 29.02C182.836 30.06 182.456 30.8667 181.696 31.44C180.95 32 179.943 32.28 178.676 32.28ZM185.045 32V22.08H187.565V32H185.045ZM186.305 20.92C185.851 20.92 185.465 20.7733 185.145 20.48C184.838 20.1867 184.685 19.8 184.685 19.32C184.685 18.84 184.838 18.4533 185.145 18.16C185.465 17.8667 185.851 17.72 186.305 17.72C186.771 17.72 187.158 17.8667 187.465 18.16C187.771 18.4533 187.925 18.84 187.925 19.32C187.925 19.8 187.771 20.1867 187.465 20.48C187.158 20.7733 186.771 20.92 186.305 20.92ZM190.357 32V18H192.877V32H190.357ZM200.19 32.28C199.203 32.28 198.33 32.0733 197.57 31.66C196.823 31.2333 196.236 30.64 195.81 29.88C195.396 29.1067 195.19 28.2 195.19 27.16V26.92C195.19 25.88 195.396 24.98 195.81 24.22C196.223 23.4467 196.803 22.8533 197.55 22.44C198.296 22.0133 199.163 21.8 200.15 21.8C201.123 21.8 201.97 22.02 202.69 22.46C203.41 22.8867 203.97 23.4867 204.37 24.26C204.77 25.02 204.97 25.9067 204.97 26.92V27.78H197.75C197.776 28.46 198.03 29.0133 198.51 29.44C198.99 29.8667 199.576 30.08 200.27 30.08C200.976 30.08 201.496 29.9267 201.83 29.62C202.163 29.3133 202.416 28.9733 202.59 28.6L204.65 29.68C204.463 30.0267 204.19 30.4067 203.83 30.82C203.483 31.22 203.016 31.5667 202.43 31.86C201.843 32.14 201.096 32.28 200.19 32.28ZM197.77 25.9H202.41C202.356 25.3267 202.123 24.8667 201.71 24.52C201.31 24.1733 200.783 24 200.13 24C199.45 24 198.91 24.1733 198.51 24.52C198.11 24.8667 197.863 25.3267 197.77 25.9ZM207.213 32V22.08H209.733V32H207.213ZM208.473 20.92C208.019 20.92 207.633 20.7733 207.313 20.48C207.006 20.1867 206.853 19.8 206.853 19.32C206.853 18.84 207.006 18.4533 207.313 18.16C207.633 17.8667 208.019 17.72 208.473 17.72C208.939 17.72 209.326 17.8667 209.633 18.16C209.939 18.4533 210.093 18.84 210.093 19.32C210.093 19.8 209.939 20.1867 209.633 20.48C209.326 20.7733 208.939 20.92 208.473 20.92ZM212.525 32V22.08H215.005V23.2H215.365C215.512 22.8 215.752 22.5067 216.085 22.32C216.432 22.1333 216.832 22.04 217.285 22.04H218.485V24.28H217.245C216.605 24.28 216.078 24.4533 215.665 24.8C215.252 25.1333 215.045 25.6533 215.045 26.36V32H212.525ZM224.823 32.28C223.836 32.28 222.95 32.08 222.163 31.68C221.376 31.28 220.756 30.7 220.303 29.94C219.85 29.18 219.623 28.2667 219.623 27.2V26.88C219.623 25.8133 219.85 24.9 220.303 24.14C220.756 23.38 221.376 22.8 222.163 22.4C222.95 22 223.836 21.8 224.823 21.8C225.81 21.8 226.696 22 227.483 22.4C228.27 22.8 228.89 23.38 229.343 24.14C229.796 24.9 230.023 25.8133 230.023 26.88V27.2C230.023 28.2667 229.796 29.18 229.343 29.94C228.89 30.7 228.27 31.28 227.483 31.68C226.696 32.08 225.81 32.28 224.823 32.28ZM224.823 30.04C225.596 30.04 226.236 29.7933 226.743 29.3C227.25 28.7933 227.503 28.0733 227.503 27.14V26.94C227.503 26.0067 227.25 25.2933 226.743 24.8C226.25 24.2933 225.61 24.04 224.823 24.04C224.05 24.04 223.41 24.2933 222.903 24.8C222.396 25.2933 222.143 26.0067 222.143 26.94V27.14C222.143 28.0733 222.396 28.7933 222.903 29.3C223.41 29.7933 224.05 30.04 224.823 30.04Z" fill="white"/>
</g>
<defs>
<filter id="filter0_d_514_31" x="0" y="0" width="266" height="51" filterUnits="userSpaceOnUse" color-interpolation-filters="sRGB">
<feFlood flood-opacity="0" result="BackgroundImageFix"/>
<feColorMatrix in="SourceAlpha" type="matrix" values="0 0 0 0 0 0 0 0 0 0 0 0 0 0 0 0 0 0 127 0" result="hardAlpha"/>
<feOffset/>
<feGaussianBlur stdDeviation="2"/>
<feComposite in2="hardAlpha" operator="out"/>
<feColorMatrix type="matrix" values="0 0 0 0 0 0 0 0 0 0 0 0 0 0 0 0 0 0 0.5 0"/>
<feBlend mode="normal" in2="BackgroundImageFix" result="effect1_dropShadow_514_31"/>
<feBlend mode="normal" in="SourceGraphic" in2="effect1_dropShadow_514_31" result="shape"/>
</filter>
</defs>
</svg>
