<svg width="266" height="51" viewBox="0 0 266 51" fill="none" xmlns="http://www.w3.org/2000/svg">
<g filter="url(#filter0_d_517_40)">
<rect x="4" y="4" width="258" height="43" rx="4" fill="#254069"/>
</g>
<path d="M34.6813 33V19H37.3213V33H34.6813ZM40.0348 33V23.08H42.5148V24.38H42.8748C43.0348 24.0333 43.3348 23.7067 43.7748 23.4C44.2148 23.08 44.8814 22.92 45.7748 22.92C46.5481 22.92 47.2214 23.1 47.7948 23.46C48.3814 23.8067 48.8348 24.2933 49.1548 24.92C49.4748 25.5333 49.6348 26.2533 49.6348 27.08V33H47.1148V27.28C47.1148 26.5333 46.9281 25.9733 46.5548 25.6C46.1948 25.2267 45.6748 25.04 44.9948 25.04C44.2214 25.04 43.6214 25.3 43.1948 25.82C42.7681 26.3267 42.5548 27.04 42.5548 27.96V33H40.0348ZM55.8855 33C55.2322 33 54.6989 32.8 54.2855 32.4C53.8855 31.9867 53.6855 31.44 53.6855 30.76V25.16H51.2055V23.08H53.6855V20H56.2055V23.08H58.9255V25.16H56.2055V30.32C56.2055 30.72 56.3922 30.92 56.7655 30.92H58.6855V33H55.8855ZM65.3751 33.28C64.3884 33.28 63.5151 33.0733 62.7551 32.66C62.0084 32.2333 61.4217 31.64 60.9951 30.88C60.5817 30.1067 60.3751 29.2 60.3751 28.16V27.92C60.3751 26.88 60.5817 25.98 60.9951 25.22C61.4084 24.4467 61.9884 23.8533 62.7351 23.44C63.4817 23.0133 64.3484 22.8 65.3351 22.8C66.3084 22.8 67.1551 23.02 67.8751 23.46C68.5951 23.8867 69.1551 24.4867 69.5551 25.26C69.9551 26.02 70.1551 26.9067 70.1551 27.92V28.78H62.9351C62.9617 29.46 63.2151 30.0133 63.6951 30.44C64.1751 30.8667 64.7617 31.08 65.4551 31.08C66.1617 31.08 66.6817 30.9267 67.0151 30.62C67.3484 30.3133 67.6017 29.9733 67.7751 29.6L69.8351 30.68C69.6484 31.0267 69.3751 31.4067 69.0151 31.82C68.6684 32.22 68.2017 32.5667 67.6151 32.86C67.0284 33.14 66.2817 33.28 65.3751 33.28ZM62.9551 26.9H67.5951C67.5417 26.3267 67.3084 25.8667 66.8951 25.52C66.4951 25.1733 65.9684 25 65.3151 25C64.6351 25 64.0951 25.1733 63.6951 25.52C63.2951 25.8667 63.0484 26.3267 62.9551 26.9ZM72.398 33V23.08H74.878V24.2H75.238C75.3847 23.8 75.6247 23.5067 75.958 23.32C76.3047 23.1333 76.7047 23.04 77.158 23.04H78.358V25.28H77.118C76.478 25.28 75.9514 25.4533 75.538 25.8C75.1247 26.1333 74.918 26.6533 74.918 27.36V33H72.398ZM80.3277 33V23.08H82.8077V24.38H83.1677C83.3277 24.0333 83.6277 23.7067 84.0677 23.4C84.5077 23.08 85.1744 22.92 86.0677 22.92C86.8411 22.92 87.5144 23.1 88.0877 23.46C88.6744 23.8067 89.1277 24.2933 89.4477 24.92C89.7677 25.5333 89.9277 26.2533 89.9277 27.08V33H87.4077V27.28C87.4077 26.5333 87.2211 25.9733 86.8477 25.6C86.4877 25.2267 85.9677 25.04 85.2877 25.04C84.5144 25.04 83.9144 25.3 83.4877 25.82C83.0611 26.3267 82.8477 27.04 82.8477 27.96V33H80.3277ZM95.732 33.28C95.0253 33.28 94.392 33.16 93.832 32.92C93.272 32.6667 92.8253 32.3067 92.492 31.84C92.172 31.36 92.012 30.78 92.012 30.1C92.012 29.42 92.172 28.8533 92.492 28.4C92.8253 27.9333 93.2786 27.5867 93.852 27.36C94.4386 27.12 95.1053 27 95.852 27H98.572V26.44C98.572 25.9733 98.4253 25.5933 98.132 25.3C97.8386 24.9933 97.372 24.84 96.732 24.84C96.1053 24.84 95.6386 24.9867 95.332 25.28C95.0253 25.56 94.8253 25.9267 94.732 26.38L92.412 25.6C92.572 25.0933 92.8253 24.6333 93.172 24.22C93.532 23.7933 94.0053 23.4533 94.592 23.2C95.192 22.9333 95.9186 22.8 96.772 22.8C98.0786 22.8 99.112 23.1267 99.872 23.78C100.632 24.4333 101.012 25.38 101.012 26.62V30.32C101.012 30.72 101.199 30.92 101.572 30.92H102.372V33H100.692C100.199 33 99.792 32.88 99.472 32.64C99.152 32.4 98.992 32.08 98.992 31.68V31.66H98.612C98.5586 31.82 98.4386 32.0333 98.252 32.3C98.0653 32.5533 97.772 32.78 97.372 32.98C96.972 33.18 96.4253 33.28 95.732 33.28ZM96.172 31.24C96.8786 31.24 97.452 31.0467 97.892 30.66C98.3453 30.26 98.572 29.7333 98.572 29.08V28.88H96.032C95.5653 28.88 95.1986 28.98 94.932 29.18C94.6653 29.38 94.532 29.66 94.532 30.02C94.532 30.38 94.672 30.6733 94.952 30.9C95.232 31.1267 95.6386 31.24 96.172 31.24ZM107.292 33C106.638 33 106.105 32.8 105.692 32.4C105.292 31.9867 105.092 31.44 105.092 30.76V25.16H102.612V23.08H105.092V20H107.612V23.08H110.332V25.16H107.612V30.32C107.612 30.72 107.798 30.92 108.172 30.92H110.092V33H107.292ZM112.613 33V23.08H115.133V33H112.613ZM113.873 21.92C113.42 21.92 113.033 21.7733 112.713 21.48C112.406 21.1867 112.253 20.8 112.253 20.32C112.253 19.84 112.406 19.4533 112.713 19.16C113.033 18.8667 113.42 18.72 113.873 18.72C114.34 18.72 114.726 18.8667 115.033 19.16C115.34 19.4533 115.493 19.84 115.493 20.32C115.493 20.8 115.34 21.1867 115.033 21.48C114.726 21.7733 114.34 21.92 113.873 21.92ZM122.645 33.28C121.659 33.28 120.772 33.08 119.985 32.68C119.199 32.28 118.579 31.7 118.125 30.94C117.672 30.18 117.445 29.2667 117.445 28.2V27.88C117.445 26.8133 117.672 25.9 118.125 25.14C118.579 24.38 119.199 23.8 119.985 23.4C120.772 23 121.659 22.8 122.645 22.8C123.632 22.8 124.519 23 125.305 23.4C126.092 23.8 126.712 24.38 127.165 25.14C127.619 25.9 127.845 26.8133 127.845 27.88V28.2C127.845 29.2667 127.619 30.18 127.165 30.94C126.712 31.7 126.092 32.28 125.305 32.68C124.519 33.08 123.632 33.28 122.645 33.28ZM122.645 31.04C123.419 31.04 124.059 30.7933 124.565 30.3C125.072 29.7933 125.325 29.0733 125.325 28.14V27.94C125.325 27.0067 125.072 26.2933 124.565 25.8C124.072 25.2933 123.432 25.04 122.645 25.04C121.872 25.04 121.232 25.2933 120.725 25.8C120.219 26.2933 119.965 27.0067 119.965 27.94V28.14C119.965 29.0733 120.219 29.7933 120.725 30.3C121.232 30.7933 121.872 31.04 122.645 31.04ZM130.171 33V23.08H132.651V24.38H133.011C133.171 24.0333 133.471 23.7067 133.911 23.4C134.351 23.08 135.018 22.92 135.911 22.92C136.685 22.92 137.358 23.1 137.931 23.46C138.518 23.8067 138.971 24.2933 139.291 24.92C139.611 25.5333 139.771 26.2533 139.771 27.08V33H137.251V27.28C137.251 26.5333 137.065 25.9733 136.691 25.6C136.331 25.2267 135.811 25.04 135.131 25.04C134.358 25.04 133.758 25.3 133.331 25.82C132.905 26.3267 132.691 27.04 132.691 27.96V33H130.171ZM145.576 33.28C144.869 33.28 144.236 33.16 143.676 32.92C143.116 32.6667 142.669 32.3067 142.336 31.84C142.016 31.36 141.856 30.78 141.856 30.1C141.856 29.42 142.016 28.8533 142.336 28.4C142.669 27.9333 143.122 27.5867 143.696 27.36C144.282 27.12 144.949 27 145.696 27H148.416V26.44C148.416 25.9733 148.269 25.5933 147.976 25.3C147.682 24.9933 147.216 24.84 146.576 24.84C145.949 24.84 145.482 24.9867 145.176 25.28C144.869 25.56 144.669 25.9267 144.576 26.38L142.256 25.6C142.416 25.0933 142.669 24.6333 143.016 24.22C143.376 23.7933 143.849 23.4533 144.436 23.2C145.036 22.9333 145.762 22.8 146.616 22.8C147.922 22.8 148.956 23.1267 149.716 23.78C150.476 24.4333 150.856 25.38 150.856 26.62V30.32C150.856 30.72 151.042 30.92 151.416 30.92H152.216V33H150.536C150.042 33 149.636 32.88 149.316 32.64C148.996 32.4 148.836 32.08 148.836 31.68V31.66H148.456C148.402 31.82 148.282 32.0333 148.096 32.3C147.909 32.5533 147.616 32.78 147.216 32.98C146.816 33.18 146.269 33.28 145.576 33.28ZM146.016 31.24C146.722 31.24 147.296 31.0467 147.736 30.66C148.189 30.26 148.416 29.7333 148.416 29.08V28.88H145.876C145.409 28.88 145.042 28.98 144.776 29.18C144.509 29.38 144.376 29.66 144.376 30.02C144.376 30.38 144.516 30.6733 144.796 30.9C145.076 31.1267 145.482 31.24 146.016 31.24ZM154.058 33V19H156.578V33H154.058ZM164.369 33V19H173.369V21.4H167.009V24.74H172.809V27.14H167.009V30.6H173.489V33H164.369ZM175.523 33V23.08H178.003V24.38H178.363C178.523 24.0333 178.823 23.7067 179.263 23.4C179.703 23.08 180.37 22.92 181.263 22.92C182.036 22.92 182.71 23.1 183.283 23.46C183.87 23.8067 184.323 24.2933 184.643 24.92C184.963 25.5333 185.123 26.2533 185.123 27.08V33H182.603V27.28C182.603 26.5333 182.416 25.9733 182.043 25.6C181.683 25.2267 181.163 25.04 180.483 25.04C179.71 25.04 179.11 25.3 178.683 25.82C178.256 26.3267 178.043 27.04 178.043 27.96V33H175.523ZM187.367 28.08V27.76C187.367 26.72 187.574 25.8333 187.987 25.1C188.401 24.3533 188.947 23.7867 189.627 23.4C190.321 23 191.074 22.8 191.887 22.8C192.794 22.8 193.481 22.96 193.947 23.28C194.414 23.6 194.754 23.9333 194.967 24.28H195.327V23.08H197.807V34.76C197.807 35.44 197.607 35.98 197.207 36.38C196.807 36.7933 196.274 37 195.607 37H188.967V34.8H194.727C195.101 34.8 195.287 34.6 195.287 34.2V31.62H194.927C194.794 31.8333 194.607 32.0533 194.367 32.28C194.127 32.4933 193.807 32.6733 193.407 32.82C193.007 32.9667 192.501 33.04 191.887 33.04C191.074 33.04 190.321 32.8467 189.627 32.46C188.947 32.06 188.401 31.4933 187.987 30.76C187.574 30.0133 187.367 29.12 187.367 28.08ZM192.607 30.84C193.381 30.84 194.027 30.5933 194.547 30.1C195.067 29.6067 195.327 28.9133 195.327 28.02V27.82C195.327 26.9133 195.067 26.22 194.547 25.74C194.041 25.2467 193.394 25 192.607 25C191.834 25 191.187 25.2467 190.667 25.74C190.147 26.22 189.887 26.9133 189.887 27.82V28.02C189.887 28.9133 190.147 29.6067 190.667 30.1C191.187 30.5933 191.834 30.84 192.607 30.84ZM200.601 33V19H203.121V33H200.601ZM205.914 33V23.08H208.434V33H205.914ZM207.174 21.92C206.72 21.92 206.334 21.7733 206.014 21.48C205.707 21.1867 205.554 20.8 205.554 20.32C205.554 19.84 205.707 19.4533 206.014 19.16C206.334 18.8667 206.72 18.72 207.174 18.72C207.64 18.72 208.027 18.8667 208.334 19.16C208.64 19.4533 208.794 19.84 208.794 20.32C208.794 20.8 208.64 21.1867 208.334 21.48C208.027 21.7733 207.64 21.92 207.174 21.92ZM215.346 33.28C214.053 33.28 212.993 33 212.166 32.44C211.34 31.88 210.84 31.08 210.666 30.04L212.986 29.44C213.08 29.9067 213.233 30.2733 213.446 30.54C213.673 30.8067 213.946 31 214.266 31.12C214.6 31.2267 214.96 31.28 215.346 31.28C215.933 31.28 216.366 31.18 216.646 30.98C216.926 30.7667 217.066 30.5067 217.066 30.2C217.066 29.8933 216.933 29.66 216.666 29.5C216.4 29.3267 215.973 29.1867 215.386 29.08L214.826 28.98C214.133 28.8467 213.5 28.6667 212.926 28.44C212.353 28.2 211.893 27.8733 211.546 27.46C211.2 27.0467 211.026 26.5133 211.026 25.86C211.026 24.8733 211.386 24.12 212.106 23.6C212.826 23.0667 213.773 22.8 214.946 22.8C216.053 22.8 216.973 23.0467 217.706 23.54C218.44 24.0333 218.92 24.68 219.146 25.48L216.806 26.2C216.7 25.6933 216.48 25.3333 216.146 25.12C215.826 24.9067 215.426 24.8 214.946 24.8C214.466 24.8 214.1 24.8867 213.846 25.06C213.593 25.22 213.466 25.4467 213.466 25.74C213.466 26.06 213.6 26.3 213.866 26.46C214.133 26.6067 214.493 26.72 214.946 26.8L215.506 26.9C216.253 27.0333 216.926 27.2133 217.526 27.44C218.14 27.6533 218.62 27.9667 218.966 28.38C219.326 28.78 219.506 29.3267 219.506 30.02C219.506 31.06 219.126 31.8667 218.366 32.44C217.62 33 216.613 33.28 215.346 33.28ZM221.714 33V19H224.234V24.3H224.594C224.701 24.0867 224.868 23.8733 225.094 23.66C225.321 23.4467 225.621 23.2733 225.994 23.14C226.381 22.9933 226.868 22.92 227.454 22.92C228.228 22.92 228.901 23.1 229.474 23.46C230.061 23.8067 230.514 24.2933 230.834 24.92C231.154 25.5333 231.314 26.2533 231.314 27.08V33H228.794V27.28C228.794 26.5333 228.608 25.9733 228.234 25.6C227.874 25.2267 227.354 25.04 226.674 25.04C225.901 25.04 225.301 25.3 224.874 25.82C224.448 26.3267 224.234 27.04 224.234 27.96V33H221.714Z" fill="white"/>
<defs>
<filter id="filter0_d_517_40" x="0" y="0" width="266" height="51" filterUnits="userSpaceOnUse" color-interpolation-filters="sRGB">
<feFlood flood-opacity="0" result="BackgroundImageFix"/>
<feColorMatrix in="SourceAlpha" type="matrix" values="0 0 0 0 0 0 0 0 0 0 0 0 0 0 0 0 0 0 127 0" result="hardAlpha"/>
<feOffset/>
<feGaussianBlur stdDeviation="2"/>
<feComposite in2="hardAlpha" operator="out"/>
<feColorMatrix type="matrix" values="0 0 0 0 0 0 0 0 0 0 0 0 0 0 0 0 0 0 0.5 0"/>
<feBlend mode="normal" in2="BackgroundImageFix" result="effect1_dropShadow_517_40"/>
<feBlend mode="normal" in="SourceGraphic" in2="effect1_dropShadow_517_40" result="shape"/>
</filter>
</defs>
</svg>
