<svg width="266" height="51" viewBox="0 0 266 51" fill="none" xmlns="http://www.w3.org/2000/svg">
<g filter="url(#filter0_d_514_32)">
<rect x="4" y="4" width="258" height="43" rx="4" fill="#0F3057"/>
<path d="M33.9688 33V30.68H35.8088V21.32H33.9688V19H41.1688C42.0222 19 42.7622 19.1467 43.3888 19.44C44.0288 19.72 44.5222 20.1267 44.8688 20.66C45.2288 21.18 45.4088 21.8067 45.4088 22.54V22.74C45.4088 23.38 45.2888 23.9067 45.0488 24.32C44.8088 24.72 44.5222 25.0333 44.1888 25.26C43.8688 25.4733 43.5622 25.6267 43.2688 25.72V26.08C43.5622 26.16 43.8822 26.3133 44.2288 26.54C44.5755 26.7533 44.8688 27.0667 45.1088 27.48C45.3622 27.8933 45.4888 28.4333 45.4888 29.1V29.3C45.4888 30.0733 45.3088 30.74 44.9488 31.3C44.5888 31.8467 44.0888 32.2667 43.4488 32.56C42.8222 32.8533 42.0888 33 41.2488 33H33.9688ZM38.4488 30.6H40.9288C41.5022 30.6 41.9622 30.46 42.3088 30.18C42.6688 29.9 42.8488 29.5 42.8488 28.98V28.78C42.8488 28.26 42.6755 27.86 42.3288 27.58C41.9822 27.3 41.5155 27.16 40.9288 27.16H38.4488V30.6ZM38.4488 24.76H40.8888C41.4355 24.76 41.8822 24.62 42.2288 24.34C42.5888 24.06 42.7688 23.6733 42.7688 23.18V22.98C42.7688 22.4733 42.5955 22.0867 42.2488 21.82C41.9022 21.54 41.4488 21.4 40.8888 21.4H38.4488V24.76ZM47.7301 33V23.08H50.2101V24.2H50.5701C50.7167 23.8 50.9567 23.5067 51.2901 23.32C51.6367 23.1333 52.0367 23.04 52.4901 23.04H53.6901V25.28H52.4501C51.8101 25.28 51.2834 25.4533 50.8701 25.8C50.4567 26.1333 50.2501 26.6533 50.2501 27.36V33H47.7301ZM58.5054 33.28C57.7987 33.28 57.1654 33.16 56.6054 32.92C56.0454 32.6667 55.5987 32.3067 55.2654 31.84C54.9454 31.36 54.7854 30.78 54.7854 30.1C54.7854 29.42 54.9454 28.8533 55.2654 28.4C55.5987 27.9333 56.0521 27.5867 56.6254 27.36C57.2121 27.12 57.8787 27 58.6254 27H61.3454V26.44C61.3454 25.9733 61.1987 25.5933 60.9054 25.3C60.6121 24.9933 60.1454 24.84 59.5054 24.84C58.8787 24.84 58.4121 24.9867 58.1054 25.28C57.7987 25.56 57.5987 25.9267 57.5054 26.38L55.1854 25.6C55.3454 25.0933 55.5987 24.6333 55.9454 24.22C56.3054 23.7933 56.7787 23.4533 57.3654 23.2C57.9654 22.9333 58.6921 22.8 59.5454 22.8C60.8521 22.8 61.8854 23.1267 62.6454 23.78C63.4054 24.4333 63.7854 25.38 63.7854 26.62V30.32C63.7854 30.72 63.9721 30.92 64.3454 30.92H65.1454V33H63.4654C62.9721 33 62.5654 32.88 62.2454 32.64C61.9254 32.4 61.7654 32.08 61.7654 31.68V31.66H61.3854C61.3321 31.82 61.2121 32.0333 61.0254 32.3C60.8387 32.5533 60.5454 32.78 60.1454 32.98C59.7454 33.18 59.1987 33.28 58.5054 33.28ZM58.9454 31.24C59.6521 31.24 60.2254 31.0467 60.6654 30.66C61.1187 30.26 61.3454 29.7333 61.3454 29.08V28.88H58.8054C58.3387 28.88 57.9721 28.98 57.7054 29.18C57.4387 29.38 57.3054 29.66 57.3054 30.02C57.3054 30.38 57.4454 30.6733 57.7254 30.9C58.0054 31.1267 58.4121 31.24 58.9454 31.24ZM66.6279 33V30L72.0679 25.48V25.16H66.8279V23.08H74.8279V26.08L69.3879 30.6V30.92H74.9879V33H66.6279ZM77.3395 33V23.08H79.8595V33H77.3395ZM78.5995 21.92C78.1461 21.92 77.7595 21.7733 77.4395 21.48C77.1328 21.1867 76.9795 20.8 76.9795 20.32C76.9795 19.84 77.1328 19.4533 77.4395 19.16C77.7595 18.8667 78.1461 18.72 78.5995 18.72C79.0661 18.72 79.4528 18.8667 79.7595 19.16C80.0661 19.4533 80.2195 19.84 80.2195 20.32C80.2195 20.8 80.0661 21.1867 79.7595 21.48C79.4528 21.7733 79.0661 21.92 78.5995 21.92ZM82.652 33V19H85.172V33H82.652ZM87.9645 33V23.08H90.4845V33H87.9645ZM89.2245 21.92C88.7711 21.92 88.3845 21.7733 88.0645 21.48C87.7578 21.1867 87.6045 20.8 87.6045 20.32C87.6045 19.84 87.7578 19.4533 88.0645 19.16C88.3845 18.8667 88.7711 18.72 89.2245 18.72C89.6911 18.72 90.0778 18.8667 90.3845 19.16C90.6911 19.4533 90.8445 19.84 90.8445 20.32C90.8445 20.8 90.6911 21.1867 90.3845 21.48C90.0778 21.7733 89.6911 21.92 89.2245 21.92ZM96.357 33.28C95.6503 33.28 95.017 33.16 94.457 32.92C93.897 32.6667 93.4503 32.3067 93.117 31.84C92.797 31.36 92.637 30.78 92.637 30.1C92.637 29.42 92.797 28.8533 93.117 28.4C93.4503 27.9333 93.9036 27.5867 94.477 27.36C95.0636 27.12 95.7303 27 96.477 27H99.197V26.44C99.197 25.9733 99.0503 25.5933 98.757 25.3C98.4636 24.9933 97.997 24.84 97.357 24.84C96.7303 24.84 96.2636 24.9867 95.957 25.28C95.6503 25.56 95.4503 25.9267 95.357 26.38L93.037 25.6C93.197 25.0933 93.4503 24.6333 93.797 24.22C94.157 23.7933 94.6303 23.4533 95.217 23.2C95.817 22.9333 96.5436 22.8 97.397 22.8C98.7036 22.8 99.737 23.1267 100.497 23.78C101.257 24.4333 101.637 25.38 101.637 26.62V30.32C101.637 30.72 101.824 30.92 102.197 30.92H102.997V33H101.317C100.824 33 100.417 32.88 100.097 32.64C99.777 32.4 99.617 32.08 99.617 31.68V31.66H99.237C99.1836 31.82 99.0636 32.0333 98.877 32.3C98.6903 32.5533 98.397 32.78 97.997 32.98C97.597 33.18 97.0503 33.28 96.357 33.28ZM96.797 31.24C97.5036 31.24 98.077 31.0467 98.517 30.66C98.9703 30.26 99.197 29.7333 99.197 29.08V28.88H96.657C96.1903 28.88 95.8236 28.98 95.557 29.18C95.2903 29.38 95.157 29.66 95.157 30.02C95.157 30.38 95.297 30.6733 95.577 30.9C95.857 31.1267 96.2636 31.24 96.797 31.24ZM104.839 33V23.08H107.319V24.38H107.679C107.839 24.0333 108.139 23.7067 108.579 23.4C109.019 23.08 109.686 22.92 110.579 22.92C111.353 22.92 112.026 23.1 112.599 23.46C113.186 23.8067 113.639 24.2933 113.959 24.92C114.279 25.5333 114.439 26.2533 114.439 27.08V33H111.919V27.28C111.919 26.5333 111.733 25.9733 111.359 25.6C110.999 25.2267 110.479 25.04 109.799 25.04C109.026 25.04 108.426 25.3 107.999 25.82C107.573 26.3267 107.359 27.04 107.359 27.96V33H104.839ZM122.162 33V19H127.922C128.802 19 129.575 19.18 130.242 19.54C130.922 19.8867 131.448 20.38 131.822 21.02C132.208 21.66 132.402 22.42 132.402 23.3V23.58C132.402 24.4467 132.202 25.2067 131.802 25.86C131.415 26.5 130.882 27 130.202 27.36C129.535 27.7067 128.775 27.88 127.922 27.88H124.802V33H122.162ZM124.802 25.48H127.662C128.288 25.48 128.795 25.3067 129.182 24.96C129.568 24.6133 129.762 24.14 129.762 23.54V23.34C129.762 22.74 129.568 22.2667 129.182 21.92C128.795 21.5733 128.288 21.4 127.662 21.4H124.802V25.48ZM138.798 33.28C137.811 33.28 136.924 33.08 136.138 32.68C135.351 32.28 134.731 31.7 134.278 30.94C133.824 30.18 133.598 29.2667 133.598 28.2V27.88C133.598 26.8133 133.824 25.9 134.278 25.14C134.731 24.38 135.351 23.8 136.138 23.4C136.924 23 137.811 22.8 138.798 22.8C139.784 22.8 140.671 23 141.458 23.4C142.244 23.8 142.864 24.38 143.318 25.14C143.771 25.9 143.998 26.8133 143.998 27.88V28.2C143.998 29.2667 143.771 30.18 143.318 30.94C142.864 31.7 142.244 32.28 141.458 32.68C140.671 33.08 139.784 33.28 138.798 33.28ZM138.798 31.04C139.571 31.04 140.211 30.7933 140.718 30.3C141.224 29.7933 141.478 29.0733 141.478 28.14V27.94C141.478 27.0067 141.224 26.2933 140.718 25.8C140.224 25.2933 139.584 25.04 138.798 25.04C138.024 25.04 137.384 25.2933 136.878 25.8C136.371 26.2933 136.118 27.0067 136.118 27.94V28.14C136.118 29.0733 136.371 29.7933 136.878 30.3C137.384 30.7933 138.024 31.04 138.798 31.04ZM146.324 33V23.08H148.804V24.2H149.164C149.31 23.8 149.55 23.5067 149.884 23.32C150.23 23.1333 150.63 23.04 151.084 23.04H152.284V25.28H151.044C150.404 25.28 149.877 25.4533 149.464 25.8C149.05 26.1333 148.844 26.6533 148.844 27.36V33H146.324ZM158.054 33C157.4 33 156.867 32.8 156.454 32.4C156.054 31.9867 155.854 31.44 155.854 30.76V25.16H153.374V23.08H155.854V20H158.374V23.08H161.094V25.16H158.374V30.32C158.374 30.72 158.56 30.92 158.934 30.92H160.854V33H158.054ZM167.155 33.16C166.381 33.16 165.701 32.9867 165.115 32.64C164.541 32.28 164.095 31.7867 163.775 31.16C163.455 30.5333 163.295 29.8133 163.295 29V23.08H165.815V28.8C165.815 29.5467 165.995 30.1067 166.355 30.48C166.728 30.8533 167.255 31.04 167.935 31.04C168.708 31.04 169.308 30.7867 169.735 30.28C170.161 29.76 170.375 29.04 170.375 28.12V23.08H172.895V33H170.415V31.7H170.055C169.895 32.0333 169.595 32.36 169.155 32.68C168.715 33 168.048 33.16 167.155 33.16ZM175.219 28.08V27.76C175.219 26.72 175.425 25.8333 175.839 25.1C176.252 24.3533 176.799 23.7867 177.479 23.4C178.172 23 178.925 22.8 179.739 22.8C180.645 22.8 181.332 22.96 181.799 23.28C182.265 23.6 182.605 23.9333 182.819 24.28H183.179V23.08H185.659V34.76C185.659 35.44 185.459 35.98 185.059 36.38C184.659 36.7933 184.125 37 183.459 37H176.819V34.8H182.579C182.952 34.8 183.139 34.6 183.139 34.2V31.62H182.779C182.645 31.8333 182.459 32.0533 182.219 32.28C181.979 32.4933 181.659 32.6733 181.259 32.82C180.859 32.9667 180.352 33.04 179.739 33.04C178.925 33.04 178.172 32.8467 177.479 32.46C176.799 32.06 176.252 31.4933 175.839 30.76C175.425 30.0133 175.219 29.12 175.219 28.08ZM180.459 30.84C181.232 30.84 181.879 30.5933 182.399 30.1C182.919 29.6067 183.179 28.9133 183.179 28.02V27.82C183.179 26.9133 182.919 26.22 182.399 25.74C181.892 25.2467 181.245 25 180.459 25C179.685 25 179.039 25.2467 178.519 25.74C177.999 26.22 177.739 26.9133 177.739 27.82V28.02C177.739 28.9133 177.999 29.6067 178.519 30.1C179.039 30.5933 179.685 30.84 180.459 30.84ZM192.233 33.16C191.459 33.16 190.779 32.9867 190.193 32.64C189.619 32.28 189.173 31.7867 188.853 31.16C188.533 30.5333 188.373 29.8133 188.373 29V23.08H190.893V28.8C190.893 29.5467 191.073 30.1067 191.433 30.48C191.806 30.8533 192.333 31.04 193.013 31.04C193.786 31.04 194.386 30.7867 194.813 30.28C195.239 29.76 195.453 29.04 195.453 28.12V23.08H197.973V33H195.493V31.7H195.133C194.973 32.0333 194.673 32.36 194.233 32.68C193.793 33 193.126 33.16 192.233 33.16ZM205.297 33.28C204.31 33.28 203.437 33.0733 202.677 32.66C201.93 32.2333 201.344 31.64 200.917 30.88C200.504 30.1067 200.297 29.2 200.297 28.16V27.92C200.297 26.88 200.504 25.98 200.917 25.22C201.33 24.4467 201.91 23.8533 202.657 23.44C203.404 23.0133 204.27 22.8 205.257 22.8C206.23 22.8 207.077 23.02 207.797 23.46C208.517 23.8867 209.077 24.4867 209.477 25.26C209.877 26.02 210.077 26.9067 210.077 27.92V28.78H202.857C202.884 29.46 203.137 30.0133 203.617 30.44C204.097 30.8667 204.684 31.08 205.377 31.08C206.084 31.08 206.604 30.9267 206.937 30.62C207.27 30.3133 207.524 29.9733 207.697 29.6L209.757 30.68C209.57 31.0267 209.297 31.4067 208.937 31.82C208.59 32.22 208.124 32.5667 207.537 32.86C206.95 33.14 206.204 33.28 205.297 33.28ZM202.877 26.9H207.517C207.464 26.3267 207.23 25.8667 206.817 25.52C206.417 25.1733 205.89 25 205.237 25C204.557 25 204.017 25.1733 203.617 25.52C203.217 25.8667 202.97 26.3267 202.877 26.9ZM216.44 33.28C215.147 33.28 214.087 33 213.26 32.44C212.433 31.88 211.933 31.08 211.76 30.04L214.08 29.44C214.173 29.9067 214.327 30.2733 214.54 30.54C214.767 30.8067 215.04 31 215.36 31.12C215.693 31.2267 216.053 31.28 216.44 31.28C217.027 31.28 217.46 31.18 217.74 30.98C218.02 30.7667 218.16 30.5067 218.16 30.2C218.16 29.8933 218.027 29.66 217.76 29.5C217.493 29.3267 217.067 29.1867 216.48 29.08L215.92 28.98C215.227 28.8467 214.593 28.6667 214.02 28.44C213.447 28.2 212.987 27.8733 212.64 27.46C212.293 27.0467 212.12 26.5133 212.12 25.86C212.12 24.8733 212.48 24.12 213.2 23.6C213.92 23.0667 214.867 22.8 216.04 22.8C217.147 22.8 218.067 23.0467 218.8 23.54C219.533 24.0333 220.013 24.68 220.24 25.48L217.9 26.2C217.793 25.6933 217.573 25.3333 217.24 25.12C216.92 24.9067 216.52 24.8 216.04 24.8C215.56 24.8 215.193 24.8867 214.94 25.06C214.687 25.22 214.56 25.4467 214.56 25.74C214.56 26.06 214.693 26.3 214.96 26.46C215.227 26.6067 215.587 26.72 216.04 26.8L216.6 26.9C217.347 27.0333 218.02 27.2133 218.62 27.44C219.233 27.6533 219.713 27.9667 220.06 28.38C220.42 28.78 220.6 29.3267 220.6 30.02C220.6 31.06 220.22 31.8667 219.46 32.44C218.713 33 217.707 33.28 216.44 33.28ZM227.328 33.28C226.342 33.28 225.468 33.0733 224.708 32.66C223.962 32.2333 223.375 31.64 222.948 30.88C222.535 30.1067 222.328 29.2 222.328 28.16V27.92C222.328 26.88 222.535 25.98 222.948 25.22C223.362 24.4467 223.942 23.8533 224.688 23.44C225.435 23.0133 226.302 22.8 227.288 22.8C228.262 22.8 229.108 23.02 229.828 23.46C230.548 23.8867 231.108 24.4867 231.508 25.26C231.908 26.02 232.108 26.9067 232.108 27.92V28.78H224.888C224.915 29.46 225.168 30.0133 225.648 30.44C226.128 30.8667 226.715 31.08 227.408 31.08C228.115 31.08 228.635 30.9267 228.968 30.62C229.302 30.3133 229.555 29.9733 229.728 29.6L231.788 30.68C231.602 31.0267 231.328 31.4067 230.968 31.82C230.622 32.22 230.155 32.5667 229.568 32.86C228.982 33.14 228.235 33.28 227.328 33.28ZM224.908 26.9H229.548C229.495 26.3267 229.262 25.8667 228.848 25.52C228.448 25.1733 227.922 25 227.268 25C226.588 25 226.048 25.1733 225.648 25.52C225.248 25.8667 225.002 26.3267 224.908 26.9Z" fill="white"/>
</g>
<defs>
<filter id="filter0_d_514_32" x="0" y="0" width="266" height="51" filterUnits="userSpaceOnUse" color-interpolation-filters="sRGB">
<feFlood flood-opacity="0" result="BackgroundImageFix"/>
<feColorMatrix in="SourceAlpha" type="matrix" values="0 0 0 0 0 0 0 0 0 0 0 0 0 0 0 0 0 0 127 0" result="hardAlpha"/>
<feOffset/>
<feGaussianBlur stdDeviation="2"/>
<feComposite in2="hardAlpha" operator="out"/>
<feColorMatrix type="matrix" values="0 0 0 0 0 0 0 0 0 0 0 0 0 0 0 0 0 0 0.5 0"/>
<feBlend mode="normal" in2="BackgroundImageFix" result="effect1_dropShadow_514_32"/>
<feBlend mode="normal" in="SourceGraphic" in2="effect1_dropShadow_514_32" result="shape"/>
</filter>
</defs>
</svg>
