<svg width="266" height="51" viewBox="0 0 266 51" fill="none" xmlns="http://www.w3.org/2000/svg">
<g filter="url(#filter0_d_517_40)">
<rect x="4" y="4" width="258" height="43" rx="4" fill="#254069"/>
</g>
<path d="M99.5251 33V19H108.525V21.4H102.165V24.74H107.965V27.14H102.165V30.6H108.645V33H99.5251ZM110.679 33V23.08H113.159V24.38H113.519C113.679 24.0333 113.979 23.7067 114.419 23.4C114.859 23.08 115.526 22.92 116.419 22.92C117.193 22.92 117.866 23.1 118.439 23.46C119.026 23.8067 119.479 24.2933 119.799 24.92C120.119 25.5333 120.279 26.2533 120.279 27.08V33H117.759V27.28C117.759 26.5333 117.573 25.9733 117.199 25.6C116.839 25.2267 116.319 25.04 115.639 25.04C114.866 25.04 114.266 25.3 113.839 25.82C113.413 26.3267 113.199 27.04 113.199 27.96V33H110.679ZM122.524 28.08V27.76C122.524 26.72 122.73 25.8333 123.144 25.1C123.557 24.3533 124.104 23.7867 124.784 23.4C125.477 23 126.23 22.8 127.044 22.8C127.95 22.8 128.637 22.96 129.104 23.28C129.57 23.6 129.91 23.9333 130.124 24.28H130.484V23.08H132.964V34.76C132.964 35.44 132.764 35.98 132.364 36.38C131.964 36.7933 131.43 37 130.764 37H124.124V34.8H129.884C130.257 34.8 130.444 34.6 130.444 34.2V31.62H130.084C129.95 31.8333 129.764 32.0533 129.524 32.28C129.284 32.4933 128.964 32.6733 128.564 32.82C128.164 32.9667 127.657 33.04 127.044 33.04C126.23 33.04 125.477 32.8467 124.784 32.46C124.104 32.06 123.557 31.4933 123.144 30.76C122.73 30.0133 122.524 29.12 122.524 28.08ZM127.764 30.84C128.537 30.84 129.184 30.5933 129.704 30.1C130.224 29.6067 130.484 28.9133 130.484 28.02V27.82C130.484 26.9133 130.224 26.22 129.704 25.74C129.197 25.2467 128.55 25 127.764 25C126.99 25 126.344 25.2467 125.824 25.74C125.304 26.22 125.044 26.9133 125.044 27.82V28.02C125.044 28.9133 125.304 29.6067 125.824 30.1C126.344 30.5933 126.99 30.84 127.764 30.84ZM135.757 33V19H138.277V33H135.757ZM141.07 33V23.08H143.59V33H141.07ZM142.33 21.92C141.877 21.92 141.49 21.7733 141.17 21.48C140.863 21.1867 140.71 20.8 140.71 20.32C140.71 19.84 140.863 19.4533 141.17 19.16C141.49 18.8667 141.877 18.72 142.33 18.72C142.797 18.72 143.183 18.8667 143.49 19.16C143.797 19.4533 143.95 19.84 143.95 20.32C143.95 20.8 143.797 21.1867 143.49 21.48C143.183 21.7733 142.797 21.92 142.33 21.92ZM150.502 33.28C149.209 33.28 148.149 33 147.322 32.44C146.496 31.88 145.996 31.08 145.822 30.04L148.142 29.44C148.236 29.9067 148.389 30.2733 148.602 30.54C148.829 30.8067 149.102 31 149.422 31.12C149.756 31.2267 150.116 31.28 150.502 31.28C151.089 31.28 151.522 31.18 151.802 30.98C152.082 30.7667 152.222 30.5067 152.222 30.2C152.222 29.8933 152.089 29.66 151.822 29.5C151.556 29.3267 151.129 29.1867 150.542 29.08L149.982 28.98C149.289 28.8467 148.656 28.6667 148.082 28.44C147.509 28.2 147.049 27.8733 146.702 27.46C146.356 27.0467 146.182 26.5133 146.182 25.86C146.182 24.8733 146.542 24.12 147.262 23.6C147.982 23.0667 148.929 22.8 150.102 22.8C151.209 22.8 152.129 23.0467 152.862 23.54C153.596 24.0333 154.076 24.68 154.302 25.48L151.962 26.2C151.856 25.6933 151.636 25.3333 151.302 25.12C150.982 24.9067 150.582 24.8 150.102 24.8C149.622 24.8 149.256 24.8867 149.002 25.06C148.749 25.22 148.622 25.4467 148.622 25.74C148.622 26.06 148.756 26.3 149.022 26.46C149.289 26.6067 149.649 26.72 150.102 26.8L150.662 26.9C151.409 27.0333 152.082 27.2133 152.682 27.44C153.296 27.6533 153.776 27.9667 154.122 28.38C154.482 28.78 154.662 29.3267 154.662 30.02C154.662 31.06 154.282 31.8667 153.522 32.44C152.776 33 151.769 33.28 150.502 33.28ZM156.871 33V19H159.391V24.3H159.751C159.857 24.0867 160.024 23.8733 160.251 23.66C160.477 23.4467 160.777 23.2733 161.151 23.14C161.537 22.9933 162.024 22.92 162.611 22.92C163.384 22.92 164.057 23.1 164.631 23.46C165.217 23.8067 165.671 24.2933 165.991 24.92C166.311 25.5333 166.471 26.2533 166.471 27.08V33H163.951V27.28C163.951 26.5333 163.764 25.9733 163.391 25.6C163.031 25.2267 162.511 25.04 161.831 25.04C161.057 25.04 160.457 25.3 160.031 25.82C159.604 26.3267 159.391 27.04 159.391 27.96V33H156.871Z" fill="white"/>
<defs>
<filter id="filter0_d_517_40" x="0" y="0" width="266" height="51" filterUnits="userSpaceOnUse" color-interpolation-filters="sRGB">
<feFlood flood-opacity="0" result="BackgroundImageFix"/>
<feColorMatrix in="SourceAlpha" type="matrix" values="0 0 0 0 0 0 0 0 0 0 0 0 0 0 0 0 0 0 127 0" result="hardAlpha"/>
<feOffset/>
<feGaussianBlur stdDeviation="2"/>
<feComposite in2="hardAlpha" operator="out"/>
<feColorMatrix type="matrix" values="0 0 0 0 0 0 0 0 0 0 0 0 0 0 0 0 0 0 0.5 0"/>
<feBlend mode="normal" in2="BackgroundImageFix" result="effect1_dropShadow_517_40"/>
<feBlend mode="normal" in="SourceGraphic" in2="effect1_dropShadow_517_40" result="shape"/>
</filter>
</defs>
</svg>
