<svg width="266" height="51" viewBox="0 0 266 51" fill="none" xmlns="http://www.w3.org/2000/svg">
<g filter="url(#filter0_d_584_20)">
<rect x="4" y="4" width="258" height="43" rx="4" fill="#415984"/>
</g>
<path d="M30.529 33V19H33.169V33H30.529ZM35.8824 33V23.08H38.3624V24.38H38.7224C38.8824 24.0333 39.1824 23.7067 39.6224 23.4C40.0624 23.08 40.7291 22.92 41.6224 22.92C42.3958 22.92 43.0691 23.1 43.6424 23.46C44.2291 23.8067 44.6824 24.2933 45.0024 24.92C45.3224 25.5333 45.4824 26.2533 45.4824 27.08V33H42.9624V27.28C42.9624 26.5333 42.7758 25.9733 42.4024 25.6C42.0424 25.2267 41.5224 25.04 40.8424 25.04C40.0691 25.04 39.4691 25.3 39.0424 25.82C38.6158 26.3267 38.4024 27.04 38.4024 27.96V33H35.8824ZM51.7332 33C51.0799 33 50.5465 32.8 50.1332 32.4C49.7332 31.9867 49.5332 31.44 49.5332 30.76V25.16H47.0532V23.08H49.5332V20H52.0532V23.08H54.7732V25.16H52.0532V30.32C52.0532 30.72 52.2399 30.92 52.6132 30.92H54.5332V33H51.7332ZM61.2227 33.28C60.2361 33.28 59.3627 33.0733 58.6027 32.66C57.8561 32.2333 57.2694 31.64 56.8427 30.88C56.4294 30.1067 56.2227 29.2 56.2227 28.16V27.92C56.2227 26.88 56.4294 25.98 56.8427 25.22C57.2561 24.4467 57.8361 23.8533 58.5827 23.44C59.3294 23.0133 60.1961 22.8 61.1827 22.8C62.1561 22.8 63.0027 23.02 63.7227 23.46C64.4427 23.8867 65.0027 24.4867 65.4027 25.26C65.8027 26.02 66.0027 26.9067 66.0027 27.92V28.78H58.7827C58.8094 29.46 59.0627 30.0133 59.5427 30.44C60.0227 30.8667 60.6094 31.08 61.3027 31.08C62.0094 31.08 62.5294 30.9267 62.8627 30.62C63.1961 30.3133 63.4494 29.9733 63.6227 29.6L65.6827 30.68C65.4961 31.0267 65.2227 31.4067 64.8627 31.82C64.5161 32.22 64.0494 32.5667 63.4627 32.86C62.8761 33.14 62.1294 33.28 61.2227 33.28ZM58.8027 26.9H63.4427C63.3894 26.3267 63.1561 25.8667 62.7427 25.52C62.3427 25.1733 61.8161 25 61.1627 25C60.4827 25 59.9427 25.1733 59.5427 25.52C59.1427 25.8667 58.8961 26.3267 58.8027 26.9ZM68.2457 33V23.08H70.7257V24.2H71.0857C71.2324 23.8 71.4724 23.5067 71.8057 23.32C72.1524 23.1333 72.5524 23.04 73.0057 23.04H74.2057V25.28H72.9657C72.3257 25.28 71.799 25.4533 71.3857 25.8C70.9724 26.1333 70.7657 26.6533 70.7657 27.36V33H68.2457ZM76.1754 33V23.08H78.6554V24.38H79.0154C79.1754 24.0333 79.4754 23.7067 79.9154 23.4C80.3554 23.08 81.0221 22.92 81.9154 22.92C82.6887 22.92 83.3621 23.1 83.9354 23.46C84.5221 23.8067 84.9754 24.2933 85.2954 24.92C85.6154 25.5333 85.7754 26.2533 85.7754 27.08V33H83.2554V27.28C83.2554 26.5333 83.0687 25.9733 82.6954 25.6C82.3354 25.2267 81.8154 25.04 81.1354 25.04C80.3621 25.04 79.7621 25.3 79.3354 25.82C78.9087 26.3267 78.6954 27.04 78.6954 27.96V33H76.1754ZM91.5796 33.28C90.8729 33.28 90.2396 33.16 89.6796 32.92C89.1196 32.6667 88.6729 32.3067 88.3396 31.84C88.0196 31.36 87.8596 30.78 87.8596 30.1C87.8596 29.42 88.0196 28.8533 88.3396 28.4C88.6729 27.9333 89.1263 27.5867 89.6996 27.36C90.2863 27.12 90.9529 27 91.6996 27H94.4196V26.44C94.4196 25.9733 94.2729 25.5933 93.9796 25.3C93.6863 24.9933 93.2196 24.84 92.5796 24.84C91.9529 24.84 91.4863 24.9867 91.1796 25.28C90.8729 25.56 90.6729 25.9267 90.5796 26.38L88.2596 25.6C88.4196 25.0933 88.6729 24.6333 89.0196 24.22C89.3796 23.7933 89.8529 23.4533 90.4396 23.2C91.0396 22.9333 91.7663 22.8 92.6196 22.8C93.9263 22.8 94.9596 23.1267 95.7196 23.78C96.4796 24.4333 96.8596 25.38 96.8596 26.62V30.32C96.8596 30.72 97.0463 30.92 97.4196 30.92H98.2196V33H96.5396C96.0463 33 95.6396 32.88 95.3196 32.64C94.9996 32.4 94.8396 32.08 94.8396 31.68V31.66H94.4596C94.4063 31.82 94.2863 32.0333 94.0996 32.3C93.9129 32.5533 93.6196 32.78 93.2196 32.98C92.8196 33.18 92.2729 33.28 91.5796 33.28ZM92.0196 31.24C92.7263 31.24 93.2996 31.0467 93.7396 30.66C94.1929 30.26 94.4196 29.7333 94.4196 29.08V28.88H91.8796C91.4129 28.88 91.0463 28.98 90.7796 29.18C90.5129 29.38 90.3796 29.66 90.3796 30.02C90.3796 30.38 90.5196 30.6733 90.7996 30.9C91.0796 31.1267 91.4863 31.24 92.0196 31.24ZM103.139 33C102.486 33 101.953 32.8 101.539 32.4C101.139 31.9867 100.939 31.44 100.939 30.76V25.16H98.4595V23.08H100.939V20H103.459V23.08H106.179V25.16H103.459V30.32C103.459 30.72 103.646 30.92 104.019 30.92H105.939V33H103.139ZM108.461 33V23.08H110.981V33H108.461ZM109.721 21.92C109.267 21.92 108.881 21.7733 108.561 21.48C108.254 21.1867 108.101 20.8 108.101 20.32C108.101 19.84 108.254 19.4533 108.561 19.16C108.881 18.8667 109.267 18.72 109.721 18.72C110.187 18.72 110.574 18.8667 110.881 19.16C111.187 19.4533 111.341 19.84 111.341 20.32C111.341 20.8 111.187 21.1867 110.881 21.48C110.574 21.7733 110.187 21.92 109.721 21.92ZM118.493 33.28C117.506 33.28 116.62 33.08 115.833 32.68C115.046 32.28 114.426 31.7 113.973 30.94C113.52 30.18 113.293 29.2667 113.293 28.2V27.88C113.293 26.8133 113.52 25.9 113.973 25.14C114.426 24.38 115.046 23.8 115.833 23.4C116.62 23 117.506 22.8 118.493 22.8C119.48 22.8 120.366 23 121.153 23.4C121.94 23.8 122.56 24.38 123.013 25.14C123.466 25.9 123.693 26.8133 123.693 27.88V28.2C123.693 29.2667 123.466 30.18 123.013 30.94C122.56 31.7 121.94 32.28 121.153 32.68C120.366 33.08 119.48 33.28 118.493 33.28ZM118.493 31.04C119.266 31.04 119.906 30.7933 120.413 30.3C120.92 29.7933 121.173 29.0733 121.173 28.14V27.94C121.173 27.0067 120.92 26.2933 120.413 25.8C119.92 25.2933 119.28 25.04 118.493 25.04C117.72 25.04 117.08 25.2933 116.573 25.8C116.066 26.2933 115.813 27.0067 115.813 27.94V28.14C115.813 29.0733 116.066 29.7933 116.573 30.3C117.08 30.7933 117.72 31.04 118.493 31.04ZM126.019 33V23.08H128.499V24.38H128.859C129.019 24.0333 129.319 23.7067 129.759 23.4C130.199 23.08 130.866 22.92 131.759 22.92C132.532 22.92 133.206 23.1 133.779 23.46C134.366 23.8067 134.819 24.2933 135.139 24.92C135.459 25.5333 135.619 26.2533 135.619 27.08V33H133.099V27.28C133.099 26.5333 132.912 25.9733 132.539 25.6C132.179 25.2267 131.659 25.04 130.979 25.04C130.206 25.04 129.606 25.3 129.179 25.82C128.752 26.3267 128.539 27.04 128.539 27.96V33H126.019ZM141.423 33.28C140.717 33.28 140.083 33.16 139.523 32.92C138.963 32.6667 138.517 32.3067 138.183 31.84C137.863 31.36 137.703 30.78 137.703 30.1C137.703 29.42 137.863 28.8533 138.183 28.4C138.517 27.9333 138.97 27.5867 139.543 27.36C140.13 27.12 140.797 27 141.543 27H144.263V26.44C144.263 25.9733 144.117 25.5933 143.823 25.3C143.53 24.9933 143.063 24.84 142.423 24.84C141.797 24.84 141.33 24.9867 141.023 25.28C140.717 25.56 140.517 25.9267 140.423 26.38L138.103 25.6C138.263 25.0933 138.517 24.6333 138.863 24.22C139.223 23.7933 139.697 23.4533 140.283 23.2C140.883 22.9333 141.61 22.8 142.463 22.8C143.77 22.8 144.803 23.1267 145.563 23.78C146.323 24.4333 146.703 25.38 146.703 26.62V30.32C146.703 30.72 146.89 30.92 147.263 30.92H148.063V33H146.383C145.89 33 145.483 32.88 145.163 32.64C144.843 32.4 144.683 32.08 144.683 31.68V31.66H144.303C144.25 31.82 144.13 32.0333 143.943 32.3C143.757 32.5533 143.463 32.78 143.063 32.98C142.663 33.18 142.117 33.28 141.423 33.28ZM141.863 31.24C142.57 31.24 143.143 31.0467 143.583 30.66C144.037 30.26 144.263 29.7333 144.263 29.08V28.88H141.723C141.257 28.88 140.89 28.98 140.623 29.18C140.357 29.38 140.223 29.66 140.223 30.02C140.223 30.38 140.363 30.6733 140.643 30.9C140.923 31.1267 141.33 31.24 141.863 31.24ZM149.906 33V19H152.426V33H149.906ZM165.076 33.28C163.996 33.28 163.043 33.0867 162.216 32.7C161.39 32.3133 160.743 31.76 160.276 31.04C159.81 30.32 159.576 29.4533 159.576 28.44V27.88H162.176V28.44C162.176 29.28 162.436 29.9133 162.956 30.34C163.476 30.7533 164.183 30.96 165.076 30.96C165.983 30.96 166.656 30.78 167.096 30.42C167.55 30.06 167.776 29.6 167.776 29.04C167.776 28.6533 167.663 28.34 167.436 28.1C167.223 27.86 166.903 27.6667 166.476 27.52C166.063 27.36 165.556 27.2133 164.956 27.08L164.496 26.98C163.536 26.7667 162.71 26.5 162.016 26.18C161.336 25.8467 160.81 25.4133 160.436 24.88C160.076 24.3467 159.896 23.6533 159.896 22.8C159.896 21.9467 160.096 21.22 160.496 20.62C160.91 20.0067 161.483 19.54 162.216 19.22C162.963 18.8867 163.836 18.72 164.836 18.72C165.836 18.72 166.723 18.8933 167.496 19.24C168.283 19.5733 168.896 20.08 169.336 20.76C169.79 21.4267 170.016 22.2667 170.016 23.28V23.88H167.416V23.28C167.416 22.7467 167.31 22.32 167.096 22C166.896 21.6667 166.603 21.4267 166.216 21.28C165.83 21.12 165.37 21.04 164.836 21.04C164.036 21.04 163.443 21.1933 163.056 21.5C162.683 21.7933 162.496 22.2 162.496 22.72C162.496 23.0667 162.583 23.36 162.756 23.6C162.943 23.84 163.216 24.04 163.576 24.2C163.936 24.36 164.396 24.5 164.956 24.62L165.416 24.72C166.416 24.9333 167.283 25.2067 168.016 25.54C168.763 25.8733 169.343 26.3133 169.756 26.86C170.17 27.4067 170.376 28.1067 170.376 28.96C170.376 29.8133 170.156 30.5667 169.716 31.22C169.29 31.86 168.676 32.3667 167.876 32.74C167.09 33.1 166.156 33.28 165.076 33.28ZM172.425 37V23.08H174.905V24.28H175.265C175.492 23.8933 175.845 23.5533 176.325 23.26C176.805 22.9533 177.492 22.8 178.385 22.8C179.185 22.8 179.925 23 180.605 23.4C181.285 23.7867 181.832 24.36 182.245 25.12C182.659 25.88 182.865 26.8 182.865 27.88V28.2C182.865 29.28 182.659 30.2 182.245 30.96C181.832 31.72 181.285 32.3 180.605 32.7C179.925 33.0867 179.185 33.28 178.385 33.28C177.785 33.28 177.279 33.2067 176.865 33.06C176.465 32.9267 176.139 32.7533 175.885 32.54C175.645 32.3133 175.452 32.0867 175.305 31.86H174.945V37H172.425ZM177.625 31.08C178.412 31.08 179.059 30.8333 179.565 30.34C180.085 29.8333 180.345 29.1 180.345 28.14V27.94C180.345 26.98 180.085 26.2533 179.565 25.76C179.045 25.2533 178.399 25 177.625 25C176.852 25 176.205 25.2533 175.685 25.76C175.165 26.2533 174.905 26.98 174.905 27.94V28.14C174.905 29.1 175.165 29.8333 175.685 30.34C176.205 30.8333 176.852 31.08 177.625 31.08ZM188.259 33.28C187.553 33.28 186.919 33.16 186.359 32.92C185.799 32.6667 185.353 32.3067 185.019 31.84C184.699 31.36 184.539 30.78 184.539 30.1C184.539 29.42 184.699 28.8533 185.019 28.4C185.353 27.9333 185.806 27.5867 186.379 27.36C186.966 27.12 187.633 27 188.379 27H191.099V26.44C191.099 25.9733 190.953 25.5933 190.659 25.3C190.366 24.9933 189.899 24.84 189.259 24.84C188.633 24.84 188.166 24.9867 187.859 25.28C187.553 25.56 187.353 25.9267 187.259 26.38L184.939 25.6C185.099 25.0933 185.353 24.6333 185.699 24.22C186.059 23.7933 186.533 23.4533 187.119 23.2C187.719 22.9333 188.446 22.8 189.299 22.8C190.606 22.8 191.639 23.1267 192.399 23.78C193.159 24.4333 193.539 25.38 193.539 26.62V30.32C193.539 30.72 193.726 30.92 194.099 30.92H194.899V33H193.219C192.726 33 192.319 32.88 191.999 32.64C191.679 32.4 191.519 32.08 191.519 31.68V31.66H191.139C191.086 31.82 190.966 32.0333 190.779 32.3C190.593 32.5533 190.299 32.78 189.899 32.98C189.499 33.18 188.953 33.28 188.259 33.28ZM188.699 31.24C189.406 31.24 189.979 31.0467 190.419 30.66C190.873 30.26 191.099 29.7333 191.099 29.08V28.88H188.559C188.093 28.88 187.726 28.98 187.459 29.18C187.193 29.38 187.059 29.66 187.059 30.02C187.059 30.38 187.199 30.6733 187.479 30.9C187.759 31.1267 188.166 31.24 188.699 31.24ZM196.742 33V23.08H199.222V24.38H199.582C199.742 24.0333 200.042 23.7067 200.482 23.4C200.922 23.08 201.588 22.92 202.482 22.92C203.255 22.92 203.928 23.1 204.502 23.46C205.088 23.8067 205.542 24.2933 205.862 24.92C206.182 25.5333 206.342 26.2533 206.342 27.08V33H203.822V27.28C203.822 26.5333 203.635 25.9733 203.262 25.6C202.902 25.2267 202.382 25.04 201.702 25.04C200.928 25.04 200.328 25.3 199.902 25.82C199.475 26.3267 199.262 27.04 199.262 27.96V33H196.742ZM209.066 33V23.08H211.586V33H209.066ZM210.326 21.92C209.873 21.92 209.486 21.7733 209.166 21.48C208.859 21.1867 208.706 20.8 208.706 20.32C208.706 19.84 208.859 19.4533 209.166 19.16C209.486 18.8667 209.873 18.72 210.326 18.72C210.793 18.72 211.179 18.8667 211.486 19.16C211.793 19.4533 211.946 19.84 211.946 20.32C211.946 20.8 211.793 21.1867 211.486 21.48C211.179 21.7733 210.793 21.92 210.326 21.92ZM218.499 33.28C217.205 33.28 216.145 33 215.319 32.44C214.492 31.88 213.992 31.08 213.819 30.04L216.139 29.44C216.232 29.9067 216.385 30.2733 216.599 30.54C216.825 30.8067 217.099 31 217.419 31.12C217.752 31.2267 218.112 31.28 218.499 31.28C219.085 31.28 219.519 31.18 219.799 30.98C220.079 30.7667 220.219 30.5067 220.219 30.2C220.219 29.8933 220.085 29.66 219.819 29.5C219.552 29.3267 219.125 29.1867 218.539 29.08L217.979 28.98C217.285 28.8467 216.652 28.6667 216.079 28.44C215.505 28.2 215.045 27.8733 214.699 27.46C214.352 27.0467 214.179 26.5133 214.179 25.86C214.179 24.8733 214.539 24.12 215.259 23.6C215.979 23.0667 216.925 22.8 218.099 22.8C219.205 22.8 220.125 23.0467 220.859 23.54C221.592 24.0333 222.072 24.68 222.299 25.48L219.959 26.2C219.852 25.6933 219.632 25.3333 219.299 25.12C218.979 24.9067 218.579 24.8 218.099 24.8C217.619 24.8 217.252 24.8867 216.999 25.06C216.745 25.22 216.619 25.4467 216.619 25.74C216.619 26.06 216.752 26.3 217.019 26.46C217.285 26.6067 217.645 26.72 218.099 26.8L218.659 26.9C219.405 27.0333 220.079 27.2133 220.679 27.44C221.292 27.6533 221.772 27.9667 222.119 28.38C222.479 28.78 222.659 29.3267 222.659 30.02C222.659 31.06 222.279 31.8667 221.519 32.44C220.772 33 219.765 33.28 218.499 33.28ZM224.867 33V19H227.387V24.3H227.747C227.853 24.0867 228.02 23.8733 228.247 23.66C228.473 23.4467 228.773 23.2733 229.147 23.14C229.533 22.9933 230.02 22.92 230.607 22.92C231.38 22.92 232.053 23.1 232.627 23.46C233.213 23.8067 233.667 24.2933 233.987 24.92C234.307 25.5333 234.467 26.2533 234.467 27.08V33H231.947V27.28C231.947 26.5333 231.76 25.9733 231.387 25.6C231.027 25.2267 230.507 25.04 229.827 25.04C229.053 25.04 228.453 25.3 228.027 25.82C227.6 26.3267 227.387 27.04 227.387 27.96V33H224.867Z" fill="white"/>
<defs>
<filter id="filter0_d_584_20" x="0" y="0" width="266" height="51" filterUnits="userSpaceOnUse" color-interpolation-filters="sRGB">
<feFlood flood-opacity="0" result="BackgroundImageFix"/>
<feColorMatrix in="SourceAlpha" type="matrix" values="0 0 0 0 0 0 0 0 0 0 0 0 0 0 0 0 0 0 127 0" result="hardAlpha"/>
<feOffset/>
<feGaussianBlur stdDeviation="2"/>
<feComposite in2="hardAlpha" operator="out"/>
<feColorMatrix type="matrix" values="0 0 0 0 0 0 0 0 0 0 0 0 0 0 0 0 0 0 0.5 0"/>
<feBlend mode="normal" in2="BackgroundImageFix" result="effect1_dropShadow_584_20"/>
<feBlend mode="normal" in="SourceGraphic" in2="effect1_dropShadow_584_20" result="shape"/>
</filter>
</defs>
</svg>
