<svg width="266" height="51" viewBox="0 0 266 51" fill="none" xmlns="http://www.w3.org/2000/svg">
<g filter="url(#filter0_d_584_20)">
<rect x="4" y="4" width="258" height="43" rx="4" fill="#415984"/>
</g>
<path d="M100.233 33.28C99.1527 33.28 98.1994 33.0867 97.3727 32.7C96.5461 32.3133 95.8994 31.76 95.4327 31.04C94.9661 30.32 94.7327 29.4533 94.7327 28.44V27.88H97.3327V28.44C97.3327 29.28 97.5927 29.9133 98.1127 30.34C98.6327 30.7533 99.3394 30.96 100.233 30.96C101.139 30.96 101.813 30.78 102.253 30.42C102.706 30.06 102.933 29.6 102.933 29.04C102.933 28.6533 102.819 28.34 102.593 28.1C102.379 27.86 102.059 27.6667 101.633 27.52C101.219 27.36 100.713 27.2133 100.113 27.08L99.6527 26.98C98.6927 26.7667 97.8661 26.5 97.1727 26.18C96.4927 25.8467 95.9661 25.4133 95.5927 24.88C95.2327 24.3467 95.0527 23.6533 95.0527 22.8C95.0527 21.9467 95.2527 21.22 95.6527 20.62C96.0661 20.0067 96.6394 19.54 97.3727 19.22C98.1194 18.8867 98.9927 18.72 99.9927 18.72C100.993 18.72 101.879 18.8933 102.653 19.24C103.439 19.5733 104.053 20.08 104.493 20.76C104.946 21.4267 105.173 22.2667 105.173 23.28V23.88H102.573V23.28C102.573 22.7467 102.466 22.32 102.253 22C102.053 21.6667 101.759 21.4267 101.373 21.28C100.986 21.12 100.526 21.04 99.9927 21.04C99.1927 21.04 98.5994 21.1933 98.2127 21.5C97.8394 21.7933 97.6527 22.2 97.6527 22.72C97.6527 23.0667 97.7394 23.36 97.9127 23.6C98.0994 23.84 98.3727 24.04 98.7327 24.2C99.0927 24.36 99.5527 24.5 100.113 24.62L100.573 24.72C101.573 24.9333 102.439 25.2067 103.173 25.54C103.919 25.8733 104.499 26.3133 104.913 26.86C105.326 27.4067 105.533 28.1067 105.533 28.96C105.533 29.8133 105.313 30.5667 104.873 31.22C104.446 31.86 103.833 32.3667 103.033 32.74C102.246 33.1 101.313 33.28 100.233 33.28ZM107.582 37V23.08H110.062V24.28H110.422C110.648 23.8933 111.002 23.5533 111.482 23.26C111.962 22.9533 112.648 22.8 113.542 22.8C114.342 22.8 115.082 23 115.762 23.4C116.442 23.7867 116.988 24.36 117.402 25.12C117.815 25.88 118.022 26.8 118.022 27.88V28.2C118.022 29.28 117.815 30.2 117.402 30.96C116.988 31.72 116.442 32.3 115.762 32.7C115.082 33.0867 114.342 33.28 113.542 33.28C112.942 33.28 112.435 33.2067 112.022 33.06C111.622 32.9267 111.295 32.7533 111.042 32.54C110.802 32.3133 110.608 32.0867 110.462 31.86H110.102V37H107.582ZM112.782 31.08C113.568 31.08 114.215 30.8333 114.722 30.34C115.242 29.8333 115.502 29.1 115.502 28.14V27.94C115.502 26.98 115.242 26.2533 114.722 25.76C114.202 25.2533 113.555 25 112.782 25C112.008 25 111.362 25.2533 110.842 25.76C110.322 26.2533 110.062 26.98 110.062 27.94V28.14C110.062 29.1 110.322 29.8333 110.842 30.34C111.362 30.8333 112.008 31.08 112.782 31.08ZM123.416 33.28C122.709 33.28 122.076 33.16 121.516 32.92C120.956 32.6667 120.509 32.3067 120.176 31.84C119.856 31.36 119.696 30.78 119.696 30.1C119.696 29.42 119.856 28.8533 120.176 28.4C120.509 27.9333 120.962 27.5867 121.536 27.36C122.122 27.12 122.789 27 123.536 27H126.256V26.44C126.256 25.9733 126.109 25.5933 125.816 25.3C125.522 24.9933 125.056 24.84 124.416 24.84C123.789 24.84 123.322 24.9867 123.016 25.28C122.709 25.56 122.509 25.9267 122.416 26.38L120.096 25.6C120.256 25.0933 120.509 24.6333 120.856 24.22C121.216 23.7933 121.689 23.4533 122.276 23.2C122.876 22.9333 123.602 22.8 124.456 22.8C125.762 22.8 126.796 23.1267 127.556 23.78C128.316 24.4333 128.696 25.38 128.696 26.62V30.32C128.696 30.72 128.882 30.92 129.256 30.92H130.056V33H128.376C127.882 33 127.476 32.88 127.156 32.64C126.836 32.4 126.676 32.08 126.676 31.68V31.66H126.296C126.242 31.82 126.122 32.0333 125.936 32.3C125.749 32.5533 125.456 32.78 125.056 32.98C124.656 33.18 124.109 33.28 123.416 33.28ZM123.856 31.24C124.562 31.24 125.136 31.0467 125.576 30.66C126.029 30.26 126.256 29.7333 126.256 29.08V28.88H123.716C123.249 28.88 122.882 28.98 122.616 29.18C122.349 29.38 122.216 29.66 122.216 30.02C122.216 30.38 122.356 30.6733 122.636 30.9C122.916 31.1267 123.322 31.24 123.856 31.24ZM131.898 33V23.08H134.378V24.38H134.738C134.898 24.0333 135.198 23.7067 135.638 23.4C136.078 23.08 136.745 22.92 137.638 22.92C138.411 22.92 139.085 23.1 139.658 23.46C140.245 23.8067 140.698 24.2933 141.018 24.92C141.338 25.5333 141.498 26.2533 141.498 27.08V33H138.978V27.28C138.978 26.5333 138.791 25.9733 138.418 25.6C138.058 25.2267 137.538 25.04 136.858 25.04C136.085 25.04 135.485 25.3 135.058 25.82C134.631 26.3267 134.418 27.04 134.418 27.96V33H131.898ZM144.222 33V23.08H146.742V33H144.222ZM145.482 21.92C145.029 21.92 144.642 21.7733 144.322 21.48C144.016 21.1867 143.862 20.8 143.862 20.32C143.862 19.84 144.016 19.4533 144.322 19.16C144.642 18.8667 145.029 18.72 145.482 18.72C145.949 18.72 146.336 18.8667 146.642 19.16C146.949 19.4533 147.102 19.84 147.102 20.32C147.102 20.8 146.949 21.1867 146.642 21.48C146.336 21.7733 145.949 21.92 145.482 21.92ZM153.655 33.28C152.361 33.28 151.301 33 150.475 32.44C149.648 31.88 149.148 31.08 148.975 30.04L151.295 29.44C151.388 29.9067 151.541 30.2733 151.755 30.54C151.981 30.8067 152.255 31 152.575 31.12C152.908 31.2267 153.268 31.28 153.655 31.28C154.241 31.28 154.675 31.18 154.955 30.98C155.235 30.7667 155.375 30.5067 155.375 30.2C155.375 29.8933 155.241 29.66 154.975 29.5C154.708 29.3267 154.281 29.1867 153.695 29.08L153.135 28.98C152.441 28.8467 151.808 28.6667 151.235 28.44C150.661 28.2 150.201 27.8733 149.855 27.46C149.508 27.0467 149.335 26.5133 149.335 25.86C149.335 24.8733 149.695 24.12 150.415 23.6C151.135 23.0667 152.081 22.8 153.255 22.8C154.361 22.8 155.281 23.0467 156.015 23.54C156.748 24.0333 157.228 24.68 157.455 25.48L155.115 26.2C155.008 25.6933 154.788 25.3333 154.455 25.12C154.135 24.9067 153.735 24.8 153.255 24.8C152.775 24.8 152.408 24.8867 152.155 25.06C151.901 25.22 151.775 25.4467 151.775 25.74C151.775 26.06 151.908 26.3 152.175 26.46C152.441 26.6067 152.801 26.72 153.255 26.8L153.815 26.9C154.561 27.0333 155.235 27.2133 155.835 27.44C156.448 27.6533 156.928 27.9667 157.275 28.38C157.635 28.78 157.815 29.3267 157.815 30.02C157.815 31.06 157.435 31.8667 156.675 32.44C155.928 33 154.921 33.28 153.655 33.28ZM160.023 33V19H162.543V24.3H162.903C163.01 24.0867 163.176 23.8733 163.403 23.66C163.63 23.4467 163.93 23.2733 164.303 23.14C164.69 22.9933 165.176 22.92 165.763 22.92C166.536 22.92 167.21 23.1 167.783 23.46C168.37 23.8067 168.823 24.2933 169.143 24.92C169.463 25.5333 169.623 26.2533 169.623 27.08V33H167.103V27.28C167.103 26.5333 166.916 25.9733 166.543 25.6C166.183 25.2267 165.663 25.04 164.983 25.04C164.21 25.04 163.61 25.3 163.183 25.82C162.756 26.3267 162.543 27.04 162.543 27.96V33H160.023Z" fill="white"/>
<defs>
<filter id="filter0_d_584_20" x="0" y="0" width="266" height="51" filterUnits="userSpaceOnUse" color-interpolation-filters="sRGB">
<feFlood flood-opacity="0" result="BackgroundImageFix"/>
<feColorMatrix in="SourceAlpha" type="matrix" values="0 0 0 0 0 0 0 0 0 0 0 0 0 0 0 0 0 0 127 0" result="hardAlpha"/>
<feOffset/>
<feGaussianBlur stdDeviation="2"/>
<feComposite in2="hardAlpha" operator="out"/>
<feColorMatrix type="matrix" values="0 0 0 0 0 0 0 0 0 0 0 0 0 0 0 0 0 0 0.5 0"/>
<feBlend mode="normal" in2="BackgroundImageFix" result="effect1_dropShadow_584_20"/>
<feBlend mode="normal" in="SourceGraphic" in2="effect1_dropShadow_584_20" result="shape"/>
</filter>
</defs>
</svg>
