<svg width="266" height="51" viewBox="0 0 266 51" fill="none" xmlns="http://www.w3.org/2000/svg">
<g filter="url(#filter0_d_584_9)">
<rect x="4" y="4" width="258" height="43" rx="4" fill="#0F3057"/>
<path d="M36.654 33V19H42.414C43.294 19 44.0673 19.18 44.734 19.54C45.414 19.8867 45.9407 20.38 46.314 21.02C46.7007 21.66 46.894 22.42 46.894 23.3V23.58C46.894 24.4467 46.694 25.2067 46.294 25.86C45.9073 26.5 45.374 27 44.694 27.36C44.0273 27.7067 43.2673 27.88 42.414 27.88H39.294V33H36.654ZM39.294 25.48H42.154C42.7807 25.48 43.2873 25.3067 43.674 24.96C44.0607 24.6133 44.254 24.14 44.254 23.54V23.34C44.254 22.74 44.0607 22.2667 43.674 21.92C43.2873 21.5733 42.7807 21.4 42.154 21.4H39.294V25.48ZM53.2899 33.28C52.3033 33.28 51.4166 33.08 50.6299 32.68C49.8433 32.28 49.2233 31.7 48.7699 30.94C48.3166 30.18 48.0899 29.2667 48.0899 28.2V27.88C48.0899 26.8133 48.3166 25.9 48.7699 25.14C49.2233 24.38 49.8433 23.8 50.6299 23.4C51.4166 23 52.3033 22.8 53.2899 22.8C54.2766 22.8 55.1633 23 55.9499 23.4C56.7366 23.8 57.3566 24.38 57.8099 25.14C58.2633 25.9 58.4899 26.8133 58.4899 27.88V28.2C58.4899 29.2667 58.2633 30.18 57.8099 30.94C57.3566 31.7 56.7366 32.28 55.9499 32.68C55.1633 33.08 54.2766 33.28 53.2899 33.28ZM53.2899 31.04C54.0633 31.04 54.7033 30.7933 55.2099 30.3C55.7166 29.7933 55.9699 29.0733 55.9699 28.14V27.94C55.9699 27.0067 55.7166 26.2933 55.2099 25.8C54.7166 25.2933 54.0766 25.04 53.2899 25.04C52.5166 25.04 51.8766 25.2933 51.3699 25.8C50.8633 26.2933 50.6099 27.0067 50.6099 27.94V28.14C50.6099 29.0733 50.8633 29.7933 51.3699 30.3C51.8766 30.7933 52.5166 31.04 53.2899 31.04ZM60.816 33V23.08H63.296V24.2H63.656C63.8027 23.8 64.0427 23.5067 64.376 23.32C64.7227 23.1333 65.1227 23.04 65.576 23.04H66.776V25.28H65.536C64.896 25.28 64.3693 25.4533 63.956 25.8C63.5427 26.1333 63.336 26.6533 63.336 27.36V33H60.816ZM72.5457 33C71.8924 33 71.359 32.8 70.9457 32.4C70.5457 31.9867 70.3457 31.44 70.3457 30.76V25.16H67.8657V23.08H70.3457V20H72.8657V23.08H75.5857V25.16H72.8657V30.32C72.8657 30.72 73.0524 30.92 73.4257 30.92H75.3457V33H72.5457ZM81.6468 33.16C80.8735 33.16 80.1935 32.9867 79.6068 32.64C79.0335 32.28 78.5868 31.7867 78.2668 31.16C77.9468 30.5333 77.7868 29.8133 77.7868 29V23.08H80.3068V28.8C80.3068 29.5467 80.4868 30.1067 80.8468 30.48C81.2201 30.8533 81.7468 31.04 82.4268 31.04C83.2001 31.04 83.8001 30.7867 84.2268 30.28C84.6535 29.76 84.8668 29.04 84.8668 28.12V23.08H87.3868V33H84.9068V31.7H84.5468C84.3868 32.0333 84.0868 32.36 83.6468 32.68C83.2068 33 82.5401 33.16 81.6468 33.16ZM89.711 28.08V27.76C89.711 26.72 89.9177 25.8333 90.331 25.1C90.7443 24.3533 91.291 23.7867 91.971 23.4C92.6643 23 93.4177 22.8 94.231 22.8C95.1377 22.8 95.8243 22.96 96.291 23.28C96.7577 23.6 97.0977 23.9333 97.311 24.28H97.671V23.08H100.151V34.76C100.151 35.44 99.951 35.98 99.551 36.38C99.151 36.7933 98.6177 37 97.951 37H91.311V34.8H97.071C97.4443 34.8 97.631 34.6 97.631 34.2V31.62H97.271C97.1377 31.8333 96.951 32.0533 96.711 32.28C96.471 32.4933 96.151 32.6733 95.751 32.82C95.351 32.9667 94.8443 33.04 94.231 33.04C93.4177 33.04 92.6643 32.8467 91.971 32.46C91.291 32.06 90.7443 31.4933 90.331 30.76C89.9177 30.0133 89.711 29.12 89.711 28.08ZM94.951 30.84C95.7243 30.84 96.371 30.5933 96.891 30.1C97.411 29.6067 97.671 28.9133 97.671 28.02V27.82C97.671 26.9133 97.411 26.22 96.891 25.74C96.3843 25.2467 95.7377 25 94.951 25C94.1777 25 93.531 25.2467 93.011 25.74C92.491 26.22 92.231 26.9133 92.231 27.82V28.02C92.231 28.9133 92.491 29.6067 93.011 30.1C93.531 30.5933 94.1777 30.84 94.951 30.84ZM106.725 33.16C105.952 33.16 105.272 32.9867 104.685 32.64C104.112 32.28 103.665 31.7867 103.345 31.16C103.025 30.5333 102.865 29.8133 102.865 29V23.08H105.385V28.8C105.385 29.5467 105.565 30.1067 105.925 30.48C106.298 30.8533 106.825 31.04 107.505 31.04C108.278 31.04 108.878 30.7867 109.305 30.28C109.732 29.76 109.945 29.04 109.945 28.12V23.08H112.465V33H109.985V31.7H109.625C109.465 32.0333 109.165 32.36 108.725 32.68C108.285 33 107.618 33.16 106.725 33.16ZM119.789 33.28C118.802 33.28 117.929 33.0733 117.169 32.66C116.422 32.2333 115.836 31.64 115.409 30.88C114.996 30.1067 114.789 29.2 114.789 28.16V27.92C114.789 26.88 114.996 25.98 115.409 25.22C115.822 24.4467 116.402 23.8533 117.149 23.44C117.896 23.0133 118.762 22.8 119.749 22.8C120.722 22.8 121.569 23.02 122.289 23.46C123.009 23.8867 123.569 24.4867 123.969 25.26C124.369 26.02 124.569 26.9067 124.569 27.92V28.78H117.349C117.376 29.46 117.629 30.0133 118.109 30.44C118.589 30.8667 119.176 31.08 119.869 31.08C120.576 31.08 121.096 30.9267 121.429 30.62C121.762 30.3133 122.016 29.9733 122.189 29.6L124.249 30.68C124.062 31.0267 123.789 31.4067 123.429 31.82C123.082 32.22 122.616 32.5667 122.029 32.86C121.442 33.14 120.696 33.28 119.789 33.28ZM117.369 26.9H122.009C121.956 26.3267 121.722 25.8667 121.309 25.52C120.909 25.1733 120.382 25 119.729 25C119.049 25 118.509 25.1733 118.109 25.52C117.709 25.8667 117.462 26.3267 117.369 26.9ZM118.229 21.96L119.709 19H122.549L120.429 21.96H118.229ZM130.932 33.28C129.639 33.28 128.579 33 127.752 32.44C126.925 31.88 126.425 31.08 126.252 30.04L128.572 29.44C128.665 29.9067 128.819 30.2733 129.032 30.54C129.259 30.8067 129.532 31 129.852 31.12C130.185 31.2267 130.545 31.28 130.932 31.28C131.519 31.28 131.952 31.18 132.232 30.98C132.512 30.7667 132.652 30.5067 132.652 30.2C132.652 29.8933 132.519 29.66 132.252 29.5C131.985 29.3267 131.559 29.1867 130.972 29.08L130.412 28.98C129.719 28.8467 129.085 28.6667 128.512 28.44C127.939 28.2 127.479 27.8733 127.132 27.46C126.785 27.0467 126.612 26.5133 126.612 25.86C126.612 24.8733 126.972 24.12 127.692 23.6C128.412 23.0667 129.359 22.8 130.532 22.8C131.639 22.8 132.559 23.0467 133.292 23.54C134.025 24.0333 134.505 24.68 134.732 25.48L132.392 26.2C132.285 25.6933 132.065 25.3333 131.732 25.12C131.412 24.9067 131.012 24.8 130.532 24.8C130.052 24.8 129.685 24.8867 129.432 25.06C129.179 25.22 129.052 25.4467 129.052 25.74C129.052 26.06 129.185 26.3 129.452 26.46C129.719 26.6067 130.079 26.72 130.532 26.8L131.092 26.9C131.839 27.0333 132.512 27.2133 133.112 27.44C133.725 27.6533 134.205 27.9667 134.552 28.38C134.912 28.78 135.092 29.3267 135.092 30.02C135.092 31.06 134.712 31.8667 133.952 32.44C133.205 33 132.199 33.28 130.932 33.28ZM141.899 33V30.68H143.739V21.32H141.899V19H149.099C149.952 19 150.692 19.1467 151.319 19.44C151.959 19.72 152.452 20.1267 152.799 20.66C153.159 21.18 153.339 21.8067 153.339 22.54V22.74C153.339 23.38 153.219 23.9067 152.979 24.32C152.739 24.72 152.452 25.0333 152.119 25.26C151.799 25.4733 151.492 25.6267 151.199 25.72V26.08C151.492 26.16 151.812 26.3133 152.159 26.54C152.505 26.7533 152.799 27.0667 153.039 27.48C153.292 27.8933 153.419 28.4333 153.419 29.1V29.3C153.419 30.0733 153.239 30.74 152.879 31.3C152.519 31.8467 152.019 32.2667 151.379 32.56C150.752 32.8533 150.019 33 149.179 33H141.899ZM146.379 30.6H148.859C149.432 30.6 149.892 30.46 150.239 30.18C150.599 29.9 150.779 29.5 150.779 28.98V28.78C150.779 28.26 150.605 27.86 150.259 27.58C149.912 27.3 149.445 27.16 148.859 27.16H146.379V30.6ZM146.379 24.76H148.819C149.365 24.76 149.812 24.62 150.159 24.34C150.519 24.06 150.699 23.6733 150.699 23.18V22.98C150.699 22.4733 150.525 22.0867 150.179 21.82C149.832 21.54 149.379 21.4 148.819 21.4H146.379V24.76ZM155.66 33V23.08H158.14V24.2H158.5C158.646 23.8 158.886 23.5067 159.22 23.32C159.566 23.1333 159.966 23.04 160.42 23.04H161.62V25.28H160.38C159.74 25.28 159.213 25.4533 158.8 25.8C158.386 26.1333 158.18 26.6533 158.18 27.36V33H155.66ZM166.435 33.28C165.728 33.28 165.095 33.16 164.535 32.92C163.975 32.6667 163.528 32.3067 163.195 31.84C162.875 31.36 162.715 30.78 162.715 30.1C162.715 29.42 162.875 28.8533 163.195 28.4C163.528 27.9333 163.982 27.5867 164.555 27.36C165.142 27.12 165.808 27 166.555 27H169.275V26.44C169.275 25.9733 169.128 25.5933 168.835 25.3C168.542 24.9933 168.075 24.84 167.435 24.84C166.808 24.84 166.342 24.9867 166.035 25.28C165.728 25.56 165.528 25.9267 165.435 26.38L163.115 25.6C163.275 25.0933 163.528 24.6333 163.875 24.22C164.235 23.7933 164.708 23.4533 165.295 23.2C165.895 22.9333 166.622 22.8 167.475 22.8C168.782 22.8 169.815 23.1267 170.575 23.78C171.335 24.4333 171.715 25.38 171.715 26.62V30.32C171.715 30.72 171.902 30.92 172.275 30.92H173.075V33H171.395C170.902 33 170.495 32.88 170.175 32.64C169.855 32.4 169.695 32.08 169.695 31.68V31.66H169.315C169.262 31.82 169.142 32.0333 168.955 32.3C168.768 32.5533 168.475 32.78 168.075 32.98C167.675 33.18 167.128 33.28 166.435 33.28ZM166.875 31.24C167.582 31.24 168.155 31.0467 168.595 30.66C169.048 30.26 169.275 29.7333 169.275 29.08V28.88H166.735C166.268 28.88 165.902 28.98 165.635 29.18C165.368 29.38 165.235 29.66 165.235 30.02C165.235 30.38 165.375 30.6733 165.655 30.9C165.935 31.1267 166.342 31.24 166.875 31.24ZM178.959 33.28C177.666 33.28 176.606 33 175.779 32.44C174.953 31.88 174.453 31.08 174.279 30.04L176.599 29.44C176.693 29.9067 176.846 30.2733 177.059 30.54C177.286 30.8067 177.559 31 177.879 31.12C178.213 31.2267 178.573 31.28 178.959 31.28C179.546 31.28 179.979 31.18 180.259 30.98C180.539 30.7667 180.679 30.5067 180.679 30.2C180.679 29.8933 180.546 29.66 180.279 29.5C180.013 29.3267 179.586 29.1867 178.999 29.08L178.439 28.98C177.746 28.8467 177.113 28.6667 176.539 28.44C175.966 28.2 175.506 27.8733 175.159 27.46C174.813 27.0467 174.639 26.5133 174.639 25.86C174.639 24.8733 174.999 24.12 175.719 23.6C176.439 23.0667 177.386 22.8 178.559 22.8C179.666 22.8 180.586 23.0467 181.319 23.54C182.053 24.0333 182.533 24.68 182.759 25.48L180.419 26.2C180.313 25.6933 180.093 25.3333 179.759 25.12C179.439 24.9067 179.039 24.8 178.559 24.8C178.079 24.8 177.713 24.8867 177.459 25.06C177.206 25.22 177.079 25.4467 177.079 25.74C177.079 26.06 177.213 26.3 177.479 26.46C177.746 26.6067 178.106 26.72 178.559 26.8L179.119 26.9C179.866 27.0333 180.539 27.2133 181.139 27.44C181.753 27.6533 182.233 27.9667 182.579 28.38C182.939 28.78 183.119 29.3267 183.119 30.02C183.119 31.06 182.739 31.8667 181.979 32.44C181.233 33 180.226 33.28 178.959 33.28ZM185.328 33V23.08H187.848V33H185.328ZM186.588 21.92C186.134 21.92 185.748 21.7733 185.428 21.48C185.121 21.1867 184.968 20.8 184.968 20.32C184.968 19.84 185.121 19.4533 185.428 19.16C185.748 18.8667 186.134 18.72 186.588 18.72C187.054 18.72 187.441 18.8667 187.748 19.16C188.054 19.4533 188.208 19.84 188.208 20.32C188.208 20.8 188.054 21.1867 187.748 21.48C187.441 21.7733 187.054 21.92 186.588 21.92ZM190.64 33V19H193.16V33H190.64ZM200.473 33.28C199.486 33.28 198.613 33.0733 197.853 32.66C197.106 32.2333 196.519 31.64 196.093 30.88C195.679 30.1067 195.473 29.2 195.473 28.16V27.92C195.473 26.88 195.679 25.98 196.093 25.22C196.506 24.4467 197.086 23.8533 197.833 23.44C198.579 23.0133 199.446 22.8 200.433 22.8C201.406 22.8 202.253 23.02 202.973 23.46C203.693 23.8867 204.253 24.4867 204.653 25.26C205.053 26.02 205.253 26.9067 205.253 27.92V28.78H198.033C198.059 29.46 198.313 30.0133 198.793 30.44C199.273 30.8667 199.859 31.08 200.553 31.08C201.259 31.08 201.779 30.9267 202.113 30.62C202.446 30.3133 202.699 29.9733 202.873 29.6L204.933 30.68C204.746 31.0267 204.473 31.4067 204.113 31.82C203.766 32.22 203.299 32.5667 202.713 32.86C202.126 33.14 201.379 33.28 200.473 33.28ZM198.053 26.9H202.693C202.639 26.3267 202.406 25.8667 201.993 25.52C201.593 25.1733 201.066 25 200.413 25C199.733 25 199.193 25.1733 198.793 25.52C198.393 25.8667 198.146 26.3267 198.053 26.9ZM207.496 33V23.08H209.976V24.38H210.336C210.496 24.0333 210.796 23.7067 211.236 23.4C211.676 23.08 212.342 22.92 213.236 22.92C214.009 22.92 214.682 23.1 215.256 23.46C215.842 23.8067 216.296 24.2933 216.616 24.92C216.936 25.5333 217.096 26.2533 217.096 27.08V33H214.576V27.28C214.576 26.5333 214.389 25.9733 214.016 25.6C213.656 25.2267 213.136 25.04 212.456 25.04C211.682 25.04 211.082 25.3 210.656 25.82C210.229 26.3267 210.016 27.04 210.016 27.96V33H207.496ZM209.916 22.16L208.536 21.28L209.196 20.14C209.396 19.7933 209.636 19.5467 209.916 19.4C210.209 19.24 210.522 19.16 210.856 19.16C211.149 19.16 211.402 19.22 211.616 19.34C211.842 19.4467 212.062 19.5933 212.276 19.78C212.396 19.8867 212.522 19.9933 212.656 20.1C212.802 20.2067 212.962 20.26 213.136 20.26C213.336 20.26 213.496 20.1933 213.616 20.06C213.749 19.9267 213.862 19.7867 213.956 19.64L214.276 19.16L215.656 20.04L214.996 21.18C214.796 21.5133 214.556 21.76 214.276 21.92C213.996 22.08 213.682 22.16 213.336 22.16C213.042 22.16 212.782 22.1067 212.556 22C212.342 21.88 212.129 21.7267 211.916 21.54C211.796 21.4333 211.669 21.3267 211.536 21.22C211.402 21.1133 211.242 21.06 211.056 21.06C210.856 21.06 210.696 21.1267 210.576 21.26C210.456 21.3933 210.342 21.5333 210.236 21.68L209.916 22.16ZM224.54 33.28C223.553 33.28 222.667 33.08 221.88 32.68C221.093 32.28 220.473 31.7 220.02 30.94C219.567 30.18 219.34 29.2667 219.34 28.2V27.88C219.34 26.8133 219.567 25.9 220.02 25.14C220.473 24.38 221.093 23.8 221.88 23.4C222.667 23 223.553 22.8 224.54 22.8C225.527 22.8 226.413 23 227.2 23.4C227.987 23.8 228.607 24.38 229.06 25.14C229.513 25.9 229.74 26.8133 229.74 27.88V28.2C229.74 29.2667 229.513 30.18 229.06 30.94C228.607 31.7 227.987 32.28 227.2 32.68C226.413 33.08 225.527 33.28 224.54 33.28ZM224.54 31.04C225.313 31.04 225.953 30.7933 226.46 30.3C226.967 29.7933 227.22 29.0733 227.22 28.14V27.94C227.22 27.0067 226.967 26.2933 226.46 25.8C225.967 25.2933 225.327 25.04 224.54 25.04C223.767 25.04 223.127 25.2933 222.62 25.8C222.113 26.2933 221.86 27.0067 221.86 27.94V28.14C221.86 29.0733 222.113 29.7933 222.62 30.3C223.127 30.7933 223.767 31.04 224.54 31.04Z" fill="white"/>
</g>
<defs>
<filter id="filter0_d_584_9" x="0" y="0" width="266" height="51" filterUnits="userSpaceOnUse" color-interpolation-filters="sRGB">
<feFlood flood-opacity="0" result="BackgroundImageFix"/>
<feColorMatrix in="SourceAlpha" type="matrix" values="0 0 0 0 0 0 0 0 0 0 0 0 0 0 0 0 0 0 127 0" result="hardAlpha"/>
<feOffset/>
<feGaussianBlur stdDeviation="2"/>
<feComposite in2="hardAlpha" operator="out"/>
<feColorMatrix type="matrix" values="0 0 0 0 0 0 0 0 0 0 0 0 0 0 0 0 0 0 0.5 0"/>
<feBlend mode="normal" in2="BackgroundImageFix" result="effect1_dropShadow_584_9"/>
<feBlend mode="normal" in="SourceGraphic" in2="effect1_dropShadow_584_9" result="shape"/>
</filter>
</defs>
</svg>
