<svg width="266" height="51" viewBox="0 0 266 51" fill="none" xmlns="http://www.w3.org/2000/svg">
<g filter="url(#filter0_d_584_23)">
<rect x="4" y="4" width="258" height="43" rx="4" fill="#415984"/>
<path d="M89.777 33V19H98.777V21.4H92.417V24.74H98.217V27.14H92.417V30.6H98.897V33H89.777ZM105.051 33.28C103.758 33.28 102.698 33 101.871 32.44C101.045 31.88 100.545 31.08 100.371 30.04L102.691 29.44C102.785 29.9067 102.938 30.2733 103.151 30.54C103.378 30.8067 103.651 31 103.971 31.12C104.305 31.2267 104.665 31.28 105.051 31.28C105.638 31.28 106.071 31.18 106.351 30.98C106.631 30.7667 106.771 30.5067 106.771 30.2C106.771 29.8933 106.638 29.66 106.371 29.5C106.105 29.3267 105.678 29.1867 105.091 29.08L104.531 28.98C103.838 28.8467 103.205 28.6667 102.631 28.44C102.058 28.2 101.598 27.8733 101.251 27.46C100.905 27.0467 100.731 26.5133 100.731 25.86C100.731 24.8733 101.091 24.12 101.811 23.6C102.531 23.0667 103.478 22.8 104.651 22.8C105.758 22.8 106.678 23.0467 107.411 23.54C108.145 24.0333 108.625 24.68 108.851 25.48L106.511 26.2C106.405 25.6933 106.185 25.3333 105.851 25.12C105.531 24.9067 105.131 24.8 104.651 24.8C104.171 24.8 103.805 24.8867 103.551 25.06C103.298 25.22 103.171 25.4467 103.171 25.74C103.171 26.06 103.305 26.3 103.571 26.46C103.838 26.6067 104.198 26.72 104.651 26.8L105.211 26.9C105.958 27.0333 106.631 27.2133 107.231 27.44C107.845 27.6533 108.325 27.9667 108.671 28.38C109.031 28.78 109.211 29.3267 109.211 30.02C109.211 31.06 108.831 31.8667 108.071 32.44C107.325 33 106.318 33.28 105.051 33.28ZM111.42 37V23.08H113.9V24.28H114.26C114.486 23.8933 114.84 23.5533 115.32 23.26C115.8 22.9533 116.486 22.8 117.38 22.8C118.18 22.8 118.92 23 119.6 23.4C120.28 23.7867 120.826 24.36 121.24 25.12C121.653 25.88 121.86 26.8 121.86 27.88V28.2C121.86 29.28 121.653 30.2 121.24 30.96C120.826 31.72 120.28 32.3 119.6 32.7C118.92 33.0867 118.18 33.28 117.38 33.28C116.78 33.28 116.273 33.2067 115.86 33.06C115.46 32.9267 115.133 32.7533 114.88 32.54C114.64 32.3133 114.446 32.0867 114.3 31.86H113.94V37H111.42ZM116.62 31.08C117.406 31.08 118.053 30.8333 118.56 30.34C119.08 29.8333 119.34 29.1 119.34 28.14V27.94C119.34 26.98 119.08 26.2533 118.56 25.76C118.04 25.2533 117.393 25 116.62 25C115.846 25 115.2 25.2533 114.68 25.76C114.16 26.2533 113.9 26.98 113.9 27.94V28.14C113.9 29.1 114.16 29.8333 114.68 30.34C115.2 30.8333 115.846 31.08 116.62 31.08ZM127.253 33.28C126.547 33.28 125.913 33.16 125.353 32.92C124.793 32.6667 124.347 32.3067 124.013 31.84C123.693 31.36 123.533 30.78 123.533 30.1C123.533 29.42 123.693 28.8533 124.013 28.4C124.347 27.9333 124.8 27.5867 125.373 27.36C125.96 27.12 126.627 27 127.373 27H130.093V26.44C130.093 25.9733 129.947 25.5933 129.653 25.3C129.36 24.9933 128.893 24.84 128.253 24.84C127.627 24.84 127.16 24.9867 126.853 25.28C126.547 25.56 126.347 25.9267 126.253 26.38L123.933 25.6C124.093 25.0933 124.347 24.6333 124.693 24.22C125.053 23.7933 125.527 23.4533 126.113 23.2C126.713 22.9333 127.44 22.8 128.293 22.8C129.6 22.8 130.633 23.1267 131.393 23.78C132.153 24.4333 132.533 25.38 132.533 26.62V30.32C132.533 30.72 132.72 30.92 133.093 30.92H133.893V33H132.213C131.72 33 131.313 32.88 130.993 32.64C130.673 32.4 130.513 32.08 130.513 31.68V31.66H130.133C130.08 31.82 129.96 32.0333 129.773 32.3C129.587 32.5533 129.293 32.78 128.893 32.98C128.493 33.18 127.947 33.28 127.253 33.28ZM127.693 31.24C128.4 31.24 128.973 31.0467 129.413 30.66C129.867 30.26 130.093 29.7333 130.093 29.08V28.88H127.553C127.087 28.88 126.72 28.98 126.453 29.18C126.187 29.38 126.053 29.66 126.053 30.02C126.053 30.38 126.193 30.6733 126.473 30.9C126.753 31.1267 127.16 31.24 127.693 31.24ZM135.736 33V23.08H138.216V24.38H138.576C138.736 24.0333 139.036 23.7067 139.476 23.4C139.916 23.08 140.583 22.92 141.476 22.92C142.249 22.92 142.923 23.1 143.496 23.46C144.083 23.8067 144.536 24.2933 144.856 24.92C145.176 25.5333 145.336 26.2533 145.336 27.08V33H142.816V27.28C142.816 26.5333 142.629 25.9733 142.256 25.6C141.896 25.2267 141.376 25.04 140.696 25.04C139.923 25.04 139.323 25.3 138.896 25.82C138.469 26.3267 138.256 27.04 138.256 27.96V33H135.736ZM148.06 33V19H150.58V24.3H150.94C151.047 24.0867 151.213 23.8733 151.44 23.66C151.667 23.4467 151.967 23.2733 152.34 23.14C152.727 22.9933 153.213 22.92 153.8 22.92C154.573 22.92 155.247 23.1 155.82 23.46C156.407 23.8067 156.86 24.2933 157.18 24.92C157.5 25.5333 157.66 26.2533 157.66 27.08V33H155.14V27.28C155.14 26.5333 154.953 25.9733 154.58 25.6C154.22 25.2267 153.7 25.04 153.02 25.04C152.247 25.04 151.647 25.3 151.22 25.82C150.793 26.3267 150.58 27.04 150.58 27.96V33H148.06ZM165.104 33.28C164.118 33.28 163.231 33.08 162.444 32.68C161.658 32.28 161.038 31.7 160.584 30.94C160.131 30.18 159.904 29.2667 159.904 28.2V27.88C159.904 26.8133 160.131 25.9 160.584 25.14C161.038 24.38 161.658 23.8 162.444 23.4C163.231 23 164.118 22.8 165.104 22.8C166.091 22.8 166.978 23 167.764 23.4C168.551 23.8 169.171 24.38 169.624 25.14C170.078 25.9 170.304 26.8133 170.304 27.88V28.2C170.304 29.2667 170.078 30.18 169.624 30.94C169.171 31.7 168.551 32.28 167.764 32.68C166.978 33.08 166.091 33.28 165.104 33.28ZM165.104 31.04C165.878 31.04 166.518 30.7933 167.024 30.3C167.531 29.7933 167.784 29.0733 167.784 28.14V27.94C167.784 27.0067 167.531 26.2933 167.024 25.8C166.531 25.2933 165.891 25.04 165.104 25.04C164.331 25.04 163.691 25.2933 163.184 25.8C162.678 26.2933 162.424 27.0067 162.424 27.94V28.14C162.424 29.0733 162.678 29.7933 163.184 30.3C163.691 30.7933 164.331 31.04 165.104 31.04ZM172.63 33V19H175.15V33H172.63Z" fill="white"/>
</g>
<defs>
<filter id="filter0_d_584_23" x="0" y="0" width="266" height="51" filterUnits="userSpaceOnUse" color-interpolation-filters="sRGB">
<feFlood flood-opacity="0" result="BackgroundImageFix"/>
<feColorMatrix in="SourceAlpha" type="matrix" values="0 0 0 0 0 0 0 0 0 0 0 0 0 0 0 0 0 0 127 0" result="hardAlpha"/>
<feOffset/>
<feGaussianBlur stdDeviation="2"/>
<feComposite in2="hardAlpha" operator="out"/>
<feColorMatrix type="matrix" values="0 0 0 0 0 0 0 0 0 0 0 0 0 0 0 0 0 0 0.5 0"/>
<feBlend mode="normal" in2="BackgroundImageFix" result="effect1_dropShadow_584_23"/>
<feBlend mode="normal" in="SourceGraphic" in2="effect1_dropShadow_584_23" result="shape"/>
</filter>
</defs>
</svg>
