<svg width="266" height="51" viewBox="0 0 266 51" fill="none" xmlns="http://www.w3.org/2000/svg">
<g filter="url(#filter0_d_584_17)">
<rect x="4" y="4" width="258" height="43" rx="4" fill="#415984"/>
</g>
<path d="M96.4391 33V19H105.439V21.4H99.0791V24.74H104.879V27.14H99.0791V30.6H105.559V33H96.4391ZM111.713 33.28C110.42 33.28 109.36 33 108.533 32.44C107.707 31.88 107.207 31.08 107.033 30.04L109.353 29.44C109.447 29.9067 109.6 30.2733 109.813 30.54C110.04 30.8067 110.313 31 110.633 31.12C110.967 31.2267 111.327 31.28 111.713 31.28C112.3 31.28 112.733 31.18 113.013 30.98C113.293 30.7667 113.433 30.5067 113.433 30.2C113.433 29.8933 113.3 29.66 113.033 29.5C112.767 29.3267 112.34 29.1867 111.753 29.08L111.193 28.98C110.5 28.8467 109.867 28.6667 109.293 28.44C108.72 28.2 108.26 27.8733 107.913 27.46C107.567 27.0467 107.393 26.5133 107.393 25.86C107.393 24.8733 107.753 24.12 108.473 23.6C109.193 23.0667 110.14 22.8 111.313 22.8C112.42 22.8 113.34 23.0467 114.073 23.54C114.807 24.0333 115.287 24.68 115.513 25.48L113.173 26.2C113.067 25.6933 112.847 25.3333 112.513 25.12C112.193 24.9067 111.793 24.8 111.313 24.8C110.833 24.8 110.467 24.8867 110.213 25.06C109.96 25.22 109.833 25.4467 109.833 25.74C109.833 26.06 109.967 26.3 110.233 26.46C110.5 26.6067 110.86 26.72 111.313 26.8L111.873 26.9C112.62 27.0333 113.293 27.2133 113.893 27.44C114.507 27.6533 114.987 27.9667 115.333 28.38C115.693 28.78 115.873 29.3267 115.873 30.02C115.873 31.06 115.493 31.8667 114.733 32.44C113.987 33 112.98 33.28 111.713 33.28ZM118.082 37V23.08H120.562V24.28H120.922C121.148 23.8933 121.502 23.5533 121.982 23.26C122.462 22.9533 123.148 22.8 124.042 22.8C124.842 22.8 125.582 23 126.262 23.4C126.942 23.7867 127.488 24.36 127.902 25.12C128.315 25.88 128.522 26.8 128.522 27.88V28.2C128.522 29.28 128.315 30.2 127.902 30.96C127.488 31.72 126.942 32.3 126.262 32.7C125.582 33.0867 124.842 33.28 124.042 33.28C123.442 33.28 122.935 33.2067 122.522 33.06C122.122 32.9267 121.795 32.7533 121.542 32.54C121.302 32.3133 121.108 32.0867 120.962 31.86H120.602V37H118.082ZM123.282 31.08C124.068 31.08 124.715 30.8333 125.222 30.34C125.742 29.8333 126.002 29.1 126.002 28.14V27.94C126.002 26.98 125.742 26.2533 125.222 25.76C124.702 25.2533 124.055 25 123.282 25C122.508 25 121.862 25.2533 121.342 25.76C120.822 26.2533 120.562 26.98 120.562 27.94V28.14C120.562 29.1 120.822 29.8333 121.342 30.34C121.862 30.8333 122.508 31.08 123.282 31.08ZM133.916 33.28C133.209 33.28 132.576 33.16 132.016 32.92C131.456 32.6667 131.009 32.3067 130.676 31.84C130.356 31.36 130.196 30.78 130.196 30.1C130.196 29.42 130.356 28.8533 130.676 28.4C131.009 27.9333 131.462 27.5867 132.036 27.36C132.622 27.12 133.289 27 134.036 27H136.756V26.44C136.756 25.9733 136.609 25.5933 136.316 25.3C136.022 24.9933 135.556 24.84 134.916 24.84C134.289 24.84 133.822 24.9867 133.516 25.28C133.209 25.56 133.009 25.9267 132.916 26.38L130.596 25.6C130.756 25.0933 131.009 24.6333 131.356 24.22C131.716 23.7933 132.189 23.4533 132.776 23.2C133.376 22.9333 134.102 22.8 134.956 22.8C136.262 22.8 137.296 23.1267 138.056 23.78C138.816 24.4333 139.196 25.38 139.196 26.62V30.32C139.196 30.72 139.382 30.92 139.756 30.92H140.556V33H138.876C138.382 33 137.976 32.88 137.656 32.64C137.336 32.4 137.176 32.08 137.176 31.68V31.66H136.796C136.742 31.82 136.622 32.0333 136.436 32.3C136.249 32.5533 135.956 32.78 135.556 32.98C135.156 33.18 134.609 33.28 133.916 33.28ZM134.356 31.24C135.062 31.24 135.636 31.0467 136.076 30.66C136.529 30.26 136.756 29.7333 136.756 29.08V28.88H134.216C133.749 28.88 133.382 28.98 133.116 29.18C132.849 29.38 132.716 29.66 132.716 30.02C132.716 30.38 132.856 30.6733 133.136 30.9C133.416 31.1267 133.822 31.24 134.356 31.24ZM142.398 33V23.08H144.878V24.38H145.238C145.398 24.0333 145.698 23.7067 146.138 23.4C146.578 23.08 147.245 22.92 148.138 22.92C148.911 22.92 149.585 23.1 150.158 23.46C150.745 23.8067 151.198 24.2933 151.518 24.92C151.838 25.5333 151.998 26.2533 151.998 27.08V33H149.478V27.28C149.478 26.5333 149.291 25.9733 148.918 25.6C148.558 25.2267 148.038 25.04 147.358 25.04C146.585 25.04 145.985 25.3 145.558 25.82C145.131 26.3267 144.918 27.04 144.918 27.96V33H142.398ZM144.818 22.16L143.438 21.28L144.098 20.14C144.298 19.7933 144.538 19.5467 144.818 19.4C145.111 19.24 145.425 19.16 145.758 19.16C146.051 19.16 146.305 19.22 146.518 19.34C146.745 19.4467 146.965 19.5933 147.178 19.78C147.298 19.8867 147.425 19.9933 147.558 20.1C147.705 20.2067 147.865 20.26 148.038 20.26C148.238 20.26 148.398 20.1933 148.518 20.06C148.651 19.9267 148.765 19.7867 148.858 19.64L149.178 19.16L150.558 20.04L149.898 21.18C149.698 21.5133 149.458 21.76 149.178 21.92C148.898 22.08 148.585 22.16 148.238 22.16C147.945 22.16 147.685 22.1067 147.458 22C147.245 21.88 147.031 21.7267 146.818 21.54C146.698 21.4333 146.571 21.3267 146.438 21.22C146.305 21.1133 146.145 21.06 145.958 21.06C145.758 21.06 145.598 21.1267 145.478 21.26C145.358 21.3933 145.245 21.5333 145.138 21.68L144.818 22.16ZM159.442 33.28C158.456 33.28 157.569 33.08 156.782 32.68C155.996 32.28 155.376 31.7 154.922 30.94C154.469 30.18 154.242 29.2667 154.242 28.2V27.88C154.242 26.8133 154.469 25.9 154.922 25.14C155.376 24.38 155.996 23.8 156.782 23.4C157.569 23 158.456 22.8 159.442 22.8C160.429 22.8 161.316 23 162.102 23.4C162.889 23.8 163.509 24.38 163.962 25.14C164.416 25.9 164.642 26.8133 164.642 27.88V28.2C164.642 29.2667 164.416 30.18 163.962 30.94C163.509 31.7 162.889 32.28 162.102 32.68C161.316 33.08 160.429 33.28 159.442 33.28ZM159.442 31.04C160.216 31.04 160.856 30.7933 161.362 30.3C161.869 29.7933 162.122 29.0733 162.122 28.14V27.94C162.122 27.0067 161.869 26.2933 161.362 25.8C160.869 25.2933 160.229 25.04 159.442 25.04C158.669 25.04 158.029 25.2933 157.522 25.8C157.016 26.2933 156.762 27.0067 156.762 27.94V28.14C156.762 29.0733 157.016 29.7933 157.522 30.3C158.029 30.7933 158.669 31.04 159.442 31.04ZM166.968 33V19H169.488V33H166.968Z" fill="white"/>
<defs>
<filter id="filter0_d_584_17" x="0" y="0" width="266" height="51" filterUnits="userSpaceOnUse" color-interpolation-filters="sRGB">
<feFlood flood-opacity="0" result="BackgroundImageFix"/>
<feColorMatrix in="SourceAlpha" type="matrix" values="0 0 0 0 0 0 0 0 0 0 0 0 0 0 0 0 0 0 127 0" result="hardAlpha"/>
<feOffset/>
<feGaussianBlur stdDeviation="2"/>
<feComposite in2="hardAlpha" operator="out"/>
<feColorMatrix type="matrix" values="0 0 0 0 0 0 0 0 0 0 0 0 0 0 0 0 0 0 0.5 0"/>
<feBlend mode="normal" in2="BackgroundImageFix" result="effect1_dropShadow_584_17"/>
<feBlend mode="normal" in="SourceGraphic" in2="effect1_dropShadow_584_17" result="shape"/>
</filter>
</defs>
</svg>
