<svg width="266" height="51" viewBox="0 0 266 51" fill="none" xmlns="http://www.w3.org/2000/svg">
<g filter="url(#filter0_d_584_23)">
<rect x="4" y="4" width="258" height="43" rx="4" fill="#415984"/>
<path d="M23.3708 33V19H32.3708V21.4H26.0108V24.74H31.8108V27.14H26.0108V30.6H32.4908V33H23.3708ZM38.645 33.28C37.3517 33.28 36.2917 33 35.465 32.44C34.6383 31.88 34.1383 31.08 33.965 30.04L36.285 29.44C36.3783 29.9067 36.5317 30.2733 36.745 30.54C36.9717 30.8067 37.245 31 37.565 31.12C37.8983 31.2267 38.2583 31.28 38.645 31.28C39.2317 31.28 39.665 31.18 39.945 30.98C40.225 30.7667 40.365 30.5067 40.365 30.2C40.365 29.8933 40.2317 29.66 39.965 29.5C39.6983 29.3267 39.2717 29.1867 38.685 29.08L38.125 28.98C37.4317 28.8467 36.7983 28.6667 36.225 28.44C35.6517 28.2 35.1917 27.8733 34.845 27.46C34.4983 27.0467 34.325 26.5133 34.325 25.86C34.325 24.8733 34.685 24.12 35.405 23.6C36.125 23.0667 37.0717 22.8 38.245 22.8C39.3517 22.8 40.2717 23.0467 41.005 23.54C41.7383 24.0333 42.2183 24.68 42.445 25.48L40.105 26.2C39.9983 25.6933 39.7783 25.3333 39.445 25.12C39.125 24.9067 38.725 24.8 38.245 24.8C37.765 24.8 37.3983 24.8867 37.145 25.06C36.8917 25.22 36.765 25.4467 36.765 25.74C36.765 26.06 36.8983 26.3 37.165 26.46C37.4317 26.6067 37.7917 26.72 38.245 26.8L38.805 26.9C39.5517 27.0333 40.225 27.2133 40.825 27.44C41.4383 27.6533 41.9183 27.9667 42.265 28.38C42.625 28.78 42.805 29.3267 42.805 30.02C42.805 31.06 42.425 31.8667 41.665 32.44C40.9183 33 39.9117 33.28 38.645 33.28ZM45.0133 37V23.08H47.4933V24.28H47.8533C48.0799 23.8933 48.4333 23.5533 48.9133 23.26C49.3933 22.9533 50.0799 22.8 50.9733 22.8C51.7733 22.8 52.5133 23 53.1933 23.4C53.8733 23.7867 54.4199 24.36 54.8333 25.12C55.2466 25.88 55.4533 26.8 55.4533 27.88V28.2C55.4533 29.28 55.2466 30.2 54.8333 30.96C54.4199 31.72 53.8733 32.3 53.1933 32.7C52.5133 33.0867 51.7733 33.28 50.9733 33.28C50.3733 33.28 49.8666 33.2067 49.4533 33.06C49.0533 32.9267 48.7266 32.7533 48.4733 32.54C48.2333 32.3133 48.0399 32.0867 47.8933 31.86H47.5333V37H45.0133ZM50.2133 31.08C50.9999 31.08 51.6466 30.8333 52.1533 30.34C52.6733 29.8333 52.9333 29.1 52.9333 28.14V27.94C52.9333 26.98 52.6733 26.2533 52.1533 25.76C51.6333 25.2533 50.9866 25 50.2133 25C49.4399 25 48.7933 25.2533 48.2733 25.76C47.7533 26.2533 47.4933 26.98 47.4933 27.94V28.14C47.4933 29.1 47.7533 29.8333 48.2733 30.34C48.7933 30.8333 49.4399 31.08 50.2133 31.08ZM60.8472 33.28C60.1405 33.28 59.5072 33.16 58.9472 32.92C58.3872 32.6667 57.9405 32.3067 57.6072 31.84C57.2872 31.36 57.1272 30.78 57.1272 30.1C57.1272 29.42 57.2872 28.8533 57.6072 28.4C57.9405 27.9333 58.3939 27.5867 58.9672 27.36C59.5539 27.12 60.2205 27 60.9672 27H63.6872V26.44C63.6872 25.9733 63.5405 25.5933 63.2472 25.3C62.9539 24.9933 62.4872 24.84 61.8472 24.84C61.2205 24.84 60.7539 24.9867 60.4472 25.28C60.1405 25.56 59.9405 25.9267 59.8472 26.38L57.5272 25.6C57.6872 25.0933 57.9405 24.6333 58.2872 24.22C58.6472 23.7933 59.1205 23.4533 59.7072 23.2C60.3072 22.9333 61.0339 22.8 61.8872 22.8C63.1939 22.8 64.2272 23.1267 64.9872 23.78C65.7472 24.4333 66.1272 25.38 66.1272 26.62V30.32C66.1272 30.72 66.3139 30.92 66.6872 30.92H67.4872V33H65.8072C65.3139 33 64.9072 32.88 64.5872 32.64C64.2672 32.4 64.1072 32.08 64.1072 31.68V31.66H63.7272C63.6739 31.82 63.5539 32.0333 63.3672 32.3C63.1805 32.5533 62.8872 32.78 62.4872 32.98C62.0872 33.18 61.5405 33.28 60.8472 33.28ZM61.2872 31.24C61.9939 31.24 62.5672 31.0467 63.0072 30.66C63.4605 30.26 63.6872 29.7333 63.6872 29.08V28.88H61.1472C60.6805 28.88 60.3139 28.98 60.0472 29.18C59.7805 29.38 59.6472 29.66 59.6472 30.02C59.6472 30.38 59.7872 30.6733 60.0672 30.9C60.3472 31.1267 60.7539 31.24 61.2872 31.24ZM69.3297 33V23.08H71.8097V24.38H72.1697C72.3297 24.0333 72.6297 23.7067 73.0697 23.4C73.5097 23.08 74.1764 22.92 75.0697 22.92C75.843 22.92 76.5164 23.1 77.0897 23.46C77.6764 23.8067 78.1297 24.2933 78.4497 24.92C78.7697 25.5333 78.9297 26.2533 78.9297 27.08V33H76.4097V27.28C76.4097 26.5333 76.223 25.9733 75.8497 25.6C75.4897 25.2267 74.9697 25.04 74.2897 25.04C73.5164 25.04 72.9164 25.3 72.4897 25.82C72.063 26.3267 71.8497 27.04 71.8497 27.96V33H69.3297ZM81.6539 33V19H84.1739V24.3H84.5339C84.6406 24.0867 84.8072 23.8733 85.0339 23.66C85.2606 23.4467 85.5606 23.2733 85.9339 23.14C86.3206 22.9933 86.8072 22.92 87.3939 22.92C88.1672 22.92 88.8406 23.1 89.4139 23.46C90.0006 23.8067 90.4539 24.2933 90.7739 24.92C91.0939 25.5333 91.2539 26.2533 91.2539 27.08V33H88.7339V27.28C88.7339 26.5333 88.5472 25.9733 88.1739 25.6C87.8139 25.2267 87.2939 25.04 86.6139 25.04C85.8406 25.04 85.2406 25.3 84.8139 25.82C84.3872 26.3267 84.1739 27.04 84.1739 27.96V33H81.6539ZM98.6981 33.28C97.7115 33.28 96.8248 33.08 96.0381 32.68C95.2515 32.28 94.6315 31.7 94.1781 30.94C93.7248 30.18 93.4981 29.2667 93.4981 28.2V27.88C93.4981 26.8133 93.7248 25.9 94.1781 25.14C94.6315 24.38 95.2515 23.8 96.0381 23.4C96.8248 23 97.7115 22.8 98.6981 22.8C99.6848 22.8 100.571 23 101.358 23.4C102.145 23.8 102.765 24.38 103.218 25.14C103.671 25.9 103.898 26.8133 103.898 27.88V28.2C103.898 29.2667 103.671 30.18 103.218 30.94C102.765 31.7 102.145 32.28 101.358 32.68C100.571 33.08 99.6848 33.28 98.6981 33.28ZM98.6981 31.04C99.4715 31.04 100.111 30.7933 100.618 30.3C101.125 29.7933 101.378 29.0733 101.378 28.14V27.94C101.378 27.0067 101.125 26.2933 100.618 25.8C100.125 25.2933 99.4848 25.04 98.6981 25.04C97.9248 25.04 97.2848 25.2933 96.7781 25.8C96.2715 26.2933 96.0181 27.0067 96.0181 27.94V28.14C96.0181 29.0733 96.2715 29.7933 96.7781 30.3C97.2848 30.7933 97.9248 31.04 98.6981 31.04ZM106.224 33V19H108.744V33H106.224ZM116.535 33V19H119.175V33H116.535ZM121.888 33V23.08H124.368V24.38H124.728C124.888 24.0333 125.188 23.7067 125.628 23.4C126.068 23.08 126.735 22.92 127.628 22.92C128.402 22.92 129.075 23.1 129.648 23.46C130.235 23.8067 130.688 24.2933 131.008 24.92C131.328 25.5333 131.488 26.2533 131.488 27.08V33H128.968V27.28C128.968 26.5333 128.782 25.9733 128.408 25.6C128.048 25.2267 127.528 25.04 126.848 25.04C126.075 25.04 125.475 25.3 125.048 25.82C124.622 26.3267 124.408 27.04 124.408 27.96V33H121.888ZM137.739 33C137.086 33 136.552 32.8 136.139 32.4C135.739 31.9867 135.539 31.44 135.539 30.76V25.16H133.059V23.08H135.539V20H138.059V23.08H140.779V25.16H138.059V30.32C138.059 30.72 138.246 30.92 138.619 30.92H140.539V33H137.739ZM147.229 33.28C146.242 33.28 145.369 33.0733 144.609 32.66C143.862 32.2333 143.275 31.64 142.849 30.88C142.435 30.1067 142.229 29.2 142.229 28.16V27.92C142.229 26.88 142.435 25.98 142.849 25.22C143.262 24.4467 143.842 23.8533 144.589 23.44C145.335 23.0133 146.202 22.8 147.189 22.8C148.162 22.8 149.009 23.02 149.729 23.46C150.449 23.8867 151.009 24.4867 151.409 25.26C151.809 26.02 152.009 26.9067 152.009 27.92V28.78H144.789C144.815 29.46 145.069 30.0133 145.549 30.44C146.029 30.8667 146.615 31.08 147.309 31.08C148.015 31.08 148.535 30.9267 148.869 30.62C149.202 30.3133 149.455 29.9733 149.629 29.6L151.689 30.68C151.502 31.0267 151.229 31.4067 150.869 31.82C150.522 32.22 150.055 32.5667 149.469 32.86C148.882 33.14 148.135 33.28 147.229 33.28ZM144.809 26.9H149.449C149.395 26.3267 149.162 25.8667 148.749 25.52C148.349 25.1733 147.822 25 147.169 25C146.489 25 145.949 25.1733 145.549 25.52C145.149 25.8667 144.902 26.3267 144.809 26.9ZM154.252 33V23.08H156.732V24.2H157.092C157.238 23.8 157.478 23.5067 157.812 23.32C158.158 23.1333 158.558 23.04 159.012 23.04H160.212V25.28H158.972C158.332 25.28 157.805 25.4533 157.392 25.8C156.978 26.1333 156.772 26.6533 156.772 27.36V33H154.252ZM162.181 33V23.08H164.661V24.38H165.021C165.181 24.0333 165.481 23.7067 165.921 23.4C166.361 23.08 167.028 22.92 167.921 22.92C168.695 22.92 169.368 23.1 169.941 23.46C170.528 23.8067 170.981 24.2933 171.301 24.92C171.621 25.5333 171.781 26.2533 171.781 27.08V33H169.261V27.28C169.261 26.5333 169.075 25.9733 168.701 25.6C168.341 25.2267 167.821 25.04 167.141 25.04C166.368 25.04 165.768 25.3 165.341 25.82C164.915 26.3267 164.701 27.04 164.701 27.96V33H162.181ZM177.585 33.28C176.879 33.28 176.245 33.16 175.685 32.92C175.125 32.6667 174.679 32.3067 174.345 31.84C174.025 31.36 173.865 30.78 173.865 30.1C173.865 29.42 174.025 28.8533 174.345 28.4C174.679 27.9333 175.132 27.5867 175.705 27.36C176.292 27.12 176.959 27 177.705 27H180.425V26.44C180.425 25.9733 180.279 25.5933 179.985 25.3C179.692 24.9933 179.225 24.84 178.585 24.84C177.959 24.84 177.492 24.9867 177.185 25.28C176.879 25.56 176.679 25.9267 176.585 26.38L174.265 25.6C174.425 25.0933 174.679 24.6333 175.025 24.22C175.385 23.7933 175.859 23.4533 176.445 23.2C177.045 22.9333 177.772 22.8 178.625 22.8C179.932 22.8 180.965 23.1267 181.725 23.78C182.485 24.4333 182.865 25.38 182.865 26.62V30.32C182.865 30.72 183.052 30.92 183.425 30.92H184.225V33H182.545C182.052 33 181.645 32.88 181.325 32.64C181.005 32.4 180.845 32.08 180.845 31.68V31.66H180.465C180.412 31.82 180.292 32.0333 180.105 32.3C179.919 32.5533 179.625 32.78 179.225 32.98C178.825 33.18 178.279 33.28 177.585 33.28ZM178.025 31.24C178.732 31.24 179.305 31.0467 179.745 30.66C180.199 30.26 180.425 29.7333 180.425 29.08V28.88H177.885C177.419 28.88 177.052 28.98 176.785 29.18C176.519 29.38 176.385 29.66 176.385 30.02C176.385 30.38 176.525 30.6733 176.805 30.9C177.085 31.1267 177.492 31.24 178.025 31.24ZM190.533 33.28C189.573 33.28 188.699 33.08 187.913 32.68C187.139 32.28 186.526 31.7 186.073 30.94C185.619 30.18 185.393 29.26 185.393 28.18V27.9C185.393 26.82 185.619 25.9 186.073 25.14C186.526 24.38 187.139 23.8 187.913 23.4C188.699 23 189.573 22.8 190.533 22.8C191.479 22.8 192.293 22.9667 192.973 23.3C193.653 23.6333 194.199 24.0933 194.613 24.68C195.039 25.2533 195.319 25.9067 195.453 26.64L193.013 27.16C192.959 26.76 192.839 26.4 192.653 26.08C192.466 25.76 192.199 25.5067 191.853 25.32C191.519 25.1333 191.099 25.04 190.593 25.04C190.086 25.04 189.626 25.1533 189.213 25.38C188.813 25.5933 188.493 25.92 188.253 26.36C188.026 26.7867 187.913 27.3133 187.913 27.94V28.14C187.913 28.7667 188.026 29.3 188.253 29.74C188.493 30.1667 188.813 30.4933 189.213 30.72C189.626 30.9333 190.086 31.04 190.593 31.04C191.353 31.04 191.926 30.8467 192.313 30.46C192.713 30.06 192.966 29.54 193.073 28.9L195.513 29.48C195.339 30.1867 195.039 30.8333 194.613 31.42C194.199 31.9933 193.653 32.4467 192.973 32.78C192.293 33.1133 191.479 33.28 190.533 33.28ZM197.591 33V23.08H200.111V33H197.591ZM198.851 21.92C198.398 21.92 198.011 21.7733 197.691 21.48C197.385 21.1867 197.231 20.8 197.231 20.32C197.231 19.84 197.385 19.4533 197.691 19.16C198.011 18.8667 198.398 18.72 198.851 18.72C199.318 18.72 199.705 18.8667 200.011 19.16C200.318 19.4533 200.471 19.84 200.471 20.32C200.471 20.8 200.318 21.1867 200.011 21.48C199.705 21.7733 199.318 21.92 198.851 21.92ZM207.624 33.28C206.637 33.28 205.751 33.08 204.964 32.68C204.177 32.28 203.557 31.7 203.104 30.94C202.651 30.18 202.424 29.2667 202.424 28.2V27.88C202.424 26.8133 202.651 25.9 203.104 25.14C203.557 24.38 204.177 23.8 204.964 23.4C205.751 23 206.637 22.8 207.624 22.8C208.611 22.8 209.497 23 210.284 23.4C211.071 23.8 211.691 24.38 212.144 25.14C212.597 25.9 212.824 26.8133 212.824 27.88V28.2C212.824 29.2667 212.597 30.18 212.144 30.94C211.691 31.7 211.071 32.28 210.284 32.68C209.497 33.08 208.611 33.28 207.624 33.28ZM207.624 31.04C208.397 31.04 209.037 30.7933 209.544 30.3C210.051 29.7933 210.304 29.0733 210.304 28.14V27.94C210.304 27.0067 210.051 26.2933 209.544 25.8C209.051 25.2933 208.411 25.04 207.624 25.04C206.851 25.04 206.211 25.2933 205.704 25.8C205.197 26.2933 204.944 27.0067 204.944 27.94V28.14C204.944 29.0733 205.197 29.7933 205.704 30.3C206.211 30.7933 206.851 31.04 207.624 31.04ZM215.15 33V23.08H217.63V24.38H217.99C218.15 24.0333 218.45 23.7067 218.89 23.4C219.33 23.08 219.997 22.92 220.89 22.92C221.663 22.92 222.337 23.1 222.91 23.46C223.497 23.8067 223.95 24.2933 224.27 24.92C224.59 25.5333 224.75 26.2533 224.75 27.08V33H222.23V27.28C222.23 26.5333 222.043 25.9733 221.67 25.6C221.31 25.2267 220.79 25.04 220.11 25.04C219.337 25.04 218.737 25.3 218.31 25.82C217.883 26.3267 217.67 27.04 217.67 27.96V33H215.15ZM230.554 33.28C229.848 33.28 229.214 33.16 228.654 32.92C228.094 32.6667 227.648 32.3067 227.314 31.84C226.994 31.36 226.834 30.78 226.834 30.1C226.834 29.42 226.994 28.8533 227.314 28.4C227.648 27.9333 228.101 27.5867 228.674 27.36C229.261 27.12 229.928 27 230.674 27H233.394V26.44C233.394 25.9733 233.248 25.5933 232.954 25.3C232.661 24.9933 232.194 24.84 231.554 24.84C230.928 24.84 230.461 24.9867 230.154 25.28C229.848 25.56 229.648 25.9267 229.554 26.38L227.234 25.6C227.394 25.0933 227.648 24.6333 227.994 24.22C228.354 23.7933 228.828 23.4533 229.414 23.2C230.014 22.9333 230.741 22.8 231.594 22.8C232.901 22.8 233.934 23.1267 234.694 23.78C235.454 24.4333 235.834 25.38 235.834 26.62V30.32C235.834 30.72 236.021 30.92 236.394 30.92H237.194V33H235.514C235.021 33 234.614 32.88 234.294 32.64C233.974 32.4 233.814 32.08 233.814 31.68V31.66H233.434C233.381 31.82 233.261 32.0333 233.074 32.3C232.888 32.5533 232.594 32.78 232.194 32.98C231.794 33.18 231.248 33.28 230.554 33.28ZM230.994 31.24C231.701 31.24 232.274 31.0467 232.714 30.66C233.168 30.26 233.394 29.7333 233.394 29.08V28.88H230.854C230.388 28.88 230.021 28.98 229.754 29.18C229.488 29.38 229.354 29.66 229.354 30.02C229.354 30.38 229.494 30.6733 229.774 30.9C230.054 31.1267 230.461 31.24 230.994 31.24ZM239.037 33V19H241.557V33H239.037Z" fill="white"/>
</g>
<defs>
<filter id="filter0_d_584_23" x="0" y="0" width="266" height="51" filterUnits="userSpaceOnUse" color-interpolation-filters="sRGB">
<feFlood flood-opacity="0" result="BackgroundImageFix"/>
<feColorMatrix in="SourceAlpha" type="matrix" values="0 0 0 0 0 0 0 0 0 0 0 0 0 0 0 0 0 0 127 0" result="hardAlpha"/>
<feOffset/>
<feGaussianBlur stdDeviation="2"/>
<feComposite in2="hardAlpha" operator="out"/>
<feColorMatrix type="matrix" values="0 0 0 0 0 0 0 0 0 0 0 0 0 0 0 0 0 0 0.5 0"/>
<feBlend mode="normal" in2="BackgroundImageFix" result="effect1_dropShadow_584_23"/>
<feBlend mode="normal" in="SourceGraphic" in2="effect1_dropShadow_584_23" result="shape"/>
</filter>
</defs>
</svg>
