<svg width="266" height="51" viewBox="0 0 266 51" fill="none" xmlns="http://www.w3.org/2000/svg">
<g filter="url(#filter0_d_584_13)">
<rect x="4" y="4" width="258" height="43" rx="4" fill="#254069"/>
</g>
<path d="M105.472 33V19H108.112V33H105.472ZM110.826 33V23.08H113.306V24.38H113.666C113.826 24.0333 114.126 23.7067 114.566 23.4C115.006 23.08 115.672 22.92 116.566 22.92C117.339 22.92 118.012 23.1 118.586 23.46C119.172 23.8067 119.626 24.2933 119.946 24.92C120.266 25.5333 120.426 26.2533 120.426 27.08V33H117.906V27.28C117.906 26.5333 117.719 25.9733 117.346 25.6C116.986 25.2267 116.466 25.04 115.786 25.04C115.012 25.04 114.412 25.3 113.986 25.82C113.559 26.3267 113.346 27.04 113.346 27.96V33H110.826ZM122.67 28.08V27.76C122.67 26.72 122.877 25.8333 123.29 25.1C123.703 24.3533 124.25 23.7867 124.93 23.4C125.623 23 126.377 22.8 127.19 22.8C128.097 22.8 128.783 22.96 129.25 23.28C129.717 23.6 130.057 23.9333 130.27 24.28H130.63V23.08H133.11V34.76C133.11 35.44 132.91 35.98 132.51 36.38C132.11 36.7933 131.577 37 130.91 37H124.27V34.8H130.03C130.403 34.8 130.59 34.6 130.59 34.2V31.62H130.23C130.097 31.8333 129.91 32.0533 129.67 32.28C129.43 32.4933 129.11 32.6733 128.71 32.82C128.31 32.9667 127.803 33.04 127.19 33.04C126.377 33.04 125.623 32.8467 124.93 32.46C124.25 32.06 123.703 31.4933 123.29 30.76C122.877 30.0133 122.67 29.12 122.67 28.08ZM127.91 30.84C128.683 30.84 129.33 30.5933 129.85 30.1C130.37 29.6067 130.63 28.9133 130.63 28.02V27.82C130.63 26.9133 130.37 26.22 129.85 25.74C129.343 25.2467 128.697 25 127.91 25C127.137 25 126.49 25.2467 125.97 25.74C125.45 26.22 125.19 26.9133 125.19 27.82V28.02C125.19 28.9133 125.45 29.6067 125.97 30.1C126.49 30.5933 127.137 30.84 127.91 30.84ZM135.904 33V19H138.424V33H135.904ZM145.736 33.28C144.75 33.28 143.876 33.0733 143.116 32.66C142.37 32.2333 141.783 31.64 141.356 30.88C140.943 30.1067 140.736 29.2 140.736 28.16V27.92C140.736 26.88 140.943 25.98 141.356 25.22C141.77 24.4467 142.35 23.8533 143.096 23.44C143.843 23.0133 144.71 22.8 145.696 22.8C146.67 22.8 147.516 23.02 148.236 23.46C148.956 23.8867 149.516 24.4867 149.916 25.26C150.316 26.02 150.516 26.9067 150.516 27.92V28.78H143.296C143.323 29.46 143.576 30.0133 144.056 30.44C144.536 30.8667 145.123 31.08 145.816 31.08C146.523 31.08 147.043 30.9267 147.376 30.62C147.71 30.3133 147.963 29.9733 148.136 29.6L150.196 30.68C150.01 31.0267 149.736 31.4067 149.376 31.82C149.03 32.22 148.563 32.5667 147.976 32.86C147.39 33.14 146.643 33.28 145.736 33.28ZM143.316 26.9H147.956C147.903 26.3267 147.67 25.8667 147.256 25.52C146.856 25.1733 146.33 25 145.676 25C144.996 25 144.456 25.1733 144.056 25.52C143.656 25.8667 143.41 26.3267 143.316 26.9ZM144.176 21.96L145.656 19H148.496L146.376 21.96H144.176ZM156.879 33.28C155.586 33.28 154.526 33 153.699 32.44C152.873 31.88 152.373 31.08 152.199 30.04L154.519 29.44C154.613 29.9067 154.766 30.2733 154.979 30.54C155.206 30.8067 155.479 31 155.799 31.12C156.133 31.2267 156.493 31.28 156.879 31.28C157.466 31.28 157.899 31.18 158.179 30.98C158.459 30.7667 158.599 30.5067 158.599 30.2C158.599 29.8933 158.466 29.66 158.199 29.5C157.933 29.3267 157.506 29.1867 156.919 29.08L156.359 28.98C155.666 28.8467 155.033 28.6667 154.459 28.44C153.886 28.2 153.426 27.8733 153.079 27.46C152.733 27.0467 152.559 26.5133 152.559 25.86C152.559 24.8733 152.919 24.12 153.639 23.6C154.359 23.0667 155.306 22.8 156.479 22.8C157.586 22.8 158.506 23.0467 159.239 23.54C159.973 24.0333 160.453 24.68 160.679 25.48L158.339 26.2C158.233 25.6933 158.013 25.3333 157.679 25.12C157.359 24.9067 156.959 24.8 156.479 24.8C155.999 24.8 155.633 24.8867 155.379 25.06C155.126 25.22 154.999 25.4467 154.999 25.74C154.999 26.06 155.133 26.3 155.399 26.46C155.666 26.6067 156.026 26.72 156.479 26.8L157.039 26.9C157.786 27.0333 158.459 27.2133 159.059 27.44C159.673 27.6533 160.153 27.9667 160.499 28.38C160.859 28.78 161.039 29.3267 161.039 30.02C161.039 31.06 160.659 31.8667 159.899 32.44C159.153 33 158.146 33.28 156.879 33.28Z" fill="white"/>
<defs>
<filter id="filter0_d_584_13" x="0" y="0" width="266" height="51" filterUnits="userSpaceOnUse" color-interpolation-filters="sRGB">
<feFlood flood-opacity="0" result="BackgroundImageFix"/>
<feColorMatrix in="SourceAlpha" type="matrix" values="0 0 0 0 0 0 0 0 0 0 0 0 0 0 0 0 0 0 127 0" result="hardAlpha"/>
<feOffset/>
<feGaussianBlur stdDeviation="2"/>
<feComposite in2="hardAlpha" operator="out"/>
<feColorMatrix type="matrix" values="0 0 0 0 0 0 0 0 0 0 0 0 0 0 0 0 0 0 0.5 0"/>
<feBlend mode="normal" in2="BackgroundImageFix" result="effect1_dropShadow_584_13"/>
<feBlend mode="normal" in="SourceGraphic" in2="effect1_dropShadow_584_13" result="shape"/>
</filter>
</defs>
</svg>
