<svg width="264" height="49" viewBox="0 0 264 49" fill="none" xmlns="http://www.w3.org/2000/svg">
<rect x="1.5" y="1.5" width="261" height="46" rx="5.5" fill="#0F3057" fill-opacity="0.5" stroke="#254069" stroke-width="3"/>
<path d="M37.5661 32V18H40.2061V32H37.5661ZM42.9195 32V22.08H45.3995V23.38H45.7595C45.9195 23.0333 46.2195 22.7067 46.6595 22.4C47.0995 22.08 47.7662 21.92 48.6595 21.92C49.4329 21.92 50.1062 22.1 50.6795 22.46C51.2662 22.8067 51.7195 23.2933 52.0395 23.92C52.3595 24.5333 52.5195 25.2533 52.5195 26.08V32H49.9995V26.28C49.9995 25.5333 49.8129 24.9733 49.4395 24.6C49.0795 24.2267 48.5595 24.04 47.8795 24.04C47.1062 24.04 46.5062 24.3 46.0795 24.82C45.6529 25.3267 45.4395 26.04 45.4395 26.96V32H42.9195ZM54.7638 27.08V26.76C54.7638 25.72 54.9704 24.8333 55.3838 24.1C55.7971 23.3533 56.3438 22.7867 57.0238 22.4C57.7171 22 58.4704 21.8 59.2838 21.8C60.1904 21.8 60.8771 21.96 61.3438 22.28C61.8104 22.6 62.1504 22.9333 62.3638 23.28H62.7238V22.08H65.2038V33.76C65.2038 34.44 65.0038 34.98 64.6038 35.38C64.2038 35.7933 63.6704 36 63.0038 36H56.3638V33.8H62.1238C62.4971 33.8 62.6838 33.6 62.6838 33.2V30.62H62.3238C62.1904 30.8333 62.0038 31.0533 61.7638 31.28C61.5238 31.4933 61.2038 31.6733 60.8038 31.82C60.4038 31.9667 59.8971 32.04 59.2838 32.04C58.4704 32.04 57.7171 31.8467 57.0238 31.46C56.3438 31.06 55.7971 30.4933 55.3838 29.76C54.9704 29.0133 54.7638 28.12 54.7638 27.08ZM60.0038 29.84C60.7771 29.84 61.4238 29.5933 61.9438 29.1C62.4638 28.6067 62.7238 27.9133 62.7238 27.02V26.82C62.7238 25.9133 62.4638 25.22 61.9438 24.74C61.4371 24.2467 60.7904 24 60.0038 24C59.2304 24 58.5838 24.2467 58.0638 24.74C57.5438 25.22 57.2838 25.9133 57.2838 26.82V27.02C57.2838 27.9133 57.5438 28.6067 58.0638 29.1C58.5838 29.5933 59.2304 29.84 60.0038 29.84ZM67.9977 32V18H70.5177V32H67.9977ZM77.8302 32.28C76.8435 32.28 75.9702 32.0733 75.2102 31.66C74.4635 31.2333 73.8768 30.64 73.4502 29.88C73.0368 29.1067 72.8302 28.2 72.8302 27.16V26.92C72.8302 25.88 73.0368 24.98 73.4502 24.22C73.8635 23.4467 74.4435 22.8533 75.1902 22.44C75.9368 22.0133 76.8035 21.8 77.7902 21.8C78.7635 21.8 79.6102 22.02 80.3302 22.46C81.0502 22.8867 81.6102 23.4867 82.0102 24.26C82.4102 25.02 82.6102 25.9067 82.6102 26.92V27.78H75.3902C75.4168 28.46 75.6702 29.0133 76.1502 29.44C76.6302 29.8667 77.2168 30.08 77.9102 30.08C78.6168 30.08 79.1368 29.9267 79.4702 29.62C79.8035 29.3133 80.0568 28.9733 80.2302 28.6L82.2902 29.68C82.1035 30.0267 81.8302 30.4067 81.4702 30.82C81.1235 31.22 80.6568 31.5667 80.0702 31.86C79.4835 32.14 78.7368 32.28 77.8302 32.28ZM75.4102 25.9H80.0502C79.9968 25.3267 79.7635 24.8667 79.3502 24.52C78.9502 24.1733 78.4235 24 77.7702 24C77.0902 24 76.5502 24.1733 76.1502 24.52C75.7502 24.8667 75.5035 25.3267 75.4102 25.9ZM73.9502 20.96L76.2902 18H79.2902L81.6302 20.96H79.0902L77.9702 19.48H77.6102L76.4902 20.96H73.9502ZM88.9731 32.28C87.6798 32.28 86.6198 32 85.7931 31.44C84.9665 30.88 84.4665 30.08 84.2931 29.04L86.6131 28.44C86.7065 28.9067 86.8598 29.2733 87.0731 29.54C87.2998 29.8067 87.5731 30 87.8931 30.12C88.2265 30.2267 88.5865 30.28 88.9731 30.28C89.5598 30.28 89.9931 30.18 90.2731 29.98C90.5531 29.7667 90.6931 29.5067 90.6931 29.2C90.6931 28.8933 90.5598 28.66 90.2931 28.5C90.0265 28.3267 89.5998 28.1867 89.0131 28.08L88.4531 27.98C87.7598 27.8467 87.1265 27.6667 86.5531 27.44C85.9798 27.2 85.5198 26.8733 85.1731 26.46C84.8265 26.0467 84.6531 25.5133 84.6531 24.86C84.6531 23.8733 85.0131 23.12 85.7331 22.6C86.4531 22.0667 87.3998 21.8 88.5731 21.8C89.6798 21.8 90.5998 22.0467 91.3331 22.54C92.0665 23.0333 92.5465 23.68 92.7731 24.48L90.4331 25.2C90.3265 24.6933 90.1065 24.3333 89.7731 24.12C89.4531 23.9067 89.0531 23.8 88.5731 23.8C88.0931 23.8 87.7265 23.8867 87.4731 24.06C87.2198 24.22 87.0931 24.4467 87.0931 24.74C87.0931 25.06 87.2265 25.3 87.4931 25.46C87.7598 25.6067 88.1198 25.72 88.5731 25.8L89.1331 25.9C89.8798 26.0333 90.5531 26.2133 91.1531 26.44C91.7665 26.6533 92.2465 26.9667 92.5931 27.38C92.9531 27.78 93.1331 28.3267 93.1331 29.02C93.1331 30.06 92.7531 30.8667 91.9931 31.44C91.2465 32 90.2398 32.28 88.9731 32.28ZM100.34 32V18H102.98V32H100.34ZM105.693 32V22.08H108.173V23.38H108.533C108.693 23.0333 108.993 22.7067 109.433 22.4C109.873 22.08 110.54 21.92 111.433 21.92C112.206 21.92 112.88 22.1 113.453 22.46C114.04 22.8067 114.493 23.2933 114.813 23.92C115.133 24.5333 115.293 25.2533 115.293 26.08V32H112.773V26.28C112.773 25.5333 112.586 24.9733 112.213 24.6C111.853 24.2267 111.333 24.04 110.653 24.04C109.88 24.04 109.28 24.3 108.853 24.82C108.426 25.3267 108.213 26.04 108.213 26.96V32H105.693ZM121.544 32C120.89 32 120.357 31.8 119.944 31.4C119.544 30.9867 119.344 30.44 119.344 29.76V24.16H116.864V22.08H119.344V19H121.864V22.08H124.584V24.16H121.864V29.32C121.864 29.72 122.05 29.92 122.424 29.92H124.344V32H121.544ZM131.033 32.28C130.047 32.28 129.173 32.0733 128.413 31.66C127.667 31.2333 127.08 30.64 126.653 29.88C126.24 29.1067 126.033 28.2 126.033 27.16V26.92C126.033 25.88 126.24 24.98 126.653 24.22C127.067 23.4467 127.647 22.8533 128.393 22.44C129.14 22.0133 130.007 21.8 130.993 21.8C131.967 21.8 132.813 22.02 133.533 22.46C134.253 22.8867 134.813 23.4867 135.213 24.26C135.613 25.02 135.813 25.9067 135.813 26.92V27.78H128.593C128.62 28.46 128.873 29.0133 129.353 29.44C129.833 29.8667 130.42 30.08 131.113 30.08C131.82 30.08 132.34 29.9267 132.673 29.62C133.007 29.3133 133.26 28.9733 133.433 28.6L135.493 29.68C135.307 30.0267 135.033 30.4067 134.673 30.82C134.327 31.22 133.86 31.5667 133.273 31.86C132.687 32.14 131.94 32.28 131.033 32.28ZM128.613 25.9H133.253C133.2 25.3267 132.967 24.8667 132.553 24.52C132.153 24.1733 131.627 24 130.973 24C130.293 24 129.753 24.1733 129.353 24.52C128.953 24.8667 128.707 25.3267 128.613 25.9ZM138.056 32V22.08H140.536V23.2H140.896C141.043 22.8 141.283 22.5067 141.616 22.32C141.963 22.1333 142.363 22.04 142.816 22.04H144.016V24.28H142.776C142.136 24.28 141.61 24.4533 141.196 24.8C140.783 25.1333 140.576 25.6533 140.576 26.36V32H138.056ZM145.986 32V22.08H148.466V23.38H148.826C148.986 23.0333 149.286 22.7067 149.726 22.4C150.166 22.08 150.833 21.92 151.726 21.92C152.499 21.92 153.173 22.1 153.746 22.46C154.333 22.8067 154.786 23.2933 155.106 23.92C155.426 24.5333 155.586 25.2533 155.586 26.08V32H153.066V26.28C153.066 25.5333 152.879 24.9733 152.506 24.6C152.146 24.2267 151.626 24.04 150.946 24.04C150.173 24.04 149.573 24.3 149.146 24.82C148.719 25.3267 148.506 26.04 148.506 26.96V32H145.986ZM161.39 32.28C160.683 32.28 160.05 32.16 159.49 31.92C158.93 31.6667 158.483 31.3067 158.15 30.84C157.83 30.36 157.67 29.78 157.67 29.1C157.67 28.42 157.83 27.8533 158.15 27.4C158.483 26.9333 158.937 26.5867 159.51 26.36C160.097 26.12 160.763 26 161.51 26H164.23V25.44C164.23 24.9733 164.083 24.5933 163.79 24.3C163.497 23.9933 163.03 23.84 162.39 23.84C161.763 23.84 161.297 23.9867 160.99 24.28C160.683 24.56 160.483 24.9267 160.39 25.38L158.07 24.6C158.23 24.0933 158.483 23.6333 158.83 23.22C159.19 22.7933 159.663 22.4533 160.25 22.2C160.85 21.9333 161.577 21.8 162.43 21.8C163.737 21.8 164.77 22.1267 165.53 22.78C166.29 23.4333 166.67 24.38 166.67 25.62V29.32C166.67 29.72 166.857 29.92 167.23 29.92H168.03V32H166.35C165.857 32 165.45 31.88 165.13 31.64C164.81 31.4 164.65 31.08 164.65 30.68V30.66H164.27C164.217 30.82 164.097 31.0333 163.91 31.3C163.723 31.5533 163.43 31.78 163.03 31.98C162.63 32.18 162.083 32.28 161.39 32.28ZM161.83 30.24C162.537 30.24 163.11 30.0467 163.55 29.66C164.003 29.26 164.23 28.7333 164.23 28.08V27.88H161.69C161.223 27.88 160.857 27.98 160.59 28.18C160.323 28.38 160.19 28.66 160.19 29.02C160.19 29.38 160.33 29.6733 160.61 29.9C160.89 30.1267 161.297 30.24 161.83 30.24ZM174.337 32.28C173.377 32.28 172.504 32.08 171.717 31.68C170.944 31.28 170.331 30.7 169.877 29.94C169.424 29.18 169.197 28.26 169.197 27.18V26.9C169.197 25.82 169.424 24.9 169.877 24.14C170.331 23.38 170.944 22.8 171.717 22.4C172.504 22 173.377 21.8 174.337 21.8C175.284 21.8 176.097 21.9667 176.777 22.3C177.457 22.6333 178.004 23.0933 178.417 23.68C178.844 24.2533 179.124 24.9067 179.257 25.64L176.817 26.16C176.764 25.76 176.644 25.4 176.457 25.08C176.271 24.76 176.004 24.5067 175.657 24.32C175.324 24.1333 174.904 24.04 174.397 24.04C173.891 24.04 173.431 24.1533 173.017 24.38C172.617 24.5933 172.297 24.92 172.057 25.36C171.831 25.7867 171.717 26.3133 171.717 26.94V27.14C171.717 27.7667 171.831 28.3 172.057 28.74C172.297 29.1667 172.617 29.4933 173.017 29.72C173.431 29.9333 173.891 30.04 174.397 30.04C175.157 30.04 175.731 29.8467 176.117 29.46C176.517 29.06 176.771 28.54 176.877 27.9L179.317 28.48C179.144 29.1867 178.844 29.8333 178.417 30.42C178.004 30.9933 177.457 31.4467 176.777 31.78C176.097 32.1133 175.284 32.28 174.337 32.28ZM181.396 32V22.08H183.916V32H181.396ZM182.656 20.92C182.203 20.92 181.816 20.7733 181.496 20.48C181.189 20.1867 181.036 19.8 181.036 19.32C181.036 18.84 181.189 18.4533 181.496 18.16C181.816 17.8667 182.203 17.72 182.656 17.72C183.123 17.72 183.509 17.8667 183.816 18.16C184.123 18.4533 184.276 18.84 184.276 19.32C184.276 19.8 184.123 20.1867 183.816 20.48C183.509 20.7733 183.123 20.92 182.656 20.92ZM191.429 32.28C190.442 32.28 189.555 32.08 188.769 31.68C187.982 31.28 187.362 30.7 186.909 29.94C186.455 29.18 186.229 28.2667 186.229 27.2V26.88C186.229 25.8133 186.455 24.9 186.909 24.14C187.362 23.38 187.982 22.8 188.769 22.4C189.555 22 190.442 21.8 191.429 21.8C192.415 21.8 193.302 22 194.089 22.4C194.875 22.8 195.495 23.38 195.949 24.14C196.402 24.9 196.629 25.8133 196.629 26.88V27.2C196.629 28.2667 196.402 29.18 195.949 29.94C195.495 30.7 194.875 31.28 194.089 31.68C193.302 32.08 192.415 32.28 191.429 32.28ZM191.429 30.04C192.202 30.04 192.842 29.7933 193.349 29.3C193.855 28.7933 194.109 28.0733 194.109 27.14V26.94C194.109 26.0067 193.855 25.2933 193.349 24.8C192.855 24.2933 192.215 24.04 191.429 24.04C190.655 24.04 190.015 24.2933 189.509 24.8C189.002 25.2933 188.749 26.0067 188.749 26.94V27.14C188.749 28.0733 189.002 28.7933 189.509 29.3C190.015 29.7933 190.655 30.04 191.429 30.04ZM198.955 32V22.08H201.435V23.38H201.795C201.955 23.0333 202.255 22.7067 202.695 22.4C203.135 22.08 203.801 21.92 204.695 21.92C205.468 21.92 206.141 22.1 206.715 22.46C207.301 22.8067 207.755 23.2933 208.075 23.92C208.395 24.5333 208.555 25.2533 208.555 26.08V32H206.035V26.28C206.035 25.5333 205.848 24.9733 205.475 24.6C205.115 24.2267 204.595 24.04 203.915 24.04C203.141 24.04 202.541 24.3 202.115 24.82C201.688 25.3267 201.475 26.04 201.475 26.96V32H198.955ZM214.359 32.28C213.652 32.28 213.019 32.16 212.459 31.92C211.899 31.6667 211.452 31.3067 211.119 30.84C210.799 30.36 210.639 29.78 210.639 29.1C210.639 28.42 210.799 27.8533 211.119 27.4C211.452 26.9333 211.906 26.5867 212.479 26.36C213.066 26.12 213.732 26 214.479 26H217.199V25.44C217.199 24.9733 217.052 24.5933 216.759 24.3C216.466 23.9933 215.999 23.84 215.359 23.84C214.732 23.84 214.266 23.9867 213.959 24.28C213.652 24.56 213.452 24.9267 213.359 25.38L211.039 24.6C211.199 24.0933 211.452 23.6333 211.799 23.22C212.159 22.7933 212.632 22.4533 213.219 22.2C213.819 21.9333 214.546 21.8 215.399 21.8C216.706 21.8 217.739 22.1267 218.499 22.78C219.259 23.4333 219.639 24.38 219.639 25.62V29.32C219.639 29.72 219.826 29.92 220.199 29.92H220.999V32H219.319C218.826 32 218.419 31.88 218.099 31.64C217.779 31.4 217.619 31.08 217.619 30.68V30.66H217.239C217.186 30.82 217.066 31.0333 216.879 31.3C216.692 31.5533 216.399 31.78 215.999 31.98C215.599 32.18 215.052 32.28 214.359 32.28ZM214.799 30.24C215.506 30.24 216.079 30.0467 216.519 29.66C216.972 29.26 217.199 28.7333 217.199 28.08V27.88H214.659C214.192 27.88 213.826 27.98 213.559 28.18C213.292 28.38 213.159 28.66 213.159 29.02C213.159 29.38 213.299 29.6733 213.579 29.9C213.859 30.1267 214.266 30.24 214.799 30.24ZM222.841 32V18H225.361V32H222.841Z" fill="white"/>
</svg>
