<svg width="266" height="51" viewBox="0 0 266 51" fill="none" xmlns="http://www.w3.org/2000/svg">
<g filter="url(#filter0_d_584_13)">
<rect x="4" y="4" width="258" height="43" rx="4" fill="#254069"/>
</g>
<path d="M38.5661 33V19H41.2061V33H38.5661ZM43.9195 33V23.08H46.3995V24.38H46.7595C46.9195 24.0333 47.2195 23.7067 47.6595 23.4C48.0995 23.08 48.7662 22.92 49.6595 22.92C50.4329 22.92 51.1062 23.1 51.6795 23.46C52.2662 23.8067 52.7195 24.2933 53.0395 24.92C53.3595 25.5333 53.5195 26.2533 53.5195 27.08V33H50.9995V27.28C50.9995 26.5333 50.8129 25.9733 50.4395 25.6C50.0795 25.2267 49.5595 25.04 48.8795 25.04C48.1062 25.04 47.5062 25.3 47.0795 25.82C46.6529 26.3267 46.4395 27.04 46.4395 27.96V33H43.9195ZM55.7638 28.08V27.76C55.7638 26.72 55.9704 25.8333 56.3838 25.1C56.7971 24.3533 57.3438 23.7867 58.0238 23.4C58.7171 23 59.4704 22.8 60.2838 22.8C61.1904 22.8 61.8771 22.96 62.3438 23.28C62.8104 23.6 63.1504 23.9333 63.3638 24.28H63.7238V23.08H66.2038V34.76C66.2038 35.44 66.0038 35.98 65.6038 36.38C65.2038 36.7933 64.6704 37 64.0038 37H57.3638V34.8H63.1238C63.4971 34.8 63.6838 34.6 63.6838 34.2V31.62H63.3238C63.1904 31.8333 63.0038 32.0533 62.7638 32.28C62.5238 32.4933 62.2038 32.6733 61.8038 32.82C61.4038 32.9667 60.8971 33.04 60.2838 33.04C59.4704 33.04 58.7171 32.8467 58.0238 32.46C57.3438 32.06 56.7971 31.4933 56.3838 30.76C55.9704 30.0133 55.7638 29.12 55.7638 28.08ZM61.0038 30.84C61.7771 30.84 62.4238 30.5933 62.9438 30.1C63.4638 29.6067 63.7238 28.9133 63.7238 28.02V27.82C63.7238 26.9133 63.4638 26.22 62.9438 25.74C62.4371 25.2467 61.7904 25 61.0038 25C60.2304 25 59.5838 25.2467 59.0638 25.74C58.5438 26.22 58.2838 26.9133 58.2838 27.82V28.02C58.2838 28.9133 58.5438 29.6067 59.0638 30.1C59.5838 30.5933 60.2304 30.84 61.0038 30.84ZM68.9977 33V19H71.5177V33H68.9977ZM78.8302 33.28C77.8435 33.28 76.9702 33.0733 76.2102 32.66C75.4635 32.2333 74.8768 31.64 74.4502 30.88C74.0368 30.1067 73.8302 29.2 73.8302 28.16V27.92C73.8302 26.88 74.0368 25.98 74.4502 25.22C74.8635 24.4467 75.4435 23.8533 76.1902 23.44C76.9368 23.0133 77.8035 22.8 78.7902 22.8C79.7635 22.8 80.6102 23.02 81.3302 23.46C82.0502 23.8867 82.6102 24.4867 83.0102 25.26C83.4102 26.02 83.6102 26.9067 83.6102 27.92V28.78H76.3902C76.4168 29.46 76.6702 30.0133 77.1502 30.44C77.6302 30.8667 78.2168 31.08 78.9102 31.08C79.6168 31.08 80.1368 30.9267 80.4702 30.62C80.8035 30.3133 81.0568 29.9733 81.2302 29.6L83.2902 30.68C83.1035 31.0267 82.8302 31.4067 82.4702 31.82C82.1235 32.22 81.6568 32.5667 81.0702 32.86C80.4835 33.14 79.7368 33.28 78.8302 33.28ZM76.4102 26.9H81.0502C80.9968 26.3267 80.7635 25.8667 80.3502 25.52C79.9502 25.1733 79.4235 25 78.7702 25C78.0902 25 77.5502 25.1733 77.1502 25.52C76.7502 25.8667 76.5035 26.3267 76.4102 26.9ZM77.2702 21.96L78.7502 19H81.5902L79.4702 21.96H77.2702ZM89.9731 33.28C88.6798 33.28 87.6198 33 86.7931 32.44C85.9665 31.88 85.4665 31.08 85.2931 30.04L87.6131 29.44C87.7065 29.9067 87.8598 30.2733 88.0731 30.54C88.2998 30.8067 88.5731 31 88.8931 31.12C89.2265 31.2267 89.5865 31.28 89.9731 31.28C90.5598 31.28 90.9931 31.18 91.2731 30.98C91.5531 30.7667 91.6931 30.5067 91.6931 30.2C91.6931 29.8933 91.5598 29.66 91.2931 29.5C91.0265 29.3267 90.5998 29.1867 90.0131 29.08L89.4531 28.98C88.7598 28.8467 88.1265 28.6667 87.5531 28.44C86.9798 28.2 86.5198 27.8733 86.1731 27.46C85.8265 27.0467 85.6531 26.5133 85.6531 25.86C85.6531 24.8733 86.0131 24.12 86.7331 23.6C87.4531 23.0667 88.3998 22.8 89.5731 22.8C90.6798 22.8 91.5998 23.0467 92.3331 23.54C93.0665 24.0333 93.5465 24.68 93.7731 25.48L91.4331 26.2C91.3265 25.6933 91.1065 25.3333 90.7731 25.12C90.4531 24.9067 90.0531 24.8 89.5731 24.8C89.0931 24.8 88.7265 24.8867 88.4731 25.06C88.2198 25.22 88.0931 25.4467 88.0931 25.74C88.0931 26.06 88.2265 26.3 88.4931 26.46C88.7598 26.6067 89.1198 26.72 89.5731 26.8L90.1331 26.9C90.8798 27.0333 91.5531 27.2133 92.1531 27.44C92.7665 27.6533 93.2465 27.9667 93.5931 28.38C93.9531 28.78 94.1331 29.3267 94.1331 30.02C94.1331 31.06 93.7531 31.8667 92.9931 32.44C92.2465 33 91.2398 33.28 89.9731 33.28ZM101.34 33V19H103.98V33H101.34ZM106.693 33V23.08H109.173V24.38H109.533C109.693 24.0333 109.993 23.7067 110.433 23.4C110.873 23.08 111.54 22.92 112.433 22.92C113.206 22.92 113.88 23.1 114.453 23.46C115.04 23.8067 115.493 24.2933 115.813 24.92C116.133 25.5333 116.293 26.2533 116.293 27.08V33H113.773V27.28C113.773 26.5333 113.586 25.9733 113.213 25.6C112.853 25.2267 112.333 25.04 111.653 25.04C110.88 25.04 110.28 25.3 109.853 25.82C109.426 26.3267 109.213 27.04 109.213 27.96V33H106.693ZM122.544 33C121.89 33 121.357 32.8 120.944 32.4C120.544 31.9867 120.344 31.44 120.344 30.76V25.16H117.864V23.08H120.344V20H122.864V23.08H125.584V25.16H122.864V30.32C122.864 30.72 123.05 30.92 123.424 30.92H125.344V33H122.544ZM132.033 33.28C131.047 33.28 130.173 33.0733 129.413 32.66C128.667 32.2333 128.08 31.64 127.653 30.88C127.24 30.1067 127.033 29.2 127.033 28.16V27.92C127.033 26.88 127.24 25.98 127.653 25.22C128.067 24.4467 128.647 23.8533 129.393 23.44C130.14 23.0133 131.007 22.8 131.993 22.8C132.967 22.8 133.813 23.02 134.533 23.46C135.253 23.8867 135.813 24.4867 136.213 25.26C136.613 26.02 136.813 26.9067 136.813 27.92V28.78H129.593C129.62 29.46 129.873 30.0133 130.353 30.44C130.833 30.8667 131.42 31.08 132.113 31.08C132.82 31.08 133.34 30.9267 133.673 30.62C134.007 30.3133 134.26 29.9733 134.433 29.6L136.493 30.68C136.307 31.0267 136.033 31.4067 135.673 31.82C135.327 32.22 134.86 32.5667 134.273 32.86C133.687 33.14 132.94 33.28 132.033 33.28ZM129.613 26.9H134.253C134.2 26.3267 133.967 25.8667 133.553 25.52C133.153 25.1733 132.627 25 131.973 25C131.293 25 130.753 25.1733 130.353 25.52C129.953 25.8667 129.707 26.3267 129.613 26.9ZM139.056 33V23.08H141.536V24.2H141.896C142.043 23.8 142.283 23.5067 142.616 23.32C142.963 23.1333 143.363 23.04 143.816 23.04H145.016V25.28H143.776C143.136 25.28 142.61 25.4533 142.196 25.8C141.783 26.1333 141.576 26.6533 141.576 27.36V33H139.056ZM146.986 33V23.08H149.466V24.38H149.826C149.986 24.0333 150.286 23.7067 150.726 23.4C151.166 23.08 151.833 22.92 152.726 22.92C153.499 22.92 154.173 23.1 154.746 23.46C155.333 23.8067 155.786 24.2933 156.106 24.92C156.426 25.5333 156.586 26.2533 156.586 27.08V33H154.066V27.28C154.066 26.5333 153.879 25.9733 153.506 25.6C153.146 25.2267 152.626 25.04 151.946 25.04C151.173 25.04 150.573 25.3 150.146 25.82C149.719 26.3267 149.506 27.04 149.506 27.96V33H146.986ZM162.39 33.28C161.683 33.28 161.05 33.16 160.49 32.92C159.93 32.6667 159.483 32.3067 159.15 31.84C158.83 31.36 158.67 30.78 158.67 30.1C158.67 29.42 158.83 28.8533 159.15 28.4C159.483 27.9333 159.937 27.5867 160.51 27.36C161.097 27.12 161.763 27 162.51 27H165.23V26.44C165.23 25.9733 165.083 25.5933 164.79 25.3C164.497 24.9933 164.03 24.84 163.39 24.84C162.763 24.84 162.297 24.9867 161.99 25.28C161.683 25.56 161.483 25.9267 161.39 26.38L159.07 25.6C159.23 25.0933 159.483 24.6333 159.83 24.22C160.19 23.7933 160.663 23.4533 161.25 23.2C161.85 22.9333 162.577 22.8 163.43 22.8C164.737 22.8 165.77 23.1267 166.53 23.78C167.29 24.4333 167.67 25.38 167.67 26.62V30.32C167.67 30.72 167.857 30.92 168.23 30.92H169.03V33H167.35C166.857 33 166.45 32.88 166.13 32.64C165.81 32.4 165.65 32.08 165.65 31.68V31.66H165.27C165.217 31.82 165.097 32.0333 164.91 32.3C164.723 32.5533 164.43 32.78 164.03 32.98C163.63 33.18 163.083 33.28 162.39 33.28ZM162.83 31.24C163.537 31.24 164.11 31.0467 164.55 30.66C165.003 30.26 165.23 29.7333 165.23 29.08V28.88H162.69C162.223 28.88 161.857 28.98 161.59 29.18C161.323 29.38 161.19 29.66 161.19 30.02C161.19 30.38 161.33 30.6733 161.61 30.9C161.89 31.1267 162.297 31.24 162.83 31.24ZM175.337 33.28C174.377 33.28 173.504 33.08 172.717 32.68C171.944 32.28 171.331 31.7 170.877 30.94C170.424 30.18 170.197 29.26 170.197 28.18V27.9C170.197 26.82 170.424 25.9 170.877 25.14C171.331 24.38 171.944 23.8 172.717 23.4C173.504 23 174.377 22.8 175.337 22.8C176.284 22.8 177.097 22.9667 177.777 23.3C178.457 23.6333 179.004 24.0933 179.417 24.68C179.844 25.2533 180.124 25.9067 180.257 26.64L177.817 27.16C177.764 26.76 177.644 26.4 177.457 26.08C177.271 25.76 177.004 25.5067 176.657 25.32C176.324 25.1333 175.904 25.04 175.397 25.04C174.891 25.04 174.431 25.1533 174.017 25.38C173.617 25.5933 173.297 25.92 173.057 26.36C172.831 26.7867 172.717 27.3133 172.717 27.94V28.14C172.717 28.7667 172.831 29.3 173.057 29.74C173.297 30.1667 173.617 30.4933 174.017 30.72C174.431 30.9333 174.891 31.04 175.397 31.04C176.157 31.04 176.731 30.8467 177.117 30.46C177.517 30.06 177.771 29.54 177.877 28.9L180.317 29.48C180.144 30.1867 179.844 30.8333 179.417 31.42C179.004 31.9933 178.457 32.4467 177.777 32.78C177.097 33.1133 176.284 33.28 175.337 33.28ZM182.396 33V23.08H184.916V33H182.396ZM183.656 21.92C183.203 21.92 182.816 21.7733 182.496 21.48C182.189 21.1867 182.036 20.8 182.036 20.32C182.036 19.84 182.189 19.4533 182.496 19.16C182.816 18.8667 183.203 18.72 183.656 18.72C184.123 18.72 184.509 18.8667 184.816 19.16C185.123 19.4533 185.276 19.84 185.276 20.32C185.276 20.8 185.123 21.1867 184.816 21.48C184.509 21.7733 184.123 21.92 183.656 21.92ZM192.429 33.28C191.442 33.28 190.555 33.08 189.769 32.68C188.982 32.28 188.362 31.7 187.909 30.94C187.455 30.18 187.229 29.2667 187.229 28.2V27.88C187.229 26.8133 187.455 25.9 187.909 25.14C188.362 24.38 188.982 23.8 189.769 23.4C190.555 23 191.442 22.8 192.429 22.8C193.415 22.8 194.302 23 195.089 23.4C195.875 23.8 196.495 24.38 196.949 25.14C197.402 25.9 197.629 26.8133 197.629 27.88V28.2C197.629 29.2667 197.402 30.18 196.949 30.94C196.495 31.7 195.875 32.28 195.089 32.68C194.302 33.08 193.415 33.28 192.429 33.28ZM192.429 31.04C193.202 31.04 193.842 30.7933 194.349 30.3C194.855 29.7933 195.109 29.0733 195.109 28.14V27.94C195.109 27.0067 194.855 26.2933 194.349 25.8C193.855 25.2933 193.215 25.04 192.429 25.04C191.655 25.04 191.015 25.2933 190.509 25.8C190.002 26.2933 189.749 27.0067 189.749 27.94V28.14C189.749 29.0733 190.002 29.7933 190.509 30.3C191.015 30.7933 191.655 31.04 192.429 31.04ZM199.955 33V23.08H202.435V24.38H202.795C202.955 24.0333 203.255 23.7067 203.695 23.4C204.135 23.08 204.801 22.92 205.695 22.92C206.468 22.92 207.141 23.1 207.715 23.46C208.301 23.8067 208.755 24.2933 209.075 24.92C209.395 25.5333 209.555 26.2533 209.555 27.08V33H207.035V27.28C207.035 26.5333 206.848 25.9733 206.475 25.6C206.115 25.2267 205.595 25.04 204.915 25.04C204.141 25.04 203.541 25.3 203.115 25.82C202.688 26.3267 202.475 27.04 202.475 27.96V33H199.955ZM215.359 33.28C214.652 33.28 214.019 33.16 213.459 32.92C212.899 32.6667 212.452 32.3067 212.119 31.84C211.799 31.36 211.639 30.78 211.639 30.1C211.639 29.42 211.799 28.8533 212.119 28.4C212.452 27.9333 212.906 27.5867 213.479 27.36C214.066 27.12 214.732 27 215.479 27H218.199V26.44C218.199 25.9733 218.052 25.5933 217.759 25.3C217.466 24.9933 216.999 24.84 216.359 24.84C215.732 24.84 215.266 24.9867 214.959 25.28C214.652 25.56 214.452 25.9267 214.359 26.38L212.039 25.6C212.199 25.0933 212.452 24.6333 212.799 24.22C213.159 23.7933 213.632 23.4533 214.219 23.2C214.819 22.9333 215.546 22.8 216.399 22.8C217.706 22.8 218.739 23.1267 219.499 23.78C220.259 24.4333 220.639 25.38 220.639 26.62V30.32C220.639 30.72 220.826 30.92 221.199 30.92H221.999V33H220.319C219.826 33 219.419 32.88 219.099 32.64C218.779 32.4 218.619 32.08 218.619 31.68V31.66H218.239C218.186 31.82 218.066 32.0333 217.879 32.3C217.692 32.5533 217.399 32.78 216.999 32.98C216.599 33.18 216.052 33.28 215.359 33.28ZM215.799 31.24C216.506 31.24 217.079 31.0467 217.519 30.66C217.972 30.26 218.199 29.7333 218.199 29.08V28.88H215.659C215.192 28.88 214.826 28.98 214.559 29.18C214.292 29.38 214.159 29.66 214.159 30.02C214.159 30.38 214.299 30.6733 214.579 30.9C214.859 31.1267 215.266 31.24 215.799 31.24ZM223.841 33V19H226.361V33H223.841Z" fill="white"/>
<defs>
<filter id="filter0_d_584_13" x="0" y="0" width="266" height="51" filterUnits="userSpaceOnUse" color-interpolation-filters="sRGB">
<feFlood flood-opacity="0" result="BackgroundImageFix"/>
<feColorMatrix in="SourceAlpha" type="matrix" values="0 0 0 0 0 0 0 0 0 0 0 0 0 0 0 0 0 0 127 0" result="hardAlpha"/>
<feOffset/>
<feGaussianBlur stdDeviation="2"/>
<feComposite in2="hardAlpha" operator="out"/>
<feColorMatrix type="matrix" values="0 0 0 0 0 0 0 0 0 0 0 0 0 0 0 0 0 0 0.5 0"/>
<feBlend mode="normal" in2="BackgroundImageFix" result="effect1_dropShadow_584_13"/>
<feBlend mode="normal" in="SourceGraphic" in2="effect1_dropShadow_584_13" result="shape"/>
</filter>
</defs>
</svg>
