<svg width="266" height="51" viewBox="0 0 266 51" fill="none" xmlns="http://www.w3.org/2000/svg">
<g filter="url(#filter0_d_584_17)">
<rect x="4" y="4" width="258" height="43" rx="4" fill="#415984"/>
</g>
<path d="M29.5329 33V19H38.5329V21.4H32.1729V24.74H37.9729V27.14H32.1729V30.6H38.6529V33H29.5329ZM44.8071 33.28C43.5138 33.28 42.4538 33 41.6271 32.44C40.8004 31.88 40.3004 31.08 40.1271 30.04L42.4471 29.44C42.5404 29.9067 42.6938 30.2733 42.9071 30.54C43.1338 30.8067 43.4071 31 43.7271 31.12C44.0604 31.2267 44.4204 31.28 44.8071 31.28C45.3938 31.28 45.8271 31.18 46.1071 30.98C46.3871 30.7667 46.5271 30.5067 46.5271 30.2C46.5271 29.8933 46.3938 29.66 46.1271 29.5C45.8604 29.3267 45.4338 29.1867 44.8471 29.08L44.2871 28.98C43.5938 28.8467 42.9604 28.6667 42.3871 28.44C41.8138 28.2 41.3538 27.8733 41.0071 27.46C40.6604 27.0467 40.4871 26.5133 40.4871 25.86C40.4871 24.8733 40.8471 24.12 41.5671 23.6C42.2871 23.0667 43.2338 22.8 44.4071 22.8C45.5138 22.8 46.4338 23.0467 47.1671 23.54C47.9004 24.0333 48.3804 24.68 48.6071 25.48L46.2671 26.2C46.1604 25.6933 45.9404 25.3333 45.6071 25.12C45.2871 24.9067 44.8871 24.8 44.4071 24.8C43.9271 24.8 43.5604 24.8867 43.3071 25.06C43.0538 25.22 42.9271 25.4467 42.9271 25.74C42.9271 26.06 43.0604 26.3 43.3271 26.46C43.5938 26.6067 43.9538 26.72 44.4071 26.8L44.9671 26.9C45.7138 27.0333 46.3871 27.2133 46.9871 27.44C47.6004 27.6533 48.0804 27.9667 48.4271 28.38C48.7871 28.78 48.9671 29.3267 48.9671 30.02C48.9671 31.06 48.5871 31.8667 47.8271 32.44C47.0804 33 46.0738 33.28 44.8071 33.28ZM51.1754 37V23.08H53.6554V24.28H54.0154C54.2421 23.8933 54.5954 23.5533 55.0754 23.26C55.5554 22.9533 56.2421 22.8 57.1354 22.8C57.9354 22.8 58.6754 23 59.3554 23.4C60.0354 23.7867 60.5821 24.36 60.9954 25.12C61.4087 25.88 61.6154 26.8 61.6154 27.88V28.2C61.6154 29.28 61.4087 30.2 60.9954 30.96C60.5821 31.72 60.0354 32.3 59.3554 32.7C58.6754 33.0867 57.9354 33.28 57.1354 33.28C56.5354 33.28 56.0287 33.2067 55.6154 33.06C55.2154 32.9267 54.8887 32.7533 54.6354 32.54C54.3954 32.3133 54.2021 32.0867 54.0554 31.86H53.6954V37H51.1754ZM56.3754 31.08C57.1621 31.08 57.8087 30.8333 58.3154 30.34C58.8354 29.8333 59.0954 29.1 59.0954 28.14V27.94C59.0954 26.98 58.8354 26.2533 58.3154 25.76C57.7954 25.2533 57.1487 25 56.3754 25C55.6021 25 54.9554 25.2533 54.4354 25.76C53.9154 26.2533 53.6554 26.98 53.6554 27.94V28.14C53.6554 29.1 53.9154 29.8333 54.4354 30.34C54.9554 30.8333 55.6021 31.08 56.3754 31.08ZM67.0093 33.28C66.3026 33.28 65.6693 33.16 65.1093 32.92C64.5493 32.6667 64.1026 32.3067 63.7693 31.84C63.4493 31.36 63.2893 30.78 63.2893 30.1C63.2893 29.42 63.4493 28.8533 63.7693 28.4C64.1026 27.9333 64.556 27.5867 65.1293 27.36C65.716 27.12 66.3826 27 67.1293 27H69.8493V26.44C69.8493 25.9733 69.7026 25.5933 69.4093 25.3C69.116 24.9933 68.6493 24.84 68.0093 24.84C67.3826 24.84 66.916 24.9867 66.6093 25.28C66.3026 25.56 66.1026 25.9267 66.0093 26.38L63.6893 25.6C63.8493 25.0933 64.1026 24.6333 64.4493 24.22C64.8093 23.7933 65.2826 23.4533 65.8693 23.2C66.4693 22.9333 67.196 22.8 68.0493 22.8C69.356 22.8 70.3893 23.1267 71.1493 23.78C71.9093 24.4333 72.2893 25.38 72.2893 26.62V30.32C72.2893 30.72 72.476 30.92 72.8493 30.92H73.6493V33H71.9693C71.476 33 71.0693 32.88 70.7493 32.64C70.4293 32.4 70.2693 32.08 70.2693 31.68V31.66H69.8893C69.836 31.82 69.716 32.0333 69.5293 32.3C69.3426 32.5533 69.0493 32.78 68.6493 32.98C68.2493 33.18 67.7026 33.28 67.0093 33.28ZM67.4493 31.24C68.156 31.24 68.7293 31.0467 69.1693 30.66C69.6226 30.26 69.8493 29.7333 69.8493 29.08V28.88H67.3093C66.8426 28.88 66.476 28.98 66.2093 29.18C65.9426 29.38 65.8093 29.66 65.8093 30.02C65.8093 30.38 65.9493 30.6733 66.2293 30.9C66.5093 31.1267 66.916 31.24 67.4493 31.24ZM75.4918 33V23.08H77.9718V24.38H78.3318C78.4918 24.0333 78.7918 23.7067 79.2318 23.4C79.6718 23.08 80.3385 22.92 81.2318 22.92C82.0051 22.92 82.6785 23.1 83.2518 23.46C83.8385 23.8067 84.2918 24.2933 84.6118 24.92C84.9318 25.5333 85.0918 26.2533 85.0918 27.08V33H82.5718V27.28C82.5718 26.5333 82.3851 25.9733 82.0118 25.6C81.6518 25.2267 81.1318 25.04 80.4518 25.04C79.6785 25.04 79.0785 25.3 78.6518 25.82C78.2251 26.3267 78.0118 27.04 78.0118 27.96V33H75.4918ZM77.9118 22.16L76.5318 21.28L77.1918 20.14C77.3918 19.7933 77.6318 19.5467 77.9118 19.4C78.2051 19.24 78.5185 19.16 78.8518 19.16C79.1451 19.16 79.3985 19.22 79.6118 19.34C79.8385 19.4467 80.0585 19.5933 80.2718 19.78C80.3918 19.8867 80.5185 19.9933 80.6518 20.1C80.7985 20.2067 80.9585 20.26 81.1318 20.26C81.3318 20.26 81.4918 20.1933 81.6118 20.06C81.7451 19.9267 81.8585 19.7867 81.9518 19.64L82.2718 19.16L83.6518 20.04L82.9918 21.18C82.7918 21.5133 82.5518 21.76 82.2718 21.92C81.9918 22.08 81.6785 22.16 81.3318 22.16C81.0385 22.16 80.7785 22.1067 80.5518 22C80.3385 21.88 80.1251 21.7267 79.9118 21.54C79.7918 21.4333 79.6651 21.3267 79.5318 21.22C79.3985 21.1133 79.2385 21.06 79.0518 21.06C78.8518 21.06 78.6918 21.1267 78.5718 21.26C78.4518 21.3933 78.3385 21.5333 78.2318 21.68L77.9118 22.16ZM92.536 33.28C91.5493 33.28 90.6627 33.08 89.876 32.68C89.0893 32.28 88.4693 31.7 88.016 30.94C87.5627 30.18 87.336 29.2667 87.336 28.2V27.88C87.336 26.8133 87.5627 25.9 88.016 25.14C88.4693 24.38 89.0893 23.8 89.876 23.4C90.6627 23 91.5493 22.8 92.536 22.8C93.5227 22.8 94.4093 23 95.196 23.4C95.9827 23.8 96.6027 24.38 97.056 25.14C97.5093 25.9 97.736 26.8133 97.736 27.88V28.2C97.736 29.2667 97.5093 30.18 97.056 30.94C96.6027 31.7 95.9827 32.28 95.196 32.68C94.4093 33.08 93.5227 33.28 92.536 33.28ZM92.536 31.04C93.3093 31.04 93.9493 30.7933 94.456 30.3C94.9627 29.7933 95.216 29.0733 95.216 28.14V27.94C95.216 27.0067 94.9627 26.2933 94.456 25.8C93.9627 25.2933 93.3227 25.04 92.536 25.04C91.7627 25.04 91.1227 25.2933 90.616 25.8C90.1093 26.2933 89.856 27.0067 89.856 27.94V28.14C89.856 29.0733 90.1093 29.7933 90.616 30.3C91.1227 30.7933 91.7627 31.04 92.536 31.04ZM100.062 33V19H102.582V33H100.062ZM110.373 33V19H113.013V33H110.373ZM115.726 33V23.08H118.206V24.38H118.566C118.726 24.0333 119.026 23.7067 119.466 23.4C119.906 23.08 120.573 22.92 121.466 22.92C122.24 22.92 122.913 23.1 123.486 23.46C124.073 23.8067 124.526 24.2933 124.846 24.92C125.166 25.5333 125.326 26.2533 125.326 27.08V33H122.806V27.28C122.806 26.5333 122.62 25.9733 122.246 25.6C121.886 25.2267 121.366 25.04 120.686 25.04C119.913 25.04 119.313 25.3 118.886 25.82C118.46 26.3267 118.246 27.04 118.246 27.96V33H115.726ZM131.577 33C130.924 33 130.39 32.8 129.977 32.4C129.577 31.9867 129.377 31.44 129.377 30.76V25.16H126.897V23.08H129.377V20H131.897V23.08H134.617V25.16H131.897V30.32C131.897 30.72 132.084 30.92 132.457 30.92H134.377V33H131.577ZM141.066 33.28C140.08 33.28 139.206 33.0733 138.446 32.66C137.7 32.2333 137.113 31.64 136.686 30.88C136.273 30.1067 136.066 29.2 136.066 28.16V27.92C136.066 26.88 136.273 25.98 136.686 25.22C137.1 24.4467 137.68 23.8533 138.426 23.44C139.173 23.0133 140.04 22.8 141.026 22.8C142 22.8 142.846 23.02 143.566 23.46C144.286 23.8867 144.846 24.4867 145.246 25.26C145.646 26.02 145.846 26.9067 145.846 27.92V28.78H138.626C138.653 29.46 138.906 30.0133 139.386 30.44C139.866 30.8667 140.453 31.08 141.146 31.08C141.853 31.08 142.373 30.9267 142.706 30.62C143.04 30.3133 143.293 29.9733 143.466 29.6L145.526 30.68C145.34 31.0267 145.066 31.4067 144.706 31.82C144.36 32.22 143.893 32.5667 143.306 32.86C142.72 33.14 141.973 33.28 141.066 33.28ZM138.646 26.9H143.286C143.233 26.3267 143 25.8667 142.586 25.52C142.186 25.1733 141.66 25 141.006 25C140.326 25 139.786 25.1733 139.386 25.52C138.986 25.8667 138.74 26.3267 138.646 26.9ZM148.089 33V23.08H150.569V24.2H150.929C151.076 23.8 151.316 23.5067 151.649 23.32C151.996 23.1333 152.396 23.04 152.849 23.04H154.049V25.28H152.809C152.169 25.28 151.643 25.4533 151.229 25.8C150.816 26.1333 150.609 26.6533 150.609 27.36V33H148.089ZM156.019 33V23.08H158.499V24.38H158.859C159.019 24.0333 159.319 23.7067 159.759 23.4C160.199 23.08 160.866 22.92 161.759 22.92C162.532 22.92 163.206 23.1 163.779 23.46C164.366 23.8067 164.819 24.2933 165.139 24.92C165.459 25.5333 165.619 26.2533 165.619 27.08V33H163.099V27.28C163.099 26.5333 162.912 25.9733 162.539 25.6C162.179 25.2267 161.659 25.04 160.979 25.04C160.206 25.04 159.606 25.3 159.179 25.82C158.752 26.3267 158.539 27.04 158.539 27.96V33H156.019ZM171.423 33.28C170.717 33.28 170.083 33.16 169.523 32.92C168.963 32.6667 168.517 32.3067 168.183 31.84C167.863 31.36 167.703 30.78 167.703 30.1C167.703 29.42 167.863 28.8533 168.183 28.4C168.517 27.9333 168.97 27.5867 169.543 27.36C170.13 27.12 170.797 27 171.543 27H174.263V26.44C174.263 25.9733 174.117 25.5933 173.823 25.3C173.53 24.9933 173.063 24.84 172.423 24.84C171.797 24.84 171.33 24.9867 171.023 25.28C170.717 25.56 170.517 25.9267 170.423 26.38L168.103 25.6C168.263 25.0933 168.517 24.6333 168.863 24.22C169.223 23.7933 169.697 23.4533 170.283 23.2C170.883 22.9333 171.61 22.8 172.463 22.8C173.77 22.8 174.803 23.1267 175.563 23.78C176.323 24.4333 176.703 25.38 176.703 26.62V30.32C176.703 30.72 176.89 30.92 177.263 30.92H178.063V33H176.383C175.89 33 175.483 32.88 175.163 32.64C174.843 32.4 174.683 32.08 174.683 31.68V31.66H174.303C174.25 31.82 174.13 32.0333 173.943 32.3C173.757 32.5533 173.463 32.78 173.063 32.98C172.663 33.18 172.117 33.28 171.423 33.28ZM171.863 31.24C172.57 31.24 173.143 31.0467 173.583 30.66C174.037 30.26 174.263 29.7333 174.263 29.08V28.88H171.723C171.257 28.88 170.89 28.98 170.623 29.18C170.357 29.38 170.223 29.66 170.223 30.02C170.223 30.38 170.363 30.6733 170.643 30.9C170.923 31.1267 171.33 31.24 171.863 31.24ZM184.371 33.28C183.411 33.28 182.537 33.08 181.751 32.68C180.977 32.28 180.364 31.7 179.911 30.94C179.457 30.18 179.231 29.26 179.231 28.18V27.9C179.231 26.82 179.457 25.9 179.911 25.14C180.364 24.38 180.977 23.8 181.751 23.4C182.537 23 183.411 22.8 184.371 22.8C185.317 22.8 186.131 22.9667 186.811 23.3C187.491 23.6333 188.037 24.0933 188.451 24.68C188.877 25.2533 189.157 25.9067 189.291 26.64L186.851 27.16C186.797 26.76 186.677 26.4 186.491 26.08C186.304 25.76 186.037 25.5067 185.691 25.32C185.357 25.1333 184.937 25.04 184.431 25.04C183.924 25.04 183.464 25.1533 183.051 25.38C182.651 25.5933 182.331 25.92 182.091 26.36C181.864 26.7867 181.751 27.3133 181.751 27.94V28.14C181.751 28.7667 181.864 29.3 182.091 29.74C182.331 30.1667 182.651 30.4933 183.051 30.72C183.464 30.9333 183.924 31.04 184.431 31.04C185.191 31.04 185.764 30.8467 186.151 30.46C186.551 30.06 186.804 29.54 186.911 28.9L189.351 29.48C189.177 30.1867 188.877 30.8333 188.451 31.42C188.037 31.9933 187.491 32.4467 186.811 32.78C186.131 33.1133 185.317 33.28 184.371 33.28ZM191.429 33V23.08H193.949V33H191.429ZM192.689 21.92C192.236 21.92 191.849 21.7733 191.529 21.48C191.223 21.1867 191.069 20.8 191.069 20.32C191.069 19.84 191.223 19.4533 191.529 19.16C191.849 18.8667 192.236 18.72 192.689 18.72C193.156 18.72 193.543 18.8667 193.849 19.16C194.156 19.4533 194.309 19.84 194.309 20.32C194.309 20.8 194.156 21.1867 193.849 21.48C193.543 21.7733 193.156 21.92 192.689 21.92ZM201.462 33.28C200.475 33.28 199.588 33.08 198.802 32.68C198.015 32.28 197.395 31.7 196.942 30.94C196.488 30.18 196.262 29.2667 196.262 28.2V27.88C196.262 26.8133 196.488 25.9 196.942 25.14C197.395 24.38 198.015 23.8 198.802 23.4C199.588 23 200.475 22.8 201.462 22.8C202.448 22.8 203.335 23 204.122 23.4C204.908 23.8 205.528 24.38 205.982 25.14C206.435 25.9 206.662 26.8133 206.662 27.88V28.2C206.662 29.2667 206.435 30.18 205.982 30.94C205.528 31.7 204.908 32.28 204.122 32.68C203.335 33.08 202.448 33.28 201.462 33.28ZM201.462 31.04C202.235 31.04 202.875 30.7933 203.382 30.3C203.888 29.7933 204.142 29.0733 204.142 28.14V27.94C204.142 27.0067 203.888 26.2933 203.382 25.8C202.888 25.2933 202.248 25.04 201.462 25.04C200.688 25.04 200.048 25.2933 199.542 25.8C199.035 26.2933 198.782 27.0067 198.782 27.94V28.14C198.782 29.0733 199.035 29.7933 199.542 30.3C200.048 30.7933 200.688 31.04 201.462 31.04ZM208.988 33V23.08H211.468V24.38H211.828C211.988 24.0333 212.288 23.7067 212.728 23.4C213.168 23.08 213.835 22.92 214.728 22.92C215.501 22.92 216.175 23.1 216.748 23.46C217.335 23.8067 217.788 24.2933 218.108 24.92C218.428 25.5333 218.588 26.2533 218.588 27.08V33H216.068V27.28C216.068 26.5333 215.881 25.9733 215.508 25.6C215.148 25.2267 214.628 25.04 213.948 25.04C213.175 25.04 212.575 25.3 212.148 25.82C211.721 26.3267 211.508 27.04 211.508 27.96V33H208.988ZM224.392 33.28C223.685 33.28 223.052 33.16 222.492 32.92C221.932 32.6667 221.485 32.3067 221.152 31.84C220.832 31.36 220.672 30.78 220.672 30.1C220.672 29.42 220.832 28.8533 221.152 28.4C221.485 27.9333 221.939 27.5867 222.512 27.36C223.099 27.12 223.765 27 224.512 27H227.232V26.44C227.232 25.9733 227.085 25.5933 226.792 25.3C226.499 24.9933 226.032 24.84 225.392 24.84C224.765 24.84 224.299 24.9867 223.992 25.28C223.685 25.56 223.485 25.9267 223.392 26.38L221.072 25.6C221.232 25.0933 221.485 24.6333 221.832 24.22C222.192 23.7933 222.665 23.4533 223.252 23.2C223.852 22.9333 224.579 22.8 225.432 22.8C226.739 22.8 227.772 23.1267 228.532 23.78C229.292 24.4333 229.672 25.38 229.672 26.62V30.32C229.672 30.72 229.859 30.92 230.232 30.92H231.032V33H229.352C228.859 33 228.452 32.88 228.132 32.64C227.812 32.4 227.652 32.08 227.652 31.68V31.66H227.272C227.219 31.82 227.099 32.0333 226.912 32.3C226.725 32.5533 226.432 32.78 226.032 32.98C225.632 33.18 225.085 33.28 224.392 33.28ZM224.832 31.24C225.539 31.24 226.112 31.0467 226.552 30.66C227.005 30.26 227.232 29.7333 227.232 29.08V28.88H224.692C224.225 28.88 223.859 28.98 223.592 29.18C223.325 29.38 223.192 29.66 223.192 30.02C223.192 30.38 223.332 30.6733 223.612 30.9C223.892 31.1267 224.299 31.24 224.832 31.24ZM232.875 33V19H235.395V33H232.875Z" fill="white"/>
<defs>
<filter id="filter0_d_584_17" x="0" y="0" width="266" height="51" filterUnits="userSpaceOnUse" color-interpolation-filters="sRGB">
<feFlood flood-opacity="0" result="BackgroundImageFix"/>
<feColorMatrix in="SourceAlpha" type="matrix" values="0 0 0 0 0 0 0 0 0 0 0 0 0 0 0 0 0 0 127 0" result="hardAlpha"/>
<feOffset/>
<feGaussianBlur stdDeviation="2"/>
<feComposite in2="hardAlpha" operator="out"/>
<feColorMatrix type="matrix" values="0 0 0 0 0 0 0 0 0 0 0 0 0 0 0 0 0 0 0.5 0"/>
<feBlend mode="normal" in2="BackgroundImageFix" result="effect1_dropShadow_584_17"/>
<feBlend mode="normal" in="SourceGraphic" in2="effect1_dropShadow_584_17" result="shape"/>
</filter>
</defs>
</svg>
