<?xml version="1.0" encoding="UTF-8" standalone="no"?>
<!-- Created with Inkscape (http://www.inkscape.org/) -->

<svg
   xmlns:dc="http://purl.org/dc/elements/1.1/"
   xmlns:cc="http://creativecommons.org/ns#"
   xmlns:rdf="http://www.w3.org/1999/02/22-rdf-syntax-ns#"
   xmlns:svg="http://www.w3.org/2000/svg"
   xmlns="http://www.w3.org/2000/svg"
   xmlns:sodipodi="http://sodipodi.sourceforge.net/DTD/sodipodi-0.dtd"
   xmlns:inkscape="http://www.inkscape.org/namespaces/inkscape"
   width="160mm"
   height="160mm"
   viewBox="0 0 160 160"
   version="1.1"
   id="svg868"
   inkscape:version="0.92.5 (2060ec1f9f, 2020-04-08)"
   sodipodi:docname="Humbanew Racing Logo (Design).svg"
   inkscape:export-filename="C:\Users\humba\Google Drive\Humbanew Projects\Humbanew Logotypes (Revolution)\Humbanew Racing Logo (Design).png"
   inkscape:export-xdpi="122.2"
   inkscape:export-ydpi="122.2">
  <defs
     id="defs862" />
  <sodipodi:namedview
     id="base"
     pagecolor="#ffffff"
     bordercolor="#666666"
     borderopacity="1.0"
     inkscape:pageopacity="0.0"
     inkscape:pageshadow="2"
     inkscape:zoom="0.24748737"
     inkscape:cx="915.1544"
     inkscape:cy="741.01791"
     inkscape:document-units="mm"
     inkscape:current-layer="layer1"
     showgrid="false"
     inkscape:window-width="1263"
     inkscape:window-height="586"
     inkscape:window-x="26"
     inkscape:window-y="26"
     inkscape:window-maximized="0" />
  <metadata
     id="metadata865">
    <rdf:RDF>
      <cc:Work
         rdf:about="">
        <dc:format>image/svg+xml</dc:format>
        <dc:type
           rdf:resource="http://purl.org/dc/dcmitype/StillImage" />
        <dc:title></dc:title>
      </cc:Work>
    </rdf:RDF>
  </metadata>
  <g
     inkscape:label="Camada 1"
     inkscape:groupmode="layer"
     id="layer1"
     transform="translate(0,-137)">
    <g
       id="g85"
       transform="translate(-26.600235,135.45136)">
      <g
         transform="translate(10.583334)"
         id="g1647">
        <path
           sodipodi:type="star"
           style="fill:blue;fill-opacity:1;stroke:#b3b3b3;stroke-width:0.26458332;stroke-opacity:1"
           id="path1425"
           sodipodi:sides="10"
           sodipodi:cx="96.005951"
           sodipodi:cy="81.553574"
           sodipodi:r1="69.883705"
           sodipodi:r2="66.463341"
           sodipodi:arg1="0.27384204"
           sodipodi:arg2="0.5880013"
           inkscape:flatsided="true"
           inkscape:rounded="0"
           inkscape:randomized="0"
           d="m 163.28572,100.45239 -23.95774,35.9367 -40.505275,14.9914 L 57.241521,139.70038 30.467033,105.81017 28.726183,62.654762 52.683918,26.718059 93.189197,11.726658 134.77038,23.406766 161.54487,57.296978 Z"
           inkscape:transform-center-x="1.145341e-06"
           inkscape:transform-center-y="-1.0746214e-06"
           transform="rotate(2.5980787,96.005952,81.553575)" />
        <path
           sodipodi:type="star"
           style="fill:green;fill-opacity:1;stroke:green;stroke-width:0.26458332;stroke-opacity:1"
           id="path1433"
           sodipodi:sides="10"
           sodipodi:cx="95.095604"
           sodipodi:cy="81.1035"
           sodipodi:r1="62.273224"
           sodipodi:r2="59.225357"
           sodipodi:arg1="0.99289439"
           sodipodi:arg2="1.3070537"
           inkscape:flatsided="true"
           inkscape:rounded="0"
           inkscape:randomized="0"
           d="M 129.11346,133.26421 91.95733,143.2976 55.999914,129.57495 34.975723,97.337857 36.915283,58.899792 61.077748,28.942788 98.233878,18.909404 134.19129,32.63205 l 21.02419,32.237093 -1.93956,38.438067 z"
           inkscape:transform-center-x="1.0248429e-06"
           transform="rotate(6.6051315,95.095605,81.103501)" />
        <path
           sodipodi:type="star"
           style="fill:yellow;fill-opacity:1;stroke:yellow;stroke-width:0.26458332;stroke-opacity:1"
           id="path1433-5"
           sodipodi:sides="10"
           sodipodi:cx="95.095604"
           sodipodi:cy="81.1035"
           sodipodi:r1="62.273224"
           sodipodi:r2="59.225357"
           sodipodi:arg1="0.99289439"
           sodipodi:arg2="1.3070537"
           inkscape:flatsided="true"
           inkscape:rounded="0"
           inkscape:randomized="0"
           d="M 129.11346,133.26421 91.95733,143.2976 55.999914,129.57495 34.975723,97.337857 36.915283,58.899792 61.077748,28.942788 98.233878,18.909404 134.19129,32.63205 l 21.02419,32.237093 -1.93956,38.438067 z"
           transform="matrix(0.80691771,0.23215494,-0.23406702,0.81191917,37.458557,-7.7070305)" />
        <path
           style="fill:navy;stroke:navy;stroke-width:0.26458332px;stroke-linecap:butt;stroke-linejoin:miter;stroke-opacity:1"
           d="m 96.357309,11.670752 9.009681,8.01245 34.14029,17.767605 17.17653,34.441447 5.89323,-11.599497 -25.21074,-35.06905 z"
           id="path1452"
           inkscape:connector-curvature="0" />
        <path
           style="fill:#005;stroke:#005;stroke-width:0.26458332px;stroke-linecap:butt;stroke-linejoin:miter;stroke-opacity:1"
           d="m 162.57704,60.292757 -5.89323,11.599497 -6.34807,37.959836 -27.44792,26.97884 13.90997,1.46556 25.5621,-34.81377 z"
           id="path1454"
           inkscape:connector-curvature="0" />
        <path
           style="fill:#04a;stroke:#04a;stroke-width:0.26458332px;stroke-linecap:butt;stroke-linejoin:miter;stroke-opacity:1"
           d="m 122.88782,136.83093 13.90997,1.46556 -41.143201,13.1399 -41.008987,-13.55295 -3.961673,-13.12725 34.140285,17.76761 z"
           id="path1456"
           inkscape:connector-curvature="0" />
        <path
           style="fill:#06f;stroke:#06f;stroke-width:0.26458332px;stroke-linecap:butt;stroke-linejoin:miter;stroke-opacity:1"
           d="M 54.645602,137.88344 50.683929,124.75619 33.507396,90.314744 39.855462,52.354913 29.652013,59.62443 29.434861,102.81439 Z"
           id="path1458"
           inkscape:connector-curvature="0" />
        <path
           style="fill:#2a7fff;stroke:#2a7fff;stroke-width:0.26458332px;stroke-linecap:butt;stroke-linejoin:miter;stroke-opacity:1"
           d="M 29.652013,59.62443 39.855462,52.354913 66.98725,25.223125 105.36699,19.683202 96.357306,11.670752 55.214114,24.810659 Z"
           id="path1460"
           inkscape:connector-curvature="0" />
        <path
           style="fill:#0a0;stroke:#0a0;stroke-width:0.26458332px;stroke-linecap:butt;stroke-linejoin:miter;stroke-opacity:1"
           d="m 105.36699,19.683202 34.14029,17.767605 17.17653,34.441447 -9.16286,9.103257 -9.41915,-31.054783 -25.80266,-19.489372 z"
           id="path1462"
           inkscape:connector-curvature="0" />
        <path
           style="fill:#050;stroke:#050;stroke-width:0.26458332px;stroke-linecap:butt;stroke-linejoin:miter;stroke-opacity:1"
           d="m 156.68381,71.892254 -6.34807,37.959836 -27.44792,26.97884 -12.43808,-6.36387 26.50906,-18.71323 10.56215,-30.758319 z"
           id="path1464"
           inkscape:connector-curvature="0" />
        <path
           style="fill:#338000;stroke:#338000;stroke-width:0.26458332px;stroke-linecap:butt;stroke-linejoin:miter;stroke-opacity:1"
           d="m 110.44974,130.46706 12.43808,6.36387 -38.063606,5.69287 -34.140285,-17.76761 1.632728,-14.25818 25.802656,19.48937 z"
           id="path1468"
           inkscape:connector-curvature="0" />
        <path
           style="fill:#55d400;stroke:#55d400;stroke-width:0.26458332px;stroke-linecap:butt;stroke-linejoin:miter;stroke-opacity:1"
           d="M 50.683929,124.75619 33.507396,90.314742 39.855462,52.354913 53.459654,48.684904 42.897504,79.443227 52.316657,110.49801 Z"
           id="path1470"
           inkscape:connector-curvature="0" />
        <path
           style="fill:lime;stroke:lime;stroke-width:0.26458332px;stroke-linecap:butt;stroke-linejoin:miter;stroke-opacity:1"
           d="M 39.855462,52.354913 67.303387,25.376064 105.36699,19.683202 112.29914,30.451356 79.968721,29.971674 53.459654,48.684904 Z"
           id="path1472"
           inkscape:connector-curvature="0" />
        <path
           sodipodi:type="star"
           style="fill:#f60;fill-opacity:1;stroke:#f60;stroke-width:0.26458332;stroke-opacity:1"
           id="path1532"
           sodipodi:sides="10"
           sodipodi:cx="95.682487"
           sodipodi:cy="81.580757"
           sodipodi:r1="42.360325"
           sodipodi:r2="39.381985"
           sodipodi:arg1="0.82109726"
           sodipodi:arg2="1.1352564"
           inkscape:flatsided="true"
           inkscape:rounded="0"
           inkscape:randomized="0"
           d="M 124.5476,112.58402 100.81159,123.62941 75.116439,118.61364 57.27682,99.452573 54.10686,73.465074 66.817377,50.577491 90.553385,39.532102 l 25.695155,5.015767 17.83962,19.161073 3.16996,25.987498 z" />
        <path
           style="fill:#fc0;stroke:#fc0;stroke-width:0.26458332px;stroke-linecap:butt;stroke-linejoin:miter;stroke-opacity:1"
           d="m 137.25811,89.69644 10.26284,-8.700929 -10.56215,30.758319 -26.50906,18.71323 -9.63815,-6.83765 23.73601,-11.04539 z"
           id="path1534"
           inkscape:connector-curvature="0" />
        <path
           style="fill:#ffd42a;stroke:#ffd42a;stroke-width:0.26458332px;stroke-linecap:butt;stroke-linejoin:miter;stroke-opacity:1"
           d="m 110.44974,130.46706 -32.330427,-0.47968 -25.802656,-19.48937 4.960162,-11.045438 17.839619,19.161068 25.695152,5.01577 z"
           id="path1536"
           inkscape:connector-curvature="0" />
        <path
           style="fill:#fd5;stroke:#fd5;stroke-width:0.26458332px;stroke-linecap:butt;stroke-linejoin:miter;stroke-opacity:1"
           d="M 52.316657,110.49801 42.897504,79.443227 53.459654,48.684904 66.817377,50.57749 54.10686,73.465073 57.276819,99.452572 Z"
           id="path1538"
           inkscape:connector-curvature="0" />
        <path
           style="fill:#ffe680;stroke:#ffe680;stroke-width:0.26458332px;stroke-linecap:butt;stroke-linejoin:miter;stroke-opacity:1"
           d="m 53.459654,48.684904 26.509065,-18.71323 32.330421,0.479682 3.9494,14.096513 L 90.553383,39.532102 66.817377,50.57749 Z"
           id="path1540"
           inkscape:connector-curvature="0" />
        <path
           style="fill:yellow;stroke:yellow;stroke-width:0.26458332px;stroke-linecap:butt;stroke-linejoin:miter;stroke-opacity:1"
           d="m 112.29914,30.451356 25.80266,19.489372 9.41915,31.054783 -10.26284,8.700929 -3.16996,-25.987499 -17.83961,-19.161072 z"
           id="path1542"
           inkscape:connector-curvature="0" />
        <path
           sodipodi:type="star"
           style="fill:purple;fill-opacity:1;stroke:purple;stroke-width:0.26458332;stroke-opacity:1"
           id="path1544"
           sodipodi:sides="10"
           sodipodi:cx="95.415222"
           sodipodi:cy="79.977142"
           sodipodi:r1="32.554264"
           sodipodi:r2="26.954762"
           sodipodi:arg1="1.0557235"
           sodipodi:arg2="1.3698827"
           inkscape:flatsided="true"
           inkscape:rounded="0"
           inkscape:randomized="0"
           d="m 111.45139,108.30771 -19.714924,4.01517 -18.309768,-8.3398 -9.9109,-17.509259 2.273596,-19.990766 13.589655,-14.836484 19.714929,-4.015168 18.309772,8.339805 9.9109,17.509256 -2.2736,19.990766 z"
           inkscape:transform-center-x="-3.1694526e-06"
           transform="matrix(1.0374575,0.00784285,-0.00784611,1.0370272,-1.743789,-2.5069445)" />
        <path
           style="fill:#a40;stroke:#a40;stroke-width:0.26458332px;stroke-linecap:butt;stroke-linejoin:miter;stroke-opacity:1"
           d="m 127.2476,95.405942 10.01051,-5.709502 -12.71051,22.88758 -23.73601,11.04539 -8.263992,-8.935 20.484902,-4.00922 z"
           id="path1554"
           inkscape:connector-curvature="0" />
        <path
           style="fill:#f60;stroke:#f60;stroke-width:0.26458332px;stroke-linecap:butt;stroke-linejoin:miter;stroke-opacity:1"
           d="m 100.81159,123.62941 -25.695152,-5.01577 -17.839619,-19.161068 6.195849,-11.785669 10.144757,18.235307 18.930173,8.7922 z"
           id="path1556"
           inkscape:connector-curvature="0" />
        <path
           style="fill:#f95;stroke:#f95;stroke-width:0.26458332px;stroke-linecap:butt;stroke-linejoin:miter;stroke-opacity:1"
           d="M 57.276819,99.452572 54.10686,73.465073 66.817377,50.57749 80.203375,51.674511 65.988276,66.953767 63.472668,87.666903 Z"
           id="path1558"
           inkscape:connector-curvature="0" />
        <path
           style="fill:#ffb380;stroke:#ffb380;stroke-width:0.26458332px;stroke-linecap:butt;stroke-linejoin:miter;stroke-opacity:1"
           d="M 66.817377,50.57749 90.553383,39.532102 116.24854,44.547869 119.61845,56.4575 100.68828,47.665295 80.203375,51.674511 Z"
           id="path1560"
           inkscape:connector-curvature="0" />
        <path
           style="fill:#d45500;stroke:#d45500;stroke-width:0.26458332px;stroke-linecap:butt;stroke-linejoin:miter;stroke-opacity:1"
           d="m 116.24854,44.547869 17.83961,19.161072 3.16996,25.987499 -10.01051,5.709502 2.51561,-20.713139 L 119.61845,56.4575 Z"
           id="path1562"
           inkscape:connector-curvature="0" />
        <path
           sodipodi:type="star"
           style="fill:red;fill-opacity:1;stroke:#d45500;stroke-width:0.26458332;stroke-opacity:1"
           id="path1564"
           sodipodi:sides="10"
           sodipodi:cx="95.949753"
           sodipodi:cy="81.046219"
           sodipodi:r1="25.551861"
           sodipodi:r2="19.592306"
           sodipodi:arg1="1.2953702"
           sodipodi:arg2="1.6095295"
           inkscape:flatsided="true"
           inkscape:rounded="0"
           inkscape:randomized="0"
           d="M 102.89876,105.63501 87.118687,105.0235 74.71178,95.253474 70.417057,80.056763 75.874956,65.23799 l 13.125789,-8.780567 15.780075,0.611518 12.40691,9.770023 4.29472,15.196711 -5.4579,14.818773 z"
           inkscape:transform-center-x="1.1111678e-06" />
        <path
           style="fill:#660080;stroke:#660080;stroke-width:0.26458332px;stroke-linecap:butt;stroke-linejoin:miter;stroke-opacity:1"
           d="m 116.02455,96.854448 11.22305,-1.448506 -14.2151,15.279248 -20.484902,4.00922 -5.428912,-9.67091 15.780074,0.61151 z"
           id="path1568"
           inkscape:connector-curvature="0" />
        <path
           style="fill:#80a;stroke:#80a;stroke-width:0.26458332px;stroke-linecap:butt;stroke-linejoin:miter;stroke-opacity:1"
           d="m 92.547598,114.69441 -18.930173,-8.7922 -10.144757,-18.235307 6.944389,-7.610142 4.294722,15.196712 12.406905,9.770027 z"
           id="path1570"
           inkscape:connector-curvature="0" />
        <path
           style="fill:#d5f;stroke:#d5f;stroke-width:0.26458332px;stroke-linecap:butt;stroke-linejoin:miter;stroke-opacity:1"
           d="m 63.472668,87.666903 2.515608,-20.713136 14.215099,-15.279256 8.797369,4.782912 -13.125788,8.780566 -5.457899,14.818772 z"
           id="path1572"
           inkscape:connector-curvature="0" />
        <path
           style="fill:#e580ff;stroke:#e580ff;stroke-width:0.26458332px;stroke-linecap:butt;stroke-linejoin:miter;stroke-opacity:1"
           d="m 80.203375,51.674511 20.484905,-4.009216 18.93017,8.792205 -2.43073,10.381464 -12.4069,-9.770025 -15.780078,-0.611516 z"
           id="path1574"
           inkscape:connector-curvature="0" />
        <path
           style="fill:#405;stroke:#405;stroke-width:0.26458332px;stroke-linecap:butt;stroke-linejoin:miter;stroke-opacity:1"
           d="m 119.61845,56.4575 10.14476,18.235303 -2.51561,20.713139 -11.22305,1.448506 5.4579,-14.818773 -4.29473,-15.196711 z"
           id="path1576"
           inkscape:connector-curvature="0" />
        <path
           sodipodi:type="star"
           style="fill:red;fill-opacity:1;stroke:red;stroke-width:0.26458332;stroke-opacity:1"
           id="path1593"
           sodipodi:sides="10"
           sodipodi:cx="96.751572"
           sodipodi:cy="82.115303"
           sodipodi:r1="6.4367046"
           sodipodi:r2="16.724363"
           sodipodi:arg1="1.6539376"
           sodipodi:arg2="1.9680968"
           inkscape:flatsided="true"
           inkscape:rounded="0"
           inkscape:randomized="0"
           d="m 96.217032,88.529774 -3.668243,-1.53925 -2.062923,-3.401418 0.330363,-3.964361 2.597463,-3.013052 3.872419,-0.910861 3.668239,1.53925 2.06293,3.401418 -0.33037,3.964361 -2.59746,3.013052 z"
           inkscape:transform-center-x="1.1179021e-06" />
        <path
           style="fill:#500;stroke:#500;stroke-width:0.26458332px;stroke-linecap:butt;stroke-linejoin:miter;stroke-opacity:1"
           d="m 117.18772,66.838964 -14.17044,13.802535 -0.33037,3.96436 -2.59746,3.013054 15.9351,9.235535 5.4579,-14.818775 z"
           id="path1597"
           inkscape:connector-curvature="0" />
        <path
           style="fill:maroon;stroke:maroon;stroke-width:0.26458332px;stroke-linecap:butt;stroke-linejoin:miter;stroke-opacity:1"
           d="m 100.08945,87.618913 15.9351,9.235535 -13.12579,8.780562 -15.780074,-0.61151 5.430102,-18.032978 3.668242,1.539251 z"
           id="path1599"
           inkscape:connector-curvature="0" />
        <path
           style="fill:#a00;stroke:#a00;stroke-width:0.26458332px;stroke-linecap:butt;stroke-linejoin:miter;stroke-opacity:1"
           d="m 87.118684,105.0235 -12.406905,-9.770027 -4.294722,-15.196714 20.399171,-0.432015 -0.330364,3.964361 2.062924,3.401417 z"
           id="path1601"
           inkscape:connector-curvature="0" />
        <path
           style="fill:none;stroke:black;stroke-width:0.26458332px;stroke-linecap:butt;stroke-linejoin:miter;stroke-opacity:1"
           d="M 70.417057,80.056759 Z"
           id="path1603"
           inkscape:connector-curvature="0" />
        <path
           style="fill:#d40000;stroke:#d40000;stroke-width:0.26458332px;stroke-linecap:butt;stroke-linejoin:miter;stroke-opacity:1"
           d="m 75.874956,65.237989 13.125786,-8.780566 8.285368,19.243408 -3.87242,0.91086 -2.597462,3.013051 -20.399171,0.432017 v 2e-6 z"
           id="path1605"
           inkscape:connector-curvature="0" />
        <path
           style="fill:#ff2a2a;stroke:#ff2a2a;stroke-width:0.26458332px;stroke-linecap:butt;stroke-linejoin:miter;stroke-opacity:1"
           d="m 89.000744,56.457423 15.780076,0.611516 12.4069,9.770025 -14.17044,13.802535 -2.06293,-3.401418 -3.668242,-1.53925 z"
           id="path1607"
           inkscape:connector-curvature="0" />
      </g>
    </g>
  </g>
</svg>
