<?xml version="1.0" encoding="UTF-8" standalone="no"?>
<!-- Created with Inkscape (http://www.inkscape.org/) -->

<svg
   xmlns:dc="http://purl.org/dc/elements/1.1/"
   xmlns:cc="http://creativecommons.org/ns#"
   xmlns:rdf="http://www.w3.org/1999/02/22-rdf-syntax-ns#"
   xmlns:svg="http://www.w3.org/2000/svg"
   xmlns="http://www.w3.org/2000/svg"
   xmlns:sodipodi="http://sodipodi.sourceforge.net/DTD/sodipodi-0.dtd"
   xmlns:inkscape="http://www.inkscape.org/namespaces/inkscape"
   width="160mm"
   height="140mm"
   viewBox="0 0 160 140"
   version="1.1"
   id="svg8"
   inkscape:version="0.92.5 (2060ec1f9f, 2020-04-08)"
   sodipodi:docname="Humbanew Environment Logo - Design.svg"
   inkscape:export-filename="C:\Users\humba\Google Drive\Humbanew Projects\Humbanew Logotypes (Revolution)\Humbanew Environment Logo\Humbanew Environment Logo - Design.png"
   inkscape:export-xdpi="121"
   inkscape:export-ydpi="121">
  <defs
     id="defs2" />
  <sodipodi:namedview
     id="base"
     pagecolor="#ffffff"
     bordercolor="#666666"
     borderopacity="1.0"
     inkscape:pageopacity="0.0"
     inkscape:pageshadow="2"
     inkscape:zoom="0.35"
     inkscape:cx="44.285714"
     inkscape:cy="560"
     inkscape:document-units="mm"
     inkscape:current-layer="layer1"
     showgrid="false"
     inkscape:window-width="1366"
     inkscape:window-height="705"
     inkscape:window-x="-8"
     inkscape:window-y="-8"
     inkscape:window-maximized="1"
     showguides="false">
    <inkscape:grid
       type="xygrid"
       id="grid10" />
  </sodipodi:namedview>
  <metadata
     id="metadata5">
    <rdf:RDF>
      <cc:Work
         rdf:about="">
        <dc:format>image/svg+xml</dc:format>
        <dc:type
           rdf:resource="http://purl.org/dc/dcmitype/StillImage" />
        <dc:title></dc:title>
      </cc:Work>
    </rdf:RDF>
  </metadata>
  <g
     inkscape:label="Camada 1"
     inkscape:groupmode="layer"
     id="layer1"
     transform="translate(0,-157)">
    <g
       id="g857"
       style="stroke:none"
       transform="translate(-11.059856,134.23208)">
      <path
         transform="rotate(-2.0943229,90.948731,92.681104)"
         inkscape:transform-center-y="0.086812695"
         inkscape:transform-center-x="-0.1111266"
         d="M 143.97327,135.10525 108.98418,158.12394 67.147368,156.18038 34.443071,130.01694 23.363221,89.62717 38.139945,50.438588 73.129037,27.419899 l 41.836813,1.943563 32.7043,26.163437 11.07985,40.38977 z"
         inkscape:randomized="0"
         inkscape:rounded="0"
         inkscape:flatsided="true"
         sodipodi:arg2="0.98890021"
         sodipodi:arg1="0.67474094"
         sodipodi:r2="67.369148"
         sodipodi:r1="67.766396"
         sodipodi:cy="92.771919"
         sodipodi:cx="91.05661"
         sodipodi:sides="10"
         id="path12"
         style="opacity:0.98999999;fill:green;fill-opacity:1;stroke:none;stroke-width:0.12752916;stroke-linecap:square;stroke-linejoin:miter;stroke-miterlimit:4;stroke-dasharray:none;stroke-opacity:1"
         sodipodi:type="star" />
      <path
         transform="rotate(7.6632616,92.883135,128.75046)"
         d="m 136.44423,119.91878 -25.0805,24.27319 -34.557983,4.89548 L 45.970268,132.7353 30.635393,101.38149 36.658523,67.002118 61.739027,42.728926 96.297005,37.833452 127.13248,54.1856 142.46736,85.539406 Z"
         inkscape:randomized="0"
         inkscape:rounded="0"
         inkscape:flatsided="true"
         sodipodi:arg2="0.80175439"
         sodipodi:arg1="0.48759513"
         sodipodi:r2="53.710197"
         sodipodi:r1="56.474243"
         sodipodi:cy="93.460449"
         sodipodi:cx="86.551376"
         sodipodi:sides="10"
         id="path16"
         style="opacity:0.98999999;fill:#fc0;fill-opacity:1;stroke:none;stroke-width:0.12752916;stroke-linecap:square;stroke-linejoin:miter;stroke-miterlimit:4;stroke-dasharray:none;stroke-opacity:1"
         sodipodi:type="star" />
      <path
         transform="rotate(6.2287697,136.87369,144.54)"
         inkscape:transform-center-y="-1.3281166e-06"
         d="M 127.93341,124.2604 104.74099,144.23459 74.237386,146.76188 48.073949,130.87694 36.24422,102.64727 43.266752,72.855643 66.459178,52.881453 96.962779,50.35416 123.12622,66.239104 134.95595,94.468776 Z"
         inkscape:randomized="0"
         inkscape:rounded="0"
         inkscape:flatsided="true"
         sodipodi:arg2="0.85981432"
         sodipodi:arg1="0.54565505"
         sodipodi:r2="47.101051"
         sodipodi:r1="49.524975"
         sodipodi:cy="98.558022"
         sodipodi:cx="85.600082"
         sodipodi:sides="10"
         id="path20"
         style="opacity:0.98999999;fill:navy;fill-opacity:1;stroke:none;stroke-width:0.12752916;stroke-linecap:square;stroke-linejoin:miter;stroke-miterlimit:4;stroke-dasharray:none;stroke-opacity:1"
         sodipodi:type="star" />
      <path
         inkscape:connector-curvature="0"
         id="path22"
         d="M 45.394856,60.056003 36.63148,52.396686 23.296761,92.0991 l 12.548481,39.95788 33.638584,24.95079 41.879894,0.41335 -2.22418,-10.90266 -34.902157,0.24342 L 45.857869,126.44384 34.841005,93.325144 Z"
         style="fill:#6f0;stroke:none;stroke-width:0.26458332px;stroke-linecap:butt;stroke-linejoin:miter;stroke-opacity:1" />
      <path
         inkscape:connector-curvature="0"
         id="path829"
         d="M 36.63148,52.396686 70.755988,28.114707 112.63588,28.528057 108.39036,39.10068 73.488213,39.344102 45.394856,60.056003 Z"
         style="fill:#250;stroke:none;stroke-width:0.26458332px;stroke-linecap:butt;stroke-linejoin:miter;stroke-opacity:1" />
      <path
         inkscape:connector-curvature="0"
         id="path831"
         d="m 108.39036,39.10068 4.24552,-10.572623 33.63859,24.950793 12.54848,39.95788 -13.33472,39.70241 -34.12451,24.28198 -2.22418,-10.90266 28.09335,-20.7119 10.55385,-33.269141 -11.01686,-33.118697 z"
         style="fill:#112b00;stroke:none;stroke-width:0.26458332px;stroke-linecap:butt;stroke-linejoin:miter;stroke-opacity:1" />
      <path
         inkscape:connector-curvature="0"
         id="path833"
         d="M 109.13954,146.51846 104.96381,140.75004 74.366079,139.95282 50.080589,121.32296 41.383574,91.976426 51.596998,63.122608 45.394856,60.056003 34.841005,93.325142 45.857869,126.44384 74.237383,146.76188 Z"
         style="fill:#ffd42a;stroke:none;stroke-width:0.26458332px;stroke-linecap:butt;stroke-linejoin:miter;stroke-opacity:1" />
      <path
         inkscape:connector-curvature="0"
         id="path835"
         d="m 45.394856,60.056003 c 0,0 28.093354,-20.711901 28.093357,-20.711901 0,0 34.902147,-0.243422 34.902147,-0.243422 l -0.97295,7.479221 -30.59773,-0.797224 -25.222682,17.339931 z"
         style="fill:#806600;stroke:none;stroke-width:0.26458332px;stroke-linecap:butt;stroke-linejoin:miter;stroke-opacity:1" />
      <path
         inkscape:connector-curvature="0"
         id="path837"
         d="m 107.41741,46.579901 0.97295,-7.479221 28.37952,20.318042 11.01686,33.118697 -10.55385,33.269141 -28.09335,20.7119 -4.17573,-5.76842 25.22268,-17.33993 10.21343,-28.853817 -8.69702,-29.34653 z"
         style="fill:#540;stroke:none;stroke-width:0.26458332px;stroke-linecap:butt;stroke-linejoin:miter;stroke-opacity:1" />
      <path
         inkscape:connector-curvature="0"
         id="path839"
         d="M 107.41741,46.579901 88.446426,86.845237 51.596998,63.122608 76.81968,45.782677 Z"
         style="fill:#005;stroke:none;stroke-width:0.26458332px;stroke-linecap:butt;stroke-linejoin:miter;stroke-opacity:1" />
      <path
         inkscape:connector-curvature="0"
         id="path841"
         d="M 107.41741,46.579901 88.446424,86.845237 104.96381,140.75004 130.18649,123.41011 140.39992,94.556293 131.7029,65.209763 Z"
         style="fill:#00002b;stroke:none;stroke-width:0.26458332px;stroke-linecap:butt;stroke-linejoin:miter;stroke-opacity:1" />
      <path
         inkscape:connector-curvature="0"
         id="path843"
         d="M 51.596998,63.122608 88.446424,86.845237 104.96381,140.75004 74.366079,139.95282 50.080589,121.32296 41.383574,91.976426 Z"
         style="fill:blue;stroke:none;stroke-width:0.26458332px;stroke-linecap:butt;stroke-linejoin:miter;stroke-opacity:1" />
    </g>
  </g>
</svg>
