<?xml version="1.0" encoding="UTF-8" standalone="no"?>
<!-- Created with Inkscape (http://www.inkscape.org/) -->

<svg
   xmlns:dc="http://purl.org/dc/elements/1.1/"
   xmlns:cc="http://creativecommons.org/ns#"
   xmlns:rdf="http://www.w3.org/1999/02/22-rdf-syntax-ns#"
   xmlns:svg="http://www.w3.org/2000/svg"
   xmlns="http://www.w3.org/2000/svg"
   xmlns:sodipodi="http://sodipodi.sourceforge.net/DTD/sodipodi-0.dtd"
   xmlns:inkscape="http://www.inkscape.org/namespaces/inkscape"
   width="180mm"
   height="140mm"
   viewBox="0 0 180 140"
   version="1.1"
   id="svg8"
   inkscape:version="0.92.5 (2060ec1f9f, 2020-04-08)"
   sodipodi:docname="Humbanew Community Logo.svg"
   inkscape:export-filename="C:\Users\humba\Google Drive\Humbanew Projects\Humbanew Logotypes (Revolution)\Humbanew Community Logo (Design).png"
   inkscape:export-xdpi="120.46857"
   inkscape:export-ydpi="120.46857">
  <defs
     id="defs2" />
  <sodipodi:namedview
     id="base"
     pagecolor="#ffffff"
     bordercolor="#666666"
     borderopacity="1.0"
     inkscape:pageopacity="0.0"
     inkscape:pageshadow="2"
     inkscape:zoom="0.1767767"
     inkscape:cx="-131.31327"
     inkscape:cy="522.64046"
     inkscape:document-units="mm"
     inkscape:current-layer="g1088"
     showgrid="false"
     inkscape:window-width="1061"
     inkscape:window-height="582"
     inkscape:window-x="250"
     inkscape:window-y="41"
     inkscape:window-maximized="0">
    <inkscape:grid
       type="xygrid"
       id="grid975" />
  </sodipodi:namedview>
  <metadata
     id="metadata5">
    <rdf:RDF>
      <cc:Work
         rdf:about="">
        <dc:format>image/svg+xml</dc:format>
        <dc:type
           rdf:resource="http://purl.org/dc/dcmitype/StillImage" />
        <dc:title></dc:title>
      </cc:Work>
    </rdf:RDF>
  </metadata>
  <g
     inkscape:label="Camada 1"
     inkscape:groupmode="layer"
     id="layer1"
     transform="translate(0,-157)">
    <g
       id="g947"
       transform="translate(-10.583334)">
      <g
         id="g973">
        <g
           id="g1088"
           transform="translate(-33.704423,-38.407298)">
          <g
             id="g3772"
             transform="translate(-14.847217,147.42575)">
            <g
               id="g924">
              <path
                 inkscape:connector-curvature="0"
                 id="path881"
                 d="m 82.013439,162.38995 0.0108,-27.80577 19.669221,-19.65406 27.80571,0.0107 19.65406,19.66923 -0.0107,27.80577 -19.66922,19.65405 -27.80576,-0.0107 z"
                 style="fill:#214478;stroke:none;stroke-width:0.26458332px;stroke-linecap:butt;stroke-linejoin:miter;stroke-opacity:1" />
              <path
                 inkscape:connector-curvature="0"
                 id="path883"
                 d="m 94.182613,139.42372 12.686027,-12.47422 17.79097,0.14978 12.47423,12.68603 -0.14979,17.79097 -12.68603,12.47422 -17.79098,-0.15006 -12.474207,-12.68575 0.14978,-17.79097 12.686067,-12.47422 17.79093,0.14978 12.47423,12.68602 -0.14979,17.79098 -12.68603,12.47422 -17.79098,-0.15006 -12.474207,-12.68575 z"
                 style="fill:#00aad4;stroke:none;stroke-width:0.2147582px;stroke-linecap:butt;stroke-linejoin:miter;stroke-opacity:1" />
              <path
                 inkscape:connector-curvature="0"
                 id="path893"
                 d="m 94.00702,139.7746 -12.01939,-5.17525 0.0107,27.80577 19.66922,19.65405 27.80576,-0.0107 -4.83949,-12.15873 -17.79098,0.15006 -12.68603,-12.47422 z"
                 style="fill:#80e5ff;stroke:none;stroke-width:0.26458332px;stroke-linecap:butt;stroke-linejoin:miter;stroke-opacity:1" />
              <path
                 inkscape:connector-curvature="0"
                 id="path895"
                 d="m 94.007019,139.7746 20.897741,9.05873 9.72906,21.05641 -17.79098,0.15006 -12.68603,-12.47422 z"
                 style="fill:#aef;stroke:none;stroke-width:0.26458332px;stroke-linecap:butt;stroke-linejoin:miter;stroke-opacity:1"
                 sodipodi:nodetypes="cccccc" />
              <path
                 inkscape:connector-curvature="0"
                 id="path897"
                 d="m 81.987628,134.59935 19.705832,-19.66923 27.80571,0.0107 19.65406,19.66923 -12.01939,5.17526 -12.47423,-12.68603 -17.79097,-0.14978 -12.861621,12.8251 z"
                 style="fill:#06f;stroke:none;stroke-width:0.26458332px;stroke-linecap:butt;stroke-linejoin:miter;stroke-opacity:1"
                 sodipodi:nodetypes="ccccccccc" />
              <path
                 inkscape:connector-curvature="0"
                 id="path899"
                 d="m 94.007019,139.7746 12.861661,-12.8251 17.79093,0.14978 12.47423,12.68603 -22.22908,9.04802 z"
                 style="fill:#2a7fff;stroke:none;stroke-width:0.26458332px;stroke-linecap:butt;stroke-linejoin:miter;stroke-opacity:1"
                 sodipodi:nodetypes="cccccc" />
            </g>
            <g
               id="g916"
               transform="translate(245.67035,0.2217)">
              <path
                 inkscape:connector-curvature="0"
                 id="path881-8"
                 d="m -96.527824,162.19412 0.0108,-27.80577 19.669221,-19.65406 27.805709,0.0107 19.654063,19.66923 -0.0107,27.80577 -19.66922,19.65405 -27.805762,-0.0107 z"
                 style="fill:#00d400;stroke:none;stroke-width:0.26458332px;stroke-linecap:butt;stroke-linejoin:miter;stroke-opacity:1" />
              <path
                 inkscape:connector-curvature="0"
                 id="path883-3"
                 d="m -84.35865,139.22789 12.686027,-12.47422 17.790969,0.14978 12.474232,12.68603 -0.149792,17.79097 -12.68603,12.47422 -17.790979,-0.15006 -12.474207,-12.68575 0.14978,-17.79097 12.686067,-12.47422 17.790929,0.14978 12.474232,12.68602 -0.149792,17.79098 -12.68603,12.47422 -17.790979,-0.15006 -12.474207,-12.68575 z"
                 style="fill:lime;stroke:none;stroke-width:0.2147582px;stroke-linecap:butt;stroke-linejoin:miter;stroke-opacity:1" />
              <path
                 inkscape:connector-curvature="0"
                 id="path893-5"
                 d="m -84.534243,139.57877 -12.01939,-5.17525 0.0107,27.80577 19.66922,19.65405 27.805762,-0.0107 -4.839491,-12.15873 -17.790981,0.15006 -12.68603,-12.47422 z"
                 style="fill:#6f0;stroke:none;stroke-width:0.26458332px;stroke-linecap:butt;stroke-linejoin:miter;stroke-opacity:1" />
              <path
                 inkscape:connector-curvature="0"
                 id="path895-3"
                 d="m -84.534244,139.57877 20.897742,9.05873 9.72906,21.05641 -17.790981,0.15006 -12.68603,-12.47422 z"
                 style="fill:#5f5;stroke:none;stroke-width:0.26458332px;stroke-linecap:butt;stroke-linejoin:miter;stroke-opacity:1"
                 sodipodi:nodetypes="cccccc" />
              <path
                 inkscape:connector-curvature="0"
                 id="path897-4"
                 d="m -96.553635,134.40352 19.705832,-19.66923 27.805709,0.0107 19.654063,19.66923 -12.019391,5.17526 -12.474232,-12.68603 -17.790969,-0.14978 -12.861621,12.8251 z"
                 style="fill:#217821;stroke:none;stroke-width:0.26458332px;stroke-linecap:butt;stroke-linejoin:miter;stroke-opacity:1"
                 sodipodi:nodetypes="ccccccccc" />
              <path
                 inkscape:connector-curvature="0"
                 id="path899-6"
                 d="m -84.534243,139.57877 12.86166,-12.8251 17.790929,0.14978 12.474232,12.68603 -22.22908,9.04802 z"
                 style="fill:#37c837;stroke:none;stroke-width:0.26458332px;stroke-linecap:butt;stroke-linejoin:miter;stroke-opacity:1"
                 sodipodi:nodetypes="cccccc" />
            </g>
            <g
               id="g956"
               transform="translate(193.15472,4.7497394)">
              <path
                 inkscape:connector-curvature="0"
                 id="path881-7"
                 d="m -77.477824,96.577456 0.0108,-27.805771 19.669221,-19.65406 27.805709,0.0107 19.654063,19.66923 -0.0107,27.80577 -19.66922,19.654055 -27.805762,-0.0107 z"
                 style="fill:#d4aa00;stroke:none;stroke-width:0.26458332px;stroke-linecap:butt;stroke-linejoin:miter;stroke-opacity:1" />
              <path
                 inkscape:connector-curvature="0"
                 id="path883-4"
                 d="m -65.30865,73.611225 12.686027,-12.47422 17.790969,0.14978 12.474232,12.68603 -0.149792,17.790971 -12.68603,12.474224 -17.790979,-0.15007 -12.474207,-12.685744 0.14978,-17.790971 12.686067,-12.47422 17.790929,0.14978 12.474232,12.68602 -0.149792,17.790981 -12.68603,12.474224 -17.790979,-0.15007 -12.474207,-12.685744 z"
                 style="fill:yellow;stroke:none;stroke-width:0.2147582px;stroke-linecap:butt;stroke-linejoin:miter;stroke-opacity:1" />
              <path
                 inkscape:connector-curvature="0"
                 id="path893-2"
                 d="m -65.484243,73.962105 -12.01939,-5.17525 0.0107,27.80577 19.66922,19.654055 27.805762,-0.0107 -4.839491,-12.15874 -17.790981,0.15006 -12.68603,-12.474215 z"
                 style="fill:#fd5;stroke:none;stroke-width:0.26458332px;stroke-linecap:butt;stroke-linejoin:miter;stroke-opacity:1" />
              <path
                 inkscape:connector-curvature="0"
                 id="path895-5"
                 d="m -65.484244,73.962105 20.897742,9.058731 9.72906,21.056404 -17.790981,0.15007 -12.68603,-12.474225 z"
                 style="fill:#ffd42a;stroke:none;stroke-width:0.26458332px;stroke-linecap:butt;stroke-linejoin:miter;stroke-opacity:1"
                 sodipodi:nodetypes="cccccc" />
              <path
                 inkscape:connector-curvature="0"
                 id="path897-44"
                 d="m -77.503635,68.786855 19.705832,-19.66923 27.805709,0.0107 19.654063,19.66923 -12.019391,5.17526 -12.474232,-12.68603 -17.790969,-0.14978 -12.861621,12.8251 z"
                 style="fill:#a80;stroke:none;stroke-width:0.26458332px;stroke-linecap:butt;stroke-linejoin:miter;stroke-opacity:1"
                 sodipodi:nodetypes="ccccccccc" />
              <path
                 inkscape:connector-curvature="0"
                 id="path899-2"
                 d="m -65.484243,73.962105 12.861661,-12.8251 17.790928,0.14978 12.474232,12.68603 -22.229079,9.048021 z"
                 style="fill:#d4ff2a;stroke:none;stroke-width:0.26458332px;stroke-linecap:butt;stroke-linejoin:miter;stroke-opacity:1"
                 sodipodi:nodetypes="cccccc" />
            </g>
            <path
               style="fill:none;stroke:none;stroke-width:0.25953069px;stroke-linecap:butt;stroke-linejoin:miter;stroke-opacity:1"
               d="m 135.33101,121.01742 27.80576,-0.0103 -13.98354,13.6181 z"
               id="path958"
               inkscape:connector-curvature="0" />
            <path
               style="fill:none;stroke:none;stroke-width:0.18036318px;stroke-linecap:butt;stroke-linejoin:miter;stroke-opacity:1"
               d="m 140.35756,122.67682 17.75375,-0.009 -8.92837,10.301 z"
               id="path958-2"
               inkscape:connector-curvature="0" />
            <path
               style="fill:#fd5;fill-opacity:1;stroke:none;stroke-width:0.25431183px;stroke-linecap:butt;stroke-linejoin:miter;stroke-opacity:1"
               d="m 135.33101,121.01742 5.02655,1.6594 17.75375,-0.009 5.02546,-1.66083 z"
               id="path996"
               inkscape:connector-curvature="0" />
            <path
               style="fill:#06f;fill-opacity:1;stroke:none;stroke-width:0.25431183px;stroke-linecap:butt;stroke-linejoin:miter;stroke-opacity:1"
               d="m 135.33101,121.01742 5.02655,1.6594 8.82537,10.29213 -0.0297,1.65627 z"
               id="path998"
               inkscape:connector-curvature="0" />
            <path
               style="fill:#217821;fill-opacity:1;stroke:none;stroke-width:0.25431183px;stroke-linecap:butt;stroke-linejoin:miter;stroke-opacity:1"
               d="m 158.11131,122.66795 5.02546,-1.66083 -13.98354,13.6181 0.0297,-1.65627 z"
               id="path1000"
               inkscape:connector-curvature="0" />
            <path
               style="fill:lime;fill-opacity:1;stroke:none;stroke-width:0.25431183px;stroke-linecap:butt;stroke-linejoin:miter;stroke-opacity:1"
               d="m 158.11131,122.66795 -8.99749,3.28886 0.0691,7.01214 z"
               id="path1002"
               inkscape:connector-curvature="0" />
            <path
               style="fill:#0055d4;stroke:none;stroke-width:0.25431183px;stroke-linecap:butt;stroke-linejoin:miter;stroke-opacity:1"
               d="m 140.35756,122.67682 8.75626,3.27999 0.0691,7.01214 z"
               id="path1019"
               inkscape:connector-curvature="0" />
            <path
               style="fill:#ffd42a;fill-opacity:1;stroke:none;stroke-width:0.25431183px;stroke-linecap:butt;stroke-linejoin:miter;stroke-opacity:1"
               d="m 158.11131,122.66795 -8.99749,3.28886 -8.75626,-3.27999 z"
               id="path1021"
               inkscape:connector-curvature="0" />
          </g>
        </g>
      </g>
    </g>
  </g>
</svg>
