<svg width="10" height="6" viewBox="0 0 10 6" fill="none" xmlns="http://www.w3.org/2000/svg">
<path d="M6.86667 1.73333H6.26667V1.43333C6.26667 1.34444 6.23333 1.27778 6.16667 1.23333C6.1 1.16667 6.02222 1.13333 5.93333 1.13333H5.3V4.56667C5.3 4.65556 5.32222 4.73333 5.36667 4.8C5.43333 4.84444 5.51111 4.86667 5.6 4.86667H5.93333V5.5H4.03333V4.86667H4.36667C4.45556 4.86667 4.52222 4.84444 4.56667 4.8C4.63333 4.73333 4.66667 4.65556 4.66667 4.56667V1.13333H4.06667C3.97778 1.13333 3.9 1.16667 3.83333 1.23333C3.78889 1.27778 3.75556 1.34444 3.73333 1.43333V1.73333H3.13333V0.5H6.86667V1.73333ZM8.7 3.03333L7.76667 2.1L8.23333 1.66667L9.36667 2.8V3.26667L8.26667 4.36667L7.8 3.9L8.7 3.03333ZM2.23333 3.9L1.3 3L2.2 2.1L1.73333 1.66667L0.633333 2.76667V3.23333L1.76667 4.36667L2.23333 3.9Z" fill="black"/>
</svg>
