<svg width="300" height="51" viewBox="0 0 300 51" fill="none" xmlns="http://www.w3.org/2000/svg">
<path d="M189.094 0C188.906 0 188.754 0.152267 188.754 0.340097V49.8093C188.754 49.9972 188.906 50.1494 189.094 50.1494H200.535C200.723 50.1494 200.875 49.9972 200.875 49.8093V23.283C200.875 22.8749 201.463 22.8129 201.548 23.212L201.938 25.0396C201.943 25.063 201.945 25.0867 201.945 25.1106V32.5037C201.945 32.5649 201.962 32.6249 201.993 32.6775L212.279 49.9831C212.34 50.0862 212.451 50.1494 212.571 50.1494H224.158C224.346 50.1494 224.498 49.9972 224.498 49.8093V0.340098C224.498 0.152268 224.346 0 224.158 0H212.717C212.53 0 212.377 0.152267 212.377 0.340097V26.8664C212.377 27.2746 211.79 27.3366 211.705 26.9374L211.315 25.1098C211.31 25.0865 211.307 25.0627 211.307 25.0388V17.6457C211.307 17.5846 211.291 17.5246 211.259 17.472L200.974 0.166336C200.913 0.0632068 200.802 0 200.682 0H189.094Z" fill="white"/>
<path d="M158.581 0C151.003 0 151.003 5.01493 151.003 5.01495C151.003 5.01495 151.003 5.01495 151.003 5.01495V49.8093C151.003 49.9971 151.156 50.1494 151.343 50.1494H163.292C163.48 50.1494 163.632 49.9971 163.632 49.8093V30.4298C163.632 30.2419 163.785 30.0897 163.972 30.0897H173.778C173.966 30.0897 174.119 30.2419 174.119 30.4298V49.8093C174.119 49.9971 174.271 50.1494 174.459 50.1494H186.407C186.595 50.1494 186.748 49.9971 186.748 49.8093V13.3443C186.748 13.1565 186.595 13.0042 186.407 13.0042H174.459C174.271 13.0042 174.119 13.1565 174.119 13.3443V19.7197C174.119 19.9075 173.966 20.0598 173.778 20.0598H163.972C163.785 20.0598 163.632 19.9075 163.632 19.7197V12.8775C163.632 12.6896 163.785 12.5374 163.972 12.5374H186.407C186.595 12.5374 186.748 12.3851 186.748 12.1973V0.340098C186.748 0.152267 186.595 0 186.407 0H158.581Z" fill="white"/>
<path d="M113.593 0C113.405 0 113.252 0.152267 113.252 0.340097V49.8141C113.252 50.0019 113.405 50.1542 113.593 50.1542H125.376C125.564 50.1542 125.716 50.0019 125.716 49.8141V30.4326C125.716 30.2448 125.868 30.0925 126.056 30.0925H136.189C136.377 30.0925 136.529 30.2448 136.529 30.4326V37.1489C136.529 37.3368 136.377 37.489 136.189 37.489H126.52C126.333 37.489 126.18 37.6413 126.18 37.8291V49.8141C126.18 50.0019 126.333 50.1542 126.52 50.1542H144.008C148.993 50.1542 148.993 45.0881 148.993 45.0881C148.993 45.0881 148.993 45.0881 148.993 45.0881V27.2508C148.993 27.61 148.767 25.0771 146.5 25.0771H146.326C149.209 25.0771 148.993 22.3187 148.993 22.0419V5.01542C148.993 5.01542 148.993 5.01542 148.993 5.01542C148.993 5.01541 148.993 0 144.008 0H126.52C126.333 0 126.18 0.152267 126.18 0.340097V12.1985C126.18 12.3863 126.333 12.5385 126.52 12.5385H136.189C136.377 12.5385 136.529 12.6908 136.529 12.8786V19.7216C136.529 19.9094 136.377 20.0617 136.189 20.0617H126.056C125.868 20.0617 125.716 19.9094 125.716 19.7216V0.340097C125.716 0.152266 125.564 0 125.376 0H113.593Z" fill="white"/>
<path d="M75.8417 0C75.6539 0 75.5016 0.152267 75.5016 0.340097V49.8141C75.5016 50.0019 75.6539 50.1542 75.8417 50.1542H87.1314C87.3192 50.1542 87.4715 50.0019 87.4715 49.8141V21.5637C87.4715 21.2014 87.9624 21.0903 88.1185 21.4172L92.167 29.8989C92.2235 30.0172 92.3429 30.0925 92.4739 30.0925H94.2736C94.4047 30.0925 94.5241 30.0172 94.5806 29.8989L98.6291 21.4172C98.7851 21.0903 99.2761 21.2014 99.2761 21.5637V49.8141C99.2761 50.0019 99.4283 50.1542 99.6162 50.1542H110.906C111.094 50.1542 111.246 50.0019 111.246 49.8141V0.340098C111.246 0.152267 111.094 0 110.906 0H99.4929C99.3607 0 99.2404 0.0766718 99.1846 0.196573L94.2983 10.6937C94.1823 10.9429 93.8339 10.9586 93.6958 10.7209L87.5698 0.169336C87.5089 0.0645115 87.3969 0 87.2757 0H75.8417Z" fill="white"/>
<path d="M37.7508 45.1388C37.7508 45.1388 37.7508 45.1388 37.7508 45.1388V0.340097C37.7508 0.152267 37.9031 0 38.0909 0H49.9005C50.0884 0 50.2406 0.152266 50.2406 0.340097V37.2755C50.2406 37.4634 50.3929 37.6156 50.5807 37.6156H73.155C73.3428 37.6156 73.4951 37.7679 73.4951 37.9557V49.8141C73.4951 50.0019 73.3428 50.1542 73.155 50.1542H45.2447C37.7508 50.1542 37.7508 45.1388 37.7508 45.1388Z" fill="white"/>
<path d="M61.2176 37.4143C61.0297 37.4143 60.8775 37.262 60.8775 37.0742V0.340098C60.8775 0.152267 61.0297 0 61.2176 0H73.121C73.3088 0 73.4611 0.152268 73.4611 0.340098V37.0742C73.4611 37.262 73.3088 37.4143 73.121 37.4143H61.2176Z" fill="white"/>
<path d="M12.9237 32.365V20.3038C12.9237 20.1723 13.0303 20.0658 13.1618 20.0658H30.7296C30.7296 20.0658 35.7445 20.0657 35.7445 25.0807V49.9173C35.7445 50.0488 35.6379 50.1554 35.5064 50.1554H23.4452C23.3138 50.1554 23.2072 50.0488 23.2072 49.9173V32.8412C23.2072 32.7097 23.1006 32.6031 22.9691 32.6031H13.1618C13.0303 32.6031 12.9237 32.4965 12.9237 32.365Z" fill="white"/>
<path d="M23.1266 19.4876V0.238068C23.1266 0.106587 23.2332 0 23.3647 0H35.4259C35.5574 0 35.664 0.106586 35.664 0.238068V21.7211C35.664 21.9652 35.2979 22.0794 35.1421 21.8915C34.4319 21.0352 33.009 19.7257 30.9489 19.7257H23.3626C23.2311 19.7257 23.1266 19.6191 23.1266 19.4876Z" fill="white"/>
<path d="M12.2993 50.1494H0.238068C0.106587 50.1494 0 50.0428 0 49.9113V0.238068C0 0.106587 0.106587 0 0.238068 0H12.2993C12.4308 0 12.5373 0.106585 12.5373 0.238067V49.9113C12.5373 50.0428 12.4308 50.1494 12.2993 50.1494Z" fill="white"/>
<path d="M262.249 0.341297C262.249 0.152999 262.096 0.000538831 261.908 0.00120199L226.845 0.124688C226.658 0.125347 226.506 0.277421 226.506 0.464784L226.506 12.2834C226.506 12.4712 226.659 12.6235 226.847 12.6235H240.671C240.672 12.6235 240.672 12.6237 240.672 12.624C240.672 12.6242 240.672 12.6244 240.672 12.6244L261.911 12.5077C262.098 12.5067 262.249 12.3548 262.249 12.1677V0.341297Z" fill="white"/>
<path d="M226.506 22.1109V13.4055C226.506 13.2176 226.659 13.0654 226.847 13.0654H238.601C238.788 13.0654 238.941 13.2176 238.941 13.4055V19.3343C238.941 19.3359 238.939 19.3373 238.938 19.3373C238.936 19.3373 238.935 19.3386 238.935 19.3403V30.8688C238.935 30.8705 238.936 30.8718 238.938 30.8718C238.939 30.8718 238.941 30.8731 238.941 30.8748V37.1782C238.941 37.3661 239.093 37.5183 239.281 37.5183H261.909C262.097 37.5183 262.249 37.6706 262.249 37.8584V49.8107C262.249 49.9985 262.097 50.1508 261.909 50.1508H231.48C226.507 50.1508 226.506 45.0979 226.506 45.0978C226.506 45.0978 226.506 45.0978 226.506 45.0978V22.4064C226.504 22.3016 226.505 22.2116 226.506 22.1553C226.506 22.1365 226.506 22.1215 226.506 22.1109Z" fill="white"/>
<path d="M239.393 29.7786C239.393 29.9671 239.546 30.1196 239.735 30.1187L261.239 30.016C261.426 30.0151 261.577 29.8631 261.577 29.6759V20.3517C261.577 20.1632 261.424 20.0106 261.236 20.0116L239.731 20.1231C239.544 20.1241 239.393 20.2761 239.393 20.4632V29.7786Z" fill="white"/>
<path d="M264.256 45.2757C264.256 45.2757 264.256 45.2757 264.256 45.2757V0.340097C264.256 0.152267 264.408 0 264.596 0H274.373C274.561 0 274.714 0.152268 274.714 0.340099V37.3897C274.714 37.5775 274.866 37.7298 275.054 37.7298H276.54C276.727 37.7298 276.88 37.882 276.88 38.0699V45.6864C276.88 45.7059 276.881 45.7259 276.885 45.7451C277.608 49.8113 281.561 50.1508 281.561 50.1508H270.53C264.256 50.1508 264.256 45.2757 264.256 45.2757Z" fill="white"/>
<path d="M277.022 45.2757C277.022 45.2757 277.022 45.2757 277.022 45.2757V0.340097C277.022 0.152267 277.174 0 277.362 0H287.139C287.327 0 287.479 0.152268 287.479 0.340099V37.3897C287.479 37.5775 287.632 37.7298 287.819 37.7298H289.164C289.351 37.7298 289.504 37.882 289.504 38.0699V49.8107C289.504 49.9985 289.351 50.1508 289.164 50.1508H283.296C277.022 50.1508 277.022 45.2757 277.022 45.2757Z" fill="white"/>
<path d="M289.646 0.340098C289.646 0.152268 289.798 0 289.986 0H299.66C299.848 0 300 0.152267 300 0.340097V49.8107C300 49.9985 299.848 50.1508 299.66 50.1508H289.986C289.798 50.1508 289.646 49.9985 289.646 49.8107V0.340098Z" fill="white"/>
</svg>
