<svg width="100" height="100" viewBox="0 0 100 100" fill="none" xmlns="http://www.w3.org/2000/svg">
<path d="M0 96V81.3333C0 80.4678 0.280711 79.6257 0.799999 78.9333L58.8 1.6C59.5554 0.592777 60.741 0 62 0H96C98.2091 0 100 1.79086 100 4V18.6667C100 19.5321 99.7193 20.3743 99.2 21.0667L41.2 98.4C40.4446 99.4072 39.259 100 38 100H4C1.79086 100 0 98.2091 0 96Z" fill="#1F177A"/>
<path d="M0 96V4C0 1.79086 1.79086 0 4 0H36C38.2091 0 40 1.79086 40 4V96C40 98.2091 38.2091 100 36 100H4C1.79086 100 0 98.2091 0 96Z" fill="#07005C"/>
<path d="M60 96V4C60 1.79086 61.7909 0 64 0H96C98.2091 0 100 1.79086 100 4V96C100 98.2091 98.2091 100 96 100H64C61.7909 100 60 98.2091 60 96Z" fill="#31177A"/>
</svg>
