<svg width="264" height="49" viewBox="0 0 264 49" fill="none" xmlns="http://www.w3.org/2000/svg">
<rect x="1.5" y="1.5" width="261" height="46" rx="5.5" fill="#001489" fill-opacity="0.5" stroke="#10069F" stroke-width="3"/>
<path d="M35.3708 31V17H41.1308C42.0108 17 42.7841 17.18 43.4508 17.54C44.1308 17.8867 44.6574 18.38 45.0308 19.02C45.4174 19.66 45.6108 20.42 45.6108 21.3V21.58C45.6108 22.4467 45.4108 23.2067 45.0108 23.86C44.6241 24.5 44.0908 25 43.4108 25.36C42.7441 25.7067 41.9841 25.88 41.1308 25.88H38.0108V31H35.3708ZM38.0108 23.48H40.8708C41.4974 23.48 42.0041 23.3067 42.3908 22.96C42.7774 22.6133 42.9708 22.14 42.9708 21.54V21.34C42.9708 20.74 42.7774 20.2667 42.3908 19.92C42.0041 19.5733 41.4974 19.4 40.8708 19.4H38.0108V23.48ZM52.0067 31.28C51.0201 31.28 50.1334 31.08 49.3467 30.68C48.5601 30.28 47.9401 29.7 47.4867 28.94C47.0334 28.18 46.8067 27.2667 46.8067 26.2V25.88C46.8067 24.8133 47.0334 23.9 47.4867 23.14C47.9401 22.38 48.5601 21.8 49.3467 21.4C50.1334 21 51.0201 20.8 52.0067 20.8C52.9934 20.8 53.8801 21 54.6667 21.4C55.4534 21.8 56.0734 22.38 56.5267 23.14C56.9801 23.9 57.2067 24.8133 57.2067 25.88V26.2C57.2067 27.2667 56.9801 28.18 56.5267 28.94C56.0734 29.7 55.4534 30.28 54.6667 30.68C53.8801 31.08 52.9934 31.28 52.0067 31.28ZM52.0067 29.04C52.7801 29.04 53.4201 28.7933 53.9267 28.3C54.4334 27.7933 54.6867 27.0733 54.6867 26.14V25.94C54.6867 25.0067 54.4334 24.2933 53.9267 23.8C53.4334 23.2933 52.7934 23.04 52.0067 23.04C51.2334 23.04 50.5934 23.2933 50.0867 23.8C49.5801 24.2933 49.3267 25.0067 49.3267 25.94V26.14C49.3267 27.0733 49.5801 27.7933 50.0867 28.3C50.5934 28.7933 51.2334 29.04 52.0067 29.04ZM59.5328 31V21.08H62.0128V22.2H62.3728C62.5195 21.8 62.7595 21.5067 63.0928 21.32C63.4395 21.1333 63.8395 21.04 64.2928 21.04H65.4928V23.28H64.2528C63.6128 23.28 63.0861 23.4533 62.6728 23.8C62.2595 24.1333 62.0528 24.6533 62.0528 25.36V31H59.5328ZM71.2625 31C70.6092 31 70.0758 30.8 69.6625 30.4C69.2625 29.9867 69.0625 29.44 69.0625 28.76V23.16H66.5825V21.08H69.0625V18H71.5825V21.08H74.3025V23.16H71.5825V28.32C71.5825 28.72 71.7692 28.92 72.1425 28.92H74.0625V31H71.2625ZM80.3636 31.16C79.5903 31.16 78.9103 30.9867 78.3236 30.64C77.7503 30.28 77.3036 29.7867 76.9836 29.16C76.6636 28.5333 76.5036 27.8133 76.5036 27V21.08H79.0236V26.8C79.0236 27.5467 79.2036 28.1067 79.5636 28.48C79.9369 28.8533 80.4636 29.04 81.1436 29.04C81.9169 29.04 82.5169 28.7867 82.9436 28.28C83.3703 27.76 83.5836 27.04 83.5836 26.12V21.08H86.1036V31H83.6236V29.7H83.2636C83.1036 30.0333 82.8036 30.36 82.3636 30.68C81.9236 31 81.2569 31.16 80.3636 31.16ZM88.4278 26.08V25.76C88.4278 24.72 88.6345 23.8333 89.0478 23.1C89.4611 22.3533 90.0078 21.7867 90.6878 21.4C91.3811 21 92.1345 20.8 92.9478 20.8C93.8545 20.8 94.5411 20.96 95.0078 21.28C95.4745 21.6 95.8145 21.9333 96.0278 22.28H96.3878V21.08H98.8678V32.76C98.8678 33.44 98.6678 33.98 98.2678 34.38C97.8678 34.7933 97.3345 35 96.6678 35H90.0278V32.8H95.7878C96.1611 32.8 96.3478 32.6 96.3478 32.2V29.62H95.9878C95.8545 29.8333 95.6678 30.0533 95.4278 30.28C95.1878 30.4933 94.8678 30.6733 94.4678 30.82C94.0678 30.9667 93.5611 31.04 92.9478 31.04C92.1345 31.04 91.3811 30.8467 90.6878 30.46C90.0078 30.06 89.4611 29.4933 89.0478 28.76C88.6345 28.0133 88.4278 27.12 88.4278 26.08ZM93.6678 28.84C94.4411 28.84 95.0878 28.5933 95.6078 28.1C96.1278 27.6067 96.3878 26.9133 96.3878 26.02V25.82C96.3878 24.9133 96.1278 24.22 95.6078 23.74C95.1011 23.2467 94.4545 23 93.6678 23C92.8945 23 92.2478 23.2467 91.7278 23.74C91.2078 24.22 90.9478 24.9133 90.9478 25.82V26.02C90.9478 26.9133 91.2078 27.6067 91.7278 28.1C92.2478 28.5933 92.8945 28.84 93.6678 28.84ZM105.442 31.16C104.668 31.16 103.988 30.9867 103.402 30.64C102.828 30.28 102.382 29.7867 102.062 29.16C101.742 28.5333 101.582 27.8133 101.582 27V21.08H104.102V26.8C104.102 27.5467 104.282 28.1067 104.642 28.48C105.015 28.8533 105.542 29.04 106.222 29.04C106.995 29.04 107.595 28.7867 108.022 28.28C108.448 27.76 108.662 27.04 108.662 26.12V21.08H111.182V31H108.702V29.7H108.342C108.182 30.0333 107.882 30.36 107.442 30.68C107.002 31 106.335 31.16 105.442 31.16ZM118.506 31.28C117.519 31.28 116.646 31.0733 115.886 30.66C115.139 30.2333 114.553 29.64 114.126 28.88C113.713 28.1067 113.506 27.2 113.506 26.16V25.92C113.506 24.88 113.713 23.98 114.126 23.22C114.539 22.4467 115.119 21.8533 115.866 21.44C116.613 21.0133 117.479 20.8 118.466 20.8C119.439 20.8 120.286 21.02 121.006 21.46C121.726 21.8867 122.286 22.4867 122.686 23.26C123.086 24.02 123.286 24.9067 123.286 25.92V26.78H116.066C116.093 27.46 116.346 28.0133 116.826 28.44C117.306 28.8667 117.893 29.08 118.586 29.08C119.293 29.08 119.813 28.9267 120.146 28.62C120.479 28.3133 120.733 27.9733 120.906 27.6L122.966 28.68C122.779 29.0267 122.506 29.4067 122.146 29.82C121.799 30.22 121.333 30.5667 120.746 30.86C120.159 31.14 119.413 31.28 118.506 31.28ZM116.086 24.9H120.726C120.673 24.3267 120.439 23.8667 120.026 23.52C119.626 23.1733 119.099 23 118.446 23C117.766 23 117.226 23.1733 116.826 23.52C116.426 23.8667 116.179 24.3267 116.086 24.9ZM114.626 19.96L116.966 17H119.966L122.306 19.96H119.766L118.646 18.48H118.286L117.166 19.96H114.626ZM129.649 31.28C128.356 31.28 127.296 31 126.469 30.44C125.642 29.88 125.142 29.08 124.969 28.04L127.289 27.44C127.382 27.9067 127.536 28.2733 127.749 28.54C127.976 28.8067 128.249 29 128.569 29.12C128.902 29.2267 129.262 29.28 129.649 29.28C130.236 29.28 130.669 29.18 130.949 28.98C131.229 28.7667 131.369 28.5067 131.369 28.2C131.369 27.8933 131.236 27.66 130.969 27.5C130.702 27.3267 130.276 27.1867 129.689 27.08L129.129 26.98C128.436 26.8467 127.802 26.6667 127.229 26.44C126.656 26.2 126.196 25.8733 125.849 25.46C125.502 25.0467 125.329 24.5133 125.329 23.86C125.329 22.8733 125.689 22.12 126.409 21.6C127.129 21.0667 128.076 20.8 129.249 20.8C130.356 20.8 131.276 21.0467 132.009 21.54C132.742 22.0333 133.222 22.68 133.449 23.48L131.109 24.2C131.002 23.6933 130.782 23.3333 130.449 23.12C130.129 22.9067 129.729 22.8 129.249 22.8C128.769 22.8 128.402 22.8867 128.149 23.06C127.896 23.22 127.769 23.4467 127.769 23.74C127.769 24.06 127.902 24.3 128.169 24.46C128.436 24.6067 128.796 24.72 129.249 24.8L129.809 24.9C130.556 25.0333 131.229 25.2133 131.829 25.44C132.442 25.6533 132.922 25.9667 133.269 26.38C133.629 26.78 133.809 27.3267 133.809 28.02C133.809 29.06 133.429 29.8667 132.669 30.44C131.922 31 130.916 31.28 129.649 31.28ZM140.615 31V28.68H142.455V19.32H140.615V17H147.815C148.669 17 149.409 17.1467 150.035 17.44C150.675 17.72 151.169 18.1267 151.515 18.66C151.875 19.18 152.055 19.8067 152.055 20.54V20.74C152.055 21.38 151.935 21.9067 151.695 22.32C151.455 22.72 151.169 23.0333 150.835 23.26C150.515 23.4733 150.209 23.6267 149.915 23.72V24.08C150.209 24.16 150.529 24.3133 150.875 24.54C151.222 24.7533 151.515 25.0667 151.755 25.48C152.009 25.8933 152.135 26.4333 152.135 27.1V27.3C152.135 28.0733 151.955 28.74 151.595 29.3C151.235 29.8467 150.735 30.2667 150.095 30.56C149.469 30.8533 148.735 31 147.895 31H140.615ZM145.095 28.6H147.575C148.149 28.6 148.609 28.46 148.955 28.18C149.315 27.9 149.495 27.5 149.495 26.98V26.78C149.495 26.26 149.322 25.86 148.975 25.58C148.629 25.3 148.162 25.16 147.575 25.16H145.095V28.6ZM145.095 22.76H147.535C148.082 22.76 148.529 22.62 148.875 22.34C149.235 22.06 149.415 21.6733 149.415 21.18V20.98C149.415 20.4733 149.242 20.0867 148.895 19.82C148.549 19.54 148.095 19.4 147.535 19.4H145.095V22.76ZM154.377 31V21.08H156.857V22.2H157.217C157.363 21.8 157.603 21.5067 157.937 21.32C158.283 21.1333 158.683 21.04 159.137 21.04H160.337V23.28H159.097C158.457 23.28 157.93 23.4533 157.517 23.8C157.103 24.1333 156.897 24.6533 156.897 25.36V31H154.377ZM165.152 31.28C164.445 31.28 163.812 31.16 163.252 30.92C162.692 30.6667 162.245 30.3067 161.912 29.84C161.592 29.36 161.432 28.78 161.432 28.1C161.432 27.42 161.592 26.8533 161.912 26.4C162.245 25.9333 162.699 25.5867 163.272 25.36C163.859 25.12 164.525 25 165.272 25H167.992V24.44C167.992 23.9733 167.845 23.5933 167.552 23.3C167.259 22.9933 166.792 22.84 166.152 22.84C165.525 22.84 165.059 22.9867 164.752 23.28C164.445 23.56 164.245 23.9267 164.152 24.38L161.832 23.6C161.992 23.0933 162.245 22.6333 162.592 22.22C162.952 21.7933 163.425 21.4533 164.012 21.2C164.612 20.9333 165.339 20.8 166.192 20.8C167.499 20.8 168.532 21.1267 169.292 21.78C170.052 22.4333 170.432 23.38 170.432 24.62V28.32C170.432 28.72 170.619 28.92 170.992 28.92H171.792V31H170.112C169.619 31 169.212 30.88 168.892 30.64C168.572 30.4 168.412 30.08 168.412 29.68V29.66H168.032C167.979 29.82 167.859 30.0333 167.672 30.3C167.485 30.5533 167.192 30.78 166.792 30.98C166.392 31.18 165.845 31.28 165.152 31.28ZM165.592 29.24C166.299 29.24 166.872 29.0467 167.312 28.66C167.765 28.26 167.992 27.7333 167.992 27.08V26.88H165.452C164.985 26.88 164.619 26.98 164.352 27.18C164.085 27.38 163.952 27.66 163.952 28.02C163.952 28.38 164.092 28.6733 164.372 28.9C164.652 29.1267 165.059 29.24 165.592 29.24ZM177.676 31.28C176.383 31.28 175.323 31 174.496 30.44C173.67 29.88 173.17 29.08 172.996 28.04L175.316 27.44C175.41 27.9067 175.563 28.2733 175.776 28.54C176.003 28.8067 176.276 29 176.596 29.12C176.93 29.2267 177.29 29.28 177.676 29.28C178.263 29.28 178.696 29.18 178.976 28.98C179.256 28.7667 179.396 28.5067 179.396 28.2C179.396 27.8933 179.263 27.66 178.996 27.5C178.73 27.3267 178.303 27.1867 177.716 27.08L177.156 26.98C176.463 26.8467 175.83 26.6667 175.256 26.44C174.683 26.2 174.223 25.8733 173.876 25.46C173.53 25.0467 173.356 24.5133 173.356 23.86C173.356 22.8733 173.716 22.12 174.436 21.6C175.156 21.0667 176.103 20.8 177.276 20.8C178.383 20.8 179.303 21.0467 180.036 21.54C180.77 22.0333 181.25 22.68 181.476 23.48L179.136 24.2C179.03 23.6933 178.81 23.3333 178.476 23.12C178.156 22.9067 177.756 22.8 177.276 22.8C176.796 22.8 176.43 22.8867 176.176 23.06C175.923 23.22 175.796 23.4467 175.796 23.74C175.796 24.06 175.93 24.3 176.196 24.46C176.463 24.6067 176.823 24.72 177.276 24.8L177.836 24.9C178.583 25.0333 179.256 25.2133 179.856 25.44C180.47 25.6533 180.95 25.9667 181.296 26.38C181.656 26.78 181.836 27.3267 181.836 28.02C181.836 29.06 181.456 29.8667 180.696 30.44C179.95 31 178.943 31.28 177.676 31.28ZM184.045 31V21.08H186.565V31H184.045ZM185.305 19.92C184.851 19.92 184.465 19.7733 184.145 19.48C183.838 19.1867 183.685 18.8 183.685 18.32C183.685 17.84 183.838 17.4533 184.145 17.16C184.465 16.8667 184.851 16.72 185.305 16.72C185.771 16.72 186.158 16.8667 186.465 17.16C186.771 17.4533 186.925 17.84 186.925 18.32C186.925 18.8 186.771 19.1867 186.465 19.48C186.158 19.7733 185.771 19.92 185.305 19.92ZM189.357 31V17H191.877V31H189.357ZM199.19 31.28C198.203 31.28 197.33 31.0733 196.57 30.66C195.823 30.2333 195.236 29.64 194.81 28.88C194.396 28.1067 194.19 27.2 194.19 26.16V25.92C194.19 24.88 194.396 23.98 194.81 23.22C195.223 22.4467 195.803 21.8533 196.55 21.44C197.296 21.0133 198.163 20.8 199.15 20.8C200.123 20.8 200.97 21.02 201.69 21.46C202.41 21.8867 202.97 22.4867 203.37 23.26C203.77 24.02 203.97 24.9067 203.97 25.92V26.78H196.75C196.776 27.46 197.03 28.0133 197.51 28.44C197.99 28.8667 198.576 29.08 199.27 29.08C199.976 29.08 200.496 28.9267 200.83 28.62C201.163 28.3133 201.416 27.9733 201.59 27.6L203.65 28.68C203.463 29.0267 203.19 29.4067 202.83 29.82C202.483 30.22 202.016 30.5667 201.43 30.86C200.843 31.14 200.096 31.28 199.19 31.28ZM196.77 24.9H201.41C201.356 24.3267 201.123 23.8667 200.71 23.52C200.31 23.1733 199.783 23 199.13 23C198.45 23 197.91 23.1733 197.51 23.52C197.11 23.8667 196.863 24.3267 196.77 24.9ZM206.213 31V21.08H208.733V31H206.213ZM207.473 19.92C207.019 19.92 206.633 19.7733 206.313 19.48C206.006 19.1867 205.853 18.8 205.853 18.32C205.853 17.84 206.006 17.4533 206.313 17.16C206.633 16.8667 207.019 16.72 207.473 16.72C207.939 16.72 208.326 16.8667 208.633 17.16C208.939 17.4533 209.093 17.84 209.093 18.32C209.093 18.8 208.939 19.1867 208.633 19.48C208.326 19.7733 207.939 19.92 207.473 19.92ZM211.525 31V21.08H214.005V22.2H214.365C214.512 21.8 214.752 21.5067 215.085 21.32C215.432 21.1333 215.832 21.04 216.285 21.04H217.485V23.28H216.245C215.605 23.28 215.078 23.4533 214.665 23.8C214.252 24.1333 214.045 24.6533 214.045 25.36V31H211.525ZM223.823 31.28C222.836 31.28 221.95 31.08 221.163 30.68C220.376 30.28 219.756 29.7 219.303 28.94C218.85 28.18 218.623 27.2667 218.623 26.2V25.88C218.623 24.8133 218.85 23.9 219.303 23.14C219.756 22.38 220.376 21.8 221.163 21.4C221.95 21 222.836 20.8 223.823 20.8C224.81 20.8 225.696 21 226.483 21.4C227.27 21.8 227.89 22.38 228.343 23.14C228.796 23.9 229.023 24.8133 229.023 25.88V26.2C229.023 27.2667 228.796 28.18 228.343 28.94C227.89 29.7 227.27 30.28 226.483 30.68C225.696 31.08 224.81 31.28 223.823 31.28ZM223.823 29.04C224.596 29.04 225.236 28.7933 225.743 28.3C226.25 27.7933 226.503 27.0733 226.503 26.14V25.94C226.503 25.0067 226.25 24.2933 225.743 23.8C225.25 23.2933 224.61 23.04 223.823 23.04C223.05 23.04 222.41 23.2933 221.903 23.8C221.396 24.2933 221.143 25.0067 221.143 25.94V26.14C221.143 27.0733 221.396 27.7933 221.903 28.3C222.41 28.7933 223.05 29.04 223.823 29.04Z" fill="white"/>
</svg>
