<svg width="264" height="49" viewBox="0 0 264 49" fill="none" xmlns="http://www.w3.org/2000/svg">
<rect x="1.5" y="1.5" width="261" height="46" rx="5.5" fill="#3C302F" fill-opacity="0.5" stroke="#2E272A" stroke-width="3"/>
<path d="M33.6813 32V18H36.3213V32H33.6813ZM39.0348 32V22.08H41.5148V23.38H41.8748C42.0348 23.0333 42.3348 22.7067 42.7748 22.4C43.2148 22.08 43.8814 21.92 44.7748 21.92C45.5481 21.92 46.2214 22.1 46.7948 22.46C47.3814 22.8067 47.8348 23.2933 48.1548 23.92C48.4748 24.5333 48.6348 25.2533 48.6348 26.08V32H46.1148V26.28C46.1148 25.5333 45.9281 24.9733 45.5548 24.6C45.1948 24.2267 44.6748 24.04 43.9948 24.04C43.2214 24.04 42.6214 24.3 42.1948 24.82C41.7681 25.3267 41.5548 26.04 41.5548 26.96V32H39.0348ZM54.8855 32C54.2322 32 53.6989 31.8 53.2855 31.4C52.8855 30.9867 52.6855 30.44 52.6855 29.76V24.16H50.2055V22.08H52.6855V19H55.2055V22.08H57.9255V24.16H55.2055V29.32C55.2055 29.72 55.3922 29.92 55.7655 29.92H57.6855V32H54.8855ZM64.3751 32.28C63.3884 32.28 62.5151 32.0733 61.7551 31.66C61.0084 31.2333 60.4217 30.64 59.9951 29.88C59.5817 29.1067 59.3751 28.2 59.3751 27.16V26.92C59.3751 25.88 59.5817 24.98 59.9951 24.22C60.4084 23.4467 60.9884 22.8533 61.7351 22.44C62.4817 22.0133 63.3484 21.8 64.3351 21.8C65.3084 21.8 66.1551 22.02 66.8751 22.46C67.5951 22.8867 68.1551 23.4867 68.5551 24.26C68.9551 25.02 69.1551 25.9067 69.1551 26.92V27.78H61.9351C61.9617 28.46 62.2151 29.0133 62.6951 29.44C63.1751 29.8667 63.7617 30.08 64.4551 30.08C65.1617 30.08 65.6817 29.9267 66.0151 29.62C66.3484 29.3133 66.6017 28.9733 66.7751 28.6L68.8351 29.68C68.6484 30.0267 68.3751 30.4067 68.0151 30.82C67.6684 31.22 67.2017 31.5667 66.6151 31.86C66.0284 32.14 65.2817 32.28 64.3751 32.28ZM61.9551 25.9H66.5951C66.5417 25.3267 66.3084 24.8667 65.8951 24.52C65.4951 24.1733 64.9684 24 64.3151 24C63.6351 24 63.0951 24.1733 62.6951 24.52C62.2951 24.8667 62.0484 25.3267 61.9551 25.9ZM71.398 32V22.08H73.878V23.2H74.238C74.3847 22.8 74.6247 22.5067 74.958 22.32C75.3047 22.1333 75.7047 22.04 76.158 22.04H77.358V24.28H76.118C75.478 24.28 74.9514 24.4533 74.538 24.8C74.1247 25.1333 73.918 25.6533 73.918 26.36V32H71.398ZM79.3277 32V22.08H81.8077V23.38H82.1677C82.3277 23.0333 82.6277 22.7067 83.0677 22.4C83.5077 22.08 84.1744 21.92 85.0677 21.92C85.8411 21.92 86.5144 22.1 87.0877 22.46C87.6744 22.8067 88.1277 23.2933 88.4477 23.92C88.7677 24.5333 88.9277 25.2533 88.9277 26.08V32H86.4077V26.28C86.4077 25.5333 86.2211 24.9733 85.8477 24.6C85.4877 24.2267 84.9677 24.04 84.2877 24.04C83.5144 24.04 82.9144 24.3 82.4877 24.82C82.0611 25.3267 81.8477 26.04 81.8477 26.96V32H79.3277ZM94.732 32.28C94.0253 32.28 93.392 32.16 92.832 31.92C92.272 31.6667 91.8253 31.3067 91.492 30.84C91.172 30.36 91.012 29.78 91.012 29.1C91.012 28.42 91.172 27.8533 91.492 27.4C91.8253 26.9333 92.2786 26.5867 92.852 26.36C93.4386 26.12 94.1053 26 94.852 26H97.572V25.44C97.572 24.9733 97.4253 24.5933 97.132 24.3C96.8386 23.9933 96.372 23.84 95.732 23.84C95.1053 23.84 94.6386 23.9867 94.332 24.28C94.0253 24.56 93.8253 24.9267 93.732 25.38L91.412 24.6C91.572 24.0933 91.8253 23.6333 92.172 23.22C92.532 22.7933 93.0053 22.4533 93.592 22.2C94.192 21.9333 94.9186 21.8 95.772 21.8C97.0786 21.8 98.112 22.1267 98.872 22.78C99.632 23.4333 100.012 24.38 100.012 25.62V29.32C100.012 29.72 100.199 29.92 100.572 29.92H101.372V32H99.692C99.1986 32 98.792 31.88 98.472 31.64C98.152 31.4 97.992 31.08 97.992 30.68V30.66H97.612C97.5586 30.82 97.4386 31.0333 97.252 31.3C97.0653 31.5533 96.772 31.78 96.372 31.98C95.972 32.18 95.4253 32.28 94.732 32.28ZM95.172 30.24C95.8786 30.24 96.452 30.0467 96.892 29.66C97.3453 29.26 97.572 28.7333 97.572 28.08V27.88H95.032C94.5653 27.88 94.1986 27.98 93.932 28.18C93.6653 28.38 93.532 28.66 93.532 29.02C93.532 29.38 93.672 29.6733 93.952 29.9C94.232 30.1267 94.6386 30.24 95.172 30.24ZM106.292 32C105.638 32 105.105 31.8 104.692 31.4C104.292 30.9867 104.092 30.44 104.092 29.76V24.16H101.612V22.08H104.092V19H106.612V22.08H109.332V24.16H106.612V29.32C106.612 29.72 106.798 29.92 107.172 29.92H109.092V32H106.292ZM111.613 32V22.08H114.133V32H111.613ZM112.873 20.92C112.42 20.92 112.033 20.7733 111.713 20.48C111.406 20.1867 111.253 19.8 111.253 19.32C111.253 18.84 111.406 18.4533 111.713 18.16C112.033 17.8667 112.42 17.72 112.873 17.72C113.34 17.72 113.726 17.8667 114.033 18.16C114.34 18.4533 114.493 18.84 114.493 19.32C114.493 19.8 114.34 20.1867 114.033 20.48C113.726 20.7733 113.34 20.92 112.873 20.92ZM121.645 32.28C120.659 32.28 119.772 32.08 118.985 31.68C118.199 31.28 117.579 30.7 117.125 29.94C116.672 29.18 116.445 28.2667 116.445 27.2V26.88C116.445 25.8133 116.672 24.9 117.125 24.14C117.579 23.38 118.199 22.8 118.985 22.4C119.772 22 120.659 21.8 121.645 21.8C122.632 21.8 123.519 22 124.305 22.4C125.092 22.8 125.712 23.38 126.165 24.14C126.619 24.9 126.845 25.8133 126.845 26.88V27.2C126.845 28.2667 126.619 29.18 126.165 29.94C125.712 30.7 125.092 31.28 124.305 31.68C123.519 32.08 122.632 32.28 121.645 32.28ZM121.645 30.04C122.419 30.04 123.059 29.7933 123.565 29.3C124.072 28.7933 124.325 28.0733 124.325 27.14V26.94C124.325 26.0067 124.072 25.2933 123.565 24.8C123.072 24.2933 122.432 24.04 121.645 24.04C120.872 24.04 120.232 24.2933 119.725 24.8C119.219 25.2933 118.965 26.0067 118.965 26.94V27.14C118.965 28.0733 119.219 28.7933 119.725 29.3C120.232 29.7933 120.872 30.04 121.645 30.04ZM129.171 32V22.08H131.651V23.38H132.011C132.171 23.0333 132.471 22.7067 132.911 22.4C133.351 22.08 134.018 21.92 134.911 21.92C135.685 21.92 136.358 22.1 136.931 22.46C137.518 22.8067 137.971 23.2933 138.291 23.92C138.611 24.5333 138.771 25.2533 138.771 26.08V32H136.251V26.28C136.251 25.5333 136.065 24.9733 135.691 24.6C135.331 24.2267 134.811 24.04 134.131 24.04C133.358 24.04 132.758 24.3 132.331 24.82C131.905 25.3267 131.691 26.04 131.691 26.96V32H129.171ZM144.576 32.28C143.869 32.28 143.236 32.16 142.676 31.92C142.116 31.6667 141.669 31.3067 141.336 30.84C141.016 30.36 140.856 29.78 140.856 29.1C140.856 28.42 141.016 27.8533 141.336 27.4C141.669 26.9333 142.122 26.5867 142.696 26.36C143.282 26.12 143.949 26 144.696 26H147.416V25.44C147.416 24.9733 147.269 24.5933 146.976 24.3C146.682 23.9933 146.216 23.84 145.576 23.84C144.949 23.84 144.482 23.9867 144.176 24.28C143.869 24.56 143.669 24.9267 143.576 25.38L141.256 24.6C141.416 24.0933 141.669 23.6333 142.016 23.22C142.376 22.7933 142.849 22.4533 143.436 22.2C144.036 21.9333 144.762 21.8 145.616 21.8C146.922 21.8 147.956 22.1267 148.716 22.78C149.476 23.4333 149.856 24.38 149.856 25.62V29.32C149.856 29.72 150.042 29.92 150.416 29.92H151.216V32H149.536C149.042 32 148.636 31.88 148.316 31.64C147.996 31.4 147.836 31.08 147.836 30.68V30.66H147.456C147.402 30.82 147.282 31.0333 147.096 31.3C146.909 31.5533 146.616 31.78 146.216 31.98C145.816 32.18 145.269 32.28 144.576 32.28ZM145.016 30.24C145.722 30.24 146.296 30.0467 146.736 29.66C147.189 29.26 147.416 28.7333 147.416 28.08V27.88H144.876C144.409 27.88 144.042 27.98 143.776 28.18C143.509 28.38 143.376 28.66 143.376 29.02C143.376 29.38 143.516 29.6733 143.796 29.9C144.076 30.1267 144.482 30.24 145.016 30.24ZM153.058 32V18H155.578V32H153.058ZM163.369 32V18H172.369V20.4H166.009V23.74H171.809V26.14H166.009V29.6H172.489V32H163.369ZM174.523 32V22.08H177.003V23.38H177.363C177.523 23.0333 177.823 22.7067 178.263 22.4C178.703 22.08 179.37 21.92 180.263 21.92C181.036 21.92 181.71 22.1 182.283 22.46C182.87 22.8067 183.323 23.2933 183.643 23.92C183.963 24.5333 184.123 25.2533 184.123 26.08V32H181.603V26.28C181.603 25.5333 181.416 24.9733 181.043 24.6C180.683 24.2267 180.163 24.04 179.483 24.04C178.71 24.04 178.11 24.3 177.683 24.82C177.256 25.3267 177.043 26.04 177.043 26.96V32H174.523ZM186.367 27.08V26.76C186.367 25.72 186.574 24.8333 186.987 24.1C187.401 23.3533 187.947 22.7867 188.627 22.4C189.321 22 190.074 21.8 190.887 21.8C191.794 21.8 192.481 21.96 192.947 22.28C193.414 22.6 193.754 22.9333 193.967 23.28H194.327V22.08H196.807V33.76C196.807 34.44 196.607 34.98 196.207 35.38C195.807 35.7933 195.274 36 194.607 36H187.967V33.8H193.727C194.101 33.8 194.287 33.6 194.287 33.2V30.62H193.927C193.794 30.8333 193.607 31.0533 193.367 31.28C193.127 31.4933 192.807 31.6733 192.407 31.82C192.007 31.9667 191.501 32.04 190.887 32.04C190.074 32.04 189.321 31.8467 188.627 31.46C187.947 31.06 187.401 30.4933 186.987 29.76C186.574 29.0133 186.367 28.12 186.367 27.08ZM191.607 29.84C192.381 29.84 193.027 29.5933 193.547 29.1C194.067 28.6067 194.327 27.9133 194.327 27.02V26.82C194.327 25.9133 194.067 25.22 193.547 24.74C193.041 24.2467 192.394 24 191.607 24C190.834 24 190.187 24.2467 189.667 24.74C189.147 25.22 188.887 25.9133 188.887 26.82V27.02C188.887 27.9133 189.147 28.6067 189.667 29.1C190.187 29.5933 190.834 29.84 191.607 29.84ZM199.601 32V18H202.121V32H199.601ZM204.914 32V22.08H207.434V32H204.914ZM206.174 20.92C205.72 20.92 205.334 20.7733 205.014 20.48C204.707 20.1867 204.554 19.8 204.554 19.32C204.554 18.84 204.707 18.4533 205.014 18.16C205.334 17.8667 205.72 17.72 206.174 17.72C206.64 17.72 207.027 17.8667 207.334 18.16C207.64 18.4533 207.794 18.84 207.794 19.32C207.794 19.8 207.64 20.1867 207.334 20.48C207.027 20.7733 206.64 20.92 206.174 20.92ZM214.346 32.28C213.053 32.28 211.993 32 211.166 31.44C210.34 30.88 209.84 30.08 209.666 29.04L211.986 28.44C212.08 28.9067 212.233 29.2733 212.446 29.54C212.673 29.8067 212.946 30 213.266 30.12C213.6 30.2267 213.96 30.28 214.346 30.28C214.933 30.28 215.366 30.18 215.646 29.98C215.926 29.7667 216.066 29.5067 216.066 29.2C216.066 28.8933 215.933 28.66 215.666 28.5C215.4 28.3267 214.973 28.1867 214.386 28.08L213.826 27.98C213.133 27.8467 212.5 27.6667 211.926 27.44C211.353 27.2 210.893 26.8733 210.546 26.46C210.2 26.0467 210.026 25.5133 210.026 24.86C210.026 23.8733 210.386 23.12 211.106 22.6C211.826 22.0667 212.773 21.8 213.946 21.8C215.053 21.8 215.973 22.0467 216.706 22.54C217.44 23.0333 217.92 23.68 218.146 24.48L215.806 25.2C215.7 24.6933 215.48 24.3333 215.146 24.12C214.826 23.9067 214.426 23.8 213.946 23.8C213.466 23.8 213.1 23.8867 212.846 24.06C212.593 24.22 212.466 24.4467 212.466 24.74C212.466 25.06 212.6 25.3 212.866 25.46C213.133 25.6067 213.493 25.72 213.946 25.8L214.506 25.9C215.253 26.0333 215.926 26.2133 216.526 26.44C217.14 26.6533 217.62 26.9667 217.966 27.38C218.326 27.78 218.506 28.3267 218.506 29.02C218.506 30.06 218.126 30.8667 217.366 31.44C216.62 32 215.613 32.28 214.346 32.28ZM220.714 32V18H223.234V23.3H223.594C223.701 23.0867 223.868 22.8733 224.094 22.66C224.321 22.4467 224.621 22.2733 224.994 22.14C225.381 21.9933 225.868 21.92 226.454 21.92C227.228 21.92 227.901 22.1 228.474 22.46C229.061 22.8067 229.514 23.2933 229.834 23.92C230.154 24.5333 230.314 25.2533 230.314 26.08V32H227.794V26.28C227.794 25.5333 227.608 24.9733 227.234 24.6C226.874 24.2267 226.354 24.04 225.674 24.04C224.901 24.04 224.301 24.3 223.874 24.82C223.448 25.3267 223.234 26.04 223.234 26.96V32H220.714Z" fill="white"/>
</svg>
