<svg width="264" height="49" viewBox="0 0 264 49" fill="none" xmlns="http://www.w3.org/2000/svg">
<rect x="1.5" y="1.5" width="261" height="46" rx="5.5" fill="#A9431E" fill-opacity="0.5" stroke="#7D4016" stroke-width="3"/>
<path d="M32.9688 32V29.68H34.8088V20.32H32.9688V18H40.1688C41.0222 18 41.7622 18.1467 42.3888 18.44C43.0288 18.72 43.5222 19.1267 43.8688 19.66C44.2288 20.18 44.4088 20.8067 44.4088 21.54V21.74C44.4088 22.38 44.2888 22.9067 44.0488 23.32C43.8088 23.72 43.5222 24.0333 43.1888 24.26C42.8688 24.4733 42.5622 24.6267 42.2688 24.72V25.08C42.5622 25.16 42.8822 25.3133 43.2288 25.54C43.5755 25.7533 43.8688 26.0667 44.1088 26.48C44.3622 26.8933 44.4888 27.4333 44.4888 28.1V28.3C44.4888 29.0733 44.3088 29.74 43.9488 30.3C43.5888 30.8467 43.0888 31.2667 42.4488 31.56C41.8222 31.8533 41.0888 32 40.2488 32H32.9688ZM37.4488 29.6H39.9288C40.5022 29.6 40.9622 29.46 41.3088 29.18C41.6688 28.9 41.8488 28.5 41.8488 27.98V27.78C41.8488 27.26 41.6755 26.86 41.3288 26.58C40.9822 26.3 40.5155 26.16 39.9288 26.16H37.4488V29.6ZM37.4488 23.76H39.8888C40.4355 23.76 40.8822 23.62 41.2288 23.34C41.5888 23.06 41.7688 22.6733 41.7688 22.18V21.98C41.7688 21.4733 41.5955 21.0867 41.2488 20.82C40.9022 20.54 40.4488 20.4 39.8888 20.4H37.4488V23.76ZM46.7301 32V22.08H49.2101V23.2H49.5701C49.7167 22.8 49.9567 22.5067 50.2901 22.32C50.6367 22.1333 51.0367 22.04 51.4901 22.04H52.6901V24.28H51.4501C50.8101 24.28 50.2834 24.4533 49.8701 24.8C49.4567 25.1333 49.2501 25.6533 49.2501 26.36V32H46.7301ZM57.5054 32.28C56.7987 32.28 56.1654 32.16 55.6054 31.92C55.0454 31.6667 54.5987 31.3067 54.2654 30.84C53.9454 30.36 53.7854 29.78 53.7854 29.1C53.7854 28.42 53.9454 27.8533 54.2654 27.4C54.5987 26.9333 55.0521 26.5867 55.6254 26.36C56.2121 26.12 56.8787 26 57.6254 26H60.3454V25.44C60.3454 24.9733 60.1987 24.5933 59.9054 24.3C59.6121 23.9933 59.1454 23.84 58.5054 23.84C57.8787 23.84 57.4121 23.9867 57.1054 24.28C56.7987 24.56 56.5987 24.9267 56.5054 25.38L54.1854 24.6C54.3454 24.0933 54.5987 23.6333 54.9454 23.22C55.3054 22.7933 55.7787 22.4533 56.3654 22.2C56.9654 21.9333 57.6921 21.8 58.5454 21.8C59.8521 21.8 60.8854 22.1267 61.6454 22.78C62.4054 23.4333 62.7854 24.38 62.7854 25.62V29.32C62.7854 29.72 62.9721 29.92 63.3454 29.92H64.1454V32H62.4654C61.9721 32 61.5654 31.88 61.2454 31.64C60.9254 31.4 60.7654 31.08 60.7654 30.68V30.66H60.3854C60.3321 30.82 60.2121 31.0333 60.0254 31.3C59.8387 31.5533 59.5454 31.78 59.1454 31.98C58.7454 32.18 58.1987 32.28 57.5054 32.28ZM57.9454 30.24C58.6521 30.24 59.2254 30.0467 59.6654 29.66C60.1187 29.26 60.3454 28.7333 60.3454 28.08V27.88H57.8054C57.3387 27.88 56.9721 27.98 56.7054 28.18C56.4387 28.38 56.3054 28.66 56.3054 29.02C56.3054 29.38 56.4454 29.6733 56.7254 29.9C57.0054 30.1267 57.4121 30.24 57.9454 30.24ZM65.6279 32V29L71.0679 24.48V24.16H65.8279V22.08H73.8279V25.08L68.3879 29.6V29.92H73.9879V32H65.6279ZM76.3395 32V22.08H78.8595V32H76.3395ZM77.5995 20.92C77.1461 20.92 76.7595 20.7733 76.4395 20.48C76.1328 20.1867 75.9795 19.8 75.9795 19.32C75.9795 18.84 76.1328 18.4533 76.4395 18.16C76.7595 17.8667 77.1461 17.72 77.5995 17.72C78.0661 17.72 78.4528 17.8667 78.7595 18.16C79.0661 18.4533 79.2195 18.84 79.2195 19.32C79.2195 19.8 79.0661 20.1867 78.7595 20.48C78.4528 20.7733 78.0661 20.92 77.5995 20.92ZM81.652 32V18H84.172V32H81.652ZM86.9645 32V22.08H89.4845V32H86.9645ZM88.2245 20.92C87.7711 20.92 87.3845 20.7733 87.0645 20.48C86.7578 20.1867 86.6045 19.8 86.6045 19.32C86.6045 18.84 86.7578 18.4533 87.0645 18.16C87.3845 17.8667 87.7711 17.72 88.2245 17.72C88.6911 17.72 89.0778 17.8667 89.3845 18.16C89.6911 18.4533 89.8445 18.84 89.8445 19.32C89.8445 19.8 89.6911 20.1867 89.3845 20.48C89.0778 20.7733 88.6911 20.92 88.2245 20.92ZM95.357 32.28C94.6503 32.28 94.017 32.16 93.457 31.92C92.897 31.6667 92.4503 31.3067 92.117 30.84C91.797 30.36 91.637 29.78 91.637 29.1C91.637 28.42 91.797 27.8533 92.117 27.4C92.4503 26.9333 92.9036 26.5867 93.477 26.36C94.0636 26.12 94.7303 26 95.477 26H98.197V25.44C98.197 24.9733 98.0503 24.5933 97.757 24.3C97.4636 23.9933 96.997 23.84 96.357 23.84C95.7303 23.84 95.2636 23.9867 94.957 24.28C94.6503 24.56 94.4503 24.9267 94.357 25.38L92.037 24.6C92.197 24.0933 92.4503 23.6333 92.797 23.22C93.157 22.7933 93.6303 22.4533 94.217 22.2C94.817 21.9333 95.5436 21.8 96.397 21.8C97.7036 21.8 98.737 22.1267 99.497 22.78C100.257 23.4333 100.637 24.38 100.637 25.62V29.32C100.637 29.72 100.824 29.92 101.197 29.92H101.997V32H100.317C99.8236 32 99.417 31.88 99.097 31.64C98.777 31.4 98.617 31.08 98.617 30.68V30.66H98.237C98.1836 30.82 98.0636 31.0333 97.877 31.3C97.6903 31.5533 97.397 31.78 96.997 31.98C96.597 32.18 96.0503 32.28 95.357 32.28ZM95.797 30.24C96.5036 30.24 97.077 30.0467 97.517 29.66C97.9703 29.26 98.197 28.7333 98.197 28.08V27.88H95.657C95.1903 27.88 94.8236 27.98 94.557 28.18C94.2903 28.38 94.157 28.66 94.157 29.02C94.157 29.38 94.297 29.6733 94.577 29.9C94.857 30.1267 95.2636 30.24 95.797 30.24ZM103.839 32V22.08H106.319V23.38H106.679C106.839 23.0333 107.139 22.7067 107.579 22.4C108.019 22.08 108.686 21.92 109.579 21.92C110.353 21.92 111.026 22.1 111.599 22.46C112.186 22.8067 112.639 23.2933 112.959 23.92C113.279 24.5333 113.439 25.2533 113.439 26.08V32H110.919V26.28C110.919 25.5333 110.733 24.9733 110.359 24.6C109.999 24.2267 109.479 24.04 108.799 24.04C108.026 24.04 107.426 24.3 106.999 24.82C106.573 25.3267 106.359 26.04 106.359 26.96V32H103.839ZM121.162 32V18H126.922C127.802 18 128.575 18.18 129.242 18.54C129.922 18.8867 130.448 19.38 130.822 20.02C131.208 20.66 131.402 21.42 131.402 22.3V22.58C131.402 23.4467 131.202 24.2067 130.802 24.86C130.415 25.5 129.882 26 129.202 26.36C128.535 26.7067 127.775 26.88 126.922 26.88H123.802V32H121.162ZM123.802 24.48H126.662C127.288 24.48 127.795 24.3067 128.182 23.96C128.568 23.6133 128.762 23.14 128.762 22.54V22.34C128.762 21.74 128.568 21.2667 128.182 20.92C127.795 20.5733 127.288 20.4 126.662 20.4H123.802V24.48ZM137.798 32.28C136.811 32.28 135.924 32.08 135.138 31.68C134.351 31.28 133.731 30.7 133.278 29.94C132.824 29.18 132.598 28.2667 132.598 27.2V26.88C132.598 25.8133 132.824 24.9 133.278 24.14C133.731 23.38 134.351 22.8 135.138 22.4C135.924 22 136.811 21.8 137.798 21.8C138.784 21.8 139.671 22 140.458 22.4C141.244 22.8 141.864 23.38 142.318 24.14C142.771 24.9 142.998 25.8133 142.998 26.88V27.2C142.998 28.2667 142.771 29.18 142.318 29.94C141.864 30.7 141.244 31.28 140.458 31.68C139.671 32.08 138.784 32.28 137.798 32.28ZM137.798 30.04C138.571 30.04 139.211 29.7933 139.718 29.3C140.224 28.7933 140.478 28.0733 140.478 27.14V26.94C140.478 26.0067 140.224 25.2933 139.718 24.8C139.224 24.2933 138.584 24.04 137.798 24.04C137.024 24.04 136.384 24.2933 135.878 24.8C135.371 25.2933 135.118 26.0067 135.118 26.94V27.14C135.118 28.0733 135.371 28.7933 135.878 29.3C136.384 29.7933 137.024 30.04 137.798 30.04ZM145.324 32V22.08H147.804V23.2H148.164C148.31 22.8 148.55 22.5067 148.884 22.32C149.23 22.1333 149.63 22.04 150.084 22.04H151.284V24.28H150.044C149.404 24.28 148.877 24.4533 148.464 24.8C148.05 25.1333 147.844 25.6533 147.844 26.36V32H145.324ZM157.054 32C156.4 32 155.867 31.8 155.454 31.4C155.054 30.9867 154.854 30.44 154.854 29.76V24.16H152.374V22.08H154.854V19H157.374V22.08H160.094V24.16H157.374V29.32C157.374 29.72 157.56 29.92 157.934 29.92H159.854V32H157.054ZM166.155 32.16C165.381 32.16 164.701 31.9867 164.115 31.64C163.541 31.28 163.095 30.7867 162.775 30.16C162.455 29.5333 162.295 28.8133 162.295 28V22.08H164.815V27.8C164.815 28.5467 164.995 29.1067 165.355 29.48C165.728 29.8533 166.255 30.04 166.935 30.04C167.708 30.04 168.308 29.7867 168.735 29.28C169.161 28.76 169.375 28.04 169.375 27.12V22.08H171.895V32H169.415V30.7H169.055C168.895 31.0333 168.595 31.36 168.155 31.68C167.715 32 167.048 32.16 166.155 32.16ZM174.219 27.08V26.76C174.219 25.72 174.425 24.8333 174.839 24.1C175.252 23.3533 175.799 22.7867 176.479 22.4C177.172 22 177.925 21.8 178.739 21.8C179.645 21.8 180.332 21.96 180.799 22.28C181.265 22.6 181.605 22.9333 181.819 23.28H182.179V22.08H184.659V33.76C184.659 34.44 184.459 34.98 184.059 35.38C183.659 35.7933 183.125 36 182.459 36H175.819V33.8H181.579C181.952 33.8 182.139 33.6 182.139 33.2V30.62H181.779C181.645 30.8333 181.459 31.0533 181.219 31.28C180.979 31.4933 180.659 31.6733 180.259 31.82C179.859 31.9667 179.352 32.04 178.739 32.04C177.925 32.04 177.172 31.8467 176.479 31.46C175.799 31.06 175.252 30.4933 174.839 29.76C174.425 29.0133 174.219 28.12 174.219 27.08ZM179.459 29.84C180.232 29.84 180.879 29.5933 181.399 29.1C181.919 28.6067 182.179 27.9133 182.179 27.02V26.82C182.179 25.9133 181.919 25.22 181.399 24.74C180.892 24.2467 180.245 24 179.459 24C178.685 24 178.039 24.2467 177.519 24.74C176.999 25.22 176.739 25.9133 176.739 26.82V27.02C176.739 27.9133 176.999 28.6067 177.519 29.1C178.039 29.5933 178.685 29.84 179.459 29.84ZM191.233 32.16C190.459 32.16 189.779 31.9867 189.193 31.64C188.619 31.28 188.173 30.7867 187.853 30.16C187.533 29.5333 187.373 28.8133 187.373 28V22.08H189.893V27.8C189.893 28.5467 190.073 29.1067 190.433 29.48C190.806 29.8533 191.333 30.04 192.013 30.04C192.786 30.04 193.386 29.7867 193.813 29.28C194.239 28.76 194.453 28.04 194.453 27.12V22.08H196.973V32H194.493V30.7H194.133C193.973 31.0333 193.673 31.36 193.233 31.68C192.793 32 192.126 32.16 191.233 32.16ZM204.297 32.28C203.31 32.28 202.437 32.0733 201.677 31.66C200.93 31.2333 200.344 30.64 199.917 29.88C199.504 29.1067 199.297 28.2 199.297 27.16V26.92C199.297 25.88 199.504 24.98 199.917 24.22C200.33 23.4467 200.91 22.8533 201.657 22.44C202.404 22.0133 203.27 21.8 204.257 21.8C205.23 21.8 206.077 22.02 206.797 22.46C207.517 22.8867 208.077 23.4867 208.477 24.26C208.877 25.02 209.077 25.9067 209.077 26.92V27.78H201.857C201.884 28.46 202.137 29.0133 202.617 29.44C203.097 29.8667 203.684 30.08 204.377 30.08C205.084 30.08 205.604 29.9267 205.937 29.62C206.27 29.3133 206.524 28.9733 206.697 28.6L208.757 29.68C208.57 30.0267 208.297 30.4067 207.937 30.82C207.59 31.22 207.124 31.5667 206.537 31.86C205.95 32.14 205.204 32.28 204.297 32.28ZM201.877 25.9H206.517C206.464 25.3267 206.23 24.8667 205.817 24.52C205.417 24.1733 204.89 24 204.237 24C203.557 24 203.017 24.1733 202.617 24.52C202.217 24.8667 201.97 25.3267 201.877 25.9ZM215.44 32.28C214.147 32.28 213.087 32 212.26 31.44C211.433 30.88 210.933 30.08 210.76 29.04L213.08 28.44C213.173 28.9067 213.327 29.2733 213.54 29.54C213.767 29.8067 214.04 30 214.36 30.12C214.693 30.2267 215.053 30.28 215.44 30.28C216.027 30.28 216.46 30.18 216.74 29.98C217.02 29.7667 217.16 29.5067 217.16 29.2C217.16 28.8933 217.027 28.66 216.76 28.5C216.493 28.3267 216.067 28.1867 215.48 28.08L214.92 27.98C214.227 27.8467 213.593 27.6667 213.02 27.44C212.447 27.2 211.987 26.8733 211.64 26.46C211.293 26.0467 211.12 25.5133 211.12 24.86C211.12 23.8733 211.48 23.12 212.2 22.6C212.92 22.0667 213.867 21.8 215.04 21.8C216.147 21.8 217.067 22.0467 217.8 22.54C218.533 23.0333 219.013 23.68 219.24 24.48L216.9 25.2C216.793 24.6933 216.573 24.3333 216.24 24.12C215.92 23.9067 215.52 23.8 215.04 23.8C214.56 23.8 214.193 23.8867 213.94 24.06C213.687 24.22 213.56 24.4467 213.56 24.74C213.56 25.06 213.693 25.3 213.96 25.46C214.227 25.6067 214.587 25.72 215.04 25.8L215.6 25.9C216.347 26.0333 217.02 26.2133 217.62 26.44C218.233 26.6533 218.713 26.9667 219.06 27.38C219.42 27.78 219.6 28.3267 219.6 29.02C219.6 30.06 219.22 30.8667 218.46 31.44C217.713 32 216.707 32.28 215.44 32.28ZM226.328 32.28C225.342 32.28 224.468 32.0733 223.708 31.66C222.962 31.2333 222.375 30.64 221.948 29.88C221.535 29.1067 221.328 28.2 221.328 27.16V26.92C221.328 25.88 221.535 24.98 221.948 24.22C222.362 23.4467 222.942 22.8533 223.688 22.44C224.435 22.0133 225.302 21.8 226.288 21.8C227.262 21.8 228.108 22.02 228.828 22.46C229.548 22.8867 230.108 23.4867 230.508 24.26C230.908 25.02 231.108 25.9067 231.108 26.92V27.78H223.888C223.915 28.46 224.168 29.0133 224.648 29.44C225.128 29.8667 225.715 30.08 226.408 30.08C227.115 30.08 227.635 29.9267 227.968 29.62C228.302 29.3133 228.555 28.9733 228.728 28.6L230.788 29.68C230.602 30.0267 230.328 30.4067 229.968 30.82C229.622 31.22 229.155 31.5667 228.568 31.86C227.982 32.14 227.235 32.28 226.328 32.28ZM223.908 25.9H228.548C228.495 25.3267 228.262 24.8667 227.848 24.52C227.448 24.1733 226.922 24 226.268 24C225.588 24 225.048 24.1733 224.648 24.52C224.248 24.8667 224.002 25.3267 223.908 25.9Z" fill="white"/>
</svg>
