<?xml version="1.0" encoding="UTF-8" standalone="no"?>
<!-- Created with Inkscape (http://www.inkscape.org/) -->

<svg
   xmlns:dc="http://purl.org/dc/elements/1.1/"
   xmlns:cc="http://creativecommons.org/ns#"
   xmlns:rdf="http://www.w3.org/1999/02/22-rdf-syntax-ns#"
   xmlns:svg="http://www.w3.org/2000/svg"
   xmlns="http://www.w3.org/2000/svg"
   xmlns:sodipodi="http://sodipodi.sourceforge.net/DTD/sodipodi-0.dtd"
   xmlns:inkscape="http://www.inkscape.org/namespaces/inkscape"
   width="105mm"
   height="148mm"
   viewBox="0 0 105 148"
   version="1.1"
   id="svg8"
   inkscape:version="0.92.4 (5da689c313, 2019-01-14)"
   sodipodi:docname="X_upper.svg"
   inkscape:export-filename="C:\Users\humba\Google Drive\Humbanew Projects\Galaxy Experience\X_upper.png"
   inkscape:export-xdpi="117"
   inkscape:export-ydpi="117">
  <defs
     id="defs2" />
  <sodipodi:namedview
     id="base"
     pagecolor="#ffffff"
     bordercolor="#666666"
     borderopacity="1.0"
     inkscape:pageopacity="0.0"
     inkscape:pageshadow="2"
     inkscape:zoom="0.35"
     inkscape:cx="462.85714"
     inkscape:cy="560"
     inkscape:document-units="mm"
     inkscape:current-layer="layer1"
     showgrid="true"
     inkscape:window-width="760"
     inkscape:window-height="405"
     inkscape:window-x="52"
     inkscape:window-y="102"
     inkscape:window-maximized="0">
    <inkscape:grid
       type="xygrid"
       id="grid10" />
  </sodipodi:namedview>
  <metadata
     id="metadata5">
    <rdf:RDF>
      <cc:Work
         rdf:about="">
        <dc:format>image/svg+xml</dc:format>
        <dc:type
           rdf:resource="http://purl.org/dc/dcmitype/StillImage" />
        <dc:title />
      </cc:Work>
    </rdf:RDF>
  </metadata>
  <g
     inkscape:label="Camada 1"
     inkscape:groupmode="layer"
     id="layer1"
     transform="translate(0,-149)">
    <path
       style="fill:#000000;stroke:#000000;stroke-width:0.26458332px;stroke-linecap:butt;stroke-linejoin:miter;stroke-opacity:1"
       d="m 26.458323,180.58333 c 0,0 0,-10.58333 0,-10.58333 0,0 0,0 0,0 v 0 H 15.874993 L 5.2916657,180.58333 V 201.75 L 15.874993,222.91666 5.2916657,244.08333 V 265.25 l 10.5833273,10.58333 h 10.58333 V 254.66666 L 37.041663,233.5 h 31.75 l 10.58333,21.16666 H 100.54162 L 89.958323,265.25 h -10.58333 v 10.58333 h 10.58333 L 100.54162,265.25 v -10.58334 c 0,0 0,-10.58333 0,-10.58333 v 0 L 89.958323,222.91666 100.54162,201.75 v -21.16667 c 0,0 -10.583297,-10.58333 -10.583297,-10.58333 v 0 h -10.58333 v 21.16666 l -10.58333,21.16667 h -31.75 L 26.458323,191.16666 H 15.874993 L 5.2916657,180.58333 Z"
       id="path12"
       inkscape:connector-curvature="0" />
  </g>
</svg>
